M48
; DRILL file {KiCad 9.0.0} date 2025-03-18T17:16:04-0400
; FORMAT={-:-/ absolute / metric / decimal}
; #@! TF.CreationDate,2025-03-18T17:16:04-04:00
; #@! TF.GenerationSoftware,Kicad,Pcbnew,9.0.0
; #@! TF.FileFunction,Plated,1,2,PTH
FMAT,2
METRIC
; #@! TA.AperFunction,Plated,PTH,ViaDrill
T1C0.300
; #@! TA.AperFunction,Plated,PTH,ComponentDrill
T2C0.750
; #@! TA.AperFunction,Plated,PTH,ComponentDrill
T3C0.800
; #@! TA.AperFunction,Plated,PTH,ComponentDrill
T4C0.902
; #@! TA.AperFunction,Plated,PTH,ComponentDrill
T5C1.092
%
G90
G05
T1
X43.5Y-44.9
X43.5Y-61.9
X43.5Y-78.9
X43.5Y-95.9
X66.0Y-44.9
X66.0Y-61.9
X66.0Y-78.9
X66.0Y-95.9
X84.0Y-41.5
X84.0Y-58.5
X84.0Y-75.5
X84.0Y-92.5
X102.0Y-37.9
X102.0Y-54.9
X102.0Y-71.9
X102.0Y-88.9
X102.0Y-109.75
X120.0Y-41.5
X120.0Y-58.5
X120.0Y-75.5
X120.0Y-92.5
X122.03Y-113.253
X138.0Y-44.9
X138.0Y-61.9
X138.0Y-78.9
X138.0Y-95.9
X146.0Y-59.0
X146.0Y-82.5
X146.03Y-120.964
X147.0Y-68.5
X147.613Y-59.987
X148.0Y-68.5
X148.5Y-75.0
X150.0Y-69.5
X151.0Y-36.6
X151.5Y-78.5
X151.75Y-36.0
X152.5Y-35.35
X153.25Y-34.85
X154.0Y-34.35
X154.75Y-33.8
X156.5Y-38.96
X156.5Y-41.5
X156.5Y-44.04
X156.5Y-46.58
X156.5Y-49.12
X156.5Y-51.66
X156.5Y-54.2
X156.5Y-56.74
X156.5Y-59.28
X156.5Y-61.82
X156.5Y-64.36
X156.5Y-66.9
X156.5Y-79.5
X156.75Y-69.5
X158.03Y-132.964
X158.9Y-70.4
X159.5Y-71.0
X160.5Y-38.96
X160.5Y-41.5
X160.5Y-44.04
X160.5Y-46.58
X160.5Y-49.12
X160.5Y-51.66
X160.5Y-54.2
X160.5Y-56.74
X160.5Y-59.28
X160.5Y-61.82
X160.5Y-64.36
X160.5Y-66.9
X160.5Y-72.0
X161.5Y-76.5
X162.5Y-76.5
X164.5Y-76.0
T2
X151.05Y-72.0
X151.05Y-74.0
T3
X32.5Y-35.4
X32.5Y-43.02
X32.5Y-52.4
X32.5Y-60.02
X32.5Y-69.4
X32.5Y-77.02
X32.5Y-86.4
X32.5Y-94.02
X57.0Y-35.4
X57.0Y-43.02
X57.0Y-52.4
X57.0Y-60.02
X57.0Y-69.4
X57.0Y-77.02
X57.0Y-86.4
X57.0Y-94.02
X75.0Y-32.0
X75.0Y-39.62
X75.0Y-49.0
X75.0Y-56.62
X75.0Y-66.0
X75.0Y-73.62
X75.0Y-83.0
X75.0Y-90.62
X93.0Y-28.4
X93.0Y-36.02
X93.0Y-45.4
X93.0Y-53.02
X93.0Y-62.4
X93.0Y-70.02
X93.0Y-79.4
X93.0Y-87.02
X93.0Y-100.0
X93.0Y-107.62
X111.0Y-28.13
X111.0Y-35.75
X111.0Y-45.13
X111.0Y-52.75
X111.0Y-62.13
X111.0Y-69.75
X111.0Y-79.13
X111.0Y-86.75
X114.084Y-108.04
X117.0Y-101.0
X129.0Y-31.75
X129.0Y-39.37
X129.0Y-48.74
X129.0Y-56.36
X129.0Y-65.75
X129.0Y-73.37
X129.0Y-82.75
X129.0Y-90.37
X133.28Y-123.964
X138.668Y-129.352
X145.336Y-136.02
X150.724Y-141.408
T4
X161.089Y-80.513
X161.089Y-80.513
X163.911Y-79.487
X163.911Y-79.487
T5
X151.0Y-39.06
X151.0Y-41.6
X151.0Y-44.14
X151.0Y-46.68
X151.0Y-49.22
X151.0Y-51.76
X151.0Y-54.3
X151.0Y-56.84
X151.0Y-59.38
X151.0Y-61.92
X151.0Y-64.46
X151.0Y-67.0
X166.24Y-39.06
X166.24Y-41.6
X166.24Y-44.14
X166.24Y-46.68
X166.24Y-49.22
X166.24Y-51.76
X166.24Y-54.3
X166.24Y-56.84
X166.24Y-59.38
X166.24Y-61.92
X166.24Y-64.46
X166.24Y-67.0
M30
