M48
; DRILL file {KiCad 9.0.0} date 2025-03-18T17:16:04-0400
; FORMAT={-:-/ absolute / metric / decimal}
; #@! TF.CreationDate,2025-03-18T17:16:04-04:00
; #@! TF.GenerationSoftware,Kicad,Pcbnew,9.0.0
; #@! TF.FileFunction,NonPlated,1,2,NPTH
FMAT,2
METRIC
; #@! TA.AperFunction,NonPlated,NPTH,ComponentDrill
T1C0.991
; #@! TA.AperFunction,NonPlated,NPTH,ComponentDrill
T2C1.702
; #@! TA.AperFunction,NonPlated,NPTH,ComponentDrill
T3C2.200
; #@! TA.AperFunction,NonPlated,NPTH,ComponentDrill
T4C3.000
; #@! TA.AperFunction,NonPlated,NPTH,ComponentDrill
T5C3.429
%
G90
G05
T1
X38.28Y-37.7
X38.28Y-54.75
X38.28Y-71.75
X38.28Y-88.8
X48.72Y-37.7
X48.72Y-54.75
X48.72Y-71.75
X48.72Y-88.8
X60.78Y-37.7
X60.78Y-54.75
X60.78Y-71.75
X60.78Y-88.8
X71.22Y-37.7
X71.22Y-54.75
X71.22Y-71.75
X71.22Y-88.8
X78.78Y-34.3
X78.78Y-51.35
X78.78Y-68.35
X78.78Y-85.4
X89.22Y-34.3
X89.22Y-51.35
X89.22Y-68.35
X89.22Y-85.4
X96.76Y-102.4
X96.78Y-30.7
X96.78Y-47.75
X96.78Y-64.75
X96.78Y-81.8
X107.2Y-102.4
X107.22Y-30.7
X107.22Y-47.75
X107.22Y-64.75
X107.22Y-81.8
X114.78Y-34.3
X114.78Y-51.35
X114.78Y-68.35
X114.78Y-85.4
X119.855Y-104.744
X125.22Y-34.3
X125.22Y-51.35
X125.22Y-68.35
X125.22Y-85.4
X129.5Y-108.739
X132.78Y-37.7
X132.78Y-54.75
X132.78Y-71.75
X132.78Y-88.8
X137.119Y-119.485
X143.22Y-37.7
X143.22Y-54.75
X143.22Y-71.75
X143.22Y-88.8
X144.501Y-112.103
X149.18Y-131.554
X156.562Y-124.172
T2
X38.0Y-41.9
X38.0Y-58.95
X38.0Y-75.95
X38.0Y-93.0
X49.0Y-41.9
X49.0Y-58.95
X49.0Y-75.95
X49.0Y-93.0
X60.5Y-41.9
X60.5Y-58.95
X60.5Y-75.95
X60.5Y-93.0
X71.5Y-41.9
X71.5Y-58.95
X71.5Y-75.95
X71.5Y-93.0
X78.5Y-38.5
X78.5Y-55.55
X78.5Y-72.55
X78.5Y-89.6
X89.5Y-38.5
X89.5Y-55.55
X89.5Y-72.55
X89.5Y-89.6
X96.48Y-106.6
X96.5Y-34.9
X96.5Y-51.95
X96.5Y-68.95
X96.5Y-86.0
X107.48Y-106.6
X107.5Y-34.9
X107.5Y-51.95
X107.5Y-68.95
X107.5Y-86.0
X114.5Y-38.5
X114.5Y-55.55
X114.5Y-72.55
X114.5Y-89.6
X117.989Y-108.517
X125.5Y-38.5
X125.5Y-55.55
X125.5Y-72.55
X125.5Y-89.6
X128.151Y-112.727
X132.5Y-41.9
X132.5Y-58.95
X132.5Y-75.95
X132.5Y-93.0
X139.891Y-122.653
X143.5Y-41.9
X143.5Y-58.95
X143.5Y-75.95
X143.5Y-93.0
X147.669Y-114.875
X151.952Y-134.722
X159.73Y-126.944
T3
X53.0Y-39.0
X53.0Y-91.0
X102.0Y-97.0
X107.0Y-43.5
X147.0Y-40.0
X162.0Y-122.5
T4
X38.5Y-45.65
X38.5Y-62.7
X38.5Y-79.7
X38.5Y-96.75
X43.5Y-47.85
X43.5Y-64.9
X43.5Y-81.9
X43.5Y-98.95
X48.5Y-45.65
X48.5Y-62.7
X48.5Y-79.7
X48.5Y-96.75
X61.0Y-45.65
X61.0Y-62.7
X61.0Y-79.7
X61.0Y-96.75
X66.0Y-47.85
X66.0Y-64.9
X66.0Y-81.9
X66.0Y-98.95
X71.0Y-45.65
X71.0Y-62.7
X71.0Y-79.7
X71.0Y-96.75
X79.0Y-42.25
X79.0Y-59.3
X79.0Y-76.3
X79.0Y-93.35
X84.0Y-44.45
X84.0Y-61.5
X84.0Y-78.5
X84.0Y-95.55
X89.0Y-42.25
X89.0Y-59.3
X89.0Y-76.3
X89.0Y-93.35
X96.98Y-110.35
X97.0Y-38.65
X97.0Y-55.7
X97.0Y-72.7
X97.0Y-89.75
X101.98Y-112.55
X102.0Y-40.85
X102.0Y-57.9
X102.0Y-74.9
X102.0Y-91.95
X106.98Y-110.35
X107.0Y-38.65
X107.0Y-55.7
X107.0Y-72.7
X107.0Y-89.75
X115.0Y-42.25
X115.0Y-59.3
X115.0Y-76.3
X115.0Y-93.35
X117.016Y-112.173
X120.0Y-44.45
X120.0Y-61.5
X120.0Y-78.5
X120.0Y-95.55
X120.793Y-116.119
X125.0Y-42.25
X125.0Y-59.3
X125.0Y-76.3
X125.0Y-93.35
X126.254Y-116.0
X133.0Y-45.65
X133.0Y-62.7
X133.0Y-79.7
X133.0Y-96.75
X138.0Y-47.85
X138.0Y-64.9
X138.0Y-81.9
X138.0Y-98.95
X142.896Y-124.951
X143.0Y-45.65
X143.0Y-62.7
X143.0Y-79.7
X143.0Y-96.75
X147.987Y-122.971
X149.967Y-117.88
X154.957Y-137.02
X160.048Y-135.04
X162.028Y-129.949
T5
X43.5Y-41.9
X43.5Y-58.95
X43.5Y-75.95
X43.5Y-93.0
X66.0Y-41.9
X66.0Y-58.95
X66.0Y-75.95
X66.0Y-93.0
X84.0Y-38.5
X84.0Y-55.55
X84.0Y-72.55
X84.0Y-89.6
X101.98Y-106.6
X102.0Y-34.9
X102.0Y-51.95
X102.0Y-68.95
X102.0Y-86.0
X120.0Y-38.5
X120.0Y-55.55
X120.0Y-72.55
X120.0Y-89.6
X123.07Y-110.622
X138.0Y-41.9
X138.0Y-58.95
X138.0Y-75.95
X138.0Y-93.0
X143.78Y-118.764
X155.841Y-130.833
M30
