%TF.GenerationSoftware,KiCad,Pcbnew,9.0.0*%
%TF.CreationDate,2025-03-18T17:15:54-04:00*%
%TF.ProjectId,skylight,736b796c-6967-4687-942e-6b696361645f,1.0*%
%TF.SameCoordinates,Original*%
%TF.FileFunction,Legend,Top*%
%TF.FilePolarity,Positive*%
%FSLAX46Y46*%
G04 Gerber Fmt 4.6, Leading zero omitted, Abs format (unit mm)*
G04 Created by KiCad (PCBNEW 9.0.0) date 2025-03-18 17:15:54*
%MOMM*%
%LPD*%
G01*
G04 APERTURE LIST*
%ADD10C,0.250000*%
%ADD11C,0.100000*%
%ADD12C,0.150000*%
%ADD13C,0.120000*%
%ADD14C,0.381000*%
%ADD15C,1.752600*%
G04 APERTURE END LIST*
D10*
X79046602Y-103063274D02*
X79210917Y-103315670D01*
X79210917Y-103315670D02*
X79583587Y-103612105D01*
X79583587Y-103612105D02*
X79791943Y-103656145D01*
X79791943Y-103656145D02*
X79925764Y-103640898D01*
X79925764Y-103640898D02*
X80118872Y-103551117D01*
X80118872Y-103551117D02*
X80237446Y-103402049D01*
X80237446Y-103402049D02*
X80281486Y-103193694D01*
X80281486Y-103193694D02*
X80266239Y-103059872D01*
X80266239Y-103059872D02*
X80176458Y-102866764D01*
X80176458Y-102866764D02*
X79937609Y-102555081D01*
X79937609Y-102555081D02*
X79847828Y-102361973D01*
X79847828Y-102361973D02*
X79832581Y-102228152D01*
X79832581Y-102228152D02*
X79876621Y-102019797D01*
X79876621Y-102019797D02*
X79995195Y-101870728D01*
X79995195Y-101870728D02*
X80188304Y-101780947D01*
X80188304Y-101780947D02*
X80322125Y-101765700D01*
X80322125Y-101765700D02*
X80530480Y-101809740D01*
X80530480Y-101809740D02*
X80903151Y-102106176D01*
X80903151Y-102106176D02*
X81067466Y-102358571D01*
X80552531Y-104382838D02*
X81797560Y-102817621D01*
X81175896Y-103905139D02*
X81148804Y-104857134D01*
X81978823Y-103813657D02*
X80908253Y-103935633D01*
X82500562Y-104228667D02*
X82043213Y-105568580D01*
X83245903Y-104821538D02*
X82043213Y-105568580D01*
X82043213Y-105568580D02*
X81597710Y-105822676D01*
X81597710Y-105822676D02*
X81463888Y-105837923D01*
X81463888Y-105837923D02*
X81255533Y-105793883D01*
X83235759Y-106517174D02*
X83145978Y-106324066D01*
X83145978Y-106324066D02*
X83190018Y-106115710D01*
X83190018Y-106115710D02*
X84257186Y-104774096D01*
X83832032Y-106991471D02*
X84662052Y-105947993D01*
X85077062Y-105426254D02*
X84943240Y-105441502D01*
X84943240Y-105441502D02*
X84958487Y-105575323D01*
X84958487Y-105575323D02*
X85092309Y-105560076D01*
X85092309Y-105560076D02*
X85077062Y-105426254D01*
X85077062Y-105426254D02*
X84958487Y-105575323D01*
X86078200Y-107074448D02*
X85070319Y-108341528D01*
X85070319Y-108341528D02*
X84877211Y-108431309D01*
X84877211Y-108431309D02*
X84743390Y-108446556D01*
X84743390Y-108446556D02*
X84535034Y-108402516D01*
X84535034Y-108402516D02*
X84311432Y-108224655D01*
X84311432Y-108224655D02*
X84221651Y-108031547D01*
X85307468Y-108043392D02*
X85099112Y-107999352D01*
X85099112Y-107999352D02*
X84800976Y-107762203D01*
X84800976Y-107762203D02*
X84711195Y-107569095D01*
X84711195Y-107569095D02*
X84695948Y-107435274D01*
X84695948Y-107435274D02*
X84739988Y-107226918D01*
X84739988Y-107226918D02*
X85095710Y-106779714D01*
X85095710Y-106779714D02*
X85288819Y-106689933D01*
X85288819Y-106689933D02*
X85422640Y-106674686D01*
X85422640Y-106674686D02*
X85630995Y-106718726D01*
X85630995Y-106718726D02*
X85929132Y-106955874D01*
X85929132Y-106955874D02*
X86018913Y-107148982D01*
X85993522Y-108710797D02*
X87238551Y-107145581D01*
X86664329Y-109244381D02*
X87316487Y-108424506D01*
X87316487Y-108424506D02*
X87360527Y-108216151D01*
X87360527Y-108216151D02*
X87270746Y-108023042D01*
X87270746Y-108023042D02*
X87047144Y-107845181D01*
X87047144Y-107845181D02*
X86838788Y-107801141D01*
X86838788Y-107801141D02*
X86704967Y-107816388D01*
X88016087Y-108615913D02*
X88612360Y-109090210D01*
X88654699Y-108272036D02*
X87587531Y-109613650D01*
X87587531Y-109613650D02*
X87543491Y-109822005D01*
X87543491Y-109822005D02*
X87633272Y-110015114D01*
X87633272Y-110015114D02*
X87782340Y-110133688D01*
D11*
X158170038Y-71672306D02*
X158122419Y-71767544D01*
X158122419Y-71767544D02*
X158122419Y-71910401D01*
X158122419Y-71910401D02*
X158170038Y-72053258D01*
X158170038Y-72053258D02*
X158265276Y-72148496D01*
X158265276Y-72148496D02*
X158360514Y-72196115D01*
X158360514Y-72196115D02*
X158550990Y-72243734D01*
X158550990Y-72243734D02*
X158693847Y-72243734D01*
X158693847Y-72243734D02*
X158884323Y-72196115D01*
X158884323Y-72196115D02*
X158979561Y-72148496D01*
X158979561Y-72148496D02*
X159074800Y-72053258D01*
X159074800Y-72053258D02*
X159122419Y-71910401D01*
X159122419Y-71910401D02*
X159122419Y-71815163D01*
X159122419Y-71815163D02*
X159074800Y-71672306D01*
X159074800Y-71672306D02*
X159027180Y-71624687D01*
X159027180Y-71624687D02*
X158693847Y-71624687D01*
X158693847Y-71624687D02*
X158693847Y-71815163D01*
X159122419Y-71196115D02*
X158122419Y-71196115D01*
X158122419Y-71196115D02*
X159122419Y-70624687D01*
X159122419Y-70624687D02*
X158122419Y-70624687D01*
X159122419Y-70148496D02*
X158122419Y-70148496D01*
X158122419Y-70148496D02*
X158122419Y-69910401D01*
X158122419Y-69910401D02*
X158170038Y-69767544D01*
X158170038Y-69767544D02*
X158265276Y-69672306D01*
X158265276Y-69672306D02*
X158360514Y-69624687D01*
X158360514Y-69624687D02*
X158550990Y-69577068D01*
X158550990Y-69577068D02*
X158693847Y-69577068D01*
X158693847Y-69577068D02*
X158884323Y-69624687D01*
X158884323Y-69624687D02*
X158979561Y-69672306D01*
X158979561Y-69672306D02*
X159074800Y-69767544D01*
X159074800Y-69767544D02*
X159122419Y-69910401D01*
X159122419Y-69910401D02*
X159122419Y-70148496D01*
X150178889Y-81180738D02*
X149702792Y-80847272D01*
X149641922Y-81376178D02*
X149299902Y-80436485D01*
X149299902Y-80436485D02*
X149657880Y-80306192D01*
X149657880Y-80306192D02*
X149763661Y-80318366D01*
X149763661Y-80318366D02*
X149824695Y-80346827D01*
X149824695Y-80346827D02*
X149902016Y-80420034D01*
X149902016Y-80420034D02*
X149950876Y-80554276D01*
X149950876Y-80554276D02*
X149938702Y-80660057D01*
X149938702Y-80660057D02*
X149910241Y-80721091D01*
X149910241Y-80721091D02*
X149837033Y-80798412D01*
X149837033Y-80798412D02*
X149479055Y-80928705D01*
X150402461Y-80541938D02*
X150715692Y-80427931D01*
X151029087Y-80871291D02*
X150581615Y-81034158D01*
X150581615Y-81034158D02*
X150239594Y-80094465D01*
X150239594Y-80094465D02*
X150687067Y-79931599D01*
X151370779Y-80696251D02*
X151521307Y-80692138D01*
X151521307Y-80692138D02*
X151745044Y-80610704D01*
X151745044Y-80610704D02*
X151818252Y-80533384D01*
X151818252Y-80533384D02*
X151846712Y-80472350D01*
X151846712Y-80472350D02*
X151858886Y-80366569D01*
X151858886Y-80366569D02*
X151826313Y-80277074D01*
X151826313Y-80277074D02*
X151748992Y-80203866D01*
X151748992Y-80203866D02*
X151687958Y-80175406D01*
X151687958Y-80175406D02*
X151582177Y-80163232D01*
X151582177Y-80163232D02*
X151386901Y-80183631D01*
X151386901Y-80183631D02*
X151281120Y-80171457D01*
X151281120Y-80171457D02*
X151220086Y-80142997D01*
X151220086Y-80142997D02*
X151142765Y-80069789D01*
X151142765Y-80069789D02*
X151110192Y-79980294D01*
X151110192Y-79980294D02*
X151122366Y-79874513D01*
X151122366Y-79874513D02*
X151150827Y-79813479D01*
X151150827Y-79813479D02*
X151224034Y-79736158D01*
X151224034Y-79736158D02*
X151447771Y-79654725D01*
X151447771Y-79654725D02*
X151598299Y-79650612D01*
X152147605Y-79906758D02*
X152460836Y-79792751D01*
X152774231Y-80236111D02*
X152326758Y-80398978D01*
X152326758Y-80398978D02*
X151984738Y-79459285D01*
X151984738Y-79459285D02*
X152432211Y-79296418D01*
X152700694Y-79198698D02*
X153237662Y-79003258D01*
X153311198Y-80040671D02*
X152969178Y-79100978D01*
X167728660Y-77578891D02*
X167793807Y-77757880D01*
X167793807Y-77757880D02*
X167781633Y-77863661D01*
X167781633Y-77863661D02*
X167724712Y-77985729D01*
X167724712Y-77985729D02*
X167562009Y-78095623D01*
X167562009Y-78095623D02*
X167248779Y-78209630D01*
X167248779Y-78209630D02*
X167053503Y-78230029D01*
X167053503Y-78230029D02*
X166931435Y-78173108D01*
X166931435Y-78173108D02*
X166854114Y-78099900D01*
X166854114Y-78099900D02*
X166788968Y-77920911D01*
X166788968Y-77920911D02*
X166801142Y-77815130D01*
X166801142Y-77815130D02*
X166858063Y-77693062D01*
X166858063Y-77693062D02*
X167020765Y-77583168D01*
X167020765Y-77583168D02*
X167333996Y-77469161D01*
X167333996Y-77469161D02*
X167529272Y-77448762D01*
X167529272Y-77448762D02*
X167651340Y-77505683D01*
X167651340Y-77505683D02*
X167728660Y-77578891D01*
X167082128Y-78726362D02*
X168021820Y-78384342D01*
X168021820Y-78384342D02*
X167277568Y-79263329D01*
X167277568Y-79263329D02*
X168217260Y-78921309D01*
X158122419Y-76291353D02*
X158122419Y-75672306D01*
X158122419Y-75672306D02*
X158503371Y-76005639D01*
X158503371Y-76005639D02*
X158503371Y-75862782D01*
X158503371Y-75862782D02*
X158550990Y-75767544D01*
X158550990Y-75767544D02*
X158598609Y-75719925D01*
X158598609Y-75719925D02*
X158693847Y-75672306D01*
X158693847Y-75672306D02*
X158931942Y-75672306D01*
X158931942Y-75672306D02*
X159027180Y-75719925D01*
X159027180Y-75719925D02*
X159074800Y-75767544D01*
X159074800Y-75767544D02*
X159122419Y-75862782D01*
X159122419Y-75862782D02*
X159122419Y-76148496D01*
X159122419Y-76148496D02*
X159074800Y-76243734D01*
X159074800Y-76243734D02*
X159027180Y-76291353D01*
X159027180Y-75243734D02*
X159074800Y-75196115D01*
X159074800Y-75196115D02*
X159122419Y-75243734D01*
X159122419Y-75243734D02*
X159074800Y-75291353D01*
X159074800Y-75291353D02*
X159027180Y-75243734D01*
X159027180Y-75243734D02*
X159122419Y-75243734D01*
X158122419Y-74862782D02*
X158122419Y-74196116D01*
X158122419Y-74196116D02*
X159122419Y-74624687D01*
X158122419Y-73958020D02*
X159122419Y-73624687D01*
X159122419Y-73624687D02*
X158122419Y-73291354D01*
X78324686Y-98995808D02*
X78562781Y-99662475D01*
X78562781Y-99662475D02*
X78800876Y-98995808D01*
X79705638Y-99662475D02*
X79134210Y-99662475D01*
X79419924Y-99662475D02*
X79419924Y-98662475D01*
X79419924Y-98662475D02*
X79324686Y-98805332D01*
X79324686Y-98805332D02*
X79229448Y-98900570D01*
X79229448Y-98900570D02*
X79134210Y-98948189D01*
X80134210Y-99567236D02*
X80181829Y-99614856D01*
X80181829Y-99614856D02*
X80134210Y-99662475D01*
X80134210Y-99662475D02*
X80086591Y-99614856D01*
X80086591Y-99614856D02*
X80134210Y-99567236D01*
X80134210Y-99567236D02*
X80134210Y-99662475D01*
X80800876Y-98662475D02*
X80896114Y-98662475D01*
X80896114Y-98662475D02*
X80991352Y-98710094D01*
X80991352Y-98710094D02*
X81038971Y-98757713D01*
X81038971Y-98757713D02*
X81086590Y-98852951D01*
X81086590Y-98852951D02*
X81134209Y-99043427D01*
X81134209Y-99043427D02*
X81134209Y-99281522D01*
X81134209Y-99281522D02*
X81086590Y-99471998D01*
X81086590Y-99471998D02*
X81038971Y-99567236D01*
X81038971Y-99567236D02*
X80991352Y-99614856D01*
X80991352Y-99614856D02*
X80896114Y-99662475D01*
X80896114Y-99662475D02*
X80800876Y-99662475D01*
X80800876Y-99662475D02*
X80705638Y-99614856D01*
X80705638Y-99614856D02*
X80658019Y-99567236D01*
X80658019Y-99567236D02*
X80610400Y-99471998D01*
X80610400Y-99471998D02*
X80562781Y-99281522D01*
X80562781Y-99281522D02*
X80562781Y-99043427D01*
X80562781Y-99043427D02*
X80610400Y-98852951D01*
X80610400Y-98852951D02*
X80658019Y-98757713D01*
X80658019Y-98757713D02*
X80705638Y-98710094D01*
X80705638Y-98710094D02*
X80800876Y-98662475D01*
X82753257Y-99662475D02*
X82753257Y-98662475D01*
X82753257Y-99614856D02*
X82658019Y-99662475D01*
X82658019Y-99662475D02*
X82467543Y-99662475D01*
X82467543Y-99662475D02*
X82372305Y-99614856D01*
X82372305Y-99614856D02*
X82324686Y-99567236D01*
X82324686Y-99567236D02*
X82277067Y-99471998D01*
X82277067Y-99471998D02*
X82277067Y-99186284D01*
X82277067Y-99186284D02*
X82324686Y-99091046D01*
X82324686Y-99091046D02*
X82372305Y-99043427D01*
X82372305Y-99043427D02*
X82467543Y-98995808D01*
X82467543Y-98995808D02*
X82658019Y-98995808D01*
X82658019Y-98995808D02*
X82753257Y-99043427D01*
X83610400Y-99614856D02*
X83515162Y-99662475D01*
X83515162Y-99662475D02*
X83324686Y-99662475D01*
X83324686Y-99662475D02*
X83229448Y-99614856D01*
X83229448Y-99614856D02*
X83181829Y-99519617D01*
X83181829Y-99519617D02*
X83181829Y-99138665D01*
X83181829Y-99138665D02*
X83229448Y-99043427D01*
X83229448Y-99043427D02*
X83324686Y-98995808D01*
X83324686Y-98995808D02*
X83515162Y-98995808D01*
X83515162Y-98995808D02*
X83610400Y-99043427D01*
X83610400Y-99043427D02*
X83658019Y-99138665D01*
X83658019Y-99138665D02*
X83658019Y-99233903D01*
X83658019Y-99233903D02*
X83181829Y-99329141D01*
X84038972Y-99614856D02*
X84134210Y-99662475D01*
X84134210Y-99662475D02*
X84324686Y-99662475D01*
X84324686Y-99662475D02*
X84419924Y-99614856D01*
X84419924Y-99614856D02*
X84467543Y-99519617D01*
X84467543Y-99519617D02*
X84467543Y-99471998D01*
X84467543Y-99471998D02*
X84419924Y-99376760D01*
X84419924Y-99376760D02*
X84324686Y-99329141D01*
X84324686Y-99329141D02*
X84181829Y-99329141D01*
X84181829Y-99329141D02*
X84086591Y-99281522D01*
X84086591Y-99281522D02*
X84038972Y-99186284D01*
X84038972Y-99186284D02*
X84038972Y-99138665D01*
X84038972Y-99138665D02*
X84086591Y-99043427D01*
X84086591Y-99043427D02*
X84181829Y-98995808D01*
X84181829Y-98995808D02*
X84324686Y-98995808D01*
X84324686Y-98995808D02*
X84419924Y-99043427D01*
X84896115Y-99662475D02*
X84896115Y-98995808D01*
X84896115Y-98662475D02*
X84848496Y-98710094D01*
X84848496Y-98710094D02*
X84896115Y-98757713D01*
X84896115Y-98757713D02*
X84943734Y-98710094D01*
X84943734Y-98710094D02*
X84896115Y-98662475D01*
X84896115Y-98662475D02*
X84896115Y-98757713D01*
X85800876Y-98995808D02*
X85800876Y-99805332D01*
X85800876Y-99805332D02*
X85753257Y-99900570D01*
X85753257Y-99900570D02*
X85705638Y-99948189D01*
X85705638Y-99948189D02*
X85610400Y-99995808D01*
X85610400Y-99995808D02*
X85467543Y-99995808D01*
X85467543Y-99995808D02*
X85372305Y-99948189D01*
X85800876Y-99614856D02*
X85705638Y-99662475D01*
X85705638Y-99662475D02*
X85515162Y-99662475D01*
X85515162Y-99662475D02*
X85419924Y-99614856D01*
X85419924Y-99614856D02*
X85372305Y-99567236D01*
X85372305Y-99567236D02*
X85324686Y-99471998D01*
X85324686Y-99471998D02*
X85324686Y-99186284D01*
X85324686Y-99186284D02*
X85372305Y-99091046D01*
X85372305Y-99091046D02*
X85419924Y-99043427D01*
X85419924Y-99043427D02*
X85515162Y-98995808D01*
X85515162Y-98995808D02*
X85705638Y-98995808D01*
X85705638Y-98995808D02*
X85800876Y-99043427D01*
X86277067Y-98995808D02*
X86277067Y-99662475D01*
X86277067Y-99091046D02*
X86324686Y-99043427D01*
X86324686Y-99043427D02*
X86419924Y-98995808D01*
X86419924Y-98995808D02*
X86562781Y-98995808D01*
X86562781Y-98995808D02*
X86658019Y-99043427D01*
X86658019Y-99043427D02*
X86705638Y-99138665D01*
X86705638Y-99138665D02*
X86705638Y-99662475D01*
X87562781Y-99614856D02*
X87467543Y-99662475D01*
X87467543Y-99662475D02*
X87277067Y-99662475D01*
X87277067Y-99662475D02*
X87181829Y-99614856D01*
X87181829Y-99614856D02*
X87134210Y-99519617D01*
X87134210Y-99519617D02*
X87134210Y-99138665D01*
X87134210Y-99138665D02*
X87181829Y-99043427D01*
X87181829Y-99043427D02*
X87277067Y-98995808D01*
X87277067Y-98995808D02*
X87467543Y-98995808D01*
X87467543Y-98995808D02*
X87562781Y-99043427D01*
X87562781Y-99043427D02*
X87610400Y-99138665D01*
X87610400Y-99138665D02*
X87610400Y-99233903D01*
X87610400Y-99233903D02*
X87134210Y-99329141D01*
X88467543Y-99662475D02*
X88467543Y-98662475D01*
X88467543Y-99614856D02*
X88372305Y-99662475D01*
X88372305Y-99662475D02*
X88181829Y-99662475D01*
X88181829Y-99662475D02*
X88086591Y-99614856D01*
X88086591Y-99614856D02*
X88038972Y-99567236D01*
X88038972Y-99567236D02*
X87991353Y-99471998D01*
X87991353Y-99471998D02*
X87991353Y-99186284D01*
X87991353Y-99186284D02*
X88038972Y-99091046D01*
X88038972Y-99091046D02*
X88086591Y-99043427D01*
X88086591Y-99043427D02*
X88181829Y-98995808D01*
X88181829Y-98995808D02*
X88372305Y-98995808D01*
X88372305Y-98995808D02*
X88467543Y-99043427D01*
X89705639Y-99662475D02*
X89705639Y-98662475D01*
X89705639Y-99043427D02*
X89800877Y-98995808D01*
X89800877Y-98995808D02*
X89991353Y-98995808D01*
X89991353Y-98995808D02*
X90086591Y-99043427D01*
X90086591Y-99043427D02*
X90134210Y-99091046D01*
X90134210Y-99091046D02*
X90181829Y-99186284D01*
X90181829Y-99186284D02*
X90181829Y-99471998D01*
X90181829Y-99471998D02*
X90134210Y-99567236D01*
X90134210Y-99567236D02*
X90086591Y-99614856D01*
X90086591Y-99614856D02*
X89991353Y-99662475D01*
X89991353Y-99662475D02*
X89800877Y-99662475D01*
X89800877Y-99662475D02*
X89705639Y-99614856D01*
X90515163Y-98995808D02*
X90753258Y-99662475D01*
X90991353Y-98995808D02*
X90753258Y-99662475D01*
X90753258Y-99662475D02*
X90658020Y-99900570D01*
X90658020Y-99900570D02*
X90610401Y-99948189D01*
X90610401Y-99948189D02*
X90515163Y-99995808D01*
X82991352Y-100986704D02*
X83467542Y-100986704D01*
X82896114Y-101272419D02*
X83229447Y-100272419D01*
X83229447Y-100272419D02*
X83562780Y-101272419D01*
X84038971Y-101272419D02*
X83943733Y-101224800D01*
X83943733Y-101224800D02*
X83896114Y-101129561D01*
X83896114Y-101129561D02*
X83896114Y-100272419D01*
X84848495Y-101272419D02*
X84848495Y-100272419D01*
X84848495Y-101224800D02*
X84753257Y-101272419D01*
X84753257Y-101272419D02*
X84562781Y-101272419D01*
X84562781Y-101272419D02*
X84467543Y-101224800D01*
X84467543Y-101224800D02*
X84419924Y-101177180D01*
X84419924Y-101177180D02*
X84372305Y-101081942D01*
X84372305Y-101081942D02*
X84372305Y-100796228D01*
X84372305Y-100796228D02*
X84419924Y-100700990D01*
X84419924Y-100700990D02*
X84467543Y-100653371D01*
X84467543Y-100653371D02*
X84562781Y-100605752D01*
X84562781Y-100605752D02*
X84753257Y-100605752D01*
X84753257Y-100605752D02*
X84848495Y-100653371D01*
X85705638Y-101224800D02*
X85610400Y-101272419D01*
X85610400Y-101272419D02*
X85419924Y-101272419D01*
X85419924Y-101272419D02*
X85324686Y-101224800D01*
X85324686Y-101224800D02*
X85277067Y-101129561D01*
X85277067Y-101129561D02*
X85277067Y-100748609D01*
X85277067Y-100748609D02*
X85324686Y-100653371D01*
X85324686Y-100653371D02*
X85419924Y-100605752D01*
X85419924Y-100605752D02*
X85610400Y-100605752D01*
X85610400Y-100605752D02*
X85705638Y-100653371D01*
X85705638Y-100653371D02*
X85753257Y-100748609D01*
X85753257Y-100748609D02*
X85753257Y-100843847D01*
X85753257Y-100843847D02*
X85277067Y-100939085D01*
X86181829Y-100605752D02*
X86181829Y-101272419D01*
X86181829Y-100700990D02*
X86229448Y-100653371D01*
X86229448Y-100653371D02*
X86324686Y-100605752D01*
X86324686Y-100605752D02*
X86467543Y-100605752D01*
X86467543Y-100605752D02*
X86562781Y-100653371D01*
X86562781Y-100653371D02*
X86610400Y-100748609D01*
X86610400Y-100748609D02*
X86610400Y-101272419D01*
X88181829Y-100748609D02*
X88324686Y-100796228D01*
X88324686Y-100796228D02*
X88372305Y-100843847D01*
X88372305Y-100843847D02*
X88419924Y-100939085D01*
X88419924Y-100939085D02*
X88419924Y-101081942D01*
X88419924Y-101081942D02*
X88372305Y-101177180D01*
X88372305Y-101177180D02*
X88324686Y-101224800D01*
X88324686Y-101224800D02*
X88229448Y-101272419D01*
X88229448Y-101272419D02*
X87848496Y-101272419D01*
X87848496Y-101272419D02*
X87848496Y-100272419D01*
X87848496Y-100272419D02*
X88181829Y-100272419D01*
X88181829Y-100272419D02*
X88277067Y-100320038D01*
X88277067Y-100320038D02*
X88324686Y-100367657D01*
X88324686Y-100367657D02*
X88372305Y-100462895D01*
X88372305Y-100462895D02*
X88372305Y-100558133D01*
X88372305Y-100558133D02*
X88324686Y-100653371D01*
X88324686Y-100653371D02*
X88277067Y-100700990D01*
X88277067Y-100700990D02*
X88181829Y-100748609D01*
X88181829Y-100748609D02*
X87848496Y-100748609D01*
X89229448Y-101224800D02*
X89134210Y-101272419D01*
X89134210Y-101272419D02*
X88943734Y-101272419D01*
X88943734Y-101272419D02*
X88848496Y-101224800D01*
X88848496Y-101224800D02*
X88800877Y-101129561D01*
X88800877Y-101129561D02*
X88800877Y-100748609D01*
X88800877Y-100748609D02*
X88848496Y-100653371D01*
X88848496Y-100653371D02*
X88943734Y-100605752D01*
X88943734Y-100605752D02*
X89134210Y-100605752D01*
X89134210Y-100605752D02*
X89229448Y-100653371D01*
X89229448Y-100653371D02*
X89277067Y-100748609D01*
X89277067Y-100748609D02*
X89277067Y-100843847D01*
X89277067Y-100843847D02*
X88800877Y-100939085D01*
X90134210Y-101224800D02*
X90038972Y-101272419D01*
X90038972Y-101272419D02*
X89848496Y-101272419D01*
X89848496Y-101272419D02*
X89753258Y-101224800D01*
X89753258Y-101224800D02*
X89705639Y-101177180D01*
X89705639Y-101177180D02*
X89658020Y-101081942D01*
X89658020Y-101081942D02*
X89658020Y-100796228D01*
X89658020Y-100796228D02*
X89705639Y-100700990D01*
X89705639Y-100700990D02*
X89753258Y-100653371D01*
X89753258Y-100653371D02*
X89848496Y-100605752D01*
X89848496Y-100605752D02*
X90038972Y-100605752D01*
X90038972Y-100605752D02*
X90134210Y-100653371D01*
X90562782Y-101272419D02*
X90562782Y-100272419D01*
X90658020Y-100891466D02*
X90943734Y-101272419D01*
X90943734Y-100605752D02*
X90562782Y-100986704D01*
X157728660Y-80828891D02*
X157793807Y-81007880D01*
X157793807Y-81007880D02*
X157781633Y-81113661D01*
X157781633Y-81113661D02*
X157724712Y-81235729D01*
X157724712Y-81235729D02*
X157562009Y-81345623D01*
X157562009Y-81345623D02*
X157248779Y-81459630D01*
X157248779Y-81459630D02*
X157053503Y-81480029D01*
X157053503Y-81480029D02*
X156931435Y-81423108D01*
X156931435Y-81423108D02*
X156854114Y-81349900D01*
X156854114Y-81349900D02*
X156788968Y-81170911D01*
X156788968Y-81170911D02*
X156801142Y-81065130D01*
X156801142Y-81065130D02*
X156858063Y-80943062D01*
X156858063Y-80943062D02*
X157020765Y-80833168D01*
X157020765Y-80833168D02*
X157333996Y-80719161D01*
X157333996Y-80719161D02*
X157529272Y-80698762D01*
X157529272Y-80698762D02*
X157651340Y-80755683D01*
X157651340Y-80755683D02*
X157728660Y-80828891D01*
X157688354Y-82110439D02*
X157574348Y-81797208D01*
X157082128Y-81976362D02*
X158021820Y-81634342D01*
X158021820Y-81634342D02*
X158184687Y-82081814D01*
X157981515Y-82915890D02*
X157867508Y-82602659D01*
X157375288Y-82781813D02*
X158314981Y-82439793D01*
X158314981Y-82439793D02*
X158477847Y-82887265D01*
D12*
X46135476Y-74452200D02*
X46278333Y-74499819D01*
X46278333Y-74499819D02*
X46516428Y-74499819D01*
X46516428Y-74499819D02*
X46611666Y-74452200D01*
X46611666Y-74452200D02*
X46659285Y-74404580D01*
X46659285Y-74404580D02*
X46706904Y-74309342D01*
X46706904Y-74309342D02*
X46706904Y-74214104D01*
X46706904Y-74214104D02*
X46659285Y-74118866D01*
X46659285Y-74118866D02*
X46611666Y-74071247D01*
X46611666Y-74071247D02*
X46516428Y-74023628D01*
X46516428Y-74023628D02*
X46325952Y-73976009D01*
X46325952Y-73976009D02*
X46230714Y-73928390D01*
X46230714Y-73928390D02*
X46183095Y-73880771D01*
X46183095Y-73880771D02*
X46135476Y-73785533D01*
X46135476Y-73785533D02*
X46135476Y-73690295D01*
X46135476Y-73690295D02*
X46183095Y-73595057D01*
X46183095Y-73595057D02*
X46230714Y-73547438D01*
X46230714Y-73547438D02*
X46325952Y-73499819D01*
X46325952Y-73499819D02*
X46564047Y-73499819D01*
X46564047Y-73499819D02*
X46706904Y-73547438D01*
X47040238Y-73499819D02*
X47278333Y-74499819D01*
X47278333Y-74499819D02*
X47468809Y-73785533D01*
X47468809Y-73785533D02*
X47659285Y-74499819D01*
X47659285Y-74499819D02*
X47897381Y-73499819D01*
X48802142Y-74499819D02*
X48230714Y-74499819D01*
X48516428Y-74499819D02*
X48516428Y-73499819D01*
X48516428Y-73499819D02*
X48421190Y-73642676D01*
X48421190Y-73642676D02*
X48325952Y-73737914D01*
X48325952Y-73737914D02*
X48230714Y-73785533D01*
X49135476Y-73499819D02*
X49754523Y-73499819D01*
X49754523Y-73499819D02*
X49421190Y-73880771D01*
X49421190Y-73880771D02*
X49564047Y-73880771D01*
X49564047Y-73880771D02*
X49659285Y-73928390D01*
X49659285Y-73928390D02*
X49706904Y-73976009D01*
X49706904Y-73976009D02*
X49754523Y-74071247D01*
X49754523Y-74071247D02*
X49754523Y-74309342D01*
X49754523Y-74309342D02*
X49706904Y-74404580D01*
X49706904Y-74404580D02*
X49659285Y-74452200D01*
X49659285Y-74452200D02*
X49564047Y-74499819D01*
X49564047Y-74499819D02*
X49278333Y-74499819D01*
X49278333Y-74499819D02*
X49183095Y-74452200D01*
X49183095Y-74452200D02*
X49135476Y-74404580D01*
X68635476Y-91502200D02*
X68778333Y-91549819D01*
X68778333Y-91549819D02*
X69016428Y-91549819D01*
X69016428Y-91549819D02*
X69111666Y-91502200D01*
X69111666Y-91502200D02*
X69159285Y-91454580D01*
X69159285Y-91454580D02*
X69206904Y-91359342D01*
X69206904Y-91359342D02*
X69206904Y-91264104D01*
X69206904Y-91264104D02*
X69159285Y-91168866D01*
X69159285Y-91168866D02*
X69111666Y-91121247D01*
X69111666Y-91121247D02*
X69016428Y-91073628D01*
X69016428Y-91073628D02*
X68825952Y-91026009D01*
X68825952Y-91026009D02*
X68730714Y-90978390D01*
X68730714Y-90978390D02*
X68683095Y-90930771D01*
X68683095Y-90930771D02*
X68635476Y-90835533D01*
X68635476Y-90835533D02*
X68635476Y-90740295D01*
X68635476Y-90740295D02*
X68683095Y-90645057D01*
X68683095Y-90645057D02*
X68730714Y-90597438D01*
X68730714Y-90597438D02*
X68825952Y-90549819D01*
X68825952Y-90549819D02*
X69064047Y-90549819D01*
X69064047Y-90549819D02*
X69206904Y-90597438D01*
X69540238Y-90549819D02*
X69778333Y-91549819D01*
X69778333Y-91549819D02*
X69968809Y-90835533D01*
X69968809Y-90835533D02*
X70159285Y-91549819D01*
X70159285Y-91549819D02*
X70397381Y-90549819D01*
X70730714Y-90645057D02*
X70778333Y-90597438D01*
X70778333Y-90597438D02*
X70873571Y-90549819D01*
X70873571Y-90549819D02*
X71111666Y-90549819D01*
X71111666Y-90549819D02*
X71206904Y-90597438D01*
X71206904Y-90597438D02*
X71254523Y-90645057D01*
X71254523Y-90645057D02*
X71302142Y-90740295D01*
X71302142Y-90740295D02*
X71302142Y-90835533D01*
X71302142Y-90835533D02*
X71254523Y-90978390D01*
X71254523Y-90978390D02*
X70683095Y-91549819D01*
X70683095Y-91549819D02*
X71302142Y-91549819D01*
X71921190Y-90549819D02*
X72016428Y-90549819D01*
X72016428Y-90549819D02*
X72111666Y-90597438D01*
X72111666Y-90597438D02*
X72159285Y-90645057D01*
X72159285Y-90645057D02*
X72206904Y-90740295D01*
X72206904Y-90740295D02*
X72254523Y-90930771D01*
X72254523Y-90930771D02*
X72254523Y-91168866D01*
X72254523Y-91168866D02*
X72206904Y-91359342D01*
X72206904Y-91359342D02*
X72159285Y-91454580D01*
X72159285Y-91454580D02*
X72111666Y-91502200D01*
X72111666Y-91502200D02*
X72016428Y-91549819D01*
X72016428Y-91549819D02*
X71921190Y-91549819D01*
X71921190Y-91549819D02*
X71825952Y-91502200D01*
X71825952Y-91502200D02*
X71778333Y-91454580D01*
X71778333Y-91454580D02*
X71730714Y-91359342D01*
X71730714Y-91359342D02*
X71683095Y-91168866D01*
X71683095Y-91168866D02*
X71683095Y-90930771D01*
X71683095Y-90930771D02*
X71730714Y-90740295D01*
X71730714Y-90740295D02*
X71778333Y-90645057D01*
X71778333Y-90645057D02*
X71825952Y-90597438D01*
X71825952Y-90597438D02*
X71921190Y-90549819D01*
X86635476Y-88102200D02*
X86778333Y-88149819D01*
X86778333Y-88149819D02*
X87016428Y-88149819D01*
X87016428Y-88149819D02*
X87111666Y-88102200D01*
X87111666Y-88102200D02*
X87159285Y-88054580D01*
X87159285Y-88054580D02*
X87206904Y-87959342D01*
X87206904Y-87959342D02*
X87206904Y-87864104D01*
X87206904Y-87864104D02*
X87159285Y-87768866D01*
X87159285Y-87768866D02*
X87111666Y-87721247D01*
X87111666Y-87721247D02*
X87016428Y-87673628D01*
X87016428Y-87673628D02*
X86825952Y-87626009D01*
X86825952Y-87626009D02*
X86730714Y-87578390D01*
X86730714Y-87578390D02*
X86683095Y-87530771D01*
X86683095Y-87530771D02*
X86635476Y-87435533D01*
X86635476Y-87435533D02*
X86635476Y-87340295D01*
X86635476Y-87340295D02*
X86683095Y-87245057D01*
X86683095Y-87245057D02*
X86730714Y-87197438D01*
X86730714Y-87197438D02*
X86825952Y-87149819D01*
X86825952Y-87149819D02*
X87064047Y-87149819D01*
X87064047Y-87149819D02*
X87206904Y-87197438D01*
X87540238Y-87149819D02*
X87778333Y-88149819D01*
X87778333Y-88149819D02*
X87968809Y-87435533D01*
X87968809Y-87435533D02*
X88159285Y-88149819D01*
X88159285Y-88149819D02*
X88397381Y-87149819D01*
X88730714Y-87245057D02*
X88778333Y-87197438D01*
X88778333Y-87197438D02*
X88873571Y-87149819D01*
X88873571Y-87149819D02*
X89111666Y-87149819D01*
X89111666Y-87149819D02*
X89206904Y-87197438D01*
X89206904Y-87197438D02*
X89254523Y-87245057D01*
X89254523Y-87245057D02*
X89302142Y-87340295D01*
X89302142Y-87340295D02*
X89302142Y-87435533D01*
X89302142Y-87435533D02*
X89254523Y-87578390D01*
X89254523Y-87578390D02*
X88683095Y-88149819D01*
X88683095Y-88149819D02*
X89302142Y-88149819D01*
X90254523Y-88149819D02*
X89683095Y-88149819D01*
X89968809Y-88149819D02*
X89968809Y-87149819D01*
X89968809Y-87149819D02*
X89873571Y-87292676D01*
X89873571Y-87292676D02*
X89778333Y-87387914D01*
X89778333Y-87387914D02*
X89683095Y-87435533D01*
X122635476Y-88102200D02*
X122778333Y-88149819D01*
X122778333Y-88149819D02*
X123016428Y-88149819D01*
X123016428Y-88149819D02*
X123111666Y-88102200D01*
X123111666Y-88102200D02*
X123159285Y-88054580D01*
X123159285Y-88054580D02*
X123206904Y-87959342D01*
X123206904Y-87959342D02*
X123206904Y-87864104D01*
X123206904Y-87864104D02*
X123159285Y-87768866D01*
X123159285Y-87768866D02*
X123111666Y-87721247D01*
X123111666Y-87721247D02*
X123016428Y-87673628D01*
X123016428Y-87673628D02*
X122825952Y-87626009D01*
X122825952Y-87626009D02*
X122730714Y-87578390D01*
X122730714Y-87578390D02*
X122683095Y-87530771D01*
X122683095Y-87530771D02*
X122635476Y-87435533D01*
X122635476Y-87435533D02*
X122635476Y-87340295D01*
X122635476Y-87340295D02*
X122683095Y-87245057D01*
X122683095Y-87245057D02*
X122730714Y-87197438D01*
X122730714Y-87197438D02*
X122825952Y-87149819D01*
X122825952Y-87149819D02*
X123064047Y-87149819D01*
X123064047Y-87149819D02*
X123206904Y-87197438D01*
X123540238Y-87149819D02*
X123778333Y-88149819D01*
X123778333Y-88149819D02*
X123968809Y-87435533D01*
X123968809Y-87435533D02*
X124159285Y-88149819D01*
X124159285Y-88149819D02*
X124397381Y-87149819D01*
X124730714Y-87245057D02*
X124778333Y-87197438D01*
X124778333Y-87197438D02*
X124873571Y-87149819D01*
X124873571Y-87149819D02*
X125111666Y-87149819D01*
X125111666Y-87149819D02*
X125206904Y-87197438D01*
X125206904Y-87197438D02*
X125254523Y-87245057D01*
X125254523Y-87245057D02*
X125302142Y-87340295D01*
X125302142Y-87340295D02*
X125302142Y-87435533D01*
X125302142Y-87435533D02*
X125254523Y-87578390D01*
X125254523Y-87578390D02*
X124683095Y-88149819D01*
X124683095Y-88149819D02*
X125302142Y-88149819D01*
X125635476Y-87149819D02*
X126254523Y-87149819D01*
X126254523Y-87149819D02*
X125921190Y-87530771D01*
X125921190Y-87530771D02*
X126064047Y-87530771D01*
X126064047Y-87530771D02*
X126159285Y-87578390D01*
X126159285Y-87578390D02*
X126206904Y-87626009D01*
X126206904Y-87626009D02*
X126254523Y-87721247D01*
X126254523Y-87721247D02*
X126254523Y-87959342D01*
X126254523Y-87959342D02*
X126206904Y-88054580D01*
X126206904Y-88054580D02*
X126159285Y-88102200D01*
X126159285Y-88102200D02*
X126064047Y-88149819D01*
X126064047Y-88149819D02*
X125778333Y-88149819D01*
X125778333Y-88149819D02*
X125683095Y-88102200D01*
X125683095Y-88102200D02*
X125635476Y-88054580D01*
X140635476Y-74452200D02*
X140778333Y-74499819D01*
X140778333Y-74499819D02*
X141016428Y-74499819D01*
X141016428Y-74499819D02*
X141111666Y-74452200D01*
X141111666Y-74452200D02*
X141159285Y-74404580D01*
X141159285Y-74404580D02*
X141206904Y-74309342D01*
X141206904Y-74309342D02*
X141206904Y-74214104D01*
X141206904Y-74214104D02*
X141159285Y-74118866D01*
X141159285Y-74118866D02*
X141111666Y-74071247D01*
X141111666Y-74071247D02*
X141016428Y-74023628D01*
X141016428Y-74023628D02*
X140825952Y-73976009D01*
X140825952Y-73976009D02*
X140730714Y-73928390D01*
X140730714Y-73928390D02*
X140683095Y-73880771D01*
X140683095Y-73880771D02*
X140635476Y-73785533D01*
X140635476Y-73785533D02*
X140635476Y-73690295D01*
X140635476Y-73690295D02*
X140683095Y-73595057D01*
X140683095Y-73595057D02*
X140730714Y-73547438D01*
X140730714Y-73547438D02*
X140825952Y-73499819D01*
X140825952Y-73499819D02*
X141064047Y-73499819D01*
X141064047Y-73499819D02*
X141206904Y-73547438D01*
X141540238Y-73499819D02*
X141778333Y-74499819D01*
X141778333Y-74499819D02*
X141968809Y-73785533D01*
X141968809Y-73785533D02*
X142159285Y-74499819D01*
X142159285Y-74499819D02*
X142397381Y-73499819D01*
X143302142Y-74499819D02*
X142730714Y-74499819D01*
X143016428Y-74499819D02*
X143016428Y-73499819D01*
X143016428Y-73499819D02*
X142921190Y-73642676D01*
X142921190Y-73642676D02*
X142825952Y-73737914D01*
X142825952Y-73737914D02*
X142730714Y-73785533D01*
X143873571Y-73928390D02*
X143778333Y-73880771D01*
X143778333Y-73880771D02*
X143730714Y-73833152D01*
X143730714Y-73833152D02*
X143683095Y-73737914D01*
X143683095Y-73737914D02*
X143683095Y-73690295D01*
X143683095Y-73690295D02*
X143730714Y-73595057D01*
X143730714Y-73595057D02*
X143778333Y-73547438D01*
X143778333Y-73547438D02*
X143873571Y-73499819D01*
X143873571Y-73499819D02*
X144064047Y-73499819D01*
X144064047Y-73499819D02*
X144159285Y-73547438D01*
X144159285Y-73547438D02*
X144206904Y-73595057D01*
X144206904Y-73595057D02*
X144254523Y-73690295D01*
X144254523Y-73690295D02*
X144254523Y-73737914D01*
X144254523Y-73737914D02*
X144206904Y-73833152D01*
X144206904Y-73833152D02*
X144159285Y-73880771D01*
X144159285Y-73880771D02*
X144064047Y-73928390D01*
X144064047Y-73928390D02*
X143873571Y-73928390D01*
X143873571Y-73928390D02*
X143778333Y-73976009D01*
X143778333Y-73976009D02*
X143730714Y-74023628D01*
X143730714Y-74023628D02*
X143683095Y-74118866D01*
X143683095Y-74118866D02*
X143683095Y-74309342D01*
X143683095Y-74309342D02*
X143730714Y-74404580D01*
X143730714Y-74404580D02*
X143778333Y-74452200D01*
X143778333Y-74452200D02*
X143873571Y-74499819D01*
X143873571Y-74499819D02*
X144064047Y-74499819D01*
X144064047Y-74499819D02*
X144159285Y-74452200D01*
X144159285Y-74452200D02*
X144206904Y-74404580D01*
X144206904Y-74404580D02*
X144254523Y-74309342D01*
X144254523Y-74309342D02*
X144254523Y-74118866D01*
X144254523Y-74118866D02*
X144206904Y-74023628D01*
X144206904Y-74023628D02*
X144159285Y-73976009D01*
X144159285Y-73976009D02*
X144064047Y-73928390D01*
X104635476Y-50452200D02*
X104778333Y-50499819D01*
X104778333Y-50499819D02*
X105016428Y-50499819D01*
X105016428Y-50499819D02*
X105111666Y-50452200D01*
X105111666Y-50452200D02*
X105159285Y-50404580D01*
X105159285Y-50404580D02*
X105206904Y-50309342D01*
X105206904Y-50309342D02*
X105206904Y-50214104D01*
X105206904Y-50214104D02*
X105159285Y-50118866D01*
X105159285Y-50118866D02*
X105111666Y-50071247D01*
X105111666Y-50071247D02*
X105016428Y-50023628D01*
X105016428Y-50023628D02*
X104825952Y-49976009D01*
X104825952Y-49976009D02*
X104730714Y-49928390D01*
X104730714Y-49928390D02*
X104683095Y-49880771D01*
X104683095Y-49880771D02*
X104635476Y-49785533D01*
X104635476Y-49785533D02*
X104635476Y-49690295D01*
X104635476Y-49690295D02*
X104683095Y-49595057D01*
X104683095Y-49595057D02*
X104730714Y-49547438D01*
X104730714Y-49547438D02*
X104825952Y-49499819D01*
X104825952Y-49499819D02*
X105064047Y-49499819D01*
X105064047Y-49499819D02*
X105206904Y-49547438D01*
X105540238Y-49499819D02*
X105778333Y-50499819D01*
X105778333Y-50499819D02*
X105968809Y-49785533D01*
X105968809Y-49785533D02*
X106159285Y-50499819D01*
X106159285Y-50499819D02*
X106397381Y-49499819D01*
X107302142Y-50499819D02*
X106730714Y-50499819D01*
X107016428Y-50499819D02*
X107016428Y-49499819D01*
X107016428Y-49499819D02*
X106921190Y-49642676D01*
X106921190Y-49642676D02*
X106825952Y-49737914D01*
X106825952Y-49737914D02*
X106730714Y-49785533D01*
X107921190Y-49499819D02*
X108016428Y-49499819D01*
X108016428Y-49499819D02*
X108111666Y-49547438D01*
X108111666Y-49547438D02*
X108159285Y-49595057D01*
X108159285Y-49595057D02*
X108206904Y-49690295D01*
X108206904Y-49690295D02*
X108254523Y-49880771D01*
X108254523Y-49880771D02*
X108254523Y-50118866D01*
X108254523Y-50118866D02*
X108206904Y-50309342D01*
X108206904Y-50309342D02*
X108159285Y-50404580D01*
X108159285Y-50404580D02*
X108111666Y-50452200D01*
X108111666Y-50452200D02*
X108016428Y-50499819D01*
X108016428Y-50499819D02*
X107921190Y-50499819D01*
X107921190Y-50499819D02*
X107825952Y-50452200D01*
X107825952Y-50452200D02*
X107778333Y-50404580D01*
X107778333Y-50404580D02*
X107730714Y-50309342D01*
X107730714Y-50309342D02*
X107683095Y-50118866D01*
X107683095Y-50118866D02*
X107683095Y-49880771D01*
X107683095Y-49880771D02*
X107730714Y-49690295D01*
X107730714Y-49690295D02*
X107778333Y-49595057D01*
X107778333Y-49595057D02*
X107825952Y-49547438D01*
X107825952Y-49547438D02*
X107921190Y-49499819D01*
X104615476Y-105102200D02*
X104758333Y-105149819D01*
X104758333Y-105149819D02*
X104996428Y-105149819D01*
X104996428Y-105149819D02*
X105091666Y-105102200D01*
X105091666Y-105102200D02*
X105139285Y-105054580D01*
X105139285Y-105054580D02*
X105186904Y-104959342D01*
X105186904Y-104959342D02*
X105186904Y-104864104D01*
X105186904Y-104864104D02*
X105139285Y-104768866D01*
X105139285Y-104768866D02*
X105091666Y-104721247D01*
X105091666Y-104721247D02*
X104996428Y-104673628D01*
X104996428Y-104673628D02*
X104805952Y-104626009D01*
X104805952Y-104626009D02*
X104710714Y-104578390D01*
X104710714Y-104578390D02*
X104663095Y-104530771D01*
X104663095Y-104530771D02*
X104615476Y-104435533D01*
X104615476Y-104435533D02*
X104615476Y-104340295D01*
X104615476Y-104340295D02*
X104663095Y-104245057D01*
X104663095Y-104245057D02*
X104710714Y-104197438D01*
X104710714Y-104197438D02*
X104805952Y-104149819D01*
X104805952Y-104149819D02*
X105044047Y-104149819D01*
X105044047Y-104149819D02*
X105186904Y-104197438D01*
X105520238Y-104149819D02*
X105758333Y-105149819D01*
X105758333Y-105149819D02*
X105948809Y-104435533D01*
X105948809Y-104435533D02*
X106139285Y-105149819D01*
X106139285Y-105149819D02*
X106377381Y-104149819D01*
X106710714Y-104245057D02*
X106758333Y-104197438D01*
X106758333Y-104197438D02*
X106853571Y-104149819D01*
X106853571Y-104149819D02*
X107091666Y-104149819D01*
X107091666Y-104149819D02*
X107186904Y-104197438D01*
X107186904Y-104197438D02*
X107234523Y-104245057D01*
X107234523Y-104245057D02*
X107282142Y-104340295D01*
X107282142Y-104340295D02*
X107282142Y-104435533D01*
X107282142Y-104435533D02*
X107234523Y-104578390D01*
X107234523Y-104578390D02*
X106663095Y-105149819D01*
X106663095Y-105149819D02*
X107282142Y-105149819D01*
X107615476Y-104149819D02*
X108282142Y-104149819D01*
X108282142Y-104149819D02*
X107853571Y-105149819D01*
X141111667Y-40402200D02*
X141254524Y-40449819D01*
X141254524Y-40449819D02*
X141492619Y-40449819D01*
X141492619Y-40449819D02*
X141587857Y-40402200D01*
X141587857Y-40402200D02*
X141635476Y-40354580D01*
X141635476Y-40354580D02*
X141683095Y-40259342D01*
X141683095Y-40259342D02*
X141683095Y-40164104D01*
X141683095Y-40164104D02*
X141635476Y-40068866D01*
X141635476Y-40068866D02*
X141587857Y-40021247D01*
X141587857Y-40021247D02*
X141492619Y-39973628D01*
X141492619Y-39973628D02*
X141302143Y-39926009D01*
X141302143Y-39926009D02*
X141206905Y-39878390D01*
X141206905Y-39878390D02*
X141159286Y-39830771D01*
X141159286Y-39830771D02*
X141111667Y-39735533D01*
X141111667Y-39735533D02*
X141111667Y-39640295D01*
X141111667Y-39640295D02*
X141159286Y-39545057D01*
X141159286Y-39545057D02*
X141206905Y-39497438D01*
X141206905Y-39497438D02*
X141302143Y-39449819D01*
X141302143Y-39449819D02*
X141540238Y-39449819D01*
X141540238Y-39449819D02*
X141683095Y-39497438D01*
X142016429Y-39449819D02*
X142254524Y-40449819D01*
X142254524Y-40449819D02*
X142445000Y-39735533D01*
X142445000Y-39735533D02*
X142635476Y-40449819D01*
X142635476Y-40449819D02*
X142873572Y-39449819D01*
X143683095Y-39449819D02*
X143492619Y-39449819D01*
X143492619Y-39449819D02*
X143397381Y-39497438D01*
X143397381Y-39497438D02*
X143349762Y-39545057D01*
X143349762Y-39545057D02*
X143254524Y-39687914D01*
X143254524Y-39687914D02*
X143206905Y-39878390D01*
X143206905Y-39878390D02*
X143206905Y-40259342D01*
X143206905Y-40259342D02*
X143254524Y-40354580D01*
X143254524Y-40354580D02*
X143302143Y-40402200D01*
X143302143Y-40402200D02*
X143397381Y-40449819D01*
X143397381Y-40449819D02*
X143587857Y-40449819D01*
X143587857Y-40449819D02*
X143683095Y-40402200D01*
X143683095Y-40402200D02*
X143730714Y-40354580D01*
X143730714Y-40354580D02*
X143778333Y-40259342D01*
X143778333Y-40259342D02*
X143778333Y-40021247D01*
X143778333Y-40021247D02*
X143730714Y-39926009D01*
X143730714Y-39926009D02*
X143683095Y-39878390D01*
X143683095Y-39878390D02*
X143587857Y-39830771D01*
X143587857Y-39830771D02*
X143397381Y-39830771D01*
X143397381Y-39830771D02*
X143302143Y-39878390D01*
X143302143Y-39878390D02*
X143254524Y-39926009D01*
X143254524Y-39926009D02*
X143206905Y-40021247D01*
X46135476Y-91502200D02*
X46278333Y-91549819D01*
X46278333Y-91549819D02*
X46516428Y-91549819D01*
X46516428Y-91549819D02*
X46611666Y-91502200D01*
X46611666Y-91502200D02*
X46659285Y-91454580D01*
X46659285Y-91454580D02*
X46706904Y-91359342D01*
X46706904Y-91359342D02*
X46706904Y-91264104D01*
X46706904Y-91264104D02*
X46659285Y-91168866D01*
X46659285Y-91168866D02*
X46611666Y-91121247D01*
X46611666Y-91121247D02*
X46516428Y-91073628D01*
X46516428Y-91073628D02*
X46325952Y-91026009D01*
X46325952Y-91026009D02*
X46230714Y-90978390D01*
X46230714Y-90978390D02*
X46183095Y-90930771D01*
X46183095Y-90930771D02*
X46135476Y-90835533D01*
X46135476Y-90835533D02*
X46135476Y-90740295D01*
X46135476Y-90740295D02*
X46183095Y-90645057D01*
X46183095Y-90645057D02*
X46230714Y-90597438D01*
X46230714Y-90597438D02*
X46325952Y-90549819D01*
X46325952Y-90549819D02*
X46564047Y-90549819D01*
X46564047Y-90549819D02*
X46706904Y-90597438D01*
X47040238Y-90549819D02*
X47278333Y-91549819D01*
X47278333Y-91549819D02*
X47468809Y-90835533D01*
X47468809Y-90835533D02*
X47659285Y-91549819D01*
X47659285Y-91549819D02*
X47897381Y-90549819D01*
X48802142Y-91549819D02*
X48230714Y-91549819D01*
X48516428Y-91549819D02*
X48516428Y-90549819D01*
X48516428Y-90549819D02*
X48421190Y-90692676D01*
X48421190Y-90692676D02*
X48325952Y-90787914D01*
X48325952Y-90787914D02*
X48230714Y-90835533D01*
X49278333Y-91549819D02*
X49468809Y-91549819D01*
X49468809Y-91549819D02*
X49564047Y-91502200D01*
X49564047Y-91502200D02*
X49611666Y-91454580D01*
X49611666Y-91454580D02*
X49706904Y-91311723D01*
X49706904Y-91311723D02*
X49754523Y-91121247D01*
X49754523Y-91121247D02*
X49754523Y-90740295D01*
X49754523Y-90740295D02*
X49706904Y-90645057D01*
X49706904Y-90645057D02*
X49659285Y-90597438D01*
X49659285Y-90597438D02*
X49564047Y-90549819D01*
X49564047Y-90549819D02*
X49373571Y-90549819D01*
X49373571Y-90549819D02*
X49278333Y-90597438D01*
X49278333Y-90597438D02*
X49230714Y-90645057D01*
X49230714Y-90645057D02*
X49183095Y-90740295D01*
X49183095Y-90740295D02*
X49183095Y-90978390D01*
X49183095Y-90978390D02*
X49230714Y-91073628D01*
X49230714Y-91073628D02*
X49278333Y-91121247D01*
X49278333Y-91121247D02*
X49373571Y-91168866D01*
X49373571Y-91168866D02*
X49564047Y-91168866D01*
X49564047Y-91168866D02*
X49659285Y-91121247D01*
X49659285Y-91121247D02*
X49706904Y-91073628D01*
X49706904Y-91073628D02*
X49754523Y-90978390D01*
X104635476Y-67452200D02*
X104778333Y-67499819D01*
X104778333Y-67499819D02*
X105016428Y-67499819D01*
X105016428Y-67499819D02*
X105111666Y-67452200D01*
X105111666Y-67452200D02*
X105159285Y-67404580D01*
X105159285Y-67404580D02*
X105206904Y-67309342D01*
X105206904Y-67309342D02*
X105206904Y-67214104D01*
X105206904Y-67214104D02*
X105159285Y-67118866D01*
X105159285Y-67118866D02*
X105111666Y-67071247D01*
X105111666Y-67071247D02*
X105016428Y-67023628D01*
X105016428Y-67023628D02*
X104825952Y-66976009D01*
X104825952Y-66976009D02*
X104730714Y-66928390D01*
X104730714Y-66928390D02*
X104683095Y-66880771D01*
X104683095Y-66880771D02*
X104635476Y-66785533D01*
X104635476Y-66785533D02*
X104635476Y-66690295D01*
X104635476Y-66690295D02*
X104683095Y-66595057D01*
X104683095Y-66595057D02*
X104730714Y-66547438D01*
X104730714Y-66547438D02*
X104825952Y-66499819D01*
X104825952Y-66499819D02*
X105064047Y-66499819D01*
X105064047Y-66499819D02*
X105206904Y-66547438D01*
X105540238Y-66499819D02*
X105778333Y-67499819D01*
X105778333Y-67499819D02*
X105968809Y-66785533D01*
X105968809Y-66785533D02*
X106159285Y-67499819D01*
X106159285Y-67499819D02*
X106397381Y-66499819D01*
X107302142Y-67499819D02*
X106730714Y-67499819D01*
X107016428Y-67499819D02*
X107016428Y-66499819D01*
X107016428Y-66499819D02*
X106921190Y-66642676D01*
X106921190Y-66642676D02*
X106825952Y-66737914D01*
X106825952Y-66737914D02*
X106730714Y-66785533D01*
X108159285Y-66499819D02*
X107968809Y-66499819D01*
X107968809Y-66499819D02*
X107873571Y-66547438D01*
X107873571Y-66547438D02*
X107825952Y-66595057D01*
X107825952Y-66595057D02*
X107730714Y-66737914D01*
X107730714Y-66737914D02*
X107683095Y-66928390D01*
X107683095Y-66928390D02*
X107683095Y-67309342D01*
X107683095Y-67309342D02*
X107730714Y-67404580D01*
X107730714Y-67404580D02*
X107778333Y-67452200D01*
X107778333Y-67452200D02*
X107873571Y-67499819D01*
X107873571Y-67499819D02*
X108064047Y-67499819D01*
X108064047Y-67499819D02*
X108159285Y-67452200D01*
X108159285Y-67452200D02*
X108206904Y-67404580D01*
X108206904Y-67404580D02*
X108254523Y-67309342D01*
X108254523Y-67309342D02*
X108254523Y-67071247D01*
X108254523Y-67071247D02*
X108206904Y-66976009D01*
X108206904Y-66976009D02*
X108159285Y-66928390D01*
X108159285Y-66928390D02*
X108064047Y-66880771D01*
X108064047Y-66880771D02*
X107873571Y-66880771D01*
X107873571Y-66880771D02*
X107778333Y-66928390D01*
X107778333Y-66928390D02*
X107730714Y-66976009D01*
X107730714Y-66976009D02*
X107683095Y-67071247D01*
X122635476Y-71052200D02*
X122778333Y-71099819D01*
X122778333Y-71099819D02*
X123016428Y-71099819D01*
X123016428Y-71099819D02*
X123111666Y-71052200D01*
X123111666Y-71052200D02*
X123159285Y-71004580D01*
X123159285Y-71004580D02*
X123206904Y-70909342D01*
X123206904Y-70909342D02*
X123206904Y-70814104D01*
X123206904Y-70814104D02*
X123159285Y-70718866D01*
X123159285Y-70718866D02*
X123111666Y-70671247D01*
X123111666Y-70671247D02*
X123016428Y-70623628D01*
X123016428Y-70623628D02*
X122825952Y-70576009D01*
X122825952Y-70576009D02*
X122730714Y-70528390D01*
X122730714Y-70528390D02*
X122683095Y-70480771D01*
X122683095Y-70480771D02*
X122635476Y-70385533D01*
X122635476Y-70385533D02*
X122635476Y-70290295D01*
X122635476Y-70290295D02*
X122683095Y-70195057D01*
X122683095Y-70195057D02*
X122730714Y-70147438D01*
X122730714Y-70147438D02*
X122825952Y-70099819D01*
X122825952Y-70099819D02*
X123064047Y-70099819D01*
X123064047Y-70099819D02*
X123206904Y-70147438D01*
X123540238Y-70099819D02*
X123778333Y-71099819D01*
X123778333Y-71099819D02*
X123968809Y-70385533D01*
X123968809Y-70385533D02*
X124159285Y-71099819D01*
X124159285Y-71099819D02*
X124397381Y-70099819D01*
X125302142Y-71099819D02*
X124730714Y-71099819D01*
X125016428Y-71099819D02*
X125016428Y-70099819D01*
X125016428Y-70099819D02*
X124921190Y-70242676D01*
X124921190Y-70242676D02*
X124825952Y-70337914D01*
X124825952Y-70337914D02*
X124730714Y-70385533D01*
X125635476Y-70099819D02*
X126302142Y-70099819D01*
X126302142Y-70099819D02*
X125873571Y-71099819D01*
X140635476Y-91502200D02*
X140778333Y-91549819D01*
X140778333Y-91549819D02*
X141016428Y-91549819D01*
X141016428Y-91549819D02*
X141111666Y-91502200D01*
X141111666Y-91502200D02*
X141159285Y-91454580D01*
X141159285Y-91454580D02*
X141206904Y-91359342D01*
X141206904Y-91359342D02*
X141206904Y-91264104D01*
X141206904Y-91264104D02*
X141159285Y-91168866D01*
X141159285Y-91168866D02*
X141111666Y-91121247D01*
X141111666Y-91121247D02*
X141016428Y-91073628D01*
X141016428Y-91073628D02*
X140825952Y-91026009D01*
X140825952Y-91026009D02*
X140730714Y-90978390D01*
X140730714Y-90978390D02*
X140683095Y-90930771D01*
X140683095Y-90930771D02*
X140635476Y-90835533D01*
X140635476Y-90835533D02*
X140635476Y-90740295D01*
X140635476Y-90740295D02*
X140683095Y-90645057D01*
X140683095Y-90645057D02*
X140730714Y-90597438D01*
X140730714Y-90597438D02*
X140825952Y-90549819D01*
X140825952Y-90549819D02*
X141064047Y-90549819D01*
X141064047Y-90549819D02*
X141206904Y-90597438D01*
X141540238Y-90549819D02*
X141778333Y-91549819D01*
X141778333Y-91549819D02*
X141968809Y-90835533D01*
X141968809Y-90835533D02*
X142159285Y-91549819D01*
X142159285Y-91549819D02*
X142397381Y-90549819D01*
X142730714Y-90645057D02*
X142778333Y-90597438D01*
X142778333Y-90597438D02*
X142873571Y-90549819D01*
X142873571Y-90549819D02*
X143111666Y-90549819D01*
X143111666Y-90549819D02*
X143206904Y-90597438D01*
X143206904Y-90597438D02*
X143254523Y-90645057D01*
X143254523Y-90645057D02*
X143302142Y-90740295D01*
X143302142Y-90740295D02*
X143302142Y-90835533D01*
X143302142Y-90835533D02*
X143254523Y-90978390D01*
X143254523Y-90978390D02*
X142683095Y-91549819D01*
X142683095Y-91549819D02*
X143302142Y-91549819D01*
X144159285Y-90883152D02*
X144159285Y-91549819D01*
X143921190Y-90502200D02*
X143683095Y-91216485D01*
X143683095Y-91216485D02*
X144302142Y-91216485D01*
X140635476Y-57452200D02*
X140778333Y-57499819D01*
X140778333Y-57499819D02*
X141016428Y-57499819D01*
X141016428Y-57499819D02*
X141111666Y-57452200D01*
X141111666Y-57452200D02*
X141159285Y-57404580D01*
X141159285Y-57404580D02*
X141206904Y-57309342D01*
X141206904Y-57309342D02*
X141206904Y-57214104D01*
X141206904Y-57214104D02*
X141159285Y-57118866D01*
X141159285Y-57118866D02*
X141111666Y-57071247D01*
X141111666Y-57071247D02*
X141016428Y-57023628D01*
X141016428Y-57023628D02*
X140825952Y-56976009D01*
X140825952Y-56976009D02*
X140730714Y-56928390D01*
X140730714Y-56928390D02*
X140683095Y-56880771D01*
X140683095Y-56880771D02*
X140635476Y-56785533D01*
X140635476Y-56785533D02*
X140635476Y-56690295D01*
X140635476Y-56690295D02*
X140683095Y-56595057D01*
X140683095Y-56595057D02*
X140730714Y-56547438D01*
X140730714Y-56547438D02*
X140825952Y-56499819D01*
X140825952Y-56499819D02*
X141064047Y-56499819D01*
X141064047Y-56499819D02*
X141206904Y-56547438D01*
X141540238Y-56499819D02*
X141778333Y-57499819D01*
X141778333Y-57499819D02*
X141968809Y-56785533D01*
X141968809Y-56785533D02*
X142159285Y-57499819D01*
X142159285Y-57499819D02*
X142397381Y-56499819D01*
X143302142Y-57499819D02*
X142730714Y-57499819D01*
X143016428Y-57499819D02*
X143016428Y-56499819D01*
X143016428Y-56499819D02*
X142921190Y-56642676D01*
X142921190Y-56642676D02*
X142825952Y-56737914D01*
X142825952Y-56737914D02*
X142730714Y-56785533D01*
X143683095Y-56595057D02*
X143730714Y-56547438D01*
X143730714Y-56547438D02*
X143825952Y-56499819D01*
X143825952Y-56499819D02*
X144064047Y-56499819D01*
X144064047Y-56499819D02*
X144159285Y-56547438D01*
X144159285Y-56547438D02*
X144206904Y-56595057D01*
X144206904Y-56595057D02*
X144254523Y-56690295D01*
X144254523Y-56690295D02*
X144254523Y-56785533D01*
X144254523Y-56785533D02*
X144206904Y-56928390D01*
X144206904Y-56928390D02*
X143635476Y-57499819D01*
X143635476Y-57499819D02*
X144254523Y-57499819D01*
X69111667Y-57452200D02*
X69254524Y-57499819D01*
X69254524Y-57499819D02*
X69492619Y-57499819D01*
X69492619Y-57499819D02*
X69587857Y-57452200D01*
X69587857Y-57452200D02*
X69635476Y-57404580D01*
X69635476Y-57404580D02*
X69683095Y-57309342D01*
X69683095Y-57309342D02*
X69683095Y-57214104D01*
X69683095Y-57214104D02*
X69635476Y-57118866D01*
X69635476Y-57118866D02*
X69587857Y-57071247D01*
X69587857Y-57071247D02*
X69492619Y-57023628D01*
X69492619Y-57023628D02*
X69302143Y-56976009D01*
X69302143Y-56976009D02*
X69206905Y-56928390D01*
X69206905Y-56928390D02*
X69159286Y-56880771D01*
X69159286Y-56880771D02*
X69111667Y-56785533D01*
X69111667Y-56785533D02*
X69111667Y-56690295D01*
X69111667Y-56690295D02*
X69159286Y-56595057D01*
X69159286Y-56595057D02*
X69206905Y-56547438D01*
X69206905Y-56547438D02*
X69302143Y-56499819D01*
X69302143Y-56499819D02*
X69540238Y-56499819D01*
X69540238Y-56499819D02*
X69683095Y-56547438D01*
X70016429Y-56499819D02*
X70254524Y-57499819D01*
X70254524Y-57499819D02*
X70445000Y-56785533D01*
X70445000Y-56785533D02*
X70635476Y-57499819D01*
X70635476Y-57499819D02*
X70873572Y-56499819D01*
X71397381Y-56928390D02*
X71302143Y-56880771D01*
X71302143Y-56880771D02*
X71254524Y-56833152D01*
X71254524Y-56833152D02*
X71206905Y-56737914D01*
X71206905Y-56737914D02*
X71206905Y-56690295D01*
X71206905Y-56690295D02*
X71254524Y-56595057D01*
X71254524Y-56595057D02*
X71302143Y-56547438D01*
X71302143Y-56547438D02*
X71397381Y-56499819D01*
X71397381Y-56499819D02*
X71587857Y-56499819D01*
X71587857Y-56499819D02*
X71683095Y-56547438D01*
X71683095Y-56547438D02*
X71730714Y-56595057D01*
X71730714Y-56595057D02*
X71778333Y-56690295D01*
X71778333Y-56690295D02*
X71778333Y-56737914D01*
X71778333Y-56737914D02*
X71730714Y-56833152D01*
X71730714Y-56833152D02*
X71683095Y-56880771D01*
X71683095Y-56880771D02*
X71587857Y-56928390D01*
X71587857Y-56928390D02*
X71397381Y-56928390D01*
X71397381Y-56928390D02*
X71302143Y-56976009D01*
X71302143Y-56976009D02*
X71254524Y-57023628D01*
X71254524Y-57023628D02*
X71206905Y-57118866D01*
X71206905Y-57118866D02*
X71206905Y-57309342D01*
X71206905Y-57309342D02*
X71254524Y-57404580D01*
X71254524Y-57404580D02*
X71302143Y-57452200D01*
X71302143Y-57452200D02*
X71397381Y-57499819D01*
X71397381Y-57499819D02*
X71587857Y-57499819D01*
X71587857Y-57499819D02*
X71683095Y-57452200D01*
X71683095Y-57452200D02*
X71730714Y-57404580D01*
X71730714Y-57404580D02*
X71778333Y-57309342D01*
X71778333Y-57309342D02*
X71778333Y-57118866D01*
X71778333Y-57118866D02*
X71730714Y-57023628D01*
X71730714Y-57023628D02*
X71683095Y-56976009D01*
X71683095Y-56976009D02*
X71587857Y-56928390D01*
X87111667Y-54052200D02*
X87254524Y-54099819D01*
X87254524Y-54099819D02*
X87492619Y-54099819D01*
X87492619Y-54099819D02*
X87587857Y-54052200D01*
X87587857Y-54052200D02*
X87635476Y-54004580D01*
X87635476Y-54004580D02*
X87683095Y-53909342D01*
X87683095Y-53909342D02*
X87683095Y-53814104D01*
X87683095Y-53814104D02*
X87635476Y-53718866D01*
X87635476Y-53718866D02*
X87587857Y-53671247D01*
X87587857Y-53671247D02*
X87492619Y-53623628D01*
X87492619Y-53623628D02*
X87302143Y-53576009D01*
X87302143Y-53576009D02*
X87206905Y-53528390D01*
X87206905Y-53528390D02*
X87159286Y-53480771D01*
X87159286Y-53480771D02*
X87111667Y-53385533D01*
X87111667Y-53385533D02*
X87111667Y-53290295D01*
X87111667Y-53290295D02*
X87159286Y-53195057D01*
X87159286Y-53195057D02*
X87206905Y-53147438D01*
X87206905Y-53147438D02*
X87302143Y-53099819D01*
X87302143Y-53099819D02*
X87540238Y-53099819D01*
X87540238Y-53099819D02*
X87683095Y-53147438D01*
X88016429Y-53099819D02*
X88254524Y-54099819D01*
X88254524Y-54099819D02*
X88445000Y-53385533D01*
X88445000Y-53385533D02*
X88635476Y-54099819D01*
X88635476Y-54099819D02*
X88873572Y-53099819D01*
X89302143Y-54099819D02*
X89492619Y-54099819D01*
X89492619Y-54099819D02*
X89587857Y-54052200D01*
X89587857Y-54052200D02*
X89635476Y-54004580D01*
X89635476Y-54004580D02*
X89730714Y-53861723D01*
X89730714Y-53861723D02*
X89778333Y-53671247D01*
X89778333Y-53671247D02*
X89778333Y-53290295D01*
X89778333Y-53290295D02*
X89730714Y-53195057D01*
X89730714Y-53195057D02*
X89683095Y-53147438D01*
X89683095Y-53147438D02*
X89587857Y-53099819D01*
X89587857Y-53099819D02*
X89397381Y-53099819D01*
X89397381Y-53099819D02*
X89302143Y-53147438D01*
X89302143Y-53147438D02*
X89254524Y-53195057D01*
X89254524Y-53195057D02*
X89206905Y-53290295D01*
X89206905Y-53290295D02*
X89206905Y-53528390D01*
X89206905Y-53528390D02*
X89254524Y-53623628D01*
X89254524Y-53623628D02*
X89302143Y-53671247D01*
X89302143Y-53671247D02*
X89397381Y-53718866D01*
X89397381Y-53718866D02*
X89587857Y-53718866D01*
X89587857Y-53718866D02*
X89683095Y-53671247D01*
X89683095Y-53671247D02*
X89730714Y-53623628D01*
X89730714Y-53623628D02*
X89778333Y-53528390D01*
X126078123Y-110246800D02*
X126191883Y-110345464D01*
X126191883Y-110345464D02*
X126411854Y-110436579D01*
X126411854Y-110436579D02*
X126518065Y-110429031D01*
X126518065Y-110429031D02*
X126580283Y-110403259D01*
X126580283Y-110403259D02*
X126660723Y-110333494D01*
X126660723Y-110333494D02*
X126697169Y-110245505D01*
X126697169Y-110245505D02*
X126689621Y-110139294D01*
X126689621Y-110139294D02*
X126663850Y-110077077D01*
X126663850Y-110077077D02*
X126594084Y-109996636D01*
X126594084Y-109996636D02*
X126436330Y-109879750D01*
X126436330Y-109879750D02*
X126366565Y-109799310D01*
X126366565Y-109799310D02*
X126340793Y-109737092D01*
X126340793Y-109737092D02*
X126333245Y-109630881D01*
X126333245Y-109630881D02*
X126369691Y-109542892D01*
X126369691Y-109542892D02*
X126450131Y-109473127D01*
X126450131Y-109473127D02*
X126512349Y-109447355D01*
X126512349Y-109447355D02*
X126618560Y-109439807D01*
X126618560Y-109439807D02*
X126838532Y-109530922D01*
X126838532Y-109530922D02*
X126952291Y-109629586D01*
X127278474Y-109713153D02*
X127115762Y-110728147D01*
X127115762Y-110728147D02*
X127565085Y-110141125D01*
X127565085Y-110141125D02*
X127467716Y-110873931D01*
X127467716Y-110873931D02*
X128070371Y-110041167D01*
X128341885Y-110256717D02*
X128404102Y-110230945D01*
X128404102Y-110230945D02*
X128510314Y-110223397D01*
X128510314Y-110223397D02*
X128730285Y-110314512D01*
X128730285Y-110314512D02*
X128800050Y-110394953D01*
X128800050Y-110394953D02*
X128825822Y-110457170D01*
X128825822Y-110457170D02*
X128833370Y-110563381D01*
X128833370Y-110563381D02*
X128796924Y-110651370D01*
X128796924Y-110651370D02*
X128698260Y-110765130D01*
X128698260Y-110765130D02*
X127951653Y-111074385D01*
X127951653Y-111074385D02*
X128523578Y-111311284D01*
X129270186Y-111002029D02*
X129200420Y-110921589D01*
X129200420Y-110921589D02*
X129174649Y-110859371D01*
X129174649Y-110859371D02*
X129167101Y-110753160D01*
X129167101Y-110753160D02*
X129185324Y-110709166D01*
X129185324Y-110709166D02*
X129265764Y-110639400D01*
X129265764Y-110639400D02*
X129327982Y-110613629D01*
X129327982Y-110613629D02*
X129434193Y-110606081D01*
X129434193Y-110606081D02*
X129610170Y-110678973D01*
X129610170Y-110678973D02*
X129679936Y-110759413D01*
X129679936Y-110759413D02*
X129705707Y-110821630D01*
X129705707Y-110821630D02*
X129713255Y-110927842D01*
X129713255Y-110927842D02*
X129695032Y-110971836D01*
X129695032Y-110971836D02*
X129614592Y-111041602D01*
X129614592Y-111041602D02*
X129552374Y-111067373D01*
X129552374Y-111067373D02*
X129446163Y-111074921D01*
X129446163Y-111074921D02*
X129270186Y-111002029D01*
X129270186Y-111002029D02*
X129163974Y-111009577D01*
X129163974Y-111009577D02*
X129101757Y-111035348D01*
X129101757Y-111035348D02*
X129021317Y-111105114D01*
X129021317Y-111105114D02*
X128948425Y-111281091D01*
X128948425Y-111281091D02*
X128955973Y-111387303D01*
X128955973Y-111387303D02*
X128981744Y-111449520D01*
X128981744Y-111449520D02*
X129051510Y-111529960D01*
X129051510Y-111529960D02*
X129227487Y-111602852D01*
X129227487Y-111602852D02*
X129333698Y-111595304D01*
X129333698Y-111595304D02*
X129395916Y-111569533D01*
X129395916Y-111569533D02*
X129476356Y-111499767D01*
X129476356Y-111499767D02*
X129549248Y-111323790D01*
X129549248Y-111323790D02*
X129541700Y-111217579D01*
X129541700Y-111217579D02*
X129515928Y-111155361D01*
X129515928Y-111155361D02*
X129446163Y-111074921D01*
X123111667Y-37002200D02*
X123254524Y-37049819D01*
X123254524Y-37049819D02*
X123492619Y-37049819D01*
X123492619Y-37049819D02*
X123587857Y-37002200D01*
X123587857Y-37002200D02*
X123635476Y-36954580D01*
X123635476Y-36954580D02*
X123683095Y-36859342D01*
X123683095Y-36859342D02*
X123683095Y-36764104D01*
X123683095Y-36764104D02*
X123635476Y-36668866D01*
X123635476Y-36668866D02*
X123587857Y-36621247D01*
X123587857Y-36621247D02*
X123492619Y-36573628D01*
X123492619Y-36573628D02*
X123302143Y-36526009D01*
X123302143Y-36526009D02*
X123206905Y-36478390D01*
X123206905Y-36478390D02*
X123159286Y-36430771D01*
X123159286Y-36430771D02*
X123111667Y-36335533D01*
X123111667Y-36335533D02*
X123111667Y-36240295D01*
X123111667Y-36240295D02*
X123159286Y-36145057D01*
X123159286Y-36145057D02*
X123206905Y-36097438D01*
X123206905Y-36097438D02*
X123302143Y-36049819D01*
X123302143Y-36049819D02*
X123540238Y-36049819D01*
X123540238Y-36049819D02*
X123683095Y-36097438D01*
X124016429Y-36049819D02*
X124254524Y-37049819D01*
X124254524Y-37049819D02*
X124445000Y-36335533D01*
X124445000Y-36335533D02*
X124635476Y-37049819D01*
X124635476Y-37049819D02*
X124873572Y-36049819D01*
X125730714Y-36049819D02*
X125254524Y-36049819D01*
X125254524Y-36049819D02*
X125206905Y-36526009D01*
X125206905Y-36526009D02*
X125254524Y-36478390D01*
X125254524Y-36478390D02*
X125349762Y-36430771D01*
X125349762Y-36430771D02*
X125587857Y-36430771D01*
X125587857Y-36430771D02*
X125683095Y-36478390D01*
X125683095Y-36478390D02*
X125730714Y-36526009D01*
X125730714Y-36526009D02*
X125778333Y-36621247D01*
X125778333Y-36621247D02*
X125778333Y-36859342D01*
X125778333Y-36859342D02*
X125730714Y-36954580D01*
X125730714Y-36954580D02*
X125683095Y-37002200D01*
X125683095Y-37002200D02*
X125587857Y-37049819D01*
X125587857Y-37049819D02*
X125349762Y-37049819D01*
X125349762Y-37049819D02*
X125254524Y-37002200D01*
X125254524Y-37002200D02*
X125206905Y-36954580D01*
X122635476Y-54052200D02*
X122778333Y-54099819D01*
X122778333Y-54099819D02*
X123016428Y-54099819D01*
X123016428Y-54099819D02*
X123111666Y-54052200D01*
X123111666Y-54052200D02*
X123159285Y-54004580D01*
X123159285Y-54004580D02*
X123206904Y-53909342D01*
X123206904Y-53909342D02*
X123206904Y-53814104D01*
X123206904Y-53814104D02*
X123159285Y-53718866D01*
X123159285Y-53718866D02*
X123111666Y-53671247D01*
X123111666Y-53671247D02*
X123016428Y-53623628D01*
X123016428Y-53623628D02*
X122825952Y-53576009D01*
X122825952Y-53576009D02*
X122730714Y-53528390D01*
X122730714Y-53528390D02*
X122683095Y-53480771D01*
X122683095Y-53480771D02*
X122635476Y-53385533D01*
X122635476Y-53385533D02*
X122635476Y-53290295D01*
X122635476Y-53290295D02*
X122683095Y-53195057D01*
X122683095Y-53195057D02*
X122730714Y-53147438D01*
X122730714Y-53147438D02*
X122825952Y-53099819D01*
X122825952Y-53099819D02*
X123064047Y-53099819D01*
X123064047Y-53099819D02*
X123206904Y-53147438D01*
X123540238Y-53099819D02*
X123778333Y-54099819D01*
X123778333Y-54099819D02*
X123968809Y-53385533D01*
X123968809Y-53385533D02*
X124159285Y-54099819D01*
X124159285Y-54099819D02*
X124397381Y-53099819D01*
X125302142Y-54099819D02*
X124730714Y-54099819D01*
X125016428Y-54099819D02*
X125016428Y-53099819D01*
X125016428Y-53099819D02*
X124921190Y-53242676D01*
X124921190Y-53242676D02*
X124825952Y-53337914D01*
X124825952Y-53337914D02*
X124730714Y-53385533D01*
X126254523Y-54099819D02*
X125683095Y-54099819D01*
X125968809Y-54099819D02*
X125968809Y-53099819D01*
X125968809Y-53099819D02*
X125873571Y-53242676D01*
X125873571Y-53242676D02*
X125778333Y-53337914D01*
X125778333Y-53337914D02*
X125683095Y-53385533D01*
X46611667Y-57452200D02*
X46754524Y-57499819D01*
X46754524Y-57499819D02*
X46992619Y-57499819D01*
X46992619Y-57499819D02*
X47087857Y-57452200D01*
X47087857Y-57452200D02*
X47135476Y-57404580D01*
X47135476Y-57404580D02*
X47183095Y-57309342D01*
X47183095Y-57309342D02*
X47183095Y-57214104D01*
X47183095Y-57214104D02*
X47135476Y-57118866D01*
X47135476Y-57118866D02*
X47087857Y-57071247D01*
X47087857Y-57071247D02*
X46992619Y-57023628D01*
X46992619Y-57023628D02*
X46802143Y-56976009D01*
X46802143Y-56976009D02*
X46706905Y-56928390D01*
X46706905Y-56928390D02*
X46659286Y-56880771D01*
X46659286Y-56880771D02*
X46611667Y-56785533D01*
X46611667Y-56785533D02*
X46611667Y-56690295D01*
X46611667Y-56690295D02*
X46659286Y-56595057D01*
X46659286Y-56595057D02*
X46706905Y-56547438D01*
X46706905Y-56547438D02*
X46802143Y-56499819D01*
X46802143Y-56499819D02*
X47040238Y-56499819D01*
X47040238Y-56499819D02*
X47183095Y-56547438D01*
X47516429Y-56499819D02*
X47754524Y-57499819D01*
X47754524Y-57499819D02*
X47945000Y-56785533D01*
X47945000Y-56785533D02*
X48135476Y-57499819D01*
X48135476Y-57499819D02*
X48373572Y-56499819D01*
X48659286Y-56499819D02*
X49325952Y-56499819D01*
X49325952Y-56499819D02*
X48897381Y-57499819D01*
X69111667Y-40402200D02*
X69254524Y-40449819D01*
X69254524Y-40449819D02*
X69492619Y-40449819D01*
X69492619Y-40449819D02*
X69587857Y-40402200D01*
X69587857Y-40402200D02*
X69635476Y-40354580D01*
X69635476Y-40354580D02*
X69683095Y-40259342D01*
X69683095Y-40259342D02*
X69683095Y-40164104D01*
X69683095Y-40164104D02*
X69635476Y-40068866D01*
X69635476Y-40068866D02*
X69587857Y-40021247D01*
X69587857Y-40021247D02*
X69492619Y-39973628D01*
X69492619Y-39973628D02*
X69302143Y-39926009D01*
X69302143Y-39926009D02*
X69206905Y-39878390D01*
X69206905Y-39878390D02*
X69159286Y-39830771D01*
X69159286Y-39830771D02*
X69111667Y-39735533D01*
X69111667Y-39735533D02*
X69111667Y-39640295D01*
X69111667Y-39640295D02*
X69159286Y-39545057D01*
X69159286Y-39545057D02*
X69206905Y-39497438D01*
X69206905Y-39497438D02*
X69302143Y-39449819D01*
X69302143Y-39449819D02*
X69540238Y-39449819D01*
X69540238Y-39449819D02*
X69683095Y-39497438D01*
X70016429Y-39449819D02*
X70254524Y-40449819D01*
X70254524Y-40449819D02*
X70445000Y-39735533D01*
X70445000Y-39735533D02*
X70635476Y-40449819D01*
X70635476Y-40449819D02*
X70873572Y-39449819D01*
X71206905Y-39545057D02*
X71254524Y-39497438D01*
X71254524Y-39497438D02*
X71349762Y-39449819D01*
X71349762Y-39449819D02*
X71587857Y-39449819D01*
X71587857Y-39449819D02*
X71683095Y-39497438D01*
X71683095Y-39497438D02*
X71730714Y-39545057D01*
X71730714Y-39545057D02*
X71778333Y-39640295D01*
X71778333Y-39640295D02*
X71778333Y-39735533D01*
X71778333Y-39735533D02*
X71730714Y-39878390D01*
X71730714Y-39878390D02*
X71159286Y-40449819D01*
X71159286Y-40449819D02*
X71778333Y-40449819D01*
X87111667Y-37002200D02*
X87254524Y-37049819D01*
X87254524Y-37049819D02*
X87492619Y-37049819D01*
X87492619Y-37049819D02*
X87587857Y-37002200D01*
X87587857Y-37002200D02*
X87635476Y-36954580D01*
X87635476Y-36954580D02*
X87683095Y-36859342D01*
X87683095Y-36859342D02*
X87683095Y-36764104D01*
X87683095Y-36764104D02*
X87635476Y-36668866D01*
X87635476Y-36668866D02*
X87587857Y-36621247D01*
X87587857Y-36621247D02*
X87492619Y-36573628D01*
X87492619Y-36573628D02*
X87302143Y-36526009D01*
X87302143Y-36526009D02*
X87206905Y-36478390D01*
X87206905Y-36478390D02*
X87159286Y-36430771D01*
X87159286Y-36430771D02*
X87111667Y-36335533D01*
X87111667Y-36335533D02*
X87111667Y-36240295D01*
X87111667Y-36240295D02*
X87159286Y-36145057D01*
X87159286Y-36145057D02*
X87206905Y-36097438D01*
X87206905Y-36097438D02*
X87302143Y-36049819D01*
X87302143Y-36049819D02*
X87540238Y-36049819D01*
X87540238Y-36049819D02*
X87683095Y-36097438D01*
X88016429Y-36049819D02*
X88254524Y-37049819D01*
X88254524Y-37049819D02*
X88445000Y-36335533D01*
X88445000Y-36335533D02*
X88635476Y-37049819D01*
X88635476Y-37049819D02*
X88873572Y-36049819D01*
X89159286Y-36049819D02*
X89778333Y-36049819D01*
X89778333Y-36049819D02*
X89445000Y-36430771D01*
X89445000Y-36430771D02*
X89587857Y-36430771D01*
X89587857Y-36430771D02*
X89683095Y-36478390D01*
X89683095Y-36478390D02*
X89730714Y-36526009D01*
X89730714Y-36526009D02*
X89778333Y-36621247D01*
X89778333Y-36621247D02*
X89778333Y-36859342D01*
X89778333Y-36859342D02*
X89730714Y-36954580D01*
X89730714Y-36954580D02*
X89683095Y-37002200D01*
X89683095Y-37002200D02*
X89587857Y-37049819D01*
X89587857Y-37049819D02*
X89302143Y-37049819D01*
X89302143Y-37049819D02*
X89206905Y-37002200D01*
X89206905Y-37002200D02*
X89159286Y-36954580D01*
X86635476Y-71052200D02*
X86778333Y-71099819D01*
X86778333Y-71099819D02*
X87016428Y-71099819D01*
X87016428Y-71099819D02*
X87111666Y-71052200D01*
X87111666Y-71052200D02*
X87159285Y-71004580D01*
X87159285Y-71004580D02*
X87206904Y-70909342D01*
X87206904Y-70909342D02*
X87206904Y-70814104D01*
X87206904Y-70814104D02*
X87159285Y-70718866D01*
X87159285Y-70718866D02*
X87111666Y-70671247D01*
X87111666Y-70671247D02*
X87016428Y-70623628D01*
X87016428Y-70623628D02*
X86825952Y-70576009D01*
X86825952Y-70576009D02*
X86730714Y-70528390D01*
X86730714Y-70528390D02*
X86683095Y-70480771D01*
X86683095Y-70480771D02*
X86635476Y-70385533D01*
X86635476Y-70385533D02*
X86635476Y-70290295D01*
X86635476Y-70290295D02*
X86683095Y-70195057D01*
X86683095Y-70195057D02*
X86730714Y-70147438D01*
X86730714Y-70147438D02*
X86825952Y-70099819D01*
X86825952Y-70099819D02*
X87064047Y-70099819D01*
X87064047Y-70099819D02*
X87206904Y-70147438D01*
X87540238Y-70099819D02*
X87778333Y-71099819D01*
X87778333Y-71099819D02*
X87968809Y-70385533D01*
X87968809Y-70385533D02*
X88159285Y-71099819D01*
X88159285Y-71099819D02*
X88397381Y-70099819D01*
X89302142Y-71099819D02*
X88730714Y-71099819D01*
X89016428Y-71099819D02*
X89016428Y-70099819D01*
X89016428Y-70099819D02*
X88921190Y-70242676D01*
X88921190Y-70242676D02*
X88825952Y-70337914D01*
X88825952Y-70337914D02*
X88730714Y-70385533D01*
X90206904Y-70099819D02*
X89730714Y-70099819D01*
X89730714Y-70099819D02*
X89683095Y-70576009D01*
X89683095Y-70576009D02*
X89730714Y-70528390D01*
X89730714Y-70528390D02*
X89825952Y-70480771D01*
X89825952Y-70480771D02*
X90064047Y-70480771D01*
X90064047Y-70480771D02*
X90159285Y-70528390D01*
X90159285Y-70528390D02*
X90206904Y-70576009D01*
X90206904Y-70576009D02*
X90254523Y-70671247D01*
X90254523Y-70671247D02*
X90254523Y-70909342D01*
X90254523Y-70909342D02*
X90206904Y-71004580D01*
X90206904Y-71004580D02*
X90159285Y-71052200D01*
X90159285Y-71052200D02*
X90064047Y-71099819D01*
X90064047Y-71099819D02*
X89825952Y-71099819D01*
X89825952Y-71099819D02*
X89730714Y-71052200D01*
X89730714Y-71052200D02*
X89683095Y-71004580D01*
X105111667Y-33402200D02*
X105254524Y-33449819D01*
X105254524Y-33449819D02*
X105492619Y-33449819D01*
X105492619Y-33449819D02*
X105587857Y-33402200D01*
X105587857Y-33402200D02*
X105635476Y-33354580D01*
X105635476Y-33354580D02*
X105683095Y-33259342D01*
X105683095Y-33259342D02*
X105683095Y-33164104D01*
X105683095Y-33164104D02*
X105635476Y-33068866D01*
X105635476Y-33068866D02*
X105587857Y-33021247D01*
X105587857Y-33021247D02*
X105492619Y-32973628D01*
X105492619Y-32973628D02*
X105302143Y-32926009D01*
X105302143Y-32926009D02*
X105206905Y-32878390D01*
X105206905Y-32878390D02*
X105159286Y-32830771D01*
X105159286Y-32830771D02*
X105111667Y-32735533D01*
X105111667Y-32735533D02*
X105111667Y-32640295D01*
X105111667Y-32640295D02*
X105159286Y-32545057D01*
X105159286Y-32545057D02*
X105206905Y-32497438D01*
X105206905Y-32497438D02*
X105302143Y-32449819D01*
X105302143Y-32449819D02*
X105540238Y-32449819D01*
X105540238Y-32449819D02*
X105683095Y-32497438D01*
X106016429Y-32449819D02*
X106254524Y-33449819D01*
X106254524Y-33449819D02*
X106445000Y-32735533D01*
X106445000Y-32735533D02*
X106635476Y-33449819D01*
X106635476Y-33449819D02*
X106873572Y-32449819D01*
X107683095Y-32783152D02*
X107683095Y-33449819D01*
X107445000Y-32402200D02*
X107206905Y-33116485D01*
X107206905Y-33116485D02*
X107825952Y-33116485D01*
X104635476Y-84502200D02*
X104778333Y-84549819D01*
X104778333Y-84549819D02*
X105016428Y-84549819D01*
X105016428Y-84549819D02*
X105111666Y-84502200D01*
X105111666Y-84502200D02*
X105159285Y-84454580D01*
X105159285Y-84454580D02*
X105206904Y-84359342D01*
X105206904Y-84359342D02*
X105206904Y-84264104D01*
X105206904Y-84264104D02*
X105159285Y-84168866D01*
X105159285Y-84168866D02*
X105111666Y-84121247D01*
X105111666Y-84121247D02*
X105016428Y-84073628D01*
X105016428Y-84073628D02*
X104825952Y-84026009D01*
X104825952Y-84026009D02*
X104730714Y-83978390D01*
X104730714Y-83978390D02*
X104683095Y-83930771D01*
X104683095Y-83930771D02*
X104635476Y-83835533D01*
X104635476Y-83835533D02*
X104635476Y-83740295D01*
X104635476Y-83740295D02*
X104683095Y-83645057D01*
X104683095Y-83645057D02*
X104730714Y-83597438D01*
X104730714Y-83597438D02*
X104825952Y-83549819D01*
X104825952Y-83549819D02*
X105064047Y-83549819D01*
X105064047Y-83549819D02*
X105206904Y-83597438D01*
X105540238Y-83549819D02*
X105778333Y-84549819D01*
X105778333Y-84549819D02*
X105968809Y-83835533D01*
X105968809Y-83835533D02*
X106159285Y-84549819D01*
X106159285Y-84549819D02*
X106397381Y-83549819D01*
X106730714Y-83645057D02*
X106778333Y-83597438D01*
X106778333Y-83597438D02*
X106873571Y-83549819D01*
X106873571Y-83549819D02*
X107111666Y-83549819D01*
X107111666Y-83549819D02*
X107206904Y-83597438D01*
X107206904Y-83597438D02*
X107254523Y-83645057D01*
X107254523Y-83645057D02*
X107302142Y-83740295D01*
X107302142Y-83740295D02*
X107302142Y-83835533D01*
X107302142Y-83835533D02*
X107254523Y-83978390D01*
X107254523Y-83978390D02*
X106683095Y-84549819D01*
X106683095Y-84549819D02*
X107302142Y-84549819D01*
X107683095Y-83645057D02*
X107730714Y-83597438D01*
X107730714Y-83597438D02*
X107825952Y-83549819D01*
X107825952Y-83549819D02*
X108064047Y-83549819D01*
X108064047Y-83549819D02*
X108159285Y-83597438D01*
X108159285Y-83597438D02*
X108206904Y-83645057D01*
X108206904Y-83645057D02*
X108254523Y-83740295D01*
X108254523Y-83740295D02*
X108254523Y-83835533D01*
X108254523Y-83835533D02*
X108206904Y-83978390D01*
X108206904Y-83978390D02*
X107635476Y-84549819D01*
X107635476Y-84549819D02*
X108254523Y-84549819D01*
X46611667Y-40402200D02*
X46754524Y-40449819D01*
X46754524Y-40449819D02*
X46992619Y-40449819D01*
X46992619Y-40449819D02*
X47087857Y-40402200D01*
X47087857Y-40402200D02*
X47135476Y-40354580D01*
X47135476Y-40354580D02*
X47183095Y-40259342D01*
X47183095Y-40259342D02*
X47183095Y-40164104D01*
X47183095Y-40164104D02*
X47135476Y-40068866D01*
X47135476Y-40068866D02*
X47087857Y-40021247D01*
X47087857Y-40021247D02*
X46992619Y-39973628D01*
X46992619Y-39973628D02*
X46802143Y-39926009D01*
X46802143Y-39926009D02*
X46706905Y-39878390D01*
X46706905Y-39878390D02*
X46659286Y-39830771D01*
X46659286Y-39830771D02*
X46611667Y-39735533D01*
X46611667Y-39735533D02*
X46611667Y-39640295D01*
X46611667Y-39640295D02*
X46659286Y-39545057D01*
X46659286Y-39545057D02*
X46706905Y-39497438D01*
X46706905Y-39497438D02*
X46802143Y-39449819D01*
X46802143Y-39449819D02*
X47040238Y-39449819D01*
X47040238Y-39449819D02*
X47183095Y-39497438D01*
X47516429Y-39449819D02*
X47754524Y-40449819D01*
X47754524Y-40449819D02*
X47945000Y-39735533D01*
X47945000Y-39735533D02*
X48135476Y-40449819D01*
X48135476Y-40449819D02*
X48373572Y-39449819D01*
X49278333Y-40449819D02*
X48706905Y-40449819D01*
X48992619Y-40449819D02*
X48992619Y-39449819D01*
X48992619Y-39449819D02*
X48897381Y-39592676D01*
X48897381Y-39592676D02*
X48802143Y-39687914D01*
X48802143Y-39687914D02*
X48706905Y-39735533D01*
X68635476Y-74452200D02*
X68778333Y-74499819D01*
X68778333Y-74499819D02*
X69016428Y-74499819D01*
X69016428Y-74499819D02*
X69111666Y-74452200D01*
X69111666Y-74452200D02*
X69159285Y-74404580D01*
X69159285Y-74404580D02*
X69206904Y-74309342D01*
X69206904Y-74309342D02*
X69206904Y-74214104D01*
X69206904Y-74214104D02*
X69159285Y-74118866D01*
X69159285Y-74118866D02*
X69111666Y-74071247D01*
X69111666Y-74071247D02*
X69016428Y-74023628D01*
X69016428Y-74023628D02*
X68825952Y-73976009D01*
X68825952Y-73976009D02*
X68730714Y-73928390D01*
X68730714Y-73928390D02*
X68683095Y-73880771D01*
X68683095Y-73880771D02*
X68635476Y-73785533D01*
X68635476Y-73785533D02*
X68635476Y-73690295D01*
X68635476Y-73690295D02*
X68683095Y-73595057D01*
X68683095Y-73595057D02*
X68730714Y-73547438D01*
X68730714Y-73547438D02*
X68825952Y-73499819D01*
X68825952Y-73499819D02*
X69064047Y-73499819D01*
X69064047Y-73499819D02*
X69206904Y-73547438D01*
X69540238Y-73499819D02*
X69778333Y-74499819D01*
X69778333Y-74499819D02*
X69968809Y-73785533D01*
X69968809Y-73785533D02*
X70159285Y-74499819D01*
X70159285Y-74499819D02*
X70397381Y-73499819D01*
X71302142Y-74499819D02*
X70730714Y-74499819D01*
X71016428Y-74499819D02*
X71016428Y-73499819D01*
X71016428Y-73499819D02*
X70921190Y-73642676D01*
X70921190Y-73642676D02*
X70825952Y-73737914D01*
X70825952Y-73737914D02*
X70730714Y-73785533D01*
X72159285Y-73833152D02*
X72159285Y-74499819D01*
X71921190Y-73452200D02*
X71683095Y-74166485D01*
X71683095Y-74166485D02*
X72302142Y-74166485D01*
X144584576Y-115841273D02*
X144719263Y-115773929D01*
X144719263Y-115773929D02*
X144887622Y-115605571D01*
X144887622Y-115605571D02*
X144921293Y-115504555D01*
X144921293Y-115504555D02*
X144921293Y-115437212D01*
X144921293Y-115437212D02*
X144887622Y-115336197D01*
X144887622Y-115336197D02*
X144820278Y-115268853D01*
X144820278Y-115268853D02*
X144719263Y-115235181D01*
X144719263Y-115235181D02*
X144651919Y-115235181D01*
X144651919Y-115235181D02*
X144550904Y-115268853D01*
X144550904Y-115268853D02*
X144382545Y-115369868D01*
X144382545Y-115369868D02*
X144281530Y-115403540D01*
X144281530Y-115403540D02*
X144214187Y-115403540D01*
X144214187Y-115403540D02*
X144113171Y-115369868D01*
X144113171Y-115369868D02*
X144045828Y-115302525D01*
X144045828Y-115302525D02*
X144012156Y-115201510D01*
X144012156Y-115201510D02*
X144012156Y-115134166D01*
X144012156Y-115134166D02*
X144045828Y-115033151D01*
X144045828Y-115033151D02*
X144214187Y-114864792D01*
X144214187Y-114864792D02*
X144348874Y-114797449D01*
X144550904Y-114528075D02*
X145426370Y-115066823D01*
X145426370Y-115066823D02*
X145055980Y-114427059D01*
X145055980Y-114427059D02*
X145695744Y-114797449D01*
X145695744Y-114797449D02*
X145156996Y-113921983D01*
X145460041Y-113753624D02*
X145460041Y-113686281D01*
X145460041Y-113686281D02*
X145493713Y-113585266D01*
X145493713Y-113585266D02*
X145662072Y-113416907D01*
X145662072Y-113416907D02*
X145763087Y-113383235D01*
X145763087Y-113383235D02*
X145830431Y-113383235D01*
X145830431Y-113383235D02*
X145931446Y-113416907D01*
X145931446Y-113416907D02*
X145998789Y-113484250D01*
X145998789Y-113484250D02*
X146066133Y-113618937D01*
X146066133Y-113618937D02*
X146066133Y-114427059D01*
X146066133Y-114427059D02*
X146503866Y-113989327D01*
X146840583Y-113652609D02*
X146975270Y-113517922D01*
X146975270Y-113517922D02*
X147008942Y-113416907D01*
X147008942Y-113416907D02*
X147008942Y-113349563D01*
X147008942Y-113349563D02*
X146975270Y-113181205D01*
X146975270Y-113181205D02*
X146874255Y-113012846D01*
X146874255Y-113012846D02*
X146604881Y-112743472D01*
X146604881Y-112743472D02*
X146503866Y-112709800D01*
X146503866Y-112709800D02*
X146436522Y-112709800D01*
X146436522Y-112709800D02*
X146335507Y-112743472D01*
X146335507Y-112743472D02*
X146200820Y-112878159D01*
X146200820Y-112878159D02*
X146167148Y-112979174D01*
X146167148Y-112979174D02*
X146167148Y-113046518D01*
X146167148Y-113046518D02*
X146200820Y-113147533D01*
X146200820Y-113147533D02*
X146369179Y-113315892D01*
X146369179Y-113315892D02*
X146470194Y-113349563D01*
X146470194Y-113349563D02*
X146537537Y-113349563D01*
X146537537Y-113349563D02*
X146638553Y-113315892D01*
X146638553Y-113315892D02*
X146773240Y-113181205D01*
X146773240Y-113181205D02*
X146806911Y-113080189D01*
X146806911Y-113080189D02*
X146806911Y-113012846D01*
X146806911Y-113012846D02*
X146773240Y-112911831D01*
X156645524Y-127910024D02*
X156780211Y-127842680D01*
X156780211Y-127842680D02*
X156948570Y-127674322D01*
X156948570Y-127674322D02*
X156982241Y-127573306D01*
X156982241Y-127573306D02*
X156982241Y-127505963D01*
X156982241Y-127505963D02*
X156948570Y-127404948D01*
X156948570Y-127404948D02*
X156881226Y-127337604D01*
X156881226Y-127337604D02*
X156780211Y-127303932D01*
X156780211Y-127303932D02*
X156712867Y-127303932D01*
X156712867Y-127303932D02*
X156611852Y-127337604D01*
X156611852Y-127337604D02*
X156443493Y-127438619D01*
X156443493Y-127438619D02*
X156342478Y-127472291D01*
X156342478Y-127472291D02*
X156275135Y-127472291D01*
X156275135Y-127472291D02*
X156174119Y-127438619D01*
X156174119Y-127438619D02*
X156106776Y-127371276D01*
X156106776Y-127371276D02*
X156073104Y-127270261D01*
X156073104Y-127270261D02*
X156073104Y-127202917D01*
X156073104Y-127202917D02*
X156106776Y-127101902D01*
X156106776Y-127101902D02*
X156275135Y-126933543D01*
X156275135Y-126933543D02*
X156409822Y-126866200D01*
X156611852Y-126596826D02*
X157487318Y-127135574D01*
X157487318Y-127135574D02*
X157116928Y-126495810D01*
X157116928Y-126495810D02*
X157756692Y-126866200D01*
X157756692Y-126866200D02*
X157217944Y-125990734D01*
X157419974Y-125788704D02*
X157857707Y-125350971D01*
X157857707Y-125350971D02*
X157891379Y-125856047D01*
X157891379Y-125856047D02*
X157992394Y-125755032D01*
X157992394Y-125755032D02*
X158093409Y-125721360D01*
X158093409Y-125721360D02*
X158160753Y-125721360D01*
X158160753Y-125721360D02*
X158261768Y-125755032D01*
X158261768Y-125755032D02*
X158430127Y-125923391D01*
X158430127Y-125923391D02*
X158463798Y-126024406D01*
X158463798Y-126024406D02*
X158463798Y-126091749D01*
X158463798Y-126091749D02*
X158430127Y-126192765D01*
X158430127Y-126192765D02*
X158228096Y-126394795D01*
X158228096Y-126394795D02*
X158127081Y-126428467D01*
X158127081Y-126428467D02*
X158059737Y-126428467D01*
X158295440Y-124913238D02*
X158362783Y-124845895D01*
X158362783Y-124845895D02*
X158463798Y-124812223D01*
X158463798Y-124812223D02*
X158531142Y-124812223D01*
X158531142Y-124812223D02*
X158632157Y-124845895D01*
X158632157Y-124845895D02*
X158800516Y-124946910D01*
X158800516Y-124946910D02*
X158968875Y-125115269D01*
X158968875Y-125115269D02*
X159069890Y-125283627D01*
X159069890Y-125283627D02*
X159103562Y-125384643D01*
X159103562Y-125384643D02*
X159103562Y-125451986D01*
X159103562Y-125451986D02*
X159069890Y-125553001D01*
X159069890Y-125553001D02*
X159002546Y-125620345D01*
X159002546Y-125620345D02*
X158901531Y-125654017D01*
X158901531Y-125654017D02*
X158834188Y-125654017D01*
X158834188Y-125654017D02*
X158733172Y-125620345D01*
X158733172Y-125620345D02*
X158564814Y-125519330D01*
X158564814Y-125519330D02*
X158396455Y-125350971D01*
X158396455Y-125350971D02*
X158295440Y-125182612D01*
X158295440Y-125182612D02*
X158261768Y-125081597D01*
X158261768Y-125081597D02*
X158261768Y-125014253D01*
X158261768Y-125014253D02*
X158295440Y-124913238D01*
D13*
%TO.C,D10*%
X91880000Y-47090000D02*
X91880000Y-51330000D01*
X91880000Y-51330000D02*
X94120000Y-51330000D01*
X93000000Y-46440000D02*
X93000000Y-47090000D01*
X93000000Y-51980000D02*
X93000000Y-51330000D01*
X94120000Y-47090000D02*
X91880000Y-47090000D01*
X94120000Y-47690000D02*
X91880000Y-47690000D01*
X94120000Y-47810000D02*
X91880000Y-47810000D01*
X94120000Y-47930000D02*
X91880000Y-47930000D01*
X94120000Y-51330000D02*
X94120000Y-47090000D01*
%TO.C,REF\u002A\u002A11*%
X162100000Y-65960000D02*
X164900000Y-65960000D01*
X162100000Y-67960000D02*
X162100000Y-65960000D01*
X164900000Y-65960000D02*
X164900000Y-67960000D01*
X164900000Y-67960000D02*
X162100000Y-67960000D01*
D12*
%TO.C,SW13*%
X46000000Y-78150000D02*
G75*
G02*
X44500000Y-79650000I-1500000J0D01*
G01*
X45500000Y-82650000D02*
G75*
G02*
X46000000Y-82150000I500000J0D01*
G01*
X50500000Y-82950000D02*
X49500000Y-82950000D01*
X50500000Y-82150000D02*
X46000000Y-82150000D01*
X50500000Y-81950000D02*
X50500000Y-82950000D01*
X50500000Y-81550000D02*
X50500000Y-82150000D01*
X50500000Y-77450000D02*
X50500000Y-77950000D01*
X50500000Y-68950000D02*
X50500000Y-69950000D01*
X49500000Y-68950000D02*
X50500000Y-68950000D01*
X46000000Y-78150000D02*
X46000000Y-77450000D01*
X46000000Y-77450000D02*
X50500000Y-77450000D01*
X45500000Y-82650000D02*
X45500000Y-83650000D01*
X45000000Y-84150000D02*
X45500000Y-83650000D01*
X42000000Y-84150000D02*
X45000000Y-84150000D01*
X42000000Y-79650000D02*
X44500000Y-79650000D01*
X41500000Y-83650000D02*
X42000000Y-84150000D01*
X41500000Y-80150000D02*
X42000000Y-79650000D01*
X37500000Y-82950000D02*
X36500000Y-82950000D01*
X36500000Y-82950000D02*
X36500000Y-81950000D01*
X36500000Y-69950000D02*
X36500000Y-68950000D01*
X36500000Y-68950000D02*
X37500000Y-68950000D01*
%TO.C,SW20*%
X59000000Y-86000000D02*
X60000000Y-86000000D01*
X59000000Y-87000000D02*
X59000000Y-86000000D01*
X59000000Y-100000000D02*
X59000000Y-99000000D01*
X60000000Y-100000000D02*
X59000000Y-100000000D01*
X64000000Y-97200000D02*
X64500000Y-96700000D01*
X64000000Y-100700000D02*
X64500000Y-101200000D01*
X64500000Y-96700000D02*
X67000000Y-96700000D01*
X64500000Y-101200000D02*
X67500000Y-101200000D01*
X67500000Y-101200000D02*
X68000000Y-100700000D01*
X68000000Y-99700000D02*
X68000000Y-100700000D01*
X68500000Y-94500000D02*
X73000000Y-94500000D01*
X68500000Y-95200000D02*
X68500000Y-94500000D01*
X72000000Y-86000000D02*
X73000000Y-86000000D01*
X73000000Y-86000000D02*
X73000000Y-87000000D01*
X73000000Y-94500000D02*
X73000000Y-95000000D01*
X73000000Y-98600000D02*
X73000000Y-99200000D01*
X73000000Y-99000000D02*
X73000000Y-100000000D01*
X73000000Y-99200000D02*
X68500000Y-99200000D01*
X73000000Y-100000000D02*
X72000000Y-100000000D01*
X68000000Y-99700000D02*
G75*
G02*
X68500000Y-99200000I500000J0D01*
G01*
X68500000Y-95200000D02*
G75*
G02*
X67000000Y-96700000I-1500000J0D01*
G01*
D13*
%TO.C,D19*%
X31380000Y-88090000D02*
X31380000Y-92330000D01*
X31380000Y-92330000D02*
X33620000Y-92330000D01*
X32500000Y-87440000D02*
X32500000Y-88090000D01*
X32500000Y-92980000D02*
X32500000Y-92330000D01*
X33620000Y-88090000D02*
X31380000Y-88090000D01*
X33620000Y-88690000D02*
X31380000Y-88690000D01*
X33620000Y-88810000D02*
X31380000Y-88810000D01*
X33620000Y-88930000D02*
X31380000Y-88930000D01*
X33620000Y-92330000D02*
X33620000Y-88090000D01*
D12*
%TO.C,SW21*%
X77000000Y-82600000D02*
X78000000Y-82600000D01*
X77000000Y-83600000D02*
X77000000Y-82600000D01*
X77000000Y-96600000D02*
X77000000Y-95600000D01*
X78000000Y-96600000D02*
X77000000Y-96600000D01*
X82000000Y-93800000D02*
X82500000Y-93300000D01*
X82000000Y-97300000D02*
X82500000Y-97800000D01*
X82500000Y-93300000D02*
X85000000Y-93300000D01*
X82500000Y-97800000D02*
X85500000Y-97800000D01*
X85500000Y-97800000D02*
X86000000Y-97300000D01*
X86000000Y-96300000D02*
X86000000Y-97300000D01*
X86500000Y-91100000D02*
X91000000Y-91100000D01*
X86500000Y-91800000D02*
X86500000Y-91100000D01*
X90000000Y-82600000D02*
X91000000Y-82600000D01*
X91000000Y-82600000D02*
X91000000Y-83600000D01*
X91000000Y-91100000D02*
X91000000Y-91600000D01*
X91000000Y-95200000D02*
X91000000Y-95800000D01*
X91000000Y-95600000D02*
X91000000Y-96600000D01*
X91000000Y-95800000D02*
X86500000Y-95800000D01*
X91000000Y-96600000D02*
X90000000Y-96600000D01*
X86000000Y-96300000D02*
G75*
G02*
X86500000Y-95800000I500000J0D01*
G01*
X86500000Y-91800000D02*
G75*
G02*
X85000000Y-93300000I-1500000J0D01*
G01*
D13*
%TO.C,D21*%
X73880000Y-84690000D02*
X73880000Y-88930000D01*
X73880000Y-88930000D02*
X76120000Y-88930000D01*
X75000000Y-84040000D02*
X75000000Y-84690000D01*
X75000000Y-89580000D02*
X75000000Y-88930000D01*
X76120000Y-84690000D02*
X73880000Y-84690000D01*
X76120000Y-85290000D02*
X73880000Y-85290000D01*
X76120000Y-85410000D02*
X73880000Y-85410000D01*
X76120000Y-85530000D02*
X73880000Y-85530000D01*
X76120000Y-88930000D02*
X76120000Y-84690000D01*
D12*
%TO.C,SW23*%
X113000000Y-82600000D02*
X114000000Y-82600000D01*
X113000000Y-83600000D02*
X113000000Y-82600000D01*
X113000000Y-96600000D02*
X113000000Y-95600000D01*
X114000000Y-96600000D02*
X113000000Y-96600000D01*
X118000000Y-93800000D02*
X118500000Y-93300000D01*
X118000000Y-97300000D02*
X118500000Y-97800000D01*
X118500000Y-93300000D02*
X121000000Y-93300000D01*
X118500000Y-97800000D02*
X121500000Y-97800000D01*
X121500000Y-97800000D02*
X122000000Y-97300000D01*
X122000000Y-96300000D02*
X122000000Y-97300000D01*
X122500000Y-91100000D02*
X127000000Y-91100000D01*
X122500000Y-91800000D02*
X122500000Y-91100000D01*
X126000000Y-82600000D02*
X127000000Y-82600000D01*
X127000000Y-82600000D02*
X127000000Y-83600000D01*
X127000000Y-91100000D02*
X127000000Y-91600000D01*
X127000000Y-95200000D02*
X127000000Y-95800000D01*
X127000000Y-95600000D02*
X127000000Y-96600000D01*
X127000000Y-95800000D02*
X122500000Y-95800000D01*
X127000000Y-96600000D02*
X126000000Y-96600000D01*
X122000000Y-96300000D02*
G75*
G02*
X122500000Y-95800000I500000J0D01*
G01*
X122500000Y-91800000D02*
G75*
G02*
X121000000Y-93300000I-1500000J0D01*
G01*
D13*
%TO.C,D20*%
X55880000Y-88090000D02*
X55880000Y-92330000D01*
X55880000Y-92330000D02*
X58120000Y-92330000D01*
X57000000Y-87440000D02*
X57000000Y-88090000D01*
X57000000Y-92980000D02*
X57000000Y-92330000D01*
X58120000Y-88090000D02*
X55880000Y-88090000D01*
X58120000Y-88690000D02*
X55880000Y-88690000D01*
X58120000Y-88810000D02*
X55880000Y-88810000D01*
X58120000Y-88930000D02*
X55880000Y-88930000D01*
X58120000Y-92330000D02*
X58120000Y-88090000D01*
%TO.C,REF\u002A\u002A2*%
X152300000Y-63380000D02*
X155100000Y-63380000D01*
X152300000Y-65380000D02*
X152300000Y-63380000D01*
X155100000Y-63380000D02*
X155100000Y-65380000D01*
X155100000Y-65380000D02*
X152300000Y-65380000D01*
%TO.C,REF\u002A\u002A6*%
X152300000Y-53220000D02*
X155100000Y-53220000D01*
X152300000Y-55220000D02*
X152300000Y-53220000D01*
X155100000Y-53220000D02*
X155100000Y-55220000D01*
X155100000Y-55220000D02*
X152300000Y-55220000D01*
D12*
%TO.C,SW18*%
X131000000Y-68950000D02*
X132000000Y-68950000D01*
X131000000Y-69950000D02*
X131000000Y-68950000D01*
X131000000Y-82950000D02*
X131000000Y-81950000D01*
X132000000Y-82950000D02*
X131000000Y-82950000D01*
X136000000Y-80150000D02*
X136500000Y-79650000D01*
X136000000Y-83650000D02*
X136500000Y-84150000D01*
X136500000Y-79650000D02*
X139000000Y-79650000D01*
X136500000Y-84150000D02*
X139500000Y-84150000D01*
X139500000Y-84150000D02*
X140000000Y-83650000D01*
X140000000Y-82650000D02*
X140000000Y-83650000D01*
X140500000Y-77450000D02*
X145000000Y-77450000D01*
X140500000Y-78150000D02*
X140500000Y-77450000D01*
X144000000Y-68950000D02*
X145000000Y-68950000D01*
X145000000Y-68950000D02*
X145000000Y-69950000D01*
X145000000Y-77450000D02*
X145000000Y-77950000D01*
X145000000Y-81550000D02*
X145000000Y-82150000D01*
X145000000Y-81950000D02*
X145000000Y-82950000D01*
X145000000Y-82150000D02*
X140500000Y-82150000D01*
X145000000Y-82950000D02*
X144000000Y-82950000D01*
X140000000Y-82650000D02*
G75*
G02*
X140500000Y-82150000I500000J0D01*
G01*
X140500000Y-78150000D02*
G75*
G02*
X139000000Y-79650000I-1500000J0D01*
G01*
%TO.C,SW10*%
X95000000Y-44950000D02*
X96000000Y-44950000D01*
X95000000Y-45950000D02*
X95000000Y-44950000D01*
X95000000Y-58950000D02*
X95000000Y-57950000D01*
X96000000Y-58950000D02*
X95000000Y-58950000D01*
X100000000Y-56150000D02*
X100500000Y-55650000D01*
X100000000Y-59650000D02*
X100500000Y-60150000D01*
X100500000Y-55650000D02*
X103000000Y-55650000D01*
X100500000Y-60150000D02*
X103500000Y-60150000D01*
X103500000Y-60150000D02*
X104000000Y-59650000D01*
X104000000Y-58650000D02*
X104000000Y-59650000D01*
X104500000Y-53450000D02*
X109000000Y-53450000D01*
X104500000Y-54150000D02*
X104500000Y-53450000D01*
X108000000Y-44950000D02*
X109000000Y-44950000D01*
X109000000Y-44950000D02*
X109000000Y-45950000D01*
X109000000Y-53450000D02*
X109000000Y-53950000D01*
X109000000Y-57550000D02*
X109000000Y-58150000D01*
X109000000Y-57950000D02*
X109000000Y-58950000D01*
X109000000Y-58150000D02*
X104500000Y-58150000D01*
X109000000Y-58950000D02*
X108000000Y-58950000D01*
X104000000Y-58650000D02*
G75*
G02*
X104500000Y-58150000I500000J0D01*
G01*
X104500000Y-54150000D02*
G75*
G02*
X103000000Y-55650000I-1500000J0D01*
G01*
D13*
%TO.C,D18*%
X127880000Y-67440000D02*
X127880000Y-71680000D01*
X127880000Y-71680000D02*
X130120000Y-71680000D01*
X129000000Y-66790000D02*
X129000000Y-67440000D01*
X129000000Y-72330000D02*
X129000000Y-71680000D01*
X130120000Y-67440000D02*
X127880000Y-67440000D01*
X130120000Y-68040000D02*
X127880000Y-68040000D01*
X130120000Y-68160000D02*
X127880000Y-68160000D01*
X130120000Y-68280000D02*
X127880000Y-68280000D01*
X130120000Y-71680000D02*
X130120000Y-67440000D01*
%TO.C,D11*%
X109880000Y-46820000D02*
X109880000Y-51060000D01*
X109880000Y-51060000D02*
X112120000Y-51060000D01*
X111000000Y-46170000D02*
X111000000Y-46820000D01*
X111000000Y-51710000D02*
X111000000Y-51060000D01*
X112120000Y-46820000D02*
X109880000Y-46820000D01*
X112120000Y-47420000D02*
X109880000Y-47420000D01*
X112120000Y-47540000D02*
X109880000Y-47540000D01*
X112120000Y-47660000D02*
X109880000Y-47660000D01*
X112120000Y-51060000D02*
X112120000Y-46820000D01*
%TO.C,D14*%
X55880000Y-71090000D02*
X55880000Y-75330000D01*
X55880000Y-75330000D02*
X58120000Y-75330000D01*
X57000000Y-70440000D02*
X57000000Y-71090000D01*
X57000000Y-75980000D02*
X57000000Y-75330000D01*
X58120000Y-71090000D02*
X55880000Y-71090000D01*
X58120000Y-71690000D02*
X55880000Y-71690000D01*
X58120000Y-71810000D02*
X55880000Y-71810000D01*
X58120000Y-71930000D02*
X55880000Y-71930000D01*
X58120000Y-75330000D02*
X58120000Y-71090000D01*
%TO.C,REF\u002A\u002A7*%
X152300000Y-50680000D02*
X155100000Y-50680000D01*
X152300000Y-52680000D02*
X152300000Y-50680000D01*
X155100000Y-50680000D02*
X155100000Y-52680000D01*
X155100000Y-52680000D02*
X152300000Y-52680000D01*
D12*
%TO.C,SW27*%
X94980000Y-99600000D02*
X95980000Y-99600000D01*
X94980000Y-100600000D02*
X94980000Y-99600000D01*
X94980000Y-113600000D02*
X94980000Y-112600000D01*
X95980000Y-113600000D02*
X94980000Y-113600000D01*
X99980000Y-110800000D02*
X100480000Y-110300000D01*
X99980000Y-114300000D02*
X100480000Y-114800000D01*
X100480000Y-110300000D02*
X102980000Y-110300000D01*
X100480000Y-114800000D02*
X103480000Y-114800000D01*
X103480000Y-114800000D02*
X103980000Y-114300000D01*
X103980000Y-113300000D02*
X103980000Y-114300000D01*
X104480000Y-108100000D02*
X108980000Y-108100000D01*
X104480000Y-108800000D02*
X104480000Y-108100000D01*
X107980000Y-99600000D02*
X108980000Y-99600000D01*
X108980000Y-99600000D02*
X108980000Y-100600000D01*
X108980000Y-108100000D02*
X108980000Y-108600000D01*
X108980000Y-112200000D02*
X108980000Y-112800000D01*
X108980000Y-112600000D02*
X108980000Y-113600000D01*
X108980000Y-112800000D02*
X104480000Y-112800000D01*
X108980000Y-113600000D02*
X107980000Y-113600000D01*
X103980000Y-113300000D02*
G75*
G02*
X104480000Y-112800000I500000J0D01*
G01*
X104480000Y-108800000D02*
G75*
G02*
X102980000Y-110300000I-1500000J0D01*
G01*
D13*
%TO.C,D1*%
X31380000Y-37090000D02*
X31380000Y-41330000D01*
X31380000Y-41330000D02*
X33620000Y-41330000D01*
X32500000Y-36440000D02*
X32500000Y-37090000D01*
X32500000Y-41980000D02*
X32500000Y-41330000D01*
X33620000Y-37090000D02*
X31380000Y-37090000D01*
X33620000Y-37690000D02*
X31380000Y-37690000D01*
X33620000Y-37810000D02*
X31380000Y-37810000D01*
X33620000Y-37930000D02*
X31380000Y-37930000D01*
X33620000Y-41330000D02*
X33620000Y-37090000D01*
D12*
%TO.C,SW6*%
X131000000Y-34900000D02*
X132000000Y-34900000D01*
X131000000Y-35900000D02*
X131000000Y-34900000D01*
X131000000Y-48900000D02*
X131000000Y-47900000D01*
X132000000Y-48900000D02*
X131000000Y-48900000D01*
X136000000Y-46100000D02*
X136500000Y-45600000D01*
X136000000Y-49600000D02*
X136500000Y-50100000D01*
X136500000Y-45600000D02*
X139000000Y-45600000D01*
X136500000Y-50100000D02*
X139500000Y-50100000D01*
X139500000Y-50100000D02*
X140000000Y-49600000D01*
X140000000Y-48600000D02*
X140000000Y-49600000D01*
X140500000Y-43400000D02*
X145000000Y-43400000D01*
X140500000Y-44100000D02*
X140500000Y-43400000D01*
X144000000Y-34900000D02*
X145000000Y-34900000D01*
X145000000Y-34900000D02*
X145000000Y-35900000D01*
X145000000Y-43400000D02*
X145000000Y-43900000D01*
X145000000Y-47500000D02*
X145000000Y-48100000D01*
X145000000Y-47900000D02*
X145000000Y-48900000D01*
X145000000Y-48100000D02*
X140500000Y-48100000D01*
X145000000Y-48900000D02*
X144000000Y-48900000D01*
X140000000Y-48600000D02*
G75*
G02*
X140500000Y-48100000I500000J0D01*
G01*
X140500000Y-44100000D02*
G75*
G02*
X139000000Y-45600000I-1500000J0D01*
G01*
D13*
%TO.C,D22*%
X91880000Y-81090000D02*
X91880000Y-85330000D01*
X91880000Y-85330000D02*
X94120000Y-85330000D01*
X93000000Y-80440000D02*
X93000000Y-81090000D01*
X93000000Y-85980000D02*
X93000000Y-85330000D01*
X94120000Y-81090000D02*
X91880000Y-81090000D01*
X94120000Y-81690000D02*
X91880000Y-81690000D01*
X94120000Y-81810000D02*
X91880000Y-81810000D01*
X94120000Y-81930000D02*
X91880000Y-81930000D01*
X94120000Y-85330000D02*
X94120000Y-81090000D01*
D12*
%TO.C,SW19*%
X36500000Y-86000000D02*
X37500000Y-86000000D01*
X36500000Y-87000000D02*
X36500000Y-86000000D01*
X36500000Y-100000000D02*
X36500000Y-99000000D01*
X37500000Y-100000000D02*
X36500000Y-100000000D01*
X41500000Y-97200000D02*
X42000000Y-96700000D01*
X41500000Y-100700000D02*
X42000000Y-101200000D01*
X42000000Y-96700000D02*
X44500000Y-96700000D01*
X42000000Y-101200000D02*
X45000000Y-101200000D01*
X45000000Y-101200000D02*
X45500000Y-100700000D01*
X45500000Y-99700000D02*
X45500000Y-100700000D01*
X46000000Y-94500000D02*
X50500000Y-94500000D01*
X46000000Y-95200000D02*
X46000000Y-94500000D01*
X49500000Y-86000000D02*
X50500000Y-86000000D01*
X50500000Y-86000000D02*
X50500000Y-87000000D01*
X50500000Y-94500000D02*
X50500000Y-95000000D01*
X50500000Y-98600000D02*
X50500000Y-99200000D01*
X50500000Y-99000000D02*
X50500000Y-100000000D01*
X50500000Y-99200000D02*
X46000000Y-99200000D01*
X50500000Y-100000000D02*
X49500000Y-100000000D01*
X45500000Y-99700000D02*
G75*
G02*
X46000000Y-99200000I500000J0D01*
G01*
X46000000Y-95200000D02*
G75*
G02*
X44500000Y-96700000I-1500000J0D01*
G01*
D13*
%TO.C,REF\u002A\u002A11*%
X152300000Y-40520000D02*
X155100000Y-40520000D01*
X152300000Y-42520000D02*
X152300000Y-40520000D01*
X155100000Y-40520000D02*
X155100000Y-42520000D01*
X155100000Y-42520000D02*
X152300000Y-42520000D01*
%TO.C,REF\u002A\u002A1*%
X152300000Y-65920000D02*
X155100000Y-65920000D01*
X152300000Y-67920000D02*
X152300000Y-65920000D01*
X155100000Y-65920000D02*
X155100000Y-67920000D01*
X155100000Y-67920000D02*
X152300000Y-67920000D01*
%TO.C,D4*%
X91880000Y-30090000D02*
X91880000Y-34330000D01*
X91880000Y-34330000D02*
X94120000Y-34330000D01*
X93000000Y-29440000D02*
X93000000Y-30090000D01*
X93000000Y-34980000D02*
X93000000Y-34330000D01*
X94120000Y-30090000D02*
X91880000Y-30090000D01*
X94120000Y-30690000D02*
X91880000Y-30690000D01*
X94120000Y-30810000D02*
X91880000Y-30810000D01*
X94120000Y-30930000D02*
X91880000Y-30930000D01*
X94120000Y-34330000D02*
X94120000Y-30090000D01*
%TO.C,D5*%
X109880000Y-29820000D02*
X109880000Y-34060000D01*
X109880000Y-34060000D02*
X112120000Y-34060000D01*
X111000000Y-29170000D02*
X111000000Y-29820000D01*
X111000000Y-34710000D02*
X111000000Y-34060000D01*
X112120000Y-29820000D02*
X109880000Y-29820000D01*
X112120000Y-30420000D02*
X109880000Y-30420000D01*
X112120000Y-30540000D02*
X109880000Y-30540000D01*
X112120000Y-30660000D02*
X109880000Y-30660000D01*
X112120000Y-34060000D02*
X112120000Y-29820000D01*
%TO.C,REF\u002A\u002A4*%
X162100000Y-45640000D02*
X164900000Y-45640000D01*
X162100000Y-47640000D02*
X162100000Y-45640000D01*
X164900000Y-45640000D02*
X164900000Y-47640000D01*
X164900000Y-47640000D02*
X162100000Y-47640000D01*
D12*
%TO.C,SW16*%
X95000000Y-61950000D02*
X96000000Y-61950000D01*
X95000000Y-62950000D02*
X95000000Y-61950000D01*
X95000000Y-75950000D02*
X95000000Y-74950000D01*
X96000000Y-75950000D02*
X95000000Y-75950000D01*
X100000000Y-73150000D02*
X100500000Y-72650000D01*
X100000000Y-76650000D02*
X100500000Y-77150000D01*
X100500000Y-72650000D02*
X103000000Y-72650000D01*
X100500000Y-77150000D02*
X103500000Y-77150000D01*
X103500000Y-77150000D02*
X104000000Y-76650000D01*
X104000000Y-75650000D02*
X104000000Y-76650000D01*
X104500000Y-70450000D02*
X109000000Y-70450000D01*
X104500000Y-71150000D02*
X104500000Y-70450000D01*
X108000000Y-61950000D02*
X109000000Y-61950000D01*
X109000000Y-61950000D02*
X109000000Y-62950000D01*
X109000000Y-70450000D02*
X109000000Y-70950000D01*
X109000000Y-74550000D02*
X109000000Y-75150000D01*
X109000000Y-74950000D02*
X109000000Y-75950000D01*
X109000000Y-75150000D02*
X104500000Y-75150000D01*
X109000000Y-75950000D02*
X108000000Y-75950000D01*
X104000000Y-75650000D02*
G75*
G02*
X104500000Y-75150000I500000J0D01*
G01*
X104500000Y-71150000D02*
G75*
G02*
X103000000Y-72650000I-1500000J0D01*
G01*
D13*
%TO.C,D24*%
X127880000Y-84440000D02*
X127880000Y-88680000D01*
X127880000Y-88680000D02*
X130120000Y-88680000D01*
X129000000Y-83790000D02*
X129000000Y-84440000D01*
X129000000Y-89330000D02*
X129000000Y-88680000D01*
X130120000Y-84440000D02*
X127880000Y-84440000D01*
X130120000Y-85040000D02*
X127880000Y-85040000D01*
X130120000Y-85160000D02*
X127880000Y-85160000D01*
X130120000Y-85280000D02*
X127880000Y-85280000D01*
X130120000Y-88680000D02*
X130120000Y-84440000D01*
%TO.C,D2*%
X55880000Y-37090000D02*
X55880000Y-41330000D01*
X55880000Y-41330000D02*
X58120000Y-41330000D01*
X57000000Y-36440000D02*
X57000000Y-37090000D01*
X57000000Y-41980000D02*
X57000000Y-41330000D01*
X58120000Y-37090000D02*
X55880000Y-37090000D01*
X58120000Y-37690000D02*
X55880000Y-37690000D01*
X58120000Y-37810000D02*
X55880000Y-37810000D01*
X58120000Y-37930000D02*
X55880000Y-37930000D01*
X58120000Y-41330000D02*
X58120000Y-37090000D01*
D12*
%TO.C,SW17*%
X113000000Y-65550000D02*
X114000000Y-65550000D01*
X113000000Y-66550000D02*
X113000000Y-65550000D01*
X113000000Y-79550000D02*
X113000000Y-78550000D01*
X114000000Y-79550000D02*
X113000000Y-79550000D01*
X118000000Y-76750000D02*
X118500000Y-76250000D01*
X118000000Y-80250000D02*
X118500000Y-80750000D01*
X118500000Y-76250000D02*
X121000000Y-76250000D01*
X118500000Y-80750000D02*
X121500000Y-80750000D01*
X121500000Y-80750000D02*
X122000000Y-80250000D01*
X122000000Y-79250000D02*
X122000000Y-80250000D01*
X122500000Y-74050000D02*
X127000000Y-74050000D01*
X122500000Y-74750000D02*
X122500000Y-74050000D01*
X126000000Y-65550000D02*
X127000000Y-65550000D01*
X127000000Y-65550000D02*
X127000000Y-66550000D01*
X127000000Y-74050000D02*
X127000000Y-74550000D01*
X127000000Y-78150000D02*
X127000000Y-78750000D01*
X127000000Y-78550000D02*
X127000000Y-79550000D01*
X127000000Y-78750000D02*
X122500000Y-78750000D01*
X127000000Y-79550000D02*
X126000000Y-79550000D01*
X122000000Y-79250000D02*
G75*
G02*
X122500000Y-78750000I500000J0D01*
G01*
X122500000Y-74750000D02*
G75*
G02*
X121000000Y-76250000I-1500000J0D01*
G01*
D13*
%TO.C,REF\u002A\u002A11*%
X162100000Y-63420000D02*
X164900000Y-63420000D01*
X162100000Y-65420000D02*
X162100000Y-63420000D01*
X164900000Y-63420000D02*
X164900000Y-65420000D01*
X164900000Y-65420000D02*
X162100000Y-65420000D01*
%TO.C,REF\u002A\u002A8*%
X152300000Y-48140000D02*
X155100000Y-48140000D01*
X152300000Y-50140000D02*
X152300000Y-48140000D01*
X155100000Y-48140000D02*
X155100000Y-50140000D01*
X155100000Y-50140000D02*
X152300000Y-50140000D01*
%TO.C,D8*%
X55880000Y-54090000D02*
X55880000Y-58330000D01*
X55880000Y-58330000D02*
X58120000Y-58330000D01*
X57000000Y-53440000D02*
X57000000Y-54090000D01*
X57000000Y-58980000D02*
X57000000Y-58330000D01*
X58120000Y-54090000D02*
X55880000Y-54090000D01*
X58120000Y-54690000D02*
X55880000Y-54690000D01*
X58120000Y-54810000D02*
X55880000Y-54810000D01*
X58120000Y-54930000D02*
X55880000Y-54930000D01*
X58120000Y-58330000D02*
X58120000Y-54090000D01*
D12*
%TO.C,SW24*%
X131000000Y-86000000D02*
X132000000Y-86000000D01*
X131000000Y-87000000D02*
X131000000Y-86000000D01*
X131000000Y-100000000D02*
X131000000Y-99000000D01*
X132000000Y-100000000D02*
X131000000Y-100000000D01*
X136000000Y-97200000D02*
X136500000Y-96700000D01*
X136000000Y-100700000D02*
X136500000Y-101200000D01*
X136500000Y-96700000D02*
X139000000Y-96700000D01*
X136500000Y-101200000D02*
X139500000Y-101200000D01*
X139500000Y-101200000D02*
X140000000Y-100700000D01*
X140000000Y-99700000D02*
X140000000Y-100700000D01*
X140500000Y-94500000D02*
X145000000Y-94500000D01*
X140500000Y-95200000D02*
X140500000Y-94500000D01*
X144000000Y-86000000D02*
X145000000Y-86000000D01*
X145000000Y-86000000D02*
X145000000Y-87000000D01*
X145000000Y-94500000D02*
X145000000Y-95000000D01*
X145000000Y-98600000D02*
X145000000Y-99200000D01*
X145000000Y-99000000D02*
X145000000Y-100000000D01*
X145000000Y-99200000D02*
X140500000Y-99200000D01*
X145000000Y-100000000D02*
X144000000Y-100000000D01*
X140000000Y-99700000D02*
G75*
G02*
X140500000Y-99200000I500000J0D01*
G01*
X140500000Y-95200000D02*
G75*
G02*
X139000000Y-96700000I-1500000J0D01*
G01*
D13*
%TO.C,D29*%
X133683169Y-125950911D02*
X136681302Y-128949044D01*
X134015509Y-124699332D02*
X134475128Y-125158951D01*
X135267088Y-124366992D02*
X133683169Y-125950911D01*
X135691352Y-124791256D02*
X134107433Y-126375175D01*
X135776205Y-124876109D02*
X134192286Y-126460028D01*
X135861058Y-124960962D02*
X134277139Y-126544881D01*
X136681302Y-128949044D02*
X138265221Y-127365125D01*
X137932881Y-128616704D02*
X137473261Y-128157084D01*
X138265221Y-127365125D02*
X135267088Y-124366992D01*
D14*
%TO.C,SW25*%
X159231900Y-80816475D02*
X159540300Y-81663796D01*
X160219043Y-82214142D02*
X165670538Y-80229960D01*
X160503777Y-79342624D02*
X162196032Y-78726693D01*
X163322611Y-78316652D02*
X163606642Y-78213273D01*
X165528330Y-78524763D02*
X165836729Y-79372083D01*
D13*
%TO.C,D13*%
X31380000Y-71090000D02*
X31380000Y-75330000D01*
X31380000Y-75330000D02*
X33620000Y-75330000D01*
X32500000Y-70440000D02*
X32500000Y-71090000D01*
X32500000Y-75980000D02*
X32500000Y-75330000D01*
X33620000Y-71090000D02*
X31380000Y-71090000D01*
X33620000Y-71690000D02*
X31380000Y-71690000D01*
X33620000Y-71810000D02*
X31380000Y-71810000D01*
X33620000Y-71930000D02*
X31380000Y-71930000D01*
X33620000Y-75330000D02*
X33620000Y-71090000D01*
%TO.C,SW51*%
X149658985Y-82065316D02*
X154075540Y-80457821D01*
X150103698Y-83579534D02*
X150291809Y-84096365D01*
X150924460Y-85542179D02*
X151793675Y-85225810D01*
X154471799Y-84251053D02*
X155341015Y-83934684D01*
X154708191Y-81903635D02*
X154896302Y-82420466D01*
%TO.C,D12*%
X127880000Y-50430000D02*
X127880000Y-54670000D01*
X127880000Y-54670000D02*
X130120000Y-54670000D01*
X129000000Y-49780000D02*
X129000000Y-50430000D01*
X129000000Y-55320000D02*
X129000000Y-54670000D01*
X130120000Y-50430000D02*
X127880000Y-50430000D01*
X130120000Y-51030000D02*
X127880000Y-51030000D01*
X130120000Y-51150000D02*
X127880000Y-51150000D01*
X130120000Y-51270000D02*
X127880000Y-51270000D01*
X130120000Y-54670000D02*
X130120000Y-50430000D01*
D12*
%TO.C,SW12*%
X131000000Y-51950000D02*
X132000000Y-51950000D01*
X131000000Y-52950000D02*
X131000000Y-51950000D01*
X131000000Y-65950000D02*
X131000000Y-64950000D01*
X132000000Y-65950000D02*
X131000000Y-65950000D01*
X136000000Y-63150000D02*
X136500000Y-62650000D01*
X136000000Y-66650000D02*
X136500000Y-67150000D01*
X136500000Y-62650000D02*
X139000000Y-62650000D01*
X136500000Y-67150000D02*
X139500000Y-67150000D01*
X139500000Y-67150000D02*
X140000000Y-66650000D01*
X140000000Y-65650000D02*
X140000000Y-66650000D01*
X140500000Y-60450000D02*
X145000000Y-60450000D01*
X140500000Y-61150000D02*
X140500000Y-60450000D01*
X144000000Y-51950000D02*
X145000000Y-51950000D01*
X145000000Y-51950000D02*
X145000000Y-52950000D01*
X145000000Y-60450000D02*
X145000000Y-60950000D01*
X145000000Y-64550000D02*
X145000000Y-65150000D01*
X145000000Y-64950000D02*
X145000000Y-65950000D01*
X145000000Y-65150000D02*
X140500000Y-65150000D01*
X145000000Y-65950000D02*
X144000000Y-65950000D01*
X140000000Y-65650000D02*
G75*
G02*
X140500000Y-65150000I500000J0D01*
G01*
X140500000Y-61150000D02*
G75*
G02*
X139000000Y-62650000I-1500000J0D01*
G01*
D14*
%TO.C,U1*%
X149730000Y-35250000D02*
X149730000Y-37790000D01*
X149730000Y-37790000D02*
X149730000Y-68270000D01*
X149730000Y-68270000D02*
X167510000Y-68270000D01*
X167510000Y-35250000D02*
X149730000Y-35250000D01*
X167510000Y-37790000D02*
X167510000Y-35250000D01*
X167510000Y-68270000D02*
X167510000Y-37790000D01*
D12*
%TO.C,SW8*%
X59000000Y-51950000D02*
X60000000Y-51950000D01*
X59000000Y-52950000D02*
X59000000Y-51950000D01*
X59000000Y-65950000D02*
X59000000Y-64950000D01*
X60000000Y-65950000D02*
X59000000Y-65950000D01*
X64000000Y-63150000D02*
X64500000Y-62650000D01*
X64000000Y-66650000D02*
X64500000Y-67150000D01*
X64500000Y-62650000D02*
X67000000Y-62650000D01*
X64500000Y-67150000D02*
X67500000Y-67150000D01*
X67500000Y-67150000D02*
X68000000Y-66650000D01*
X68000000Y-65650000D02*
X68000000Y-66650000D01*
X68500000Y-60450000D02*
X73000000Y-60450000D01*
X68500000Y-61150000D02*
X68500000Y-60450000D01*
X72000000Y-51950000D02*
X73000000Y-51950000D01*
X73000000Y-51950000D02*
X73000000Y-52950000D01*
X73000000Y-60450000D02*
X73000000Y-60950000D01*
X73000000Y-64550000D02*
X73000000Y-65150000D01*
X73000000Y-64950000D02*
X73000000Y-65950000D01*
X73000000Y-65150000D02*
X68500000Y-65150000D01*
X73000000Y-65950000D02*
X72000000Y-65950000D01*
X68000000Y-65650000D02*
G75*
G02*
X68500000Y-65150000I500000J0D01*
G01*
X68500000Y-61150000D02*
G75*
G02*
X67000000Y-62650000I-1500000J0D01*
G01*
%TO.C,SW9*%
X77000000Y-48550000D02*
X78000000Y-48550000D01*
X77000000Y-49550000D02*
X77000000Y-48550000D01*
X77000000Y-62550000D02*
X77000000Y-61550000D01*
X78000000Y-62550000D02*
X77000000Y-62550000D01*
X82000000Y-59750000D02*
X82500000Y-59250000D01*
X82000000Y-63250000D02*
X82500000Y-63750000D01*
X82500000Y-59250000D02*
X85000000Y-59250000D01*
X82500000Y-63750000D02*
X85500000Y-63750000D01*
X85500000Y-63750000D02*
X86000000Y-63250000D01*
X86000000Y-62250000D02*
X86000000Y-63250000D01*
X86500000Y-57050000D02*
X91000000Y-57050000D01*
X86500000Y-57750000D02*
X86500000Y-57050000D01*
X90000000Y-48550000D02*
X91000000Y-48550000D01*
X91000000Y-48550000D02*
X91000000Y-49550000D01*
X91000000Y-57050000D02*
X91000000Y-57550000D01*
X91000000Y-61150000D02*
X91000000Y-61750000D01*
X91000000Y-61550000D02*
X91000000Y-62550000D01*
X91000000Y-61750000D02*
X86500000Y-61750000D01*
X91000000Y-62550000D02*
X90000000Y-62550000D01*
X86000000Y-62250000D02*
G75*
G02*
X86500000Y-61750000I500000J0D01*
G01*
X86500000Y-57750000D02*
G75*
G02*
X85000000Y-59250000I-1500000J0D01*
G01*
D13*
%TO.C,REF\u002A\u002A*%
X152300000Y-37980000D02*
X155100000Y-37980000D01*
X152300000Y-39980000D02*
X152300000Y-37980000D01*
X155100000Y-37980000D02*
X155100000Y-39980000D01*
X155100000Y-39980000D02*
X152300000Y-39980000D01*
%TO.C,D9*%
X73880000Y-50690000D02*
X73880000Y-54930000D01*
X73880000Y-54930000D02*
X76120000Y-54930000D01*
X75000000Y-50040000D02*
X75000000Y-50690000D01*
X75000000Y-55580000D02*
X75000000Y-54930000D01*
X76120000Y-50690000D02*
X73880000Y-50690000D01*
X76120000Y-51290000D02*
X73880000Y-51290000D01*
X76120000Y-51410000D02*
X73880000Y-51410000D01*
X76120000Y-51530000D02*
X73880000Y-51530000D01*
X76120000Y-54930000D02*
X76120000Y-50690000D01*
%TO.C,REF\u002A\u002A3*%
X152300000Y-60840000D02*
X155100000Y-60840000D01*
X152300000Y-62840000D02*
X152300000Y-60840000D01*
X155100000Y-60840000D02*
X155100000Y-62840000D01*
X155100000Y-62840000D02*
X152300000Y-62840000D01*
D12*
%TO.C,SW28*%
X113924137Y-114410408D02*
X114306821Y-113486528D01*
X114848017Y-114793091D02*
X113924137Y-114410408D01*
X118275657Y-116970541D02*
X118546255Y-117623822D01*
X118546255Y-117623822D02*
X121317893Y-118771872D01*
X118899022Y-102399974D02*
X119281705Y-101476094D01*
X119281705Y-101476094D02*
X120205585Y-101858778D01*
X119615049Y-113736962D02*
X120268330Y-113466364D01*
X120268330Y-113466364D02*
X122578029Y-114423073D01*
X121317893Y-118771872D02*
X121971175Y-118501274D01*
X122353858Y-117577395D02*
X121971175Y-118501274D01*
X124537873Y-113611279D02*
X124805752Y-112964563D01*
X124805752Y-112964563D02*
X128963210Y-114686638D01*
X126858451Y-119767976D02*
X125934571Y-119385292D01*
X127164597Y-119028872D02*
X123007140Y-117306797D01*
X127241134Y-118844096D02*
X126858451Y-119767976D01*
X127394208Y-118474543D02*
X127164597Y-119028872D01*
X128963210Y-114686638D02*
X128771868Y-115148578D01*
X131292139Y-106450979D02*
X132216019Y-106833662D01*
X132216019Y-106833662D02*
X131833335Y-107757542D01*
X122353858Y-117577395D02*
G75*
G02*
X123007140Y-117306797I461940J-191341D01*
G01*
X124537873Y-113611279D02*
G75*
G02*
X122578029Y-114423073I-1385819J574026D01*
G01*
D13*
%TO.C,D15*%
X73880000Y-67690000D02*
X73880000Y-71930000D01*
X73880000Y-71930000D02*
X76120000Y-71930000D01*
X75000000Y-67040000D02*
X75000000Y-67690000D01*
X75000000Y-72580000D02*
X75000000Y-71930000D01*
X76120000Y-67690000D02*
X73880000Y-67690000D01*
X76120000Y-68290000D02*
X73880000Y-68290000D01*
X76120000Y-68410000D02*
X73880000Y-68410000D01*
X76120000Y-68530000D02*
X73880000Y-68530000D01*
X76120000Y-71930000D02*
X76120000Y-67690000D01*
D12*
%TO.C,SW5*%
X113000000Y-31500000D02*
X114000000Y-31500000D01*
X113000000Y-32500000D02*
X113000000Y-31500000D01*
X113000000Y-45500000D02*
X113000000Y-44500000D01*
X114000000Y-45500000D02*
X113000000Y-45500000D01*
X118000000Y-42700000D02*
X118500000Y-42200000D01*
X118000000Y-46200000D02*
X118500000Y-46700000D01*
X118500000Y-42200000D02*
X121000000Y-42200000D01*
X118500000Y-46700000D02*
X121500000Y-46700000D01*
X121500000Y-46700000D02*
X122000000Y-46200000D01*
X122000000Y-45200000D02*
X122000000Y-46200000D01*
X122500000Y-40000000D02*
X127000000Y-40000000D01*
X122500000Y-40700000D02*
X122500000Y-40000000D01*
X126000000Y-31500000D02*
X127000000Y-31500000D01*
X127000000Y-31500000D02*
X127000000Y-32500000D01*
X127000000Y-40000000D02*
X127000000Y-40500000D01*
X127000000Y-44100000D02*
X127000000Y-44700000D01*
X127000000Y-44500000D02*
X127000000Y-45500000D01*
X127000000Y-44700000D02*
X122500000Y-44700000D01*
X127000000Y-45500000D02*
X126000000Y-45500000D01*
X122000000Y-45200000D02*
G75*
G02*
X122500000Y-44700000I500000J0D01*
G01*
X122500000Y-40700000D02*
G75*
G02*
X121000000Y-42200000I-1500000J0D01*
G01*
D13*
%TO.C,REF\u002A\u002A10*%
X152300000Y-43060000D02*
X155100000Y-43060000D01*
X152300000Y-45060000D02*
X152300000Y-43060000D01*
X155100000Y-43060000D02*
X155100000Y-45060000D01*
X155100000Y-45060000D02*
X152300000Y-45060000D01*
X162100000Y-60880000D02*
X164900000Y-60880000D01*
X162100000Y-62880000D02*
X162100000Y-60880000D01*
X164900000Y-60880000D02*
X164900000Y-62880000D01*
X164900000Y-62880000D02*
X162100000Y-62880000D01*
D12*
%TO.C,SW11*%
X113000000Y-48550000D02*
X114000000Y-48550000D01*
X113000000Y-49550000D02*
X113000000Y-48550000D01*
X113000000Y-62550000D02*
X113000000Y-61550000D01*
X114000000Y-62550000D02*
X113000000Y-62550000D01*
X118000000Y-59750000D02*
X118500000Y-59250000D01*
X118000000Y-63250000D02*
X118500000Y-63750000D01*
X118500000Y-59250000D02*
X121000000Y-59250000D01*
X118500000Y-63750000D02*
X121500000Y-63750000D01*
X121500000Y-63750000D02*
X122000000Y-63250000D01*
X122000000Y-62250000D02*
X122000000Y-63250000D01*
X122500000Y-57050000D02*
X127000000Y-57050000D01*
X122500000Y-57750000D02*
X122500000Y-57050000D01*
X126000000Y-48550000D02*
X127000000Y-48550000D01*
X127000000Y-48550000D02*
X127000000Y-49550000D01*
X127000000Y-57050000D02*
X127000000Y-57550000D01*
X127000000Y-61150000D02*
X127000000Y-61750000D01*
X127000000Y-61550000D02*
X127000000Y-62550000D01*
X127000000Y-61750000D02*
X122500000Y-61750000D01*
X127000000Y-62550000D02*
X126000000Y-62550000D01*
X122000000Y-62250000D02*
G75*
G02*
X122500000Y-61750000I500000J0D01*
G01*
X122500000Y-57750000D02*
G75*
G02*
X121000000Y-59250000I-1500000J0D01*
G01*
D13*
%TO.C,REF\u002A\u002A2*%
X162100000Y-40560000D02*
X164900000Y-40560000D01*
X162100000Y-42560000D02*
X162100000Y-40560000D01*
X164900000Y-40560000D02*
X164900000Y-42560000D01*
X164900000Y-42560000D02*
X162100000Y-42560000D01*
D12*
%TO.C,SW7*%
X36500000Y-51950000D02*
X37500000Y-51950000D01*
X36500000Y-52950000D02*
X36500000Y-51950000D01*
X36500000Y-65950000D02*
X36500000Y-64950000D01*
X37500000Y-65950000D02*
X36500000Y-65950000D01*
X41500000Y-63150000D02*
X42000000Y-62650000D01*
X41500000Y-66650000D02*
X42000000Y-67150000D01*
X42000000Y-62650000D02*
X44500000Y-62650000D01*
X42000000Y-67150000D02*
X45000000Y-67150000D01*
X45000000Y-67150000D02*
X45500000Y-66650000D01*
X45500000Y-65650000D02*
X45500000Y-66650000D01*
X46000000Y-60450000D02*
X50500000Y-60450000D01*
X46000000Y-61150000D02*
X46000000Y-60450000D01*
X49500000Y-51950000D02*
X50500000Y-51950000D01*
X50500000Y-51950000D02*
X50500000Y-52950000D01*
X50500000Y-60450000D02*
X50500000Y-60950000D01*
X50500000Y-64550000D02*
X50500000Y-65150000D01*
X50500000Y-64950000D02*
X50500000Y-65950000D01*
X50500000Y-65150000D02*
X46000000Y-65150000D01*
X50500000Y-65950000D02*
X49500000Y-65950000D01*
X45500000Y-65650000D02*
G75*
G02*
X46000000Y-65150000I500000J0D01*
G01*
X46000000Y-61150000D02*
G75*
G02*
X44500000Y-62650000I-1500000J0D01*
G01*
D13*
%TO.C,REF\u002A\u002A5*%
X152300000Y-55760000D02*
X155100000Y-55760000D01*
X152300000Y-57760000D02*
X152300000Y-55760000D01*
X155100000Y-55760000D02*
X155100000Y-57760000D01*
X155100000Y-57760000D02*
X152300000Y-57760000D01*
%TO.C,REF\u002A\u002A9*%
X152300000Y-45600000D02*
X155100000Y-45600000D01*
X152300000Y-47600000D02*
X152300000Y-45600000D01*
X155100000Y-45600000D02*
X155100000Y-47600000D01*
X155100000Y-47600000D02*
X152300000Y-47600000D01*
D12*
%TO.C,SW2*%
X59000000Y-34900000D02*
X60000000Y-34900000D01*
X59000000Y-35900000D02*
X59000000Y-34900000D01*
X59000000Y-48900000D02*
X59000000Y-47900000D01*
X60000000Y-48900000D02*
X59000000Y-48900000D01*
X64000000Y-46100000D02*
X64500000Y-45600000D01*
X64000000Y-49600000D02*
X64500000Y-50100000D01*
X64500000Y-45600000D02*
X67000000Y-45600000D01*
X64500000Y-50100000D02*
X67500000Y-50100000D01*
X67500000Y-50100000D02*
X68000000Y-49600000D01*
X68000000Y-48600000D02*
X68000000Y-49600000D01*
X68500000Y-43400000D02*
X73000000Y-43400000D01*
X68500000Y-44100000D02*
X68500000Y-43400000D01*
X72000000Y-34900000D02*
X73000000Y-34900000D01*
X73000000Y-34900000D02*
X73000000Y-35900000D01*
X73000000Y-43400000D02*
X73000000Y-43900000D01*
X73000000Y-47500000D02*
X73000000Y-48100000D01*
X73000000Y-47900000D02*
X73000000Y-48900000D01*
X73000000Y-48100000D02*
X68500000Y-48100000D01*
X73000000Y-48900000D02*
X72000000Y-48900000D01*
X68000000Y-48600000D02*
G75*
G02*
X68500000Y-48100000I500000J0D01*
G01*
X68500000Y-44100000D02*
G75*
G02*
X67000000Y-45600000I-1500000J0D01*
G01*
%TO.C,SW3*%
X77000000Y-31500000D02*
X78000000Y-31500000D01*
X77000000Y-32500000D02*
X77000000Y-31500000D01*
X77000000Y-45500000D02*
X77000000Y-44500000D01*
X78000000Y-45500000D02*
X77000000Y-45500000D01*
X82000000Y-42700000D02*
X82500000Y-42200000D01*
X82000000Y-46200000D02*
X82500000Y-46700000D01*
X82500000Y-42200000D02*
X85000000Y-42200000D01*
X82500000Y-46700000D02*
X85500000Y-46700000D01*
X85500000Y-46700000D02*
X86000000Y-46200000D01*
X86000000Y-45200000D02*
X86000000Y-46200000D01*
X86500000Y-40000000D02*
X91000000Y-40000000D01*
X86500000Y-40700000D02*
X86500000Y-40000000D01*
X90000000Y-31500000D02*
X91000000Y-31500000D01*
X91000000Y-31500000D02*
X91000000Y-32500000D01*
X91000000Y-40000000D02*
X91000000Y-40500000D01*
X91000000Y-44100000D02*
X91000000Y-44700000D01*
X91000000Y-44500000D02*
X91000000Y-45500000D01*
X91000000Y-44700000D02*
X86500000Y-44700000D01*
X91000000Y-45500000D02*
X90000000Y-45500000D01*
X86000000Y-45200000D02*
G75*
G02*
X86500000Y-44700000I500000J0D01*
G01*
X86500000Y-40700000D02*
G75*
G02*
X85000000Y-42200000I-1500000J0D01*
G01*
%TO.C,SW15*%
X77000000Y-65550000D02*
X78000000Y-65550000D01*
X77000000Y-66550000D02*
X77000000Y-65550000D01*
X77000000Y-79550000D02*
X77000000Y-78550000D01*
X78000000Y-79550000D02*
X77000000Y-79550000D01*
X82000000Y-76750000D02*
X82500000Y-76250000D01*
X82000000Y-80250000D02*
X82500000Y-80750000D01*
X82500000Y-76250000D02*
X85000000Y-76250000D01*
X82500000Y-80750000D02*
X85500000Y-80750000D01*
X85500000Y-80750000D02*
X86000000Y-80250000D01*
X86000000Y-79250000D02*
X86000000Y-80250000D01*
X86500000Y-74050000D02*
X91000000Y-74050000D01*
X86500000Y-74750000D02*
X86500000Y-74050000D01*
X90000000Y-65550000D02*
X91000000Y-65550000D01*
X91000000Y-65550000D02*
X91000000Y-66550000D01*
X91000000Y-74050000D02*
X91000000Y-74550000D01*
X91000000Y-78150000D02*
X91000000Y-78750000D01*
X91000000Y-78550000D02*
X91000000Y-79550000D01*
X91000000Y-78750000D02*
X86500000Y-78750000D01*
X91000000Y-79550000D02*
X90000000Y-79550000D01*
X86000000Y-79250000D02*
G75*
G02*
X86500000Y-78750000I500000J0D01*
G01*
X86500000Y-74750000D02*
G75*
G02*
X85000000Y-76250000I-1500000J0D01*
G01*
%TO.C,SW4*%
X95000000Y-27900000D02*
X96000000Y-27900000D01*
X95000000Y-28900000D02*
X95000000Y-27900000D01*
X95000000Y-41900000D02*
X95000000Y-40900000D01*
X96000000Y-41900000D02*
X95000000Y-41900000D01*
X100000000Y-39100000D02*
X100500000Y-38600000D01*
X100000000Y-42600000D02*
X100500000Y-43100000D01*
X100500000Y-38600000D02*
X103000000Y-38600000D01*
X100500000Y-43100000D02*
X103500000Y-43100000D01*
X103500000Y-43100000D02*
X104000000Y-42600000D01*
X104000000Y-41600000D02*
X104000000Y-42600000D01*
X104500000Y-36400000D02*
X109000000Y-36400000D01*
X104500000Y-37100000D02*
X104500000Y-36400000D01*
X108000000Y-27900000D02*
X109000000Y-27900000D01*
X109000000Y-27900000D02*
X109000000Y-28900000D01*
X109000000Y-36400000D02*
X109000000Y-36900000D01*
X109000000Y-40500000D02*
X109000000Y-41100000D01*
X109000000Y-40900000D02*
X109000000Y-41900000D01*
X109000000Y-41100000D02*
X104500000Y-41100000D01*
X109000000Y-41900000D02*
X108000000Y-41900000D01*
X104000000Y-41600000D02*
G75*
G02*
X104500000Y-41100000I500000J0D01*
G01*
X104500000Y-37100000D02*
G75*
G02*
X103000000Y-38600000I-1500000J0D01*
G01*
D13*
%TO.C,D16*%
X91880000Y-64090000D02*
X91880000Y-68330000D01*
X91880000Y-68330000D02*
X94120000Y-68330000D01*
X93000000Y-63440000D02*
X93000000Y-64090000D01*
X93000000Y-68980000D02*
X93000000Y-68330000D01*
X94120000Y-64090000D02*
X91880000Y-64090000D01*
X94120000Y-64690000D02*
X91880000Y-64690000D01*
X94120000Y-64810000D02*
X91880000Y-64810000D01*
X94120000Y-64930000D02*
X91880000Y-64930000D01*
X94120000Y-68330000D02*
X94120000Y-64090000D01*
D12*
%TO.C,SW22*%
X95000000Y-79000000D02*
X96000000Y-79000000D01*
X95000000Y-80000000D02*
X95000000Y-79000000D01*
X95000000Y-93000000D02*
X95000000Y-92000000D01*
X96000000Y-93000000D02*
X95000000Y-93000000D01*
X100000000Y-90200000D02*
X100500000Y-89700000D01*
X100000000Y-93700000D02*
X100500000Y-94200000D01*
X100500000Y-89700000D02*
X103000000Y-89700000D01*
X100500000Y-94200000D02*
X103500000Y-94200000D01*
X103500000Y-94200000D02*
X104000000Y-93700000D01*
X104000000Y-92700000D02*
X104000000Y-93700000D01*
X104500000Y-87500000D02*
X109000000Y-87500000D01*
X104500000Y-88200000D02*
X104500000Y-87500000D01*
X108000000Y-79000000D02*
X109000000Y-79000000D01*
X109000000Y-79000000D02*
X109000000Y-80000000D01*
X109000000Y-87500000D02*
X109000000Y-88000000D01*
X109000000Y-91600000D02*
X109000000Y-92200000D01*
X109000000Y-92000000D02*
X109000000Y-93000000D01*
X109000000Y-92200000D02*
X104500000Y-92200000D01*
X109000000Y-93000000D02*
X108000000Y-93000000D01*
X104000000Y-92700000D02*
G75*
G02*
X104500000Y-92200000I500000J0D01*
G01*
X104500000Y-88200000D02*
G75*
G02*
X103000000Y-89700000I-1500000J0D01*
G01*
%TO.C,SW1*%
X36500000Y-34900000D02*
X37500000Y-34900000D01*
X36500000Y-35900000D02*
X36500000Y-34900000D01*
X36500000Y-48900000D02*
X36500000Y-47900000D01*
X37500000Y-48900000D02*
X36500000Y-48900000D01*
X41500000Y-46100000D02*
X42000000Y-45600000D01*
X41500000Y-49600000D02*
X42000000Y-50100000D01*
X42000000Y-45600000D02*
X44500000Y-45600000D01*
X42000000Y-50100000D02*
X45000000Y-50100000D01*
X45000000Y-50100000D02*
X45500000Y-49600000D01*
X45500000Y-48600000D02*
X45500000Y-49600000D01*
X46000000Y-43400000D02*
X50500000Y-43400000D01*
X46000000Y-44100000D02*
X46000000Y-43400000D01*
X49500000Y-34900000D02*
X50500000Y-34900000D01*
X50500000Y-34900000D02*
X50500000Y-35900000D01*
X50500000Y-43400000D02*
X50500000Y-43900000D01*
X50500000Y-47500000D02*
X50500000Y-48100000D01*
X50500000Y-47900000D02*
X50500000Y-48900000D01*
X50500000Y-48100000D02*
X46000000Y-48100000D01*
X50500000Y-48900000D02*
X49500000Y-48900000D01*
X45500000Y-48600000D02*
G75*
G02*
X46000000Y-48100000I500000J0D01*
G01*
X46000000Y-44100000D02*
G75*
G02*
X44500000Y-45600000I-1500000J0D01*
G01*
D13*
%TO.C,D28*%
X113695942Y-106050000D02*
X115765432Y-106907211D01*
X114481943Y-107079127D02*
X114730687Y-106478606D01*
X115318520Y-102132751D02*
X113695942Y-106050000D01*
X115765432Y-106907211D02*
X117388010Y-102989962D01*
X116602009Y-101960835D02*
X116353265Y-102561356D01*
X117066556Y-103766021D02*
X114997066Y-102908810D01*
X117112478Y-103655155D02*
X115042988Y-102797944D01*
X117158400Y-103544290D02*
X115088910Y-102687079D01*
X117388010Y-102989962D02*
X115318520Y-102132751D01*
%TO.C,REF\u002A\u002A1*%
X162100000Y-38020000D02*
X164900000Y-38020000D01*
X162100000Y-40020000D02*
X162100000Y-38020000D01*
X164900000Y-38020000D02*
X164900000Y-40020000D01*
X164900000Y-40020000D02*
X162100000Y-40020000D01*
%TO.C,REF\u002A\u002A4*%
X152300000Y-58300000D02*
X155100000Y-58300000D01*
X152300000Y-60300000D02*
X152300000Y-58300000D01*
X155100000Y-58300000D02*
X155100000Y-60300000D01*
X155100000Y-60300000D02*
X152300000Y-60300000D01*
%TO.C,REF\u002A\u002A5*%
X162100000Y-48180000D02*
X164900000Y-48180000D01*
X162100000Y-50180000D02*
X162100000Y-48180000D01*
X164900000Y-48180000D02*
X164900000Y-50180000D01*
X164900000Y-50180000D02*
X162100000Y-50180000D01*
D12*
%TO.C,SW14*%
X59000000Y-68950000D02*
X60000000Y-68950000D01*
X59000000Y-69950000D02*
X59000000Y-68950000D01*
X59000000Y-82950000D02*
X59000000Y-81950000D01*
X60000000Y-82950000D02*
X59000000Y-82950000D01*
X64000000Y-80150000D02*
X64500000Y-79650000D01*
X64000000Y-83650000D02*
X64500000Y-84150000D01*
X64500000Y-79650000D02*
X67000000Y-79650000D01*
X64500000Y-84150000D02*
X67500000Y-84150000D01*
X67500000Y-84150000D02*
X68000000Y-83650000D01*
X68000000Y-82650000D02*
X68000000Y-83650000D01*
X68500000Y-77450000D02*
X73000000Y-77450000D01*
X68500000Y-78150000D02*
X68500000Y-77450000D01*
X72000000Y-68950000D02*
X73000000Y-68950000D01*
X73000000Y-68950000D02*
X73000000Y-69950000D01*
X73000000Y-77450000D02*
X73000000Y-77950000D01*
X73000000Y-81550000D02*
X73000000Y-82150000D01*
X73000000Y-81950000D02*
X73000000Y-82950000D01*
X73000000Y-82150000D02*
X68500000Y-82150000D01*
X73000000Y-82950000D02*
X72000000Y-82950000D01*
X68000000Y-82650000D02*
G75*
G02*
X68500000Y-82150000I500000J0D01*
G01*
X68500000Y-78150000D02*
G75*
G02*
X67000000Y-79650000I-1500000J0D01*
G01*
D13*
%TO.C,J2*%
X149590000Y-69940000D02*
X149590000Y-70860000D01*
X149590000Y-70860000D02*
X151190000Y-70860000D01*
X149590000Y-75140000D02*
X149590000Y-76060000D01*
X149590000Y-76060000D02*
X157410000Y-76060000D01*
X151190000Y-69940000D02*
X151190000Y-70860000D01*
X151190000Y-70860000D02*
X151190000Y-71140000D01*
X151190000Y-74860000D02*
X149975000Y-74860000D01*
X151190000Y-74860000D02*
X151190000Y-75140000D01*
X151190000Y-75140000D02*
X149590000Y-75140000D01*
X151190000Y-76060000D02*
X151190000Y-75140000D01*
X153050000Y-72500000D02*
X157410000Y-72500000D01*
X153050000Y-73500000D02*
X153050000Y-72500000D01*
X153550000Y-70700000D02*
X155150000Y-70700000D01*
X153550000Y-71700000D02*
X153550000Y-70700000D01*
X153550000Y-74300000D02*
X153550000Y-75300000D01*
X153550000Y-75300000D02*
X155150000Y-75300000D01*
X155150000Y-70700000D02*
X155150000Y-71700000D01*
X155150000Y-71700000D02*
X153550000Y-71700000D01*
X155150000Y-74300000D02*
X153550000Y-74300000D01*
X155150000Y-74300000D02*
X157410000Y-74300000D01*
X155150000Y-74800000D02*
X157410000Y-74800000D01*
X155150000Y-75300000D02*
X155150000Y-74300000D01*
X157410000Y-69940000D02*
X149590000Y-69940000D01*
X157410000Y-73500000D02*
X153050000Y-73500000D01*
X157410000Y-76060000D02*
X157410000Y-69940000D01*
D12*
%TO.C,SW29*%
X133880623Y-118763941D02*
X134587730Y-118056834D01*
X134587730Y-119471048D02*
X133880623Y-118763941D01*
X143073011Y-109571553D02*
X143780118Y-108864446D01*
X143780118Y-108864446D02*
X144487225Y-109571553D01*
X143780118Y-128663436D02*
X143073011Y-127956329D01*
X144487225Y-127956329D02*
X143780118Y-128663436D01*
X145335753Y-122440896D02*
X147103520Y-120673129D01*
X145335753Y-123148003D02*
X145335753Y-122440896D01*
X146608545Y-118056834D02*
X149790526Y-114874854D01*
X147103520Y-118551809D02*
X146608545Y-118056834D01*
X147810627Y-125622877D02*
X148517733Y-125622877D01*
X148517733Y-125622877D02*
X150639054Y-123501556D01*
X149790526Y-114874854D02*
X150144079Y-115228407D01*
X149931947Y-122087343D02*
X150639054Y-122794450D01*
X150639054Y-123501556D02*
X150639054Y-122794450D01*
X152689663Y-117773992D02*
X153113928Y-118198256D01*
X152972506Y-118056834D02*
X153679613Y-118763941D01*
X153113928Y-118198256D02*
X149931947Y-121380236D01*
X153679613Y-118763941D02*
X152972506Y-119471048D01*
X147103520Y-118551809D02*
G75*
G02*
X147103520Y-120673129I-1060660J-1060660D01*
G01*
X149931947Y-122087343D02*
G75*
G02*
X149931946Y-121380235I353553J353554D01*
G01*
%TO.C,SW30*%
X145941569Y-130832692D02*
X146648676Y-130125585D01*
X146648676Y-131539799D02*
X145941569Y-130832692D01*
X155133957Y-121640304D02*
X155841064Y-120933197D01*
X155841064Y-120933197D02*
X156548171Y-121640304D01*
X155841064Y-140732187D02*
X155133957Y-140025080D01*
X156548171Y-140025080D02*
X155841064Y-140732187D01*
X157396699Y-134509647D02*
X159164466Y-132741880D01*
X157396699Y-135216754D02*
X157396699Y-134509647D01*
X158669491Y-130125585D02*
X161851472Y-126943605D01*
X159164466Y-130620560D02*
X158669491Y-130125585D01*
X159871573Y-137691628D02*
X160578679Y-137691628D01*
X160578679Y-137691628D02*
X162700000Y-135570307D01*
X161851472Y-126943605D02*
X162205025Y-127297158D01*
X161992893Y-134156094D02*
X162700000Y-134863201D01*
X162700000Y-135570307D02*
X162700000Y-134863201D01*
X164750609Y-129842743D02*
X165174874Y-130267007D01*
X165033452Y-130125585D02*
X165740559Y-130832692D01*
X165174874Y-130267007D02*
X161992893Y-133448987D01*
X165740559Y-130832692D02*
X165033452Y-131539799D01*
X159164466Y-130620560D02*
G75*
G02*
X159164466Y-132741880I-1060660J-1060660D01*
G01*
X161992893Y-134156094D02*
G75*
G02*
X161992892Y-133448986I353553J353554D01*
G01*
D13*
%TO.C,REF\u002A\u002A6*%
X162100000Y-50720000D02*
X164900000Y-50720000D01*
X162100000Y-52720000D02*
X162100000Y-50720000D01*
X164900000Y-50720000D02*
X164900000Y-52720000D01*
X164900000Y-52720000D02*
X162100000Y-52720000D01*
%TO.C,D23*%
X109880000Y-80820000D02*
X109880000Y-85060000D01*
X109880000Y-85060000D02*
X112120000Y-85060000D01*
X111000000Y-80170000D02*
X111000000Y-80820000D01*
X111000000Y-85710000D02*
X111000000Y-85060000D01*
X112120000Y-80820000D02*
X109880000Y-80820000D01*
X112120000Y-81420000D02*
X109880000Y-81420000D01*
X112120000Y-81540000D02*
X109880000Y-81540000D01*
X112120000Y-81660000D02*
X109880000Y-81660000D01*
X112120000Y-85060000D02*
X112120000Y-80820000D01*
%TO.C,D30*%
X145739093Y-138006835D02*
X148737226Y-141004968D01*
X146071433Y-136755256D02*
X146531052Y-137214875D01*
X147323012Y-136422916D02*
X145739093Y-138006835D01*
X147747276Y-136847180D02*
X146163357Y-138431099D01*
X147832129Y-136932033D02*
X146248210Y-138515952D01*
X147916982Y-137016886D02*
X146333063Y-138600805D01*
X148737226Y-141004968D02*
X150321145Y-139421049D01*
X149988805Y-140672628D02*
X149529185Y-140213008D01*
X150321145Y-139421049D02*
X147323012Y-136422916D01*
%TO.C,D27*%
X91880000Y-101690000D02*
X91880000Y-105930000D01*
X91880000Y-105930000D02*
X94120000Y-105930000D01*
X93000000Y-101040000D02*
X93000000Y-101690000D01*
X93000000Y-106580000D02*
X93000000Y-105930000D01*
X94120000Y-101690000D02*
X91880000Y-101690000D01*
X94120000Y-102290000D02*
X91880000Y-102290000D01*
X94120000Y-102410000D02*
X91880000Y-102410000D01*
X94120000Y-102530000D02*
X91880000Y-102530000D01*
X94120000Y-105930000D02*
X94120000Y-101690000D01*
%TO.C,REF\u002A\u002A7*%
X162100000Y-53260000D02*
X164900000Y-53260000D01*
X162100000Y-55260000D02*
X162100000Y-53260000D01*
X164900000Y-53260000D02*
X164900000Y-55260000D01*
X164900000Y-55260000D02*
X162100000Y-55260000D01*
%TO.C,D7*%
X31380000Y-54090000D02*
X31380000Y-58330000D01*
X31380000Y-58330000D02*
X33620000Y-58330000D01*
X32500000Y-53440000D02*
X32500000Y-54090000D01*
X32500000Y-58980000D02*
X32500000Y-58330000D01*
X33620000Y-54090000D02*
X31380000Y-54090000D01*
X33620000Y-54690000D02*
X31380000Y-54690000D01*
X33620000Y-54810000D02*
X31380000Y-54810000D01*
X33620000Y-54930000D02*
X31380000Y-54930000D01*
X33620000Y-58330000D02*
X33620000Y-54090000D01*
%TO.C,REF\u002A\u002A8*%
X162100000Y-55800000D02*
X164900000Y-55800000D01*
X162100000Y-57800000D02*
X162100000Y-55800000D01*
X164900000Y-55800000D02*
X164900000Y-57800000D01*
X164900000Y-57800000D02*
X162100000Y-57800000D01*
%TO.C,D6*%
X127880000Y-33440000D02*
X127880000Y-37680000D01*
X127880000Y-37680000D02*
X130120000Y-37680000D01*
X129000000Y-32790000D02*
X129000000Y-33440000D01*
X129000000Y-38330000D02*
X129000000Y-37680000D01*
X130120000Y-33440000D02*
X127880000Y-33440000D01*
X130120000Y-34040000D02*
X127880000Y-34040000D01*
X130120000Y-34160000D02*
X127880000Y-34160000D01*
X130120000Y-34280000D02*
X127880000Y-34280000D01*
X130120000Y-37680000D02*
X130120000Y-33440000D01*
%TO.C,D3*%
X73880000Y-33690000D02*
X73880000Y-37930000D01*
X73880000Y-37930000D02*
X76120000Y-37930000D01*
X75000000Y-33040000D02*
X75000000Y-33690000D01*
X75000000Y-38580000D02*
X75000000Y-37930000D01*
X76120000Y-33690000D02*
X73880000Y-33690000D01*
X76120000Y-34290000D02*
X73880000Y-34290000D01*
X76120000Y-34410000D02*
X73880000Y-34410000D01*
X76120000Y-34530000D02*
X73880000Y-34530000D01*
X76120000Y-37930000D02*
X76120000Y-33690000D01*
%TO.C,REF\u002A\u002A9*%
X162100000Y-58340000D02*
X164900000Y-58340000D01*
X162100000Y-60340000D02*
X162100000Y-58340000D01*
X164900000Y-58340000D02*
X164900000Y-60340000D01*
X164900000Y-60340000D02*
X162100000Y-60340000D01*
%TO.C,D17*%
X109880000Y-63820000D02*
X109880000Y-68060000D01*
X109880000Y-68060000D02*
X112120000Y-68060000D01*
X111000000Y-63170000D02*
X111000000Y-63820000D01*
X111000000Y-68710000D02*
X111000000Y-68060000D01*
X112120000Y-63820000D02*
X109880000Y-63820000D01*
X112120000Y-64420000D02*
X109880000Y-64420000D01*
X112120000Y-64540000D02*
X109880000Y-64540000D01*
X112120000Y-64660000D02*
X109880000Y-64660000D01*
X112120000Y-68060000D02*
X112120000Y-63820000D01*
%TO.C,REF\u002A\u002A3*%
X162100000Y-43100000D02*
X164900000Y-43100000D01*
X162100000Y-45100000D02*
X162100000Y-43100000D01*
X164900000Y-43100000D02*
X164900000Y-45100000D01*
X164900000Y-45100000D02*
X162100000Y-45100000D01*
%TD*%
D15*
%TO.C,U1*%
X151000000Y-39060000D03*
X151000000Y-41600000D03*
X151000000Y-44140000D03*
X151000000Y-46680000D03*
X151000000Y-49220000D03*
X151000000Y-51760000D03*
X151000000Y-54300000D03*
X151000000Y-56840000D03*
X151000000Y-59380000D03*
X151000000Y-61920000D03*
X151000000Y-64460000D03*
X151000000Y-67000000D03*
X166240000Y-67000000D03*
X166240000Y-64460000D03*
X166240000Y-61920000D03*
X166240000Y-59380000D03*
X166240000Y-56840000D03*
X166240000Y-54300000D03*
X166240000Y-51760000D03*
X166240000Y-49220000D03*
X166240000Y-46680000D03*
X166240000Y-44140000D03*
X166240000Y-41600000D03*
X166240000Y-39060000D03*
%TD*%
M02*
