%TF.GenerationSoftware,KiCad,Pcbnew,9.0.0*%
%TF.CreationDate,2025-03-18T17:15:54-04:00*%
%TF.ProjectId,skylight,736b796c-6967-4687-942e-6b696361645f,1.0*%
%TF.SameCoordinates,Original*%
%TF.FileFunction,Profile,NP*%
%FSLAX46Y46*%
G04 Gerber Fmt 4.6, Leading zero omitted, Abs format (unit mm)*
G04 Created by KiCad (PCBNEW 9.0.0) date 2025-03-18 17:15:54*
%MOMM*%
%LPD*%
G01*
G04 APERTURE LIST*
%TA.AperFunction,Profile*%
%ADD10C,0.100000*%
%TD*%
G04 APERTURE END LIST*
D10*
X148500000Y-88375000D02*
X148500000Y-104000000D01*
X113000000Y-26000000D02*
X91250000Y-26000000D01*
X128000000Y-122500000D02*
X111250000Y-115500000D01*
X75500000Y-102000000D02*
X29500000Y-102000000D01*
X131000000Y-29500000D02*
X113000000Y-29500000D01*
X73250000Y-29500000D02*
X73250000Y-33000000D01*
X172000000Y-127500000D02*
X152500000Y-147000000D01*
X91250000Y-29500000D02*
X73250000Y-29500000D01*
X169000000Y-33000000D02*
X169000000Y-80904661D01*
X148500000Y-104000000D02*
X172000000Y-127500000D01*
X92500000Y-115500000D02*
X75500000Y-102000000D01*
X131000000Y-29500000D02*
X131000000Y-33000000D01*
X73250000Y-33000000D02*
X29500000Y-33000000D01*
X29500000Y-102000000D02*
X29500000Y-33000000D01*
X169000000Y-80904661D02*
X148500000Y-88375000D01*
X113000000Y-26000000D02*
X113000000Y-29500000D01*
X91250000Y-26000000D02*
X91250000Y-29500000D01*
X152500000Y-147000000D02*
X128000000Y-122500000D01*
X111250000Y-115500000D02*
X92500000Y-115500000D01*
X169000000Y-33000000D02*
X131000000Y-33000000D01*
M02*
