%TF.GenerationSoftware,KiCad,Pcbnew,9.0.0*%
%TF.CreationDate,2025-03-18T17:15:54-04:00*%
%TF.ProjectId,skylight,736b796c-6967-4687-942e-6b696361645f,1.0*%
%TF.SameCoordinates,Original*%
%TF.FileFunction,Legend,Bot*%
%TF.FilePolarity,Positive*%
%FSLAX46Y46*%
G04 Gerber Fmt 4.6, Leading zero omitted, Abs format (unit mm)*
G04 Created by KiCad (PCBNEW 9.0.0) date 2025-03-18 17:15:54*
%MOMM*%
%LPD*%
G01*
G04 APERTURE LIST*
%ADD10C,0.100000*%
%ADD11C,0.250000*%
%ADD12C,0.150000*%
%ADD13C,0.120000*%
%ADD14C,0.381000*%
%ADD15C,1.752600*%
G04 APERTURE END LIST*
D10*
X168140498Y-78649797D02*
X168075351Y-78470808D01*
X168075351Y-78470808D02*
X167998030Y-78397600D01*
X167998030Y-78397600D02*
X167875963Y-78340679D01*
X167875963Y-78340679D02*
X167680687Y-78361079D01*
X167680687Y-78361079D02*
X167367456Y-78475085D01*
X167367456Y-78475085D02*
X167204754Y-78584979D01*
X167204754Y-78584979D02*
X167147832Y-78707047D01*
X167147832Y-78707047D02*
X167135658Y-78812828D01*
X167135658Y-78812828D02*
X167200805Y-78991817D01*
X167200805Y-78991817D02*
X167278126Y-79065025D01*
X167278126Y-79065025D02*
X167400194Y-79121946D01*
X167400194Y-79121946D02*
X167595469Y-79101547D01*
X167595469Y-79101547D02*
X167908700Y-78987540D01*
X167908700Y-78987540D02*
X168071403Y-78877646D01*
X168071403Y-78877646D02*
X168128324Y-78755578D01*
X168128324Y-78755578D02*
X168140498Y-78649797D01*
X166907645Y-78186367D02*
X167847338Y-77844346D01*
X167847338Y-77844346D02*
X166712205Y-77649399D01*
X166712205Y-77649399D02*
X167651898Y-77307379D01*
X90991353Y-98995808D02*
X90753258Y-99662475D01*
X90753258Y-99662475D02*
X90515163Y-98995808D01*
X89610401Y-99662475D02*
X90181829Y-99662475D01*
X89896115Y-99662475D02*
X89896115Y-98662475D01*
X89896115Y-98662475D02*
X89991353Y-98805332D01*
X89991353Y-98805332D02*
X90086591Y-98900570D01*
X90086591Y-98900570D02*
X90181829Y-98948189D01*
X89181829Y-99567236D02*
X89134210Y-99614856D01*
X89134210Y-99614856D02*
X89181829Y-99662475D01*
X89181829Y-99662475D02*
X89229448Y-99614856D01*
X89229448Y-99614856D02*
X89181829Y-99567236D01*
X89181829Y-99567236D02*
X89181829Y-99662475D01*
X88515163Y-98662475D02*
X88419925Y-98662475D01*
X88419925Y-98662475D02*
X88324687Y-98710094D01*
X88324687Y-98710094D02*
X88277068Y-98757713D01*
X88277068Y-98757713D02*
X88229449Y-98852951D01*
X88229449Y-98852951D02*
X88181830Y-99043427D01*
X88181830Y-99043427D02*
X88181830Y-99281522D01*
X88181830Y-99281522D02*
X88229449Y-99471998D01*
X88229449Y-99471998D02*
X88277068Y-99567236D01*
X88277068Y-99567236D02*
X88324687Y-99614856D01*
X88324687Y-99614856D02*
X88419925Y-99662475D01*
X88419925Y-99662475D02*
X88515163Y-99662475D01*
X88515163Y-99662475D02*
X88610401Y-99614856D01*
X88610401Y-99614856D02*
X88658020Y-99567236D01*
X88658020Y-99567236D02*
X88705639Y-99471998D01*
X88705639Y-99471998D02*
X88753258Y-99281522D01*
X88753258Y-99281522D02*
X88753258Y-99043427D01*
X88753258Y-99043427D02*
X88705639Y-98852951D01*
X88705639Y-98852951D02*
X88658020Y-98757713D01*
X88658020Y-98757713D02*
X88610401Y-98710094D01*
X88610401Y-98710094D02*
X88515163Y-98662475D01*
X86562782Y-99662475D02*
X86562782Y-98662475D01*
X86562782Y-99614856D02*
X86658020Y-99662475D01*
X86658020Y-99662475D02*
X86848496Y-99662475D01*
X86848496Y-99662475D02*
X86943734Y-99614856D01*
X86943734Y-99614856D02*
X86991353Y-99567236D01*
X86991353Y-99567236D02*
X87038972Y-99471998D01*
X87038972Y-99471998D02*
X87038972Y-99186284D01*
X87038972Y-99186284D02*
X86991353Y-99091046D01*
X86991353Y-99091046D02*
X86943734Y-99043427D01*
X86943734Y-99043427D02*
X86848496Y-98995808D01*
X86848496Y-98995808D02*
X86658020Y-98995808D01*
X86658020Y-98995808D02*
X86562782Y-99043427D01*
X85705639Y-99614856D02*
X85800877Y-99662475D01*
X85800877Y-99662475D02*
X85991353Y-99662475D01*
X85991353Y-99662475D02*
X86086591Y-99614856D01*
X86086591Y-99614856D02*
X86134210Y-99519617D01*
X86134210Y-99519617D02*
X86134210Y-99138665D01*
X86134210Y-99138665D02*
X86086591Y-99043427D01*
X86086591Y-99043427D02*
X85991353Y-98995808D01*
X85991353Y-98995808D02*
X85800877Y-98995808D01*
X85800877Y-98995808D02*
X85705639Y-99043427D01*
X85705639Y-99043427D02*
X85658020Y-99138665D01*
X85658020Y-99138665D02*
X85658020Y-99233903D01*
X85658020Y-99233903D02*
X86134210Y-99329141D01*
X85277067Y-99614856D02*
X85181829Y-99662475D01*
X85181829Y-99662475D02*
X84991353Y-99662475D01*
X84991353Y-99662475D02*
X84896115Y-99614856D01*
X84896115Y-99614856D02*
X84848496Y-99519617D01*
X84848496Y-99519617D02*
X84848496Y-99471998D01*
X84848496Y-99471998D02*
X84896115Y-99376760D01*
X84896115Y-99376760D02*
X84991353Y-99329141D01*
X84991353Y-99329141D02*
X85134210Y-99329141D01*
X85134210Y-99329141D02*
X85229448Y-99281522D01*
X85229448Y-99281522D02*
X85277067Y-99186284D01*
X85277067Y-99186284D02*
X85277067Y-99138665D01*
X85277067Y-99138665D02*
X85229448Y-99043427D01*
X85229448Y-99043427D02*
X85134210Y-98995808D01*
X85134210Y-98995808D02*
X84991353Y-98995808D01*
X84991353Y-98995808D02*
X84896115Y-99043427D01*
X84419924Y-99662475D02*
X84419924Y-98995808D01*
X84419924Y-98662475D02*
X84467543Y-98710094D01*
X84467543Y-98710094D02*
X84419924Y-98757713D01*
X84419924Y-98757713D02*
X84372305Y-98710094D01*
X84372305Y-98710094D02*
X84419924Y-98662475D01*
X84419924Y-98662475D02*
X84419924Y-98757713D01*
X83515163Y-98995808D02*
X83515163Y-99805332D01*
X83515163Y-99805332D02*
X83562782Y-99900570D01*
X83562782Y-99900570D02*
X83610401Y-99948189D01*
X83610401Y-99948189D02*
X83705639Y-99995808D01*
X83705639Y-99995808D02*
X83848496Y-99995808D01*
X83848496Y-99995808D02*
X83943734Y-99948189D01*
X83515163Y-99614856D02*
X83610401Y-99662475D01*
X83610401Y-99662475D02*
X83800877Y-99662475D01*
X83800877Y-99662475D02*
X83896115Y-99614856D01*
X83896115Y-99614856D02*
X83943734Y-99567236D01*
X83943734Y-99567236D02*
X83991353Y-99471998D01*
X83991353Y-99471998D02*
X83991353Y-99186284D01*
X83991353Y-99186284D02*
X83943734Y-99091046D01*
X83943734Y-99091046D02*
X83896115Y-99043427D01*
X83896115Y-99043427D02*
X83800877Y-98995808D01*
X83800877Y-98995808D02*
X83610401Y-98995808D01*
X83610401Y-98995808D02*
X83515163Y-99043427D01*
X83038972Y-98995808D02*
X83038972Y-99662475D01*
X83038972Y-99091046D02*
X82991353Y-99043427D01*
X82991353Y-99043427D02*
X82896115Y-98995808D01*
X82896115Y-98995808D02*
X82753258Y-98995808D01*
X82753258Y-98995808D02*
X82658020Y-99043427D01*
X82658020Y-99043427D02*
X82610401Y-99138665D01*
X82610401Y-99138665D02*
X82610401Y-99662475D01*
X81753258Y-99614856D02*
X81848496Y-99662475D01*
X81848496Y-99662475D02*
X82038972Y-99662475D01*
X82038972Y-99662475D02*
X82134210Y-99614856D01*
X82134210Y-99614856D02*
X82181829Y-99519617D01*
X82181829Y-99519617D02*
X82181829Y-99138665D01*
X82181829Y-99138665D02*
X82134210Y-99043427D01*
X82134210Y-99043427D02*
X82038972Y-98995808D01*
X82038972Y-98995808D02*
X81848496Y-98995808D01*
X81848496Y-98995808D02*
X81753258Y-99043427D01*
X81753258Y-99043427D02*
X81705639Y-99138665D01*
X81705639Y-99138665D02*
X81705639Y-99233903D01*
X81705639Y-99233903D02*
X82181829Y-99329141D01*
X80848496Y-99662475D02*
X80848496Y-98662475D01*
X80848496Y-99614856D02*
X80943734Y-99662475D01*
X80943734Y-99662475D02*
X81134210Y-99662475D01*
X81134210Y-99662475D02*
X81229448Y-99614856D01*
X81229448Y-99614856D02*
X81277067Y-99567236D01*
X81277067Y-99567236D02*
X81324686Y-99471998D01*
X81324686Y-99471998D02*
X81324686Y-99186284D01*
X81324686Y-99186284D02*
X81277067Y-99091046D01*
X81277067Y-99091046D02*
X81229448Y-99043427D01*
X81229448Y-99043427D02*
X81134210Y-98995808D01*
X81134210Y-98995808D02*
X80943734Y-98995808D01*
X80943734Y-98995808D02*
X80848496Y-99043427D01*
X79610400Y-99662475D02*
X79610400Y-98662475D01*
X79610400Y-99043427D02*
X79515162Y-98995808D01*
X79515162Y-98995808D02*
X79324686Y-98995808D01*
X79324686Y-98995808D02*
X79229448Y-99043427D01*
X79229448Y-99043427D02*
X79181829Y-99091046D01*
X79181829Y-99091046D02*
X79134210Y-99186284D01*
X79134210Y-99186284D02*
X79134210Y-99471998D01*
X79134210Y-99471998D02*
X79181829Y-99567236D01*
X79181829Y-99567236D02*
X79229448Y-99614856D01*
X79229448Y-99614856D02*
X79324686Y-99662475D01*
X79324686Y-99662475D02*
X79515162Y-99662475D01*
X79515162Y-99662475D02*
X79610400Y-99614856D01*
X78800876Y-98995808D02*
X78562781Y-99662475D01*
X78324686Y-98995808D02*
X78562781Y-99662475D01*
X78562781Y-99662475D02*
X78658019Y-99900570D01*
X78658019Y-99900570D02*
X78705638Y-99948189D01*
X78705638Y-99948189D02*
X78800876Y-99995808D01*
X90943734Y-100986704D02*
X90467544Y-100986704D01*
X91038972Y-101272419D02*
X90705639Y-100272419D01*
X90705639Y-100272419D02*
X90372306Y-101272419D01*
X89896115Y-101272419D02*
X89991353Y-101224800D01*
X89991353Y-101224800D02*
X90038972Y-101129561D01*
X90038972Y-101129561D02*
X90038972Y-100272419D01*
X89086591Y-101272419D02*
X89086591Y-100272419D01*
X89086591Y-101224800D02*
X89181829Y-101272419D01*
X89181829Y-101272419D02*
X89372305Y-101272419D01*
X89372305Y-101272419D02*
X89467543Y-101224800D01*
X89467543Y-101224800D02*
X89515162Y-101177180D01*
X89515162Y-101177180D02*
X89562781Y-101081942D01*
X89562781Y-101081942D02*
X89562781Y-100796228D01*
X89562781Y-100796228D02*
X89515162Y-100700990D01*
X89515162Y-100700990D02*
X89467543Y-100653371D01*
X89467543Y-100653371D02*
X89372305Y-100605752D01*
X89372305Y-100605752D02*
X89181829Y-100605752D01*
X89181829Y-100605752D02*
X89086591Y-100653371D01*
X88229448Y-101224800D02*
X88324686Y-101272419D01*
X88324686Y-101272419D02*
X88515162Y-101272419D01*
X88515162Y-101272419D02*
X88610400Y-101224800D01*
X88610400Y-101224800D02*
X88658019Y-101129561D01*
X88658019Y-101129561D02*
X88658019Y-100748609D01*
X88658019Y-100748609D02*
X88610400Y-100653371D01*
X88610400Y-100653371D02*
X88515162Y-100605752D01*
X88515162Y-100605752D02*
X88324686Y-100605752D01*
X88324686Y-100605752D02*
X88229448Y-100653371D01*
X88229448Y-100653371D02*
X88181829Y-100748609D01*
X88181829Y-100748609D02*
X88181829Y-100843847D01*
X88181829Y-100843847D02*
X88658019Y-100939085D01*
X87753257Y-100605752D02*
X87753257Y-101272419D01*
X87753257Y-100700990D02*
X87705638Y-100653371D01*
X87705638Y-100653371D02*
X87610400Y-100605752D01*
X87610400Y-100605752D02*
X87467543Y-100605752D01*
X87467543Y-100605752D02*
X87372305Y-100653371D01*
X87372305Y-100653371D02*
X87324686Y-100748609D01*
X87324686Y-100748609D02*
X87324686Y-101272419D01*
X85753257Y-100748609D02*
X85610400Y-100796228D01*
X85610400Y-100796228D02*
X85562781Y-100843847D01*
X85562781Y-100843847D02*
X85515162Y-100939085D01*
X85515162Y-100939085D02*
X85515162Y-101081942D01*
X85515162Y-101081942D02*
X85562781Y-101177180D01*
X85562781Y-101177180D02*
X85610400Y-101224800D01*
X85610400Y-101224800D02*
X85705638Y-101272419D01*
X85705638Y-101272419D02*
X86086590Y-101272419D01*
X86086590Y-101272419D02*
X86086590Y-100272419D01*
X86086590Y-100272419D02*
X85753257Y-100272419D01*
X85753257Y-100272419D02*
X85658019Y-100320038D01*
X85658019Y-100320038D02*
X85610400Y-100367657D01*
X85610400Y-100367657D02*
X85562781Y-100462895D01*
X85562781Y-100462895D02*
X85562781Y-100558133D01*
X85562781Y-100558133D02*
X85610400Y-100653371D01*
X85610400Y-100653371D02*
X85658019Y-100700990D01*
X85658019Y-100700990D02*
X85753257Y-100748609D01*
X85753257Y-100748609D02*
X86086590Y-100748609D01*
X84705638Y-101224800D02*
X84800876Y-101272419D01*
X84800876Y-101272419D02*
X84991352Y-101272419D01*
X84991352Y-101272419D02*
X85086590Y-101224800D01*
X85086590Y-101224800D02*
X85134209Y-101129561D01*
X85134209Y-101129561D02*
X85134209Y-100748609D01*
X85134209Y-100748609D02*
X85086590Y-100653371D01*
X85086590Y-100653371D02*
X84991352Y-100605752D01*
X84991352Y-100605752D02*
X84800876Y-100605752D01*
X84800876Y-100605752D02*
X84705638Y-100653371D01*
X84705638Y-100653371D02*
X84658019Y-100748609D01*
X84658019Y-100748609D02*
X84658019Y-100843847D01*
X84658019Y-100843847D02*
X85134209Y-100939085D01*
X83800876Y-101224800D02*
X83896114Y-101272419D01*
X83896114Y-101272419D02*
X84086590Y-101272419D01*
X84086590Y-101272419D02*
X84181828Y-101224800D01*
X84181828Y-101224800D02*
X84229447Y-101177180D01*
X84229447Y-101177180D02*
X84277066Y-101081942D01*
X84277066Y-101081942D02*
X84277066Y-100796228D01*
X84277066Y-100796228D02*
X84229447Y-100700990D01*
X84229447Y-100700990D02*
X84181828Y-100653371D01*
X84181828Y-100653371D02*
X84086590Y-100605752D01*
X84086590Y-100605752D02*
X83896114Y-100605752D01*
X83896114Y-100605752D02*
X83800876Y-100653371D01*
X83372304Y-101272419D02*
X83372304Y-100272419D01*
X83277066Y-100891466D02*
X82991352Y-101272419D01*
X82991352Y-100605752D02*
X83372304Y-100986704D01*
X159079961Y-71672306D02*
X159127580Y-71767544D01*
X159127580Y-71767544D02*
X159127580Y-71910401D01*
X159127580Y-71910401D02*
X159079961Y-72053258D01*
X159079961Y-72053258D02*
X158984723Y-72148496D01*
X158984723Y-72148496D02*
X158889485Y-72196115D01*
X158889485Y-72196115D02*
X158699009Y-72243734D01*
X158699009Y-72243734D02*
X158556152Y-72243734D01*
X158556152Y-72243734D02*
X158365676Y-72196115D01*
X158365676Y-72196115D02*
X158270438Y-72148496D01*
X158270438Y-72148496D02*
X158175200Y-72053258D01*
X158175200Y-72053258D02*
X158127580Y-71910401D01*
X158127580Y-71910401D02*
X158127580Y-71815163D01*
X158127580Y-71815163D02*
X158175200Y-71672306D01*
X158175200Y-71672306D02*
X158222819Y-71624687D01*
X158222819Y-71624687D02*
X158556152Y-71624687D01*
X158556152Y-71624687D02*
X158556152Y-71815163D01*
X158127580Y-71196115D02*
X159127580Y-71196115D01*
X159127580Y-71196115D02*
X158127580Y-70624687D01*
X158127580Y-70624687D02*
X159127580Y-70624687D01*
X158127580Y-70148496D02*
X159127580Y-70148496D01*
X159127580Y-70148496D02*
X159127580Y-69910401D01*
X159127580Y-69910401D02*
X159079961Y-69767544D01*
X159079961Y-69767544D02*
X158984723Y-69672306D01*
X158984723Y-69672306D02*
X158889485Y-69624687D01*
X158889485Y-69624687D02*
X158699009Y-69577068D01*
X158699009Y-69577068D02*
X158556152Y-69577068D01*
X158556152Y-69577068D02*
X158365676Y-69624687D01*
X158365676Y-69624687D02*
X158270438Y-69672306D01*
X158270438Y-69672306D02*
X158175200Y-69767544D01*
X158175200Y-69767544D02*
X158127580Y-69910401D01*
X158127580Y-69910401D02*
X158127580Y-70148496D01*
X156809501Y-81150202D02*
X156874648Y-81329191D01*
X156874648Y-81329191D02*
X156951969Y-81402399D01*
X156951969Y-81402399D02*
X157074036Y-81459320D01*
X157074036Y-81459320D02*
X157269312Y-81438920D01*
X157269312Y-81438920D02*
X157582543Y-81324914D01*
X157582543Y-81324914D02*
X157745245Y-81215020D01*
X157745245Y-81215020D02*
X157802167Y-81092952D01*
X157802167Y-81092952D02*
X157814341Y-80987171D01*
X157814341Y-80987171D02*
X157749194Y-80808182D01*
X157749194Y-80808182D02*
X157671873Y-80734974D01*
X157671873Y-80734974D02*
X157549805Y-80678053D01*
X157549805Y-80678053D02*
X157354530Y-80698452D01*
X157354530Y-80698452D02*
X157041299Y-80812459D01*
X157041299Y-80812459D02*
X156878596Y-80922353D01*
X156878596Y-80922353D02*
X156821675Y-81044421D01*
X156821675Y-81044421D02*
X156809501Y-81150202D01*
X157664141Y-82106017D02*
X157550134Y-81792786D01*
X158042354Y-81613632D02*
X157102661Y-81955653D01*
X157102661Y-81955653D02*
X157265528Y-82403125D01*
X157957301Y-82911468D02*
X157843294Y-82598237D01*
X158335514Y-82419083D02*
X157395822Y-82761103D01*
X157395822Y-82761103D02*
X157558688Y-83208576D01*
D11*
X87792893Y-109984204D02*
X87510003Y-109880876D01*
X87510003Y-109880876D02*
X87137333Y-109584441D01*
X87137333Y-109584441D02*
X87047552Y-109391332D01*
X87047552Y-109391332D02*
X87032305Y-109257511D01*
X87032305Y-109257511D02*
X87076345Y-109049156D01*
X87076345Y-109049156D02*
X87194919Y-108900088D01*
X87194919Y-108900088D02*
X87388027Y-108810307D01*
X87388027Y-108810307D02*
X87521849Y-108795060D01*
X87521849Y-108795060D02*
X87730204Y-108839100D01*
X87730204Y-108839100D02*
X88087627Y-109001714D01*
X88087627Y-109001714D02*
X88295983Y-109045754D01*
X88295983Y-109045754D02*
X88429804Y-109030507D01*
X88429804Y-109030507D02*
X88622912Y-108940726D01*
X88622912Y-108940726D02*
X88741487Y-108791658D01*
X88741487Y-108791658D02*
X88785527Y-108583302D01*
X88785527Y-108583302D02*
X88770280Y-108449481D01*
X88770280Y-108449481D02*
X88680499Y-108256373D01*
X88680499Y-108256373D02*
X88307828Y-107959937D01*
X88307828Y-107959937D02*
X88024939Y-107856610D01*
X86168389Y-108813708D02*
X87413419Y-107248492D01*
X86493618Y-108098861D02*
X85572116Y-108339411D01*
X86402136Y-107295934D02*
X86524112Y-108366504D01*
X85880397Y-106880924D02*
X84677707Y-107627966D01*
X85135056Y-106288053D02*
X84677707Y-107627966D01*
X84677707Y-107627966D02*
X84530339Y-108119211D01*
X84530339Y-108119211D02*
X84545586Y-108253032D01*
X84545586Y-108253032D02*
X84635368Y-108446140D01*
X83485161Y-106679372D02*
X83693516Y-106723412D01*
X83693516Y-106723412D02*
X83886624Y-106633631D01*
X83886624Y-106633631D02*
X84953792Y-105292017D01*
X82888888Y-106205075D02*
X83718907Y-105161598D01*
X84133917Y-104639859D02*
X84149164Y-104773680D01*
X84149164Y-104773680D02*
X84015343Y-104788927D01*
X84015343Y-104788927D02*
X84000096Y-104655106D01*
X84000096Y-104655106D02*
X84133917Y-104639859D01*
X84133917Y-104639859D02*
X84015343Y-104788927D01*
X82302759Y-104035142D02*
X81294878Y-105302222D01*
X81294878Y-105302222D02*
X81250838Y-105510578D01*
X81250838Y-105510578D02*
X81266085Y-105644399D01*
X81266085Y-105644399D02*
X81355866Y-105837507D01*
X81355866Y-105837507D02*
X81579469Y-106015368D01*
X81579469Y-106015368D02*
X81787824Y-106059409D01*
X81532027Y-105004086D02*
X81621808Y-105197194D01*
X81621808Y-105197194D02*
X81919944Y-105434343D01*
X81919944Y-105434343D02*
X82128300Y-105478383D01*
X82128300Y-105478383D02*
X82262121Y-105463136D01*
X82262121Y-105463136D02*
X82455229Y-105373355D01*
X82455229Y-105373355D02*
X82810952Y-104926150D01*
X82810952Y-104926150D02*
X82854992Y-104717795D01*
X82854992Y-104717795D02*
X82839745Y-104583973D01*
X82839745Y-104583973D02*
X82749964Y-104390865D01*
X82749964Y-104390865D02*
X82451827Y-104153717D01*
X82451827Y-104153717D02*
X82243472Y-104109677D01*
X80727398Y-104485749D02*
X81972428Y-102920532D01*
X80056591Y-103952165D02*
X80708750Y-103132290D01*
X80708750Y-103132290D02*
X80901858Y-103042508D01*
X80901858Y-103042508D02*
X81110213Y-103086549D01*
X81110213Y-103086549D02*
X81333816Y-103264410D01*
X81333816Y-103264410D02*
X81423597Y-103457518D01*
X81423597Y-103457518D02*
X81438844Y-103591339D01*
X80364872Y-102493677D02*
X79768599Y-102019381D01*
X80556279Y-101794077D02*
X79489112Y-103135691D01*
X79489112Y-103135691D02*
X79296003Y-103225472D01*
X79296003Y-103225472D02*
X79087648Y-103181432D01*
X79087648Y-103181432D02*
X78938580Y-103062858D01*
D10*
X159127580Y-76291353D02*
X159127580Y-75672306D01*
X159127580Y-75672306D02*
X158746628Y-76005639D01*
X158746628Y-76005639D02*
X158746628Y-75862782D01*
X158746628Y-75862782D02*
X158699009Y-75767544D01*
X158699009Y-75767544D02*
X158651390Y-75719925D01*
X158651390Y-75719925D02*
X158556152Y-75672306D01*
X158556152Y-75672306D02*
X158318057Y-75672306D01*
X158318057Y-75672306D02*
X158222819Y-75719925D01*
X158222819Y-75719925D02*
X158175200Y-75767544D01*
X158175200Y-75767544D02*
X158127580Y-75862782D01*
X158127580Y-75862782D02*
X158127580Y-76148496D01*
X158127580Y-76148496D02*
X158175200Y-76243734D01*
X158175200Y-76243734D02*
X158222819Y-76291353D01*
X158222819Y-75243734D02*
X158175200Y-75196115D01*
X158175200Y-75196115D02*
X158127580Y-75243734D01*
X158127580Y-75243734D02*
X158175200Y-75291353D01*
X158175200Y-75291353D02*
X158222819Y-75243734D01*
X158222819Y-75243734D02*
X158127580Y-75243734D01*
X159127580Y-74862782D02*
X159127580Y-74196116D01*
X159127580Y-74196116D02*
X158127580Y-74624687D01*
X159127580Y-73958020D02*
X158127580Y-73624687D01*
X158127580Y-73624687D02*
X159127580Y-73291354D01*
X153133839Y-80079487D02*
X153284203Y-79518008D01*
X153670806Y-79884047D02*
X153328786Y-78944355D01*
X153328786Y-78944355D02*
X152970808Y-79074648D01*
X152970808Y-79074648D02*
X152897600Y-79151969D01*
X152897600Y-79151969D02*
X152869140Y-79213002D01*
X152869140Y-79213002D02*
X152856966Y-79318784D01*
X152856966Y-79318784D02*
X152905826Y-79453025D01*
X152905826Y-79453025D02*
X152983146Y-79526233D01*
X152983146Y-79526233D02*
X153044180Y-79554694D01*
X153044180Y-79554694D02*
X153149962Y-79566868D01*
X153149962Y-79566868D02*
X153507940Y-79436574D01*
X152551960Y-79733847D02*
X152238730Y-79847854D01*
X152283641Y-80388934D02*
X152731114Y-80226067D01*
X152731114Y-80226067D02*
X152389094Y-79286375D01*
X152389094Y-79286375D02*
X151941621Y-79449241D01*
X151909376Y-80474480D02*
X151791421Y-80568087D01*
X151791421Y-80568087D02*
X151567685Y-80649521D01*
X151567685Y-80649521D02*
X151461904Y-80637347D01*
X151461904Y-80637347D02*
X151400870Y-80608886D01*
X151400870Y-80608886D02*
X151323549Y-80535678D01*
X151323549Y-80535678D02*
X151290976Y-80446184D01*
X151290976Y-80446184D02*
X151303150Y-80340403D01*
X151303150Y-80340403D02*
X151331610Y-80279369D01*
X151331610Y-80279369D02*
X151404818Y-80202048D01*
X151404818Y-80202048D02*
X151567520Y-80092154D01*
X151567520Y-80092154D02*
X151640728Y-80014834D01*
X151640728Y-80014834D02*
X151669189Y-79953800D01*
X151669189Y-79953800D02*
X151681363Y-79848018D01*
X151681363Y-79848018D02*
X151648789Y-79758524D01*
X151648789Y-79758524D02*
X151571469Y-79685316D01*
X151571469Y-79685316D02*
X151510435Y-79656855D01*
X151510435Y-79656855D02*
X151404654Y-79644682D01*
X151404654Y-79644682D02*
X151180917Y-79726115D01*
X151180917Y-79726115D02*
X151062962Y-79819722D01*
X150806817Y-80369028D02*
X150493586Y-80483034D01*
X150538498Y-81024114D02*
X150985970Y-80861248D01*
X150985970Y-80861248D02*
X150643950Y-79921555D01*
X150643950Y-79921555D02*
X150196477Y-80084422D01*
X149927994Y-80182142D02*
X149391027Y-80377582D01*
X150001530Y-81219554D02*
X149659510Y-80279862D01*
D12*
X40864523Y-74452200D02*
X40721666Y-74499819D01*
X40721666Y-74499819D02*
X40483571Y-74499819D01*
X40483571Y-74499819D02*
X40388333Y-74452200D01*
X40388333Y-74452200D02*
X40340714Y-74404580D01*
X40340714Y-74404580D02*
X40293095Y-74309342D01*
X40293095Y-74309342D02*
X40293095Y-74214104D01*
X40293095Y-74214104D02*
X40340714Y-74118866D01*
X40340714Y-74118866D02*
X40388333Y-74071247D01*
X40388333Y-74071247D02*
X40483571Y-74023628D01*
X40483571Y-74023628D02*
X40674047Y-73976009D01*
X40674047Y-73976009D02*
X40769285Y-73928390D01*
X40769285Y-73928390D02*
X40816904Y-73880771D01*
X40816904Y-73880771D02*
X40864523Y-73785533D01*
X40864523Y-73785533D02*
X40864523Y-73690295D01*
X40864523Y-73690295D02*
X40816904Y-73595057D01*
X40816904Y-73595057D02*
X40769285Y-73547438D01*
X40769285Y-73547438D02*
X40674047Y-73499819D01*
X40674047Y-73499819D02*
X40435952Y-73499819D01*
X40435952Y-73499819D02*
X40293095Y-73547438D01*
X39959761Y-73499819D02*
X39721666Y-74499819D01*
X39721666Y-74499819D02*
X39531190Y-73785533D01*
X39531190Y-73785533D02*
X39340714Y-74499819D01*
X39340714Y-74499819D02*
X39102619Y-73499819D01*
X38197857Y-74499819D02*
X38769285Y-74499819D01*
X38483571Y-74499819D02*
X38483571Y-73499819D01*
X38483571Y-73499819D02*
X38578809Y-73642676D01*
X38578809Y-73642676D02*
X38674047Y-73737914D01*
X38674047Y-73737914D02*
X38769285Y-73785533D01*
X37864523Y-73499819D02*
X37245476Y-73499819D01*
X37245476Y-73499819D02*
X37578809Y-73880771D01*
X37578809Y-73880771D02*
X37435952Y-73880771D01*
X37435952Y-73880771D02*
X37340714Y-73928390D01*
X37340714Y-73928390D02*
X37293095Y-73976009D01*
X37293095Y-73976009D02*
X37245476Y-74071247D01*
X37245476Y-74071247D02*
X37245476Y-74309342D01*
X37245476Y-74309342D02*
X37293095Y-74404580D01*
X37293095Y-74404580D02*
X37340714Y-74452200D01*
X37340714Y-74452200D02*
X37435952Y-74499819D01*
X37435952Y-74499819D02*
X37721666Y-74499819D01*
X37721666Y-74499819D02*
X37816904Y-74452200D01*
X37816904Y-74452200D02*
X37864523Y-74404580D01*
X63364523Y-91502200D02*
X63221666Y-91549819D01*
X63221666Y-91549819D02*
X62983571Y-91549819D01*
X62983571Y-91549819D02*
X62888333Y-91502200D01*
X62888333Y-91502200D02*
X62840714Y-91454580D01*
X62840714Y-91454580D02*
X62793095Y-91359342D01*
X62793095Y-91359342D02*
X62793095Y-91264104D01*
X62793095Y-91264104D02*
X62840714Y-91168866D01*
X62840714Y-91168866D02*
X62888333Y-91121247D01*
X62888333Y-91121247D02*
X62983571Y-91073628D01*
X62983571Y-91073628D02*
X63174047Y-91026009D01*
X63174047Y-91026009D02*
X63269285Y-90978390D01*
X63269285Y-90978390D02*
X63316904Y-90930771D01*
X63316904Y-90930771D02*
X63364523Y-90835533D01*
X63364523Y-90835533D02*
X63364523Y-90740295D01*
X63364523Y-90740295D02*
X63316904Y-90645057D01*
X63316904Y-90645057D02*
X63269285Y-90597438D01*
X63269285Y-90597438D02*
X63174047Y-90549819D01*
X63174047Y-90549819D02*
X62935952Y-90549819D01*
X62935952Y-90549819D02*
X62793095Y-90597438D01*
X62459761Y-90549819D02*
X62221666Y-91549819D01*
X62221666Y-91549819D02*
X62031190Y-90835533D01*
X62031190Y-90835533D02*
X61840714Y-91549819D01*
X61840714Y-91549819D02*
X61602619Y-90549819D01*
X61269285Y-90645057D02*
X61221666Y-90597438D01*
X61221666Y-90597438D02*
X61126428Y-90549819D01*
X61126428Y-90549819D02*
X60888333Y-90549819D01*
X60888333Y-90549819D02*
X60793095Y-90597438D01*
X60793095Y-90597438D02*
X60745476Y-90645057D01*
X60745476Y-90645057D02*
X60697857Y-90740295D01*
X60697857Y-90740295D02*
X60697857Y-90835533D01*
X60697857Y-90835533D02*
X60745476Y-90978390D01*
X60745476Y-90978390D02*
X61316904Y-91549819D01*
X61316904Y-91549819D02*
X60697857Y-91549819D01*
X60078809Y-90549819D02*
X59983571Y-90549819D01*
X59983571Y-90549819D02*
X59888333Y-90597438D01*
X59888333Y-90597438D02*
X59840714Y-90645057D01*
X59840714Y-90645057D02*
X59793095Y-90740295D01*
X59793095Y-90740295D02*
X59745476Y-90930771D01*
X59745476Y-90930771D02*
X59745476Y-91168866D01*
X59745476Y-91168866D02*
X59793095Y-91359342D01*
X59793095Y-91359342D02*
X59840714Y-91454580D01*
X59840714Y-91454580D02*
X59888333Y-91502200D01*
X59888333Y-91502200D02*
X59983571Y-91549819D01*
X59983571Y-91549819D02*
X60078809Y-91549819D01*
X60078809Y-91549819D02*
X60174047Y-91502200D01*
X60174047Y-91502200D02*
X60221666Y-91454580D01*
X60221666Y-91454580D02*
X60269285Y-91359342D01*
X60269285Y-91359342D02*
X60316904Y-91168866D01*
X60316904Y-91168866D02*
X60316904Y-90930771D01*
X60316904Y-90930771D02*
X60269285Y-90740295D01*
X60269285Y-90740295D02*
X60221666Y-90645057D01*
X60221666Y-90645057D02*
X60174047Y-90597438D01*
X60174047Y-90597438D02*
X60078809Y-90549819D01*
X81364523Y-88102200D02*
X81221666Y-88149819D01*
X81221666Y-88149819D02*
X80983571Y-88149819D01*
X80983571Y-88149819D02*
X80888333Y-88102200D01*
X80888333Y-88102200D02*
X80840714Y-88054580D01*
X80840714Y-88054580D02*
X80793095Y-87959342D01*
X80793095Y-87959342D02*
X80793095Y-87864104D01*
X80793095Y-87864104D02*
X80840714Y-87768866D01*
X80840714Y-87768866D02*
X80888333Y-87721247D01*
X80888333Y-87721247D02*
X80983571Y-87673628D01*
X80983571Y-87673628D02*
X81174047Y-87626009D01*
X81174047Y-87626009D02*
X81269285Y-87578390D01*
X81269285Y-87578390D02*
X81316904Y-87530771D01*
X81316904Y-87530771D02*
X81364523Y-87435533D01*
X81364523Y-87435533D02*
X81364523Y-87340295D01*
X81364523Y-87340295D02*
X81316904Y-87245057D01*
X81316904Y-87245057D02*
X81269285Y-87197438D01*
X81269285Y-87197438D02*
X81174047Y-87149819D01*
X81174047Y-87149819D02*
X80935952Y-87149819D01*
X80935952Y-87149819D02*
X80793095Y-87197438D01*
X80459761Y-87149819D02*
X80221666Y-88149819D01*
X80221666Y-88149819D02*
X80031190Y-87435533D01*
X80031190Y-87435533D02*
X79840714Y-88149819D01*
X79840714Y-88149819D02*
X79602619Y-87149819D01*
X79269285Y-87245057D02*
X79221666Y-87197438D01*
X79221666Y-87197438D02*
X79126428Y-87149819D01*
X79126428Y-87149819D02*
X78888333Y-87149819D01*
X78888333Y-87149819D02*
X78793095Y-87197438D01*
X78793095Y-87197438D02*
X78745476Y-87245057D01*
X78745476Y-87245057D02*
X78697857Y-87340295D01*
X78697857Y-87340295D02*
X78697857Y-87435533D01*
X78697857Y-87435533D02*
X78745476Y-87578390D01*
X78745476Y-87578390D02*
X79316904Y-88149819D01*
X79316904Y-88149819D02*
X78697857Y-88149819D01*
X77745476Y-88149819D02*
X78316904Y-88149819D01*
X78031190Y-88149819D02*
X78031190Y-87149819D01*
X78031190Y-87149819D02*
X78126428Y-87292676D01*
X78126428Y-87292676D02*
X78221666Y-87387914D01*
X78221666Y-87387914D02*
X78316904Y-87435533D01*
X117364523Y-88102200D02*
X117221666Y-88149819D01*
X117221666Y-88149819D02*
X116983571Y-88149819D01*
X116983571Y-88149819D02*
X116888333Y-88102200D01*
X116888333Y-88102200D02*
X116840714Y-88054580D01*
X116840714Y-88054580D02*
X116793095Y-87959342D01*
X116793095Y-87959342D02*
X116793095Y-87864104D01*
X116793095Y-87864104D02*
X116840714Y-87768866D01*
X116840714Y-87768866D02*
X116888333Y-87721247D01*
X116888333Y-87721247D02*
X116983571Y-87673628D01*
X116983571Y-87673628D02*
X117174047Y-87626009D01*
X117174047Y-87626009D02*
X117269285Y-87578390D01*
X117269285Y-87578390D02*
X117316904Y-87530771D01*
X117316904Y-87530771D02*
X117364523Y-87435533D01*
X117364523Y-87435533D02*
X117364523Y-87340295D01*
X117364523Y-87340295D02*
X117316904Y-87245057D01*
X117316904Y-87245057D02*
X117269285Y-87197438D01*
X117269285Y-87197438D02*
X117174047Y-87149819D01*
X117174047Y-87149819D02*
X116935952Y-87149819D01*
X116935952Y-87149819D02*
X116793095Y-87197438D01*
X116459761Y-87149819D02*
X116221666Y-88149819D01*
X116221666Y-88149819D02*
X116031190Y-87435533D01*
X116031190Y-87435533D02*
X115840714Y-88149819D01*
X115840714Y-88149819D02*
X115602619Y-87149819D01*
X115269285Y-87245057D02*
X115221666Y-87197438D01*
X115221666Y-87197438D02*
X115126428Y-87149819D01*
X115126428Y-87149819D02*
X114888333Y-87149819D01*
X114888333Y-87149819D02*
X114793095Y-87197438D01*
X114793095Y-87197438D02*
X114745476Y-87245057D01*
X114745476Y-87245057D02*
X114697857Y-87340295D01*
X114697857Y-87340295D02*
X114697857Y-87435533D01*
X114697857Y-87435533D02*
X114745476Y-87578390D01*
X114745476Y-87578390D02*
X115316904Y-88149819D01*
X115316904Y-88149819D02*
X114697857Y-88149819D01*
X114364523Y-87149819D02*
X113745476Y-87149819D01*
X113745476Y-87149819D02*
X114078809Y-87530771D01*
X114078809Y-87530771D02*
X113935952Y-87530771D01*
X113935952Y-87530771D02*
X113840714Y-87578390D01*
X113840714Y-87578390D02*
X113793095Y-87626009D01*
X113793095Y-87626009D02*
X113745476Y-87721247D01*
X113745476Y-87721247D02*
X113745476Y-87959342D01*
X113745476Y-87959342D02*
X113793095Y-88054580D01*
X113793095Y-88054580D02*
X113840714Y-88102200D01*
X113840714Y-88102200D02*
X113935952Y-88149819D01*
X113935952Y-88149819D02*
X114221666Y-88149819D01*
X114221666Y-88149819D02*
X114316904Y-88102200D01*
X114316904Y-88102200D02*
X114364523Y-88054580D01*
X135364523Y-74452200D02*
X135221666Y-74499819D01*
X135221666Y-74499819D02*
X134983571Y-74499819D01*
X134983571Y-74499819D02*
X134888333Y-74452200D01*
X134888333Y-74452200D02*
X134840714Y-74404580D01*
X134840714Y-74404580D02*
X134793095Y-74309342D01*
X134793095Y-74309342D02*
X134793095Y-74214104D01*
X134793095Y-74214104D02*
X134840714Y-74118866D01*
X134840714Y-74118866D02*
X134888333Y-74071247D01*
X134888333Y-74071247D02*
X134983571Y-74023628D01*
X134983571Y-74023628D02*
X135174047Y-73976009D01*
X135174047Y-73976009D02*
X135269285Y-73928390D01*
X135269285Y-73928390D02*
X135316904Y-73880771D01*
X135316904Y-73880771D02*
X135364523Y-73785533D01*
X135364523Y-73785533D02*
X135364523Y-73690295D01*
X135364523Y-73690295D02*
X135316904Y-73595057D01*
X135316904Y-73595057D02*
X135269285Y-73547438D01*
X135269285Y-73547438D02*
X135174047Y-73499819D01*
X135174047Y-73499819D02*
X134935952Y-73499819D01*
X134935952Y-73499819D02*
X134793095Y-73547438D01*
X134459761Y-73499819D02*
X134221666Y-74499819D01*
X134221666Y-74499819D02*
X134031190Y-73785533D01*
X134031190Y-73785533D02*
X133840714Y-74499819D01*
X133840714Y-74499819D02*
X133602619Y-73499819D01*
X132697857Y-74499819D02*
X133269285Y-74499819D01*
X132983571Y-74499819D02*
X132983571Y-73499819D01*
X132983571Y-73499819D02*
X133078809Y-73642676D01*
X133078809Y-73642676D02*
X133174047Y-73737914D01*
X133174047Y-73737914D02*
X133269285Y-73785533D01*
X132126428Y-73928390D02*
X132221666Y-73880771D01*
X132221666Y-73880771D02*
X132269285Y-73833152D01*
X132269285Y-73833152D02*
X132316904Y-73737914D01*
X132316904Y-73737914D02*
X132316904Y-73690295D01*
X132316904Y-73690295D02*
X132269285Y-73595057D01*
X132269285Y-73595057D02*
X132221666Y-73547438D01*
X132221666Y-73547438D02*
X132126428Y-73499819D01*
X132126428Y-73499819D02*
X131935952Y-73499819D01*
X131935952Y-73499819D02*
X131840714Y-73547438D01*
X131840714Y-73547438D02*
X131793095Y-73595057D01*
X131793095Y-73595057D02*
X131745476Y-73690295D01*
X131745476Y-73690295D02*
X131745476Y-73737914D01*
X131745476Y-73737914D02*
X131793095Y-73833152D01*
X131793095Y-73833152D02*
X131840714Y-73880771D01*
X131840714Y-73880771D02*
X131935952Y-73928390D01*
X131935952Y-73928390D02*
X132126428Y-73928390D01*
X132126428Y-73928390D02*
X132221666Y-73976009D01*
X132221666Y-73976009D02*
X132269285Y-74023628D01*
X132269285Y-74023628D02*
X132316904Y-74118866D01*
X132316904Y-74118866D02*
X132316904Y-74309342D01*
X132316904Y-74309342D02*
X132269285Y-74404580D01*
X132269285Y-74404580D02*
X132221666Y-74452200D01*
X132221666Y-74452200D02*
X132126428Y-74499819D01*
X132126428Y-74499819D02*
X131935952Y-74499819D01*
X131935952Y-74499819D02*
X131840714Y-74452200D01*
X131840714Y-74452200D02*
X131793095Y-74404580D01*
X131793095Y-74404580D02*
X131745476Y-74309342D01*
X131745476Y-74309342D02*
X131745476Y-74118866D01*
X131745476Y-74118866D02*
X131793095Y-74023628D01*
X131793095Y-74023628D02*
X131840714Y-73976009D01*
X131840714Y-73976009D02*
X131935952Y-73928390D01*
X99364523Y-50452200D02*
X99221666Y-50499819D01*
X99221666Y-50499819D02*
X98983571Y-50499819D01*
X98983571Y-50499819D02*
X98888333Y-50452200D01*
X98888333Y-50452200D02*
X98840714Y-50404580D01*
X98840714Y-50404580D02*
X98793095Y-50309342D01*
X98793095Y-50309342D02*
X98793095Y-50214104D01*
X98793095Y-50214104D02*
X98840714Y-50118866D01*
X98840714Y-50118866D02*
X98888333Y-50071247D01*
X98888333Y-50071247D02*
X98983571Y-50023628D01*
X98983571Y-50023628D02*
X99174047Y-49976009D01*
X99174047Y-49976009D02*
X99269285Y-49928390D01*
X99269285Y-49928390D02*
X99316904Y-49880771D01*
X99316904Y-49880771D02*
X99364523Y-49785533D01*
X99364523Y-49785533D02*
X99364523Y-49690295D01*
X99364523Y-49690295D02*
X99316904Y-49595057D01*
X99316904Y-49595057D02*
X99269285Y-49547438D01*
X99269285Y-49547438D02*
X99174047Y-49499819D01*
X99174047Y-49499819D02*
X98935952Y-49499819D01*
X98935952Y-49499819D02*
X98793095Y-49547438D01*
X98459761Y-49499819D02*
X98221666Y-50499819D01*
X98221666Y-50499819D02*
X98031190Y-49785533D01*
X98031190Y-49785533D02*
X97840714Y-50499819D01*
X97840714Y-50499819D02*
X97602619Y-49499819D01*
X96697857Y-50499819D02*
X97269285Y-50499819D01*
X96983571Y-50499819D02*
X96983571Y-49499819D01*
X96983571Y-49499819D02*
X97078809Y-49642676D01*
X97078809Y-49642676D02*
X97174047Y-49737914D01*
X97174047Y-49737914D02*
X97269285Y-49785533D01*
X96078809Y-49499819D02*
X95983571Y-49499819D01*
X95983571Y-49499819D02*
X95888333Y-49547438D01*
X95888333Y-49547438D02*
X95840714Y-49595057D01*
X95840714Y-49595057D02*
X95793095Y-49690295D01*
X95793095Y-49690295D02*
X95745476Y-49880771D01*
X95745476Y-49880771D02*
X95745476Y-50118866D01*
X95745476Y-50118866D02*
X95793095Y-50309342D01*
X95793095Y-50309342D02*
X95840714Y-50404580D01*
X95840714Y-50404580D02*
X95888333Y-50452200D01*
X95888333Y-50452200D02*
X95983571Y-50499819D01*
X95983571Y-50499819D02*
X96078809Y-50499819D01*
X96078809Y-50499819D02*
X96174047Y-50452200D01*
X96174047Y-50452200D02*
X96221666Y-50404580D01*
X96221666Y-50404580D02*
X96269285Y-50309342D01*
X96269285Y-50309342D02*
X96316904Y-50118866D01*
X96316904Y-50118866D02*
X96316904Y-49880771D01*
X96316904Y-49880771D02*
X96269285Y-49690295D01*
X96269285Y-49690295D02*
X96221666Y-49595057D01*
X96221666Y-49595057D02*
X96174047Y-49547438D01*
X96174047Y-49547438D02*
X96078809Y-49499819D01*
X99344523Y-105102200D02*
X99201666Y-105149819D01*
X99201666Y-105149819D02*
X98963571Y-105149819D01*
X98963571Y-105149819D02*
X98868333Y-105102200D01*
X98868333Y-105102200D02*
X98820714Y-105054580D01*
X98820714Y-105054580D02*
X98773095Y-104959342D01*
X98773095Y-104959342D02*
X98773095Y-104864104D01*
X98773095Y-104864104D02*
X98820714Y-104768866D01*
X98820714Y-104768866D02*
X98868333Y-104721247D01*
X98868333Y-104721247D02*
X98963571Y-104673628D01*
X98963571Y-104673628D02*
X99154047Y-104626009D01*
X99154047Y-104626009D02*
X99249285Y-104578390D01*
X99249285Y-104578390D02*
X99296904Y-104530771D01*
X99296904Y-104530771D02*
X99344523Y-104435533D01*
X99344523Y-104435533D02*
X99344523Y-104340295D01*
X99344523Y-104340295D02*
X99296904Y-104245057D01*
X99296904Y-104245057D02*
X99249285Y-104197438D01*
X99249285Y-104197438D02*
X99154047Y-104149819D01*
X99154047Y-104149819D02*
X98915952Y-104149819D01*
X98915952Y-104149819D02*
X98773095Y-104197438D01*
X98439761Y-104149819D02*
X98201666Y-105149819D01*
X98201666Y-105149819D02*
X98011190Y-104435533D01*
X98011190Y-104435533D02*
X97820714Y-105149819D01*
X97820714Y-105149819D02*
X97582619Y-104149819D01*
X97249285Y-104245057D02*
X97201666Y-104197438D01*
X97201666Y-104197438D02*
X97106428Y-104149819D01*
X97106428Y-104149819D02*
X96868333Y-104149819D01*
X96868333Y-104149819D02*
X96773095Y-104197438D01*
X96773095Y-104197438D02*
X96725476Y-104245057D01*
X96725476Y-104245057D02*
X96677857Y-104340295D01*
X96677857Y-104340295D02*
X96677857Y-104435533D01*
X96677857Y-104435533D02*
X96725476Y-104578390D01*
X96725476Y-104578390D02*
X97296904Y-105149819D01*
X97296904Y-105149819D02*
X96677857Y-105149819D01*
X96344523Y-104149819D02*
X95677857Y-104149819D01*
X95677857Y-104149819D02*
X96106428Y-105149819D01*
X134888332Y-40402200D02*
X134745475Y-40449819D01*
X134745475Y-40449819D02*
X134507380Y-40449819D01*
X134507380Y-40449819D02*
X134412142Y-40402200D01*
X134412142Y-40402200D02*
X134364523Y-40354580D01*
X134364523Y-40354580D02*
X134316904Y-40259342D01*
X134316904Y-40259342D02*
X134316904Y-40164104D01*
X134316904Y-40164104D02*
X134364523Y-40068866D01*
X134364523Y-40068866D02*
X134412142Y-40021247D01*
X134412142Y-40021247D02*
X134507380Y-39973628D01*
X134507380Y-39973628D02*
X134697856Y-39926009D01*
X134697856Y-39926009D02*
X134793094Y-39878390D01*
X134793094Y-39878390D02*
X134840713Y-39830771D01*
X134840713Y-39830771D02*
X134888332Y-39735533D01*
X134888332Y-39735533D02*
X134888332Y-39640295D01*
X134888332Y-39640295D02*
X134840713Y-39545057D01*
X134840713Y-39545057D02*
X134793094Y-39497438D01*
X134793094Y-39497438D02*
X134697856Y-39449819D01*
X134697856Y-39449819D02*
X134459761Y-39449819D01*
X134459761Y-39449819D02*
X134316904Y-39497438D01*
X133983570Y-39449819D02*
X133745475Y-40449819D01*
X133745475Y-40449819D02*
X133554999Y-39735533D01*
X133554999Y-39735533D02*
X133364523Y-40449819D01*
X133364523Y-40449819D02*
X133126428Y-39449819D01*
X132316904Y-39449819D02*
X132507380Y-39449819D01*
X132507380Y-39449819D02*
X132602618Y-39497438D01*
X132602618Y-39497438D02*
X132650237Y-39545057D01*
X132650237Y-39545057D02*
X132745475Y-39687914D01*
X132745475Y-39687914D02*
X132793094Y-39878390D01*
X132793094Y-39878390D02*
X132793094Y-40259342D01*
X132793094Y-40259342D02*
X132745475Y-40354580D01*
X132745475Y-40354580D02*
X132697856Y-40402200D01*
X132697856Y-40402200D02*
X132602618Y-40449819D01*
X132602618Y-40449819D02*
X132412142Y-40449819D01*
X132412142Y-40449819D02*
X132316904Y-40402200D01*
X132316904Y-40402200D02*
X132269285Y-40354580D01*
X132269285Y-40354580D02*
X132221666Y-40259342D01*
X132221666Y-40259342D02*
X132221666Y-40021247D01*
X132221666Y-40021247D02*
X132269285Y-39926009D01*
X132269285Y-39926009D02*
X132316904Y-39878390D01*
X132316904Y-39878390D02*
X132412142Y-39830771D01*
X132412142Y-39830771D02*
X132602618Y-39830771D01*
X132602618Y-39830771D02*
X132697856Y-39878390D01*
X132697856Y-39878390D02*
X132745475Y-39926009D01*
X132745475Y-39926009D02*
X132793094Y-40021247D01*
X40864523Y-91502200D02*
X40721666Y-91549819D01*
X40721666Y-91549819D02*
X40483571Y-91549819D01*
X40483571Y-91549819D02*
X40388333Y-91502200D01*
X40388333Y-91502200D02*
X40340714Y-91454580D01*
X40340714Y-91454580D02*
X40293095Y-91359342D01*
X40293095Y-91359342D02*
X40293095Y-91264104D01*
X40293095Y-91264104D02*
X40340714Y-91168866D01*
X40340714Y-91168866D02*
X40388333Y-91121247D01*
X40388333Y-91121247D02*
X40483571Y-91073628D01*
X40483571Y-91073628D02*
X40674047Y-91026009D01*
X40674047Y-91026009D02*
X40769285Y-90978390D01*
X40769285Y-90978390D02*
X40816904Y-90930771D01*
X40816904Y-90930771D02*
X40864523Y-90835533D01*
X40864523Y-90835533D02*
X40864523Y-90740295D01*
X40864523Y-90740295D02*
X40816904Y-90645057D01*
X40816904Y-90645057D02*
X40769285Y-90597438D01*
X40769285Y-90597438D02*
X40674047Y-90549819D01*
X40674047Y-90549819D02*
X40435952Y-90549819D01*
X40435952Y-90549819D02*
X40293095Y-90597438D01*
X39959761Y-90549819D02*
X39721666Y-91549819D01*
X39721666Y-91549819D02*
X39531190Y-90835533D01*
X39531190Y-90835533D02*
X39340714Y-91549819D01*
X39340714Y-91549819D02*
X39102619Y-90549819D01*
X38197857Y-91549819D02*
X38769285Y-91549819D01*
X38483571Y-91549819D02*
X38483571Y-90549819D01*
X38483571Y-90549819D02*
X38578809Y-90692676D01*
X38578809Y-90692676D02*
X38674047Y-90787914D01*
X38674047Y-90787914D02*
X38769285Y-90835533D01*
X37721666Y-91549819D02*
X37531190Y-91549819D01*
X37531190Y-91549819D02*
X37435952Y-91502200D01*
X37435952Y-91502200D02*
X37388333Y-91454580D01*
X37388333Y-91454580D02*
X37293095Y-91311723D01*
X37293095Y-91311723D02*
X37245476Y-91121247D01*
X37245476Y-91121247D02*
X37245476Y-90740295D01*
X37245476Y-90740295D02*
X37293095Y-90645057D01*
X37293095Y-90645057D02*
X37340714Y-90597438D01*
X37340714Y-90597438D02*
X37435952Y-90549819D01*
X37435952Y-90549819D02*
X37626428Y-90549819D01*
X37626428Y-90549819D02*
X37721666Y-90597438D01*
X37721666Y-90597438D02*
X37769285Y-90645057D01*
X37769285Y-90645057D02*
X37816904Y-90740295D01*
X37816904Y-90740295D02*
X37816904Y-90978390D01*
X37816904Y-90978390D02*
X37769285Y-91073628D01*
X37769285Y-91073628D02*
X37721666Y-91121247D01*
X37721666Y-91121247D02*
X37626428Y-91168866D01*
X37626428Y-91168866D02*
X37435952Y-91168866D01*
X37435952Y-91168866D02*
X37340714Y-91121247D01*
X37340714Y-91121247D02*
X37293095Y-91073628D01*
X37293095Y-91073628D02*
X37245476Y-90978390D01*
X99364523Y-67452200D02*
X99221666Y-67499819D01*
X99221666Y-67499819D02*
X98983571Y-67499819D01*
X98983571Y-67499819D02*
X98888333Y-67452200D01*
X98888333Y-67452200D02*
X98840714Y-67404580D01*
X98840714Y-67404580D02*
X98793095Y-67309342D01*
X98793095Y-67309342D02*
X98793095Y-67214104D01*
X98793095Y-67214104D02*
X98840714Y-67118866D01*
X98840714Y-67118866D02*
X98888333Y-67071247D01*
X98888333Y-67071247D02*
X98983571Y-67023628D01*
X98983571Y-67023628D02*
X99174047Y-66976009D01*
X99174047Y-66976009D02*
X99269285Y-66928390D01*
X99269285Y-66928390D02*
X99316904Y-66880771D01*
X99316904Y-66880771D02*
X99364523Y-66785533D01*
X99364523Y-66785533D02*
X99364523Y-66690295D01*
X99364523Y-66690295D02*
X99316904Y-66595057D01*
X99316904Y-66595057D02*
X99269285Y-66547438D01*
X99269285Y-66547438D02*
X99174047Y-66499819D01*
X99174047Y-66499819D02*
X98935952Y-66499819D01*
X98935952Y-66499819D02*
X98793095Y-66547438D01*
X98459761Y-66499819D02*
X98221666Y-67499819D01*
X98221666Y-67499819D02*
X98031190Y-66785533D01*
X98031190Y-66785533D02*
X97840714Y-67499819D01*
X97840714Y-67499819D02*
X97602619Y-66499819D01*
X96697857Y-67499819D02*
X97269285Y-67499819D01*
X96983571Y-67499819D02*
X96983571Y-66499819D01*
X96983571Y-66499819D02*
X97078809Y-66642676D01*
X97078809Y-66642676D02*
X97174047Y-66737914D01*
X97174047Y-66737914D02*
X97269285Y-66785533D01*
X95840714Y-66499819D02*
X96031190Y-66499819D01*
X96031190Y-66499819D02*
X96126428Y-66547438D01*
X96126428Y-66547438D02*
X96174047Y-66595057D01*
X96174047Y-66595057D02*
X96269285Y-66737914D01*
X96269285Y-66737914D02*
X96316904Y-66928390D01*
X96316904Y-66928390D02*
X96316904Y-67309342D01*
X96316904Y-67309342D02*
X96269285Y-67404580D01*
X96269285Y-67404580D02*
X96221666Y-67452200D01*
X96221666Y-67452200D02*
X96126428Y-67499819D01*
X96126428Y-67499819D02*
X95935952Y-67499819D01*
X95935952Y-67499819D02*
X95840714Y-67452200D01*
X95840714Y-67452200D02*
X95793095Y-67404580D01*
X95793095Y-67404580D02*
X95745476Y-67309342D01*
X95745476Y-67309342D02*
X95745476Y-67071247D01*
X95745476Y-67071247D02*
X95793095Y-66976009D01*
X95793095Y-66976009D02*
X95840714Y-66928390D01*
X95840714Y-66928390D02*
X95935952Y-66880771D01*
X95935952Y-66880771D02*
X96126428Y-66880771D01*
X96126428Y-66880771D02*
X96221666Y-66928390D01*
X96221666Y-66928390D02*
X96269285Y-66976009D01*
X96269285Y-66976009D02*
X96316904Y-67071247D01*
X117364523Y-71052200D02*
X117221666Y-71099819D01*
X117221666Y-71099819D02*
X116983571Y-71099819D01*
X116983571Y-71099819D02*
X116888333Y-71052200D01*
X116888333Y-71052200D02*
X116840714Y-71004580D01*
X116840714Y-71004580D02*
X116793095Y-70909342D01*
X116793095Y-70909342D02*
X116793095Y-70814104D01*
X116793095Y-70814104D02*
X116840714Y-70718866D01*
X116840714Y-70718866D02*
X116888333Y-70671247D01*
X116888333Y-70671247D02*
X116983571Y-70623628D01*
X116983571Y-70623628D02*
X117174047Y-70576009D01*
X117174047Y-70576009D02*
X117269285Y-70528390D01*
X117269285Y-70528390D02*
X117316904Y-70480771D01*
X117316904Y-70480771D02*
X117364523Y-70385533D01*
X117364523Y-70385533D02*
X117364523Y-70290295D01*
X117364523Y-70290295D02*
X117316904Y-70195057D01*
X117316904Y-70195057D02*
X117269285Y-70147438D01*
X117269285Y-70147438D02*
X117174047Y-70099819D01*
X117174047Y-70099819D02*
X116935952Y-70099819D01*
X116935952Y-70099819D02*
X116793095Y-70147438D01*
X116459761Y-70099819D02*
X116221666Y-71099819D01*
X116221666Y-71099819D02*
X116031190Y-70385533D01*
X116031190Y-70385533D02*
X115840714Y-71099819D01*
X115840714Y-71099819D02*
X115602619Y-70099819D01*
X114697857Y-71099819D02*
X115269285Y-71099819D01*
X114983571Y-71099819D02*
X114983571Y-70099819D01*
X114983571Y-70099819D02*
X115078809Y-70242676D01*
X115078809Y-70242676D02*
X115174047Y-70337914D01*
X115174047Y-70337914D02*
X115269285Y-70385533D01*
X114364523Y-70099819D02*
X113697857Y-70099819D01*
X113697857Y-70099819D02*
X114126428Y-71099819D01*
X135364523Y-91502200D02*
X135221666Y-91549819D01*
X135221666Y-91549819D02*
X134983571Y-91549819D01*
X134983571Y-91549819D02*
X134888333Y-91502200D01*
X134888333Y-91502200D02*
X134840714Y-91454580D01*
X134840714Y-91454580D02*
X134793095Y-91359342D01*
X134793095Y-91359342D02*
X134793095Y-91264104D01*
X134793095Y-91264104D02*
X134840714Y-91168866D01*
X134840714Y-91168866D02*
X134888333Y-91121247D01*
X134888333Y-91121247D02*
X134983571Y-91073628D01*
X134983571Y-91073628D02*
X135174047Y-91026009D01*
X135174047Y-91026009D02*
X135269285Y-90978390D01*
X135269285Y-90978390D02*
X135316904Y-90930771D01*
X135316904Y-90930771D02*
X135364523Y-90835533D01*
X135364523Y-90835533D02*
X135364523Y-90740295D01*
X135364523Y-90740295D02*
X135316904Y-90645057D01*
X135316904Y-90645057D02*
X135269285Y-90597438D01*
X135269285Y-90597438D02*
X135174047Y-90549819D01*
X135174047Y-90549819D02*
X134935952Y-90549819D01*
X134935952Y-90549819D02*
X134793095Y-90597438D01*
X134459761Y-90549819D02*
X134221666Y-91549819D01*
X134221666Y-91549819D02*
X134031190Y-90835533D01*
X134031190Y-90835533D02*
X133840714Y-91549819D01*
X133840714Y-91549819D02*
X133602619Y-90549819D01*
X133269285Y-90645057D02*
X133221666Y-90597438D01*
X133221666Y-90597438D02*
X133126428Y-90549819D01*
X133126428Y-90549819D02*
X132888333Y-90549819D01*
X132888333Y-90549819D02*
X132793095Y-90597438D01*
X132793095Y-90597438D02*
X132745476Y-90645057D01*
X132745476Y-90645057D02*
X132697857Y-90740295D01*
X132697857Y-90740295D02*
X132697857Y-90835533D01*
X132697857Y-90835533D02*
X132745476Y-90978390D01*
X132745476Y-90978390D02*
X133316904Y-91549819D01*
X133316904Y-91549819D02*
X132697857Y-91549819D01*
X131840714Y-90883152D02*
X131840714Y-91549819D01*
X132078809Y-90502200D02*
X132316904Y-91216485D01*
X132316904Y-91216485D02*
X131697857Y-91216485D01*
X135364523Y-57452200D02*
X135221666Y-57499819D01*
X135221666Y-57499819D02*
X134983571Y-57499819D01*
X134983571Y-57499819D02*
X134888333Y-57452200D01*
X134888333Y-57452200D02*
X134840714Y-57404580D01*
X134840714Y-57404580D02*
X134793095Y-57309342D01*
X134793095Y-57309342D02*
X134793095Y-57214104D01*
X134793095Y-57214104D02*
X134840714Y-57118866D01*
X134840714Y-57118866D02*
X134888333Y-57071247D01*
X134888333Y-57071247D02*
X134983571Y-57023628D01*
X134983571Y-57023628D02*
X135174047Y-56976009D01*
X135174047Y-56976009D02*
X135269285Y-56928390D01*
X135269285Y-56928390D02*
X135316904Y-56880771D01*
X135316904Y-56880771D02*
X135364523Y-56785533D01*
X135364523Y-56785533D02*
X135364523Y-56690295D01*
X135364523Y-56690295D02*
X135316904Y-56595057D01*
X135316904Y-56595057D02*
X135269285Y-56547438D01*
X135269285Y-56547438D02*
X135174047Y-56499819D01*
X135174047Y-56499819D02*
X134935952Y-56499819D01*
X134935952Y-56499819D02*
X134793095Y-56547438D01*
X134459761Y-56499819D02*
X134221666Y-57499819D01*
X134221666Y-57499819D02*
X134031190Y-56785533D01*
X134031190Y-56785533D02*
X133840714Y-57499819D01*
X133840714Y-57499819D02*
X133602619Y-56499819D01*
X132697857Y-57499819D02*
X133269285Y-57499819D01*
X132983571Y-57499819D02*
X132983571Y-56499819D01*
X132983571Y-56499819D02*
X133078809Y-56642676D01*
X133078809Y-56642676D02*
X133174047Y-56737914D01*
X133174047Y-56737914D02*
X133269285Y-56785533D01*
X132316904Y-56595057D02*
X132269285Y-56547438D01*
X132269285Y-56547438D02*
X132174047Y-56499819D01*
X132174047Y-56499819D02*
X131935952Y-56499819D01*
X131935952Y-56499819D02*
X131840714Y-56547438D01*
X131840714Y-56547438D02*
X131793095Y-56595057D01*
X131793095Y-56595057D02*
X131745476Y-56690295D01*
X131745476Y-56690295D02*
X131745476Y-56785533D01*
X131745476Y-56785533D02*
X131793095Y-56928390D01*
X131793095Y-56928390D02*
X132364523Y-57499819D01*
X132364523Y-57499819D02*
X131745476Y-57499819D01*
X153608903Y-44502295D02*
X153875570Y-44121342D01*
X154066046Y-44502295D02*
X154066046Y-43702295D01*
X154066046Y-43702295D02*
X153761284Y-43702295D01*
X153761284Y-43702295D02*
X153685094Y-43740390D01*
X153685094Y-43740390D02*
X153646999Y-43778485D01*
X153646999Y-43778485D02*
X153608903Y-43854676D01*
X153608903Y-43854676D02*
X153608903Y-43968961D01*
X153608903Y-43968961D02*
X153646999Y-44045152D01*
X153646999Y-44045152D02*
X153685094Y-44083247D01*
X153685094Y-44083247D02*
X153761284Y-44121342D01*
X153761284Y-44121342D02*
X154066046Y-44121342D01*
X153304142Y-44464200D02*
X153189856Y-44502295D01*
X153189856Y-44502295D02*
X152999380Y-44502295D01*
X152999380Y-44502295D02*
X152923189Y-44464200D01*
X152923189Y-44464200D02*
X152885094Y-44426104D01*
X152885094Y-44426104D02*
X152846999Y-44349914D01*
X152846999Y-44349914D02*
X152846999Y-44273723D01*
X152846999Y-44273723D02*
X152885094Y-44197533D01*
X152885094Y-44197533D02*
X152923189Y-44159438D01*
X152923189Y-44159438D02*
X152999380Y-44121342D01*
X152999380Y-44121342D02*
X153151761Y-44083247D01*
X153151761Y-44083247D02*
X153227951Y-44045152D01*
X153227951Y-44045152D02*
X153266046Y-44007057D01*
X153266046Y-44007057D02*
X153304142Y-43930866D01*
X153304142Y-43930866D02*
X153304142Y-43854676D01*
X153304142Y-43854676D02*
X153266046Y-43778485D01*
X153266046Y-43778485D02*
X153227951Y-43740390D01*
X153227951Y-43740390D02*
X153151761Y-43702295D01*
X153151761Y-43702295D02*
X152961284Y-43702295D01*
X152961284Y-43702295D02*
X152846999Y-43740390D01*
X152618427Y-43702295D02*
X152161284Y-43702295D01*
X152389856Y-44502295D02*
X152389856Y-43702295D01*
X153646999Y-41200390D02*
X153723189Y-41162295D01*
X153723189Y-41162295D02*
X153837475Y-41162295D01*
X153837475Y-41162295D02*
X153951761Y-41200390D01*
X153951761Y-41200390D02*
X154027951Y-41276580D01*
X154027951Y-41276580D02*
X154066046Y-41352771D01*
X154066046Y-41352771D02*
X154104142Y-41505152D01*
X154104142Y-41505152D02*
X154104142Y-41619438D01*
X154104142Y-41619438D02*
X154066046Y-41771819D01*
X154066046Y-41771819D02*
X154027951Y-41848009D01*
X154027951Y-41848009D02*
X153951761Y-41924200D01*
X153951761Y-41924200D02*
X153837475Y-41962295D01*
X153837475Y-41962295D02*
X153761284Y-41962295D01*
X153761284Y-41962295D02*
X153646999Y-41924200D01*
X153646999Y-41924200D02*
X153608903Y-41886104D01*
X153608903Y-41886104D02*
X153608903Y-41619438D01*
X153608903Y-41619438D02*
X153761284Y-41619438D01*
X153266046Y-41962295D02*
X153266046Y-41162295D01*
X153266046Y-41162295D02*
X152808903Y-41962295D01*
X152808903Y-41962295D02*
X152808903Y-41162295D01*
X152427951Y-41962295D02*
X152427951Y-41162295D01*
X152427951Y-41162295D02*
X152237475Y-41162295D01*
X152237475Y-41162295D02*
X152123189Y-41200390D01*
X152123189Y-41200390D02*
X152046999Y-41276580D01*
X152046999Y-41276580D02*
X152008904Y-41352771D01*
X152008904Y-41352771D02*
X151970808Y-41505152D01*
X151970808Y-41505152D02*
X151970808Y-41619438D01*
X151970808Y-41619438D02*
X152008904Y-41771819D01*
X152008904Y-41771819D02*
X152046999Y-41848009D01*
X152046999Y-41848009D02*
X152123189Y-41924200D01*
X152123189Y-41924200D02*
X152237475Y-41962295D01*
X152237475Y-41962295D02*
X152427951Y-41962295D01*
X164768523Y-46280390D02*
X164844713Y-46242295D01*
X164844713Y-46242295D02*
X164958999Y-46242295D01*
X164958999Y-46242295D02*
X165073285Y-46280390D01*
X165073285Y-46280390D02*
X165149475Y-46356580D01*
X165149475Y-46356580D02*
X165187570Y-46432771D01*
X165187570Y-46432771D02*
X165225666Y-46585152D01*
X165225666Y-46585152D02*
X165225666Y-46699438D01*
X165225666Y-46699438D02*
X165187570Y-46851819D01*
X165187570Y-46851819D02*
X165149475Y-46928009D01*
X165149475Y-46928009D02*
X165073285Y-47004200D01*
X165073285Y-47004200D02*
X164958999Y-47042295D01*
X164958999Y-47042295D02*
X164882808Y-47042295D01*
X164882808Y-47042295D02*
X164768523Y-47004200D01*
X164768523Y-47004200D02*
X164730427Y-46966104D01*
X164730427Y-46966104D02*
X164730427Y-46699438D01*
X164730427Y-46699438D02*
X164882808Y-46699438D01*
X164387570Y-47042295D02*
X164387570Y-46242295D01*
X164387570Y-46242295D02*
X163930427Y-47042295D01*
X163930427Y-47042295D02*
X163930427Y-46242295D01*
X163549475Y-47042295D02*
X163549475Y-46242295D01*
X163549475Y-46242295D02*
X163358999Y-46242295D01*
X163358999Y-46242295D02*
X163244713Y-46280390D01*
X163244713Y-46280390D02*
X163168523Y-46356580D01*
X163168523Y-46356580D02*
X163130428Y-46432771D01*
X163130428Y-46432771D02*
X163092332Y-46585152D01*
X163092332Y-46585152D02*
X163092332Y-46699438D01*
X163092332Y-46699438D02*
X163130428Y-46851819D01*
X163130428Y-46851819D02*
X163168523Y-46928009D01*
X163168523Y-46928009D02*
X163244713Y-47004200D01*
X163244713Y-47004200D02*
X163358999Y-47042295D01*
X163358999Y-47042295D02*
X163549475Y-47042295D01*
X153635189Y-39422295D02*
X153901856Y-39041342D01*
X154092332Y-39422295D02*
X154092332Y-38622295D01*
X154092332Y-38622295D02*
X153787570Y-38622295D01*
X153787570Y-38622295D02*
X153711380Y-38660390D01*
X153711380Y-38660390D02*
X153673285Y-38698485D01*
X153673285Y-38698485D02*
X153635189Y-38774676D01*
X153635189Y-38774676D02*
X153635189Y-38888961D01*
X153635189Y-38888961D02*
X153673285Y-38965152D01*
X153673285Y-38965152D02*
X153711380Y-39003247D01*
X153711380Y-39003247D02*
X153787570Y-39041342D01*
X153787570Y-39041342D02*
X154092332Y-39041342D01*
X153330428Y-39193723D02*
X152949475Y-39193723D01*
X153406618Y-39422295D02*
X153139951Y-38622295D01*
X153139951Y-38622295D02*
X152873285Y-39422295D01*
X152682809Y-38622295D02*
X152492333Y-39422295D01*
X152492333Y-39422295D02*
X152339952Y-38850866D01*
X152339952Y-38850866D02*
X152187571Y-39422295D01*
X152187571Y-39422295D02*
X151997095Y-38622295D01*
X153919999Y-53862295D02*
X153843809Y-53862295D01*
X153843809Y-53862295D02*
X153767618Y-53900390D01*
X153767618Y-53900390D02*
X153729523Y-53938485D01*
X153729523Y-53938485D02*
X153691428Y-54014676D01*
X153691428Y-54014676D02*
X153653333Y-54167057D01*
X153653333Y-54167057D02*
X153653333Y-54357533D01*
X153653333Y-54357533D02*
X153691428Y-54509914D01*
X153691428Y-54509914D02*
X153729523Y-54586104D01*
X153729523Y-54586104D02*
X153767618Y-54624200D01*
X153767618Y-54624200D02*
X153843809Y-54662295D01*
X153843809Y-54662295D02*
X153919999Y-54662295D01*
X153919999Y-54662295D02*
X153996190Y-54624200D01*
X153996190Y-54624200D02*
X154034285Y-54586104D01*
X154034285Y-54586104D02*
X154072380Y-54509914D01*
X154072380Y-54509914D02*
X154110476Y-54357533D01*
X154110476Y-54357533D02*
X154110476Y-54167057D01*
X154110476Y-54167057D02*
X154072380Y-54014676D01*
X154072380Y-54014676D02*
X154034285Y-53938485D01*
X154034285Y-53938485D02*
X153996190Y-53900390D01*
X153996190Y-53900390D02*
X153919999Y-53862295D01*
X153158094Y-53862295D02*
X153081904Y-53862295D01*
X153081904Y-53862295D02*
X153005713Y-53900390D01*
X153005713Y-53900390D02*
X152967618Y-53938485D01*
X152967618Y-53938485D02*
X152929523Y-54014676D01*
X152929523Y-54014676D02*
X152891428Y-54167057D01*
X152891428Y-54167057D02*
X152891428Y-54357533D01*
X152891428Y-54357533D02*
X152929523Y-54509914D01*
X152929523Y-54509914D02*
X152967618Y-54586104D01*
X152967618Y-54586104D02*
X153005713Y-54624200D01*
X153005713Y-54624200D02*
X153081904Y-54662295D01*
X153081904Y-54662295D02*
X153158094Y-54662295D01*
X153158094Y-54662295D02*
X153234285Y-54624200D01*
X153234285Y-54624200D02*
X153272380Y-54586104D01*
X153272380Y-54586104D02*
X153310475Y-54509914D01*
X153310475Y-54509914D02*
X153348571Y-54357533D01*
X153348571Y-54357533D02*
X153348571Y-54167057D01*
X153348571Y-54167057D02*
X153310475Y-54014676D01*
X153310475Y-54014676D02*
X153272380Y-53938485D01*
X153272380Y-53938485D02*
X153234285Y-53900390D01*
X153234285Y-53900390D02*
X153158094Y-53862295D01*
X152586666Y-53938485D02*
X152548570Y-53900390D01*
X152548570Y-53900390D02*
X152472380Y-53862295D01*
X152472380Y-53862295D02*
X152281904Y-53862295D01*
X152281904Y-53862295D02*
X152205713Y-53900390D01*
X152205713Y-53900390D02*
X152167618Y-53938485D01*
X152167618Y-53938485D02*
X152129523Y-54014676D01*
X152129523Y-54014676D02*
X152129523Y-54090866D01*
X152129523Y-54090866D02*
X152167618Y-54205152D01*
X152167618Y-54205152D02*
X152624761Y-54662295D01*
X152624761Y-54662295D02*
X152129523Y-54662295D01*
X164882809Y-56392295D02*
X164806619Y-56392295D01*
X164806619Y-56392295D02*
X164730428Y-56430390D01*
X164730428Y-56430390D02*
X164692333Y-56468485D01*
X164692333Y-56468485D02*
X164654238Y-56544676D01*
X164654238Y-56544676D02*
X164616143Y-56697057D01*
X164616143Y-56697057D02*
X164616143Y-56887533D01*
X164616143Y-56887533D02*
X164654238Y-57039914D01*
X164654238Y-57039914D02*
X164692333Y-57116104D01*
X164692333Y-57116104D02*
X164730428Y-57154200D01*
X164730428Y-57154200D02*
X164806619Y-57192295D01*
X164806619Y-57192295D02*
X164882809Y-57192295D01*
X164882809Y-57192295D02*
X164959000Y-57154200D01*
X164959000Y-57154200D02*
X164997095Y-57116104D01*
X164997095Y-57116104D02*
X165035190Y-57039914D01*
X165035190Y-57039914D02*
X165073286Y-56887533D01*
X165073286Y-56887533D02*
X165073286Y-56697057D01*
X165073286Y-56697057D02*
X165035190Y-56544676D01*
X165035190Y-56544676D02*
X164997095Y-56468485D01*
X164997095Y-56468485D02*
X164959000Y-56430390D01*
X164959000Y-56430390D02*
X164882809Y-56392295D01*
X164311381Y-56468485D02*
X164273285Y-56430390D01*
X164273285Y-56430390D02*
X164197095Y-56392295D01*
X164197095Y-56392295D02*
X164006619Y-56392295D01*
X164006619Y-56392295D02*
X163930428Y-56430390D01*
X163930428Y-56430390D02*
X163892333Y-56468485D01*
X163892333Y-56468485D02*
X163854238Y-56544676D01*
X163854238Y-56544676D02*
X163854238Y-56620866D01*
X163854238Y-56620866D02*
X163892333Y-56735152D01*
X163892333Y-56735152D02*
X164349476Y-57192295D01*
X164349476Y-57192295D02*
X163854238Y-57192295D01*
X163168523Y-56658961D02*
X163168523Y-57192295D01*
X163358999Y-56354200D02*
X163549476Y-56925628D01*
X163549476Y-56925628D02*
X163054237Y-56925628D01*
X153882808Y-66592295D02*
X153806618Y-66592295D01*
X153806618Y-66592295D02*
X153730427Y-66630390D01*
X153730427Y-66630390D02*
X153692332Y-66668485D01*
X153692332Y-66668485D02*
X153654237Y-66744676D01*
X153654237Y-66744676D02*
X153616142Y-66897057D01*
X153616142Y-66897057D02*
X153616142Y-67087533D01*
X153616142Y-67087533D02*
X153654237Y-67239914D01*
X153654237Y-67239914D02*
X153692332Y-67316104D01*
X153692332Y-67316104D02*
X153730427Y-67354200D01*
X153730427Y-67354200D02*
X153806618Y-67392295D01*
X153806618Y-67392295D02*
X153882808Y-67392295D01*
X153882808Y-67392295D02*
X153958999Y-67354200D01*
X153958999Y-67354200D02*
X153997094Y-67316104D01*
X153997094Y-67316104D02*
X154035189Y-67239914D01*
X154035189Y-67239914D02*
X154073285Y-67087533D01*
X154073285Y-67087533D02*
X154073285Y-66897057D01*
X154073285Y-66897057D02*
X154035189Y-66744676D01*
X154035189Y-66744676D02*
X153997094Y-66668485D01*
X153997094Y-66668485D02*
X153958999Y-66630390D01*
X153958999Y-66630390D02*
X153882808Y-66592295D01*
X153120903Y-66592295D02*
X153044713Y-66592295D01*
X153044713Y-66592295D02*
X152968522Y-66630390D01*
X152968522Y-66630390D02*
X152930427Y-66668485D01*
X152930427Y-66668485D02*
X152892332Y-66744676D01*
X152892332Y-66744676D02*
X152854237Y-66897057D01*
X152854237Y-66897057D02*
X152854237Y-67087533D01*
X152854237Y-67087533D02*
X152892332Y-67239914D01*
X152892332Y-67239914D02*
X152930427Y-67316104D01*
X152930427Y-67316104D02*
X152968522Y-67354200D01*
X152968522Y-67354200D02*
X153044713Y-67392295D01*
X153044713Y-67392295D02*
X153120903Y-67392295D01*
X153120903Y-67392295D02*
X153197094Y-67354200D01*
X153197094Y-67354200D02*
X153235189Y-67316104D01*
X153235189Y-67316104D02*
X153273284Y-67239914D01*
X153273284Y-67239914D02*
X153311380Y-67087533D01*
X153311380Y-67087533D02*
X153311380Y-66897057D01*
X153311380Y-66897057D02*
X153273284Y-66744676D01*
X153273284Y-66744676D02*
X153235189Y-66668485D01*
X153235189Y-66668485D02*
X153197094Y-66630390D01*
X153197094Y-66630390D02*
X153120903Y-66592295D01*
X152473284Y-67392295D02*
X152320903Y-67392295D01*
X152320903Y-67392295D02*
X152244713Y-67354200D01*
X152244713Y-67354200D02*
X152206617Y-67316104D01*
X152206617Y-67316104D02*
X152130427Y-67201819D01*
X152130427Y-67201819D02*
X152092332Y-67049438D01*
X152092332Y-67049438D02*
X152092332Y-66744676D01*
X152092332Y-66744676D02*
X152130427Y-66668485D01*
X152130427Y-66668485D02*
X152168522Y-66630390D01*
X152168522Y-66630390D02*
X152244713Y-66592295D01*
X152244713Y-66592295D02*
X152397094Y-66592295D01*
X152397094Y-66592295D02*
X152473284Y-66630390D01*
X152473284Y-66630390D02*
X152511379Y-66668485D01*
X152511379Y-66668485D02*
X152549475Y-66744676D01*
X152549475Y-66744676D02*
X152549475Y-66935152D01*
X152549475Y-66935152D02*
X152511379Y-67011342D01*
X152511379Y-67011342D02*
X152473284Y-67049438D01*
X152473284Y-67049438D02*
X152397094Y-67087533D01*
X152397094Y-67087533D02*
X152244713Y-67087533D01*
X152244713Y-67087533D02*
X152168522Y-67049438D01*
X152168522Y-67049438D02*
X152130427Y-67011342D01*
X152130427Y-67011342D02*
X152092332Y-66935152D01*
X164882809Y-41092295D02*
X164806619Y-41092295D01*
X164806619Y-41092295D02*
X164730428Y-41130390D01*
X164730428Y-41130390D02*
X164692333Y-41168485D01*
X164692333Y-41168485D02*
X164654238Y-41244676D01*
X164654238Y-41244676D02*
X164616143Y-41397057D01*
X164616143Y-41397057D02*
X164616143Y-41587533D01*
X164616143Y-41587533D02*
X164654238Y-41739914D01*
X164654238Y-41739914D02*
X164692333Y-41816104D01*
X164692333Y-41816104D02*
X164730428Y-41854200D01*
X164730428Y-41854200D02*
X164806619Y-41892295D01*
X164806619Y-41892295D02*
X164882809Y-41892295D01*
X164882809Y-41892295D02*
X164959000Y-41854200D01*
X164959000Y-41854200D02*
X164997095Y-41816104D01*
X164997095Y-41816104D02*
X165035190Y-41739914D01*
X165035190Y-41739914D02*
X165073286Y-41587533D01*
X165073286Y-41587533D02*
X165073286Y-41397057D01*
X165073286Y-41397057D02*
X165035190Y-41244676D01*
X165035190Y-41244676D02*
X164997095Y-41168485D01*
X164997095Y-41168485D02*
X164959000Y-41130390D01*
X164959000Y-41130390D02*
X164882809Y-41092295D01*
X164120904Y-41092295D02*
X164044714Y-41092295D01*
X164044714Y-41092295D02*
X163968523Y-41130390D01*
X163968523Y-41130390D02*
X163930428Y-41168485D01*
X163930428Y-41168485D02*
X163892333Y-41244676D01*
X163892333Y-41244676D02*
X163854238Y-41397057D01*
X163854238Y-41397057D02*
X163854238Y-41587533D01*
X163854238Y-41587533D02*
X163892333Y-41739914D01*
X163892333Y-41739914D02*
X163930428Y-41816104D01*
X163930428Y-41816104D02*
X163968523Y-41854200D01*
X163968523Y-41854200D02*
X164044714Y-41892295D01*
X164044714Y-41892295D02*
X164120904Y-41892295D01*
X164120904Y-41892295D02*
X164197095Y-41854200D01*
X164197095Y-41854200D02*
X164235190Y-41816104D01*
X164235190Y-41816104D02*
X164273285Y-41739914D01*
X164273285Y-41739914D02*
X164311381Y-41587533D01*
X164311381Y-41587533D02*
X164311381Y-41397057D01*
X164311381Y-41397057D02*
X164273285Y-41244676D01*
X164273285Y-41244676D02*
X164235190Y-41168485D01*
X164235190Y-41168485D02*
X164197095Y-41130390D01*
X164197095Y-41130390D02*
X164120904Y-41092295D01*
X163397095Y-41435152D02*
X163473285Y-41397057D01*
X163473285Y-41397057D02*
X163511380Y-41358961D01*
X163511380Y-41358961D02*
X163549476Y-41282771D01*
X163549476Y-41282771D02*
X163549476Y-41244676D01*
X163549476Y-41244676D02*
X163511380Y-41168485D01*
X163511380Y-41168485D02*
X163473285Y-41130390D01*
X163473285Y-41130390D02*
X163397095Y-41092295D01*
X163397095Y-41092295D02*
X163244714Y-41092295D01*
X163244714Y-41092295D02*
X163168523Y-41130390D01*
X163168523Y-41130390D02*
X163130428Y-41168485D01*
X163130428Y-41168485D02*
X163092333Y-41244676D01*
X163092333Y-41244676D02*
X163092333Y-41282771D01*
X163092333Y-41282771D02*
X163130428Y-41358961D01*
X163130428Y-41358961D02*
X163168523Y-41397057D01*
X163168523Y-41397057D02*
X163244714Y-41435152D01*
X163244714Y-41435152D02*
X163397095Y-41435152D01*
X163397095Y-41435152D02*
X163473285Y-41473247D01*
X163473285Y-41473247D02*
X163511380Y-41511342D01*
X163511380Y-41511342D02*
X163549476Y-41587533D01*
X163549476Y-41587533D02*
X163549476Y-41739914D01*
X163549476Y-41739914D02*
X163511380Y-41816104D01*
X163511380Y-41816104D02*
X163473285Y-41854200D01*
X163473285Y-41854200D02*
X163397095Y-41892295D01*
X163397095Y-41892295D02*
X163244714Y-41892295D01*
X163244714Y-41892295D02*
X163168523Y-41854200D01*
X163168523Y-41854200D02*
X163130428Y-41816104D01*
X163130428Y-41816104D02*
X163092333Y-41739914D01*
X163092333Y-41739914D02*
X163092333Y-41587533D01*
X163092333Y-41587533D02*
X163130428Y-41511342D01*
X163130428Y-41511342D02*
X163168523Y-41473247D01*
X163168523Y-41473247D02*
X163244714Y-41435152D01*
X164882809Y-51392295D02*
X164806619Y-51392295D01*
X164806619Y-51392295D02*
X164730428Y-51430390D01*
X164730428Y-51430390D02*
X164692333Y-51468485D01*
X164692333Y-51468485D02*
X164654238Y-51544676D01*
X164654238Y-51544676D02*
X164616143Y-51697057D01*
X164616143Y-51697057D02*
X164616143Y-51887533D01*
X164616143Y-51887533D02*
X164654238Y-52039914D01*
X164654238Y-52039914D02*
X164692333Y-52116104D01*
X164692333Y-52116104D02*
X164730428Y-52154200D01*
X164730428Y-52154200D02*
X164806619Y-52192295D01*
X164806619Y-52192295D02*
X164882809Y-52192295D01*
X164882809Y-52192295D02*
X164959000Y-52154200D01*
X164959000Y-52154200D02*
X164997095Y-52116104D01*
X164997095Y-52116104D02*
X165035190Y-52039914D01*
X165035190Y-52039914D02*
X165073286Y-51887533D01*
X165073286Y-51887533D02*
X165073286Y-51697057D01*
X165073286Y-51697057D02*
X165035190Y-51544676D01*
X165035190Y-51544676D02*
X164997095Y-51468485D01*
X164997095Y-51468485D02*
X164959000Y-51430390D01*
X164959000Y-51430390D02*
X164882809Y-51392295D01*
X164311381Y-51468485D02*
X164273285Y-51430390D01*
X164273285Y-51430390D02*
X164197095Y-51392295D01*
X164197095Y-51392295D02*
X164006619Y-51392295D01*
X164006619Y-51392295D02*
X163930428Y-51430390D01*
X163930428Y-51430390D02*
X163892333Y-51468485D01*
X163892333Y-51468485D02*
X163854238Y-51544676D01*
X163854238Y-51544676D02*
X163854238Y-51620866D01*
X163854238Y-51620866D02*
X163892333Y-51735152D01*
X163892333Y-51735152D02*
X164349476Y-52192295D01*
X164349476Y-52192295D02*
X163854238Y-52192295D01*
X163358999Y-51392295D02*
X163282809Y-51392295D01*
X163282809Y-51392295D02*
X163206618Y-51430390D01*
X163206618Y-51430390D02*
X163168523Y-51468485D01*
X163168523Y-51468485D02*
X163130428Y-51544676D01*
X163130428Y-51544676D02*
X163092333Y-51697057D01*
X163092333Y-51697057D02*
X163092333Y-51887533D01*
X163092333Y-51887533D02*
X163130428Y-52039914D01*
X163130428Y-52039914D02*
X163168523Y-52116104D01*
X163168523Y-52116104D02*
X163206618Y-52154200D01*
X163206618Y-52154200D02*
X163282809Y-52192295D01*
X163282809Y-52192295D02*
X163358999Y-52192295D01*
X163358999Y-52192295D02*
X163435190Y-52154200D01*
X163435190Y-52154200D02*
X163473285Y-52116104D01*
X163473285Y-52116104D02*
X163511380Y-52039914D01*
X163511380Y-52039914D02*
X163549476Y-51887533D01*
X163549476Y-51887533D02*
X163549476Y-51697057D01*
X163549476Y-51697057D02*
X163511380Y-51544676D01*
X163511380Y-51544676D02*
X163473285Y-51468485D01*
X163473285Y-51468485D02*
X163435190Y-51430390D01*
X163435190Y-51430390D02*
X163358999Y-51392295D01*
X153919999Y-64022295D02*
X153843809Y-64022295D01*
X153843809Y-64022295D02*
X153767618Y-64060390D01*
X153767618Y-64060390D02*
X153729523Y-64098485D01*
X153729523Y-64098485D02*
X153691428Y-64174676D01*
X153691428Y-64174676D02*
X153653333Y-64327057D01*
X153653333Y-64327057D02*
X153653333Y-64517533D01*
X153653333Y-64517533D02*
X153691428Y-64669914D01*
X153691428Y-64669914D02*
X153729523Y-64746104D01*
X153729523Y-64746104D02*
X153767618Y-64784200D01*
X153767618Y-64784200D02*
X153843809Y-64822295D01*
X153843809Y-64822295D02*
X153919999Y-64822295D01*
X153919999Y-64822295D02*
X153996190Y-64784200D01*
X153996190Y-64784200D02*
X154034285Y-64746104D01*
X154034285Y-64746104D02*
X154072380Y-64669914D01*
X154072380Y-64669914D02*
X154110476Y-64517533D01*
X154110476Y-64517533D02*
X154110476Y-64327057D01*
X154110476Y-64327057D02*
X154072380Y-64174676D01*
X154072380Y-64174676D02*
X154034285Y-64098485D01*
X154034285Y-64098485D02*
X153996190Y-64060390D01*
X153996190Y-64060390D02*
X153919999Y-64022295D01*
X152891428Y-64822295D02*
X153348571Y-64822295D01*
X153119999Y-64822295D02*
X153119999Y-64022295D01*
X153119999Y-64022295D02*
X153196190Y-64136580D01*
X153196190Y-64136580D02*
X153272380Y-64212771D01*
X153272380Y-64212771D02*
X153348571Y-64250866D01*
X152396189Y-64022295D02*
X152319999Y-64022295D01*
X152319999Y-64022295D02*
X152243808Y-64060390D01*
X152243808Y-64060390D02*
X152205713Y-64098485D01*
X152205713Y-64098485D02*
X152167618Y-64174676D01*
X152167618Y-64174676D02*
X152129523Y-64327057D01*
X152129523Y-64327057D02*
X152129523Y-64517533D01*
X152129523Y-64517533D02*
X152167618Y-64669914D01*
X152167618Y-64669914D02*
X152205713Y-64746104D01*
X152205713Y-64746104D02*
X152243808Y-64784200D01*
X152243808Y-64784200D02*
X152319999Y-64822295D01*
X152319999Y-64822295D02*
X152396189Y-64822295D01*
X152396189Y-64822295D02*
X152472380Y-64784200D01*
X152472380Y-64784200D02*
X152510475Y-64746104D01*
X152510475Y-64746104D02*
X152548570Y-64669914D01*
X152548570Y-64669914D02*
X152586666Y-64517533D01*
X152586666Y-64517533D02*
X152586666Y-64327057D01*
X152586666Y-64327057D02*
X152548570Y-64174676D01*
X152548570Y-64174676D02*
X152510475Y-64098485D01*
X152510475Y-64098485D02*
X152472380Y-64060390D01*
X152472380Y-64060390D02*
X152396189Y-64022295D01*
X164616143Y-64822295D02*
X165073286Y-64822295D01*
X164844714Y-64822295D02*
X164844714Y-64022295D01*
X164844714Y-64022295D02*
X164920905Y-64136580D01*
X164920905Y-64136580D02*
X164997095Y-64212771D01*
X164997095Y-64212771D02*
X165073286Y-64250866D01*
X164120904Y-64022295D02*
X164044714Y-64022295D01*
X164044714Y-64022295D02*
X163968523Y-64060390D01*
X163968523Y-64060390D02*
X163930428Y-64098485D01*
X163930428Y-64098485D02*
X163892333Y-64174676D01*
X163892333Y-64174676D02*
X163854238Y-64327057D01*
X163854238Y-64327057D02*
X163854238Y-64517533D01*
X163854238Y-64517533D02*
X163892333Y-64669914D01*
X163892333Y-64669914D02*
X163930428Y-64746104D01*
X163930428Y-64746104D02*
X163968523Y-64784200D01*
X163968523Y-64784200D02*
X164044714Y-64822295D01*
X164044714Y-64822295D02*
X164120904Y-64822295D01*
X164120904Y-64822295D02*
X164197095Y-64784200D01*
X164197095Y-64784200D02*
X164235190Y-64746104D01*
X164235190Y-64746104D02*
X164273285Y-64669914D01*
X164273285Y-64669914D02*
X164311381Y-64517533D01*
X164311381Y-64517533D02*
X164311381Y-64327057D01*
X164311381Y-64327057D02*
X164273285Y-64174676D01*
X164273285Y-64174676D02*
X164235190Y-64098485D01*
X164235190Y-64098485D02*
X164197095Y-64060390D01*
X164197095Y-64060390D02*
X164120904Y-64022295D01*
X163168523Y-64288961D02*
X163168523Y-64822295D01*
X163358999Y-63984200D02*
X163549476Y-64555628D01*
X163549476Y-64555628D02*
X163054237Y-64555628D01*
X164919999Y-61592295D02*
X164843809Y-61592295D01*
X164843809Y-61592295D02*
X164767618Y-61630390D01*
X164767618Y-61630390D02*
X164729523Y-61668485D01*
X164729523Y-61668485D02*
X164691428Y-61744676D01*
X164691428Y-61744676D02*
X164653333Y-61897057D01*
X164653333Y-61897057D02*
X164653333Y-62087533D01*
X164653333Y-62087533D02*
X164691428Y-62239914D01*
X164691428Y-62239914D02*
X164729523Y-62316104D01*
X164729523Y-62316104D02*
X164767618Y-62354200D01*
X164767618Y-62354200D02*
X164843809Y-62392295D01*
X164843809Y-62392295D02*
X164919999Y-62392295D01*
X164919999Y-62392295D02*
X164996190Y-62354200D01*
X164996190Y-62354200D02*
X165034285Y-62316104D01*
X165034285Y-62316104D02*
X165072380Y-62239914D01*
X165072380Y-62239914D02*
X165110476Y-62087533D01*
X165110476Y-62087533D02*
X165110476Y-61897057D01*
X165110476Y-61897057D02*
X165072380Y-61744676D01*
X165072380Y-61744676D02*
X165034285Y-61668485D01*
X165034285Y-61668485D02*
X164996190Y-61630390D01*
X164996190Y-61630390D02*
X164919999Y-61592295D01*
X163891428Y-62392295D02*
X164348571Y-62392295D01*
X164119999Y-62392295D02*
X164119999Y-61592295D01*
X164119999Y-61592295D02*
X164196190Y-61706580D01*
X164196190Y-61706580D02*
X164272380Y-61782771D01*
X164272380Y-61782771D02*
X164348571Y-61820866D01*
X163129523Y-62392295D02*
X163586666Y-62392295D01*
X163358094Y-62392295D02*
X163358094Y-61592295D01*
X163358094Y-61592295D02*
X163434285Y-61706580D01*
X163434285Y-61706580D02*
X163510475Y-61782771D01*
X163510475Y-61782771D02*
X163586666Y-61820866D01*
X164768523Y-43740390D02*
X164844713Y-43702295D01*
X164844713Y-43702295D02*
X164958999Y-43702295D01*
X164958999Y-43702295D02*
X165073285Y-43740390D01*
X165073285Y-43740390D02*
X165149475Y-43816580D01*
X165149475Y-43816580D02*
X165187570Y-43892771D01*
X165187570Y-43892771D02*
X165225666Y-44045152D01*
X165225666Y-44045152D02*
X165225666Y-44159438D01*
X165225666Y-44159438D02*
X165187570Y-44311819D01*
X165187570Y-44311819D02*
X165149475Y-44388009D01*
X165149475Y-44388009D02*
X165073285Y-44464200D01*
X165073285Y-44464200D02*
X164958999Y-44502295D01*
X164958999Y-44502295D02*
X164882808Y-44502295D01*
X164882808Y-44502295D02*
X164768523Y-44464200D01*
X164768523Y-44464200D02*
X164730427Y-44426104D01*
X164730427Y-44426104D02*
X164730427Y-44159438D01*
X164730427Y-44159438D02*
X164882808Y-44159438D01*
X164387570Y-44502295D02*
X164387570Y-43702295D01*
X164387570Y-43702295D02*
X163930427Y-44502295D01*
X163930427Y-44502295D02*
X163930427Y-43702295D01*
X163549475Y-44502295D02*
X163549475Y-43702295D01*
X163549475Y-43702295D02*
X163358999Y-43702295D01*
X163358999Y-43702295D02*
X163244713Y-43740390D01*
X163244713Y-43740390D02*
X163168523Y-43816580D01*
X163168523Y-43816580D02*
X163130428Y-43892771D01*
X163130428Y-43892771D02*
X163092332Y-44045152D01*
X163092332Y-44045152D02*
X163092332Y-44159438D01*
X163092332Y-44159438D02*
X163130428Y-44311819D01*
X163130428Y-44311819D02*
X163168523Y-44388009D01*
X163168523Y-44388009D02*
X163244713Y-44464200D01*
X163244713Y-44464200D02*
X163358999Y-44502295D01*
X163358999Y-44502295D02*
X163549475Y-44502295D01*
X153653333Y-62282295D02*
X154110476Y-62282295D01*
X153881904Y-62282295D02*
X153881904Y-61482295D01*
X153881904Y-61482295D02*
X153958095Y-61596580D01*
X153958095Y-61596580D02*
X154034285Y-61672771D01*
X154034285Y-61672771D02*
X154110476Y-61710866D01*
X152891428Y-62282295D02*
X153348571Y-62282295D01*
X153119999Y-62282295D02*
X153119999Y-61482295D01*
X153119999Y-61482295D02*
X153196190Y-61596580D01*
X153196190Y-61596580D02*
X153272380Y-61672771D01*
X153272380Y-61672771D02*
X153348571Y-61710866D01*
X152129523Y-62282295D02*
X152586666Y-62282295D01*
X152358094Y-62282295D02*
X152358094Y-61482295D01*
X152358094Y-61482295D02*
X152434285Y-61596580D01*
X152434285Y-61596580D02*
X152510475Y-61672771D01*
X152510475Y-61672771D02*
X152586666Y-61710866D01*
X164919999Y-38622295D02*
X164843809Y-38622295D01*
X164843809Y-38622295D02*
X164767618Y-38660390D01*
X164767618Y-38660390D02*
X164729523Y-38698485D01*
X164729523Y-38698485D02*
X164691428Y-38774676D01*
X164691428Y-38774676D02*
X164653333Y-38927057D01*
X164653333Y-38927057D02*
X164653333Y-39117533D01*
X164653333Y-39117533D02*
X164691428Y-39269914D01*
X164691428Y-39269914D02*
X164729523Y-39346104D01*
X164729523Y-39346104D02*
X164767618Y-39384200D01*
X164767618Y-39384200D02*
X164843809Y-39422295D01*
X164843809Y-39422295D02*
X164919999Y-39422295D01*
X164919999Y-39422295D02*
X164996190Y-39384200D01*
X164996190Y-39384200D02*
X165034285Y-39346104D01*
X165034285Y-39346104D02*
X165072380Y-39269914D01*
X165072380Y-39269914D02*
X165110476Y-39117533D01*
X165110476Y-39117533D02*
X165110476Y-38927057D01*
X165110476Y-38927057D02*
X165072380Y-38774676D01*
X165072380Y-38774676D02*
X165034285Y-38698485D01*
X165034285Y-38698485D02*
X164996190Y-38660390D01*
X164996190Y-38660390D02*
X164919999Y-38622295D01*
X164158094Y-38622295D02*
X164081904Y-38622295D01*
X164081904Y-38622295D02*
X164005713Y-38660390D01*
X164005713Y-38660390D02*
X163967618Y-38698485D01*
X163967618Y-38698485D02*
X163929523Y-38774676D01*
X163929523Y-38774676D02*
X163891428Y-38927057D01*
X163891428Y-38927057D02*
X163891428Y-39117533D01*
X163891428Y-39117533D02*
X163929523Y-39269914D01*
X163929523Y-39269914D02*
X163967618Y-39346104D01*
X163967618Y-39346104D02*
X164005713Y-39384200D01*
X164005713Y-39384200D02*
X164081904Y-39422295D01*
X164081904Y-39422295D02*
X164158094Y-39422295D01*
X164158094Y-39422295D02*
X164234285Y-39384200D01*
X164234285Y-39384200D02*
X164272380Y-39346104D01*
X164272380Y-39346104D02*
X164310475Y-39269914D01*
X164310475Y-39269914D02*
X164348571Y-39117533D01*
X164348571Y-39117533D02*
X164348571Y-38927057D01*
X164348571Y-38927057D02*
X164310475Y-38774676D01*
X164310475Y-38774676D02*
X164272380Y-38698485D01*
X164272380Y-38698485D02*
X164234285Y-38660390D01*
X164234285Y-38660390D02*
X164158094Y-38622295D01*
X163205713Y-38622295D02*
X163358094Y-38622295D01*
X163358094Y-38622295D02*
X163434285Y-38660390D01*
X163434285Y-38660390D02*
X163472380Y-38698485D01*
X163472380Y-38698485D02*
X163548570Y-38812771D01*
X163548570Y-38812771D02*
X163586666Y-38965152D01*
X163586666Y-38965152D02*
X163586666Y-39269914D01*
X163586666Y-39269914D02*
X163548570Y-39346104D01*
X163548570Y-39346104D02*
X163510475Y-39384200D01*
X163510475Y-39384200D02*
X163434285Y-39422295D01*
X163434285Y-39422295D02*
X163281904Y-39422295D01*
X163281904Y-39422295D02*
X163205713Y-39384200D01*
X163205713Y-39384200D02*
X163167618Y-39346104D01*
X163167618Y-39346104D02*
X163129523Y-39269914D01*
X163129523Y-39269914D02*
X163129523Y-39079438D01*
X163129523Y-39079438D02*
X163167618Y-39003247D01*
X163167618Y-39003247D02*
X163205713Y-38965152D01*
X163205713Y-38965152D02*
X163281904Y-38927057D01*
X163281904Y-38927057D02*
X163434285Y-38927057D01*
X163434285Y-38927057D02*
X163510475Y-38965152D01*
X163510475Y-38965152D02*
X163548570Y-39003247D01*
X163548570Y-39003247D02*
X163586666Y-39079438D01*
X164882809Y-48782295D02*
X164806619Y-48782295D01*
X164806619Y-48782295D02*
X164730428Y-48820390D01*
X164730428Y-48820390D02*
X164692333Y-48858485D01*
X164692333Y-48858485D02*
X164654238Y-48934676D01*
X164654238Y-48934676D02*
X164616143Y-49087057D01*
X164616143Y-49087057D02*
X164616143Y-49277533D01*
X164616143Y-49277533D02*
X164654238Y-49429914D01*
X164654238Y-49429914D02*
X164692333Y-49506104D01*
X164692333Y-49506104D02*
X164730428Y-49544200D01*
X164730428Y-49544200D02*
X164806619Y-49582295D01*
X164806619Y-49582295D02*
X164882809Y-49582295D01*
X164882809Y-49582295D02*
X164959000Y-49544200D01*
X164959000Y-49544200D02*
X164997095Y-49506104D01*
X164997095Y-49506104D02*
X165035190Y-49429914D01*
X165035190Y-49429914D02*
X165073286Y-49277533D01*
X165073286Y-49277533D02*
X165073286Y-49087057D01*
X165073286Y-49087057D02*
X165035190Y-48934676D01*
X165035190Y-48934676D02*
X164997095Y-48858485D01*
X164997095Y-48858485D02*
X164959000Y-48820390D01*
X164959000Y-48820390D02*
X164882809Y-48782295D01*
X163854238Y-49582295D02*
X164311381Y-49582295D01*
X164082809Y-49582295D02*
X164082809Y-48782295D01*
X164082809Y-48782295D02*
X164159000Y-48896580D01*
X164159000Y-48896580D02*
X164235190Y-48972771D01*
X164235190Y-48972771D02*
X164311381Y-49010866D01*
X163587571Y-48782295D02*
X163054237Y-48782295D01*
X163054237Y-48782295D02*
X163397095Y-49582295D01*
X153653333Y-57202295D02*
X154110476Y-57202295D01*
X153881904Y-57202295D02*
X153881904Y-56402295D01*
X153881904Y-56402295D02*
X153958095Y-56516580D01*
X153958095Y-56516580D02*
X154034285Y-56592771D01*
X154034285Y-56592771D02*
X154110476Y-56630866D01*
X152891428Y-57202295D02*
X153348571Y-57202295D01*
X153119999Y-57202295D02*
X153119999Y-56402295D01*
X153119999Y-56402295D02*
X153196190Y-56516580D01*
X153196190Y-56516580D02*
X153272380Y-56592771D01*
X153272380Y-56592771D02*
X153348571Y-56630866D01*
X152167618Y-56402295D02*
X152548570Y-56402295D01*
X152548570Y-56402295D02*
X152586666Y-56783247D01*
X152586666Y-56783247D02*
X152548570Y-56745152D01*
X152548570Y-56745152D02*
X152472380Y-56707057D01*
X152472380Y-56707057D02*
X152281904Y-56707057D01*
X152281904Y-56707057D02*
X152205713Y-56745152D01*
X152205713Y-56745152D02*
X152167618Y-56783247D01*
X152167618Y-56783247D02*
X152129523Y-56859438D01*
X152129523Y-56859438D02*
X152129523Y-57049914D01*
X152129523Y-57049914D02*
X152167618Y-57126104D01*
X152167618Y-57126104D02*
X152205713Y-57164200D01*
X152205713Y-57164200D02*
X152281904Y-57202295D01*
X152281904Y-57202295D02*
X152472380Y-57202295D01*
X152472380Y-57202295D02*
X152548570Y-57164200D01*
X152548570Y-57164200D02*
X152586666Y-57126104D01*
X164653333Y-67392295D02*
X165110476Y-67392295D01*
X164881904Y-67392295D02*
X164881904Y-66592295D01*
X164881904Y-66592295D02*
X164958095Y-66706580D01*
X164958095Y-66706580D02*
X165034285Y-66782771D01*
X165034285Y-66782771D02*
X165110476Y-66820866D01*
X164158094Y-66592295D02*
X164081904Y-66592295D01*
X164081904Y-66592295D02*
X164005713Y-66630390D01*
X164005713Y-66630390D02*
X163967618Y-66668485D01*
X163967618Y-66668485D02*
X163929523Y-66744676D01*
X163929523Y-66744676D02*
X163891428Y-66897057D01*
X163891428Y-66897057D02*
X163891428Y-67087533D01*
X163891428Y-67087533D02*
X163929523Y-67239914D01*
X163929523Y-67239914D02*
X163967618Y-67316104D01*
X163967618Y-67316104D02*
X164005713Y-67354200D01*
X164005713Y-67354200D02*
X164081904Y-67392295D01*
X164081904Y-67392295D02*
X164158094Y-67392295D01*
X164158094Y-67392295D02*
X164234285Y-67354200D01*
X164234285Y-67354200D02*
X164272380Y-67316104D01*
X164272380Y-67316104D02*
X164310475Y-67239914D01*
X164310475Y-67239914D02*
X164348571Y-67087533D01*
X164348571Y-67087533D02*
X164348571Y-66897057D01*
X164348571Y-66897057D02*
X164310475Y-66744676D01*
X164310475Y-66744676D02*
X164272380Y-66668485D01*
X164272380Y-66668485D02*
X164234285Y-66630390D01*
X164234285Y-66630390D02*
X164158094Y-66592295D01*
X163205713Y-66592295D02*
X163358094Y-66592295D01*
X163358094Y-66592295D02*
X163434285Y-66630390D01*
X163434285Y-66630390D02*
X163472380Y-66668485D01*
X163472380Y-66668485D02*
X163548570Y-66782771D01*
X163548570Y-66782771D02*
X163586666Y-66935152D01*
X163586666Y-66935152D02*
X163586666Y-67239914D01*
X163586666Y-67239914D02*
X163548570Y-67316104D01*
X163548570Y-67316104D02*
X163510475Y-67354200D01*
X163510475Y-67354200D02*
X163434285Y-67392295D01*
X163434285Y-67392295D02*
X163281904Y-67392295D01*
X163281904Y-67392295D02*
X163205713Y-67354200D01*
X163205713Y-67354200D02*
X163167618Y-67316104D01*
X163167618Y-67316104D02*
X163129523Y-67239914D01*
X163129523Y-67239914D02*
X163129523Y-67049438D01*
X163129523Y-67049438D02*
X163167618Y-66973247D01*
X163167618Y-66973247D02*
X163205713Y-66935152D01*
X163205713Y-66935152D02*
X163281904Y-66897057D01*
X163281904Y-66897057D02*
X163434285Y-66897057D01*
X163434285Y-66897057D02*
X163510475Y-66935152D01*
X163510475Y-66935152D02*
X163548570Y-66973247D01*
X163548570Y-66973247D02*
X163586666Y-67049438D01*
X154186666Y-46242295D02*
X153919999Y-47042295D01*
X153919999Y-47042295D02*
X153653333Y-46242295D01*
X152929523Y-46966104D02*
X152967619Y-47004200D01*
X152967619Y-47004200D02*
X153081904Y-47042295D01*
X153081904Y-47042295D02*
X153158095Y-47042295D01*
X153158095Y-47042295D02*
X153272381Y-47004200D01*
X153272381Y-47004200D02*
X153348571Y-46928009D01*
X153348571Y-46928009D02*
X153386666Y-46851819D01*
X153386666Y-46851819D02*
X153424762Y-46699438D01*
X153424762Y-46699438D02*
X153424762Y-46585152D01*
X153424762Y-46585152D02*
X153386666Y-46432771D01*
X153386666Y-46432771D02*
X153348571Y-46356580D01*
X153348571Y-46356580D02*
X153272381Y-46280390D01*
X153272381Y-46280390D02*
X153158095Y-46242295D01*
X153158095Y-46242295D02*
X153081904Y-46242295D01*
X153081904Y-46242295D02*
X152967619Y-46280390D01*
X152967619Y-46280390D02*
X152929523Y-46318485D01*
X152129523Y-46966104D02*
X152167619Y-47004200D01*
X152167619Y-47004200D02*
X152281904Y-47042295D01*
X152281904Y-47042295D02*
X152358095Y-47042295D01*
X152358095Y-47042295D02*
X152472381Y-47004200D01*
X152472381Y-47004200D02*
X152548571Y-46928009D01*
X152548571Y-46928009D02*
X152586666Y-46851819D01*
X152586666Y-46851819D02*
X152624762Y-46699438D01*
X152624762Y-46699438D02*
X152624762Y-46585152D01*
X152624762Y-46585152D02*
X152586666Y-46432771D01*
X152586666Y-46432771D02*
X152548571Y-46356580D01*
X152548571Y-46356580D02*
X152472381Y-46280390D01*
X152472381Y-46280390D02*
X152358095Y-46242295D01*
X152358095Y-46242295D02*
X152281904Y-46242295D01*
X152281904Y-46242295D02*
X152167619Y-46280390D01*
X152167619Y-46280390D02*
X152129523Y-46318485D01*
X153653333Y-59742295D02*
X154110476Y-59742295D01*
X153881904Y-59742295D02*
X153881904Y-58942295D01*
X153881904Y-58942295D02*
X153958095Y-59056580D01*
X153958095Y-59056580D02*
X154034285Y-59132771D01*
X154034285Y-59132771D02*
X154110476Y-59170866D01*
X152891428Y-59742295D02*
X153348571Y-59742295D01*
X153119999Y-59742295D02*
X153119999Y-58942295D01*
X153119999Y-58942295D02*
X153196190Y-59056580D01*
X153196190Y-59056580D02*
X153272380Y-59132771D01*
X153272380Y-59132771D02*
X153348571Y-59170866D01*
X152624761Y-58942295D02*
X152129523Y-58942295D01*
X152129523Y-58942295D02*
X152396189Y-59247057D01*
X152396189Y-59247057D02*
X152281904Y-59247057D01*
X152281904Y-59247057D02*
X152205713Y-59285152D01*
X152205713Y-59285152D02*
X152167618Y-59323247D01*
X152167618Y-59323247D02*
X152129523Y-59399438D01*
X152129523Y-59399438D02*
X152129523Y-59589914D01*
X152129523Y-59589914D02*
X152167618Y-59666104D01*
X152167618Y-59666104D02*
X152205713Y-59704200D01*
X152205713Y-59704200D02*
X152281904Y-59742295D01*
X152281904Y-59742295D02*
X152510475Y-59742295D01*
X152510475Y-59742295D02*
X152586666Y-59704200D01*
X152586666Y-59704200D02*
X152624761Y-59666104D01*
X153919999Y-51322295D02*
X153843809Y-51322295D01*
X153843809Y-51322295D02*
X153767618Y-51360390D01*
X153767618Y-51360390D02*
X153729523Y-51398485D01*
X153729523Y-51398485D02*
X153691428Y-51474676D01*
X153691428Y-51474676D02*
X153653333Y-51627057D01*
X153653333Y-51627057D02*
X153653333Y-51817533D01*
X153653333Y-51817533D02*
X153691428Y-51969914D01*
X153691428Y-51969914D02*
X153729523Y-52046104D01*
X153729523Y-52046104D02*
X153767618Y-52084200D01*
X153767618Y-52084200D02*
X153843809Y-52122295D01*
X153843809Y-52122295D02*
X153919999Y-52122295D01*
X153919999Y-52122295D02*
X153996190Y-52084200D01*
X153996190Y-52084200D02*
X154034285Y-52046104D01*
X154034285Y-52046104D02*
X154072380Y-51969914D01*
X154072380Y-51969914D02*
X154110476Y-51817533D01*
X154110476Y-51817533D02*
X154110476Y-51627057D01*
X154110476Y-51627057D02*
X154072380Y-51474676D01*
X154072380Y-51474676D02*
X154034285Y-51398485D01*
X154034285Y-51398485D02*
X153996190Y-51360390D01*
X153996190Y-51360390D02*
X153919999Y-51322295D01*
X153348571Y-51398485D02*
X153310475Y-51360390D01*
X153310475Y-51360390D02*
X153234285Y-51322295D01*
X153234285Y-51322295D02*
X153043809Y-51322295D01*
X153043809Y-51322295D02*
X152967618Y-51360390D01*
X152967618Y-51360390D02*
X152929523Y-51398485D01*
X152929523Y-51398485D02*
X152891428Y-51474676D01*
X152891428Y-51474676D02*
X152891428Y-51550866D01*
X152891428Y-51550866D02*
X152929523Y-51665152D01*
X152929523Y-51665152D02*
X153386666Y-52122295D01*
X153386666Y-52122295D02*
X152891428Y-52122295D01*
X152510475Y-52122295D02*
X152358094Y-52122295D01*
X152358094Y-52122295D02*
X152281904Y-52084200D01*
X152281904Y-52084200D02*
X152243808Y-52046104D01*
X152243808Y-52046104D02*
X152167618Y-51931819D01*
X152167618Y-51931819D02*
X152129523Y-51779438D01*
X152129523Y-51779438D02*
X152129523Y-51474676D01*
X152129523Y-51474676D02*
X152167618Y-51398485D01*
X152167618Y-51398485D02*
X152205713Y-51360390D01*
X152205713Y-51360390D02*
X152281904Y-51322295D01*
X152281904Y-51322295D02*
X152434285Y-51322295D01*
X152434285Y-51322295D02*
X152510475Y-51360390D01*
X152510475Y-51360390D02*
X152548570Y-51398485D01*
X152548570Y-51398485D02*
X152586666Y-51474676D01*
X152586666Y-51474676D02*
X152586666Y-51665152D01*
X152586666Y-51665152D02*
X152548570Y-51741342D01*
X152548570Y-51741342D02*
X152510475Y-51779438D01*
X152510475Y-51779438D02*
X152434285Y-51817533D01*
X152434285Y-51817533D02*
X152281904Y-51817533D01*
X152281904Y-51817533D02*
X152205713Y-51779438D01*
X152205713Y-51779438D02*
X152167618Y-51741342D01*
X152167618Y-51741342D02*
X152129523Y-51665152D01*
X164882809Y-53892295D02*
X164806619Y-53892295D01*
X164806619Y-53892295D02*
X164730428Y-53930390D01*
X164730428Y-53930390D02*
X164692333Y-53968485D01*
X164692333Y-53968485D02*
X164654238Y-54044676D01*
X164654238Y-54044676D02*
X164616143Y-54197057D01*
X164616143Y-54197057D02*
X164616143Y-54387533D01*
X164616143Y-54387533D02*
X164654238Y-54539914D01*
X164654238Y-54539914D02*
X164692333Y-54616104D01*
X164692333Y-54616104D02*
X164730428Y-54654200D01*
X164730428Y-54654200D02*
X164806619Y-54692295D01*
X164806619Y-54692295D02*
X164882809Y-54692295D01*
X164882809Y-54692295D02*
X164959000Y-54654200D01*
X164959000Y-54654200D02*
X164997095Y-54616104D01*
X164997095Y-54616104D02*
X165035190Y-54539914D01*
X165035190Y-54539914D02*
X165073286Y-54387533D01*
X165073286Y-54387533D02*
X165073286Y-54197057D01*
X165073286Y-54197057D02*
X165035190Y-54044676D01*
X165035190Y-54044676D02*
X164997095Y-53968485D01*
X164997095Y-53968485D02*
X164959000Y-53930390D01*
X164959000Y-53930390D02*
X164882809Y-53892295D01*
X164311381Y-53968485D02*
X164273285Y-53930390D01*
X164273285Y-53930390D02*
X164197095Y-53892295D01*
X164197095Y-53892295D02*
X164006619Y-53892295D01*
X164006619Y-53892295D02*
X163930428Y-53930390D01*
X163930428Y-53930390D02*
X163892333Y-53968485D01*
X163892333Y-53968485D02*
X163854238Y-54044676D01*
X163854238Y-54044676D02*
X163854238Y-54120866D01*
X163854238Y-54120866D02*
X163892333Y-54235152D01*
X163892333Y-54235152D02*
X164349476Y-54692295D01*
X164349476Y-54692295D02*
X163854238Y-54692295D01*
X163549476Y-53968485D02*
X163511380Y-53930390D01*
X163511380Y-53930390D02*
X163435190Y-53892295D01*
X163435190Y-53892295D02*
X163244714Y-53892295D01*
X163244714Y-53892295D02*
X163168523Y-53930390D01*
X163168523Y-53930390D02*
X163130428Y-53968485D01*
X163130428Y-53968485D02*
X163092333Y-54044676D01*
X163092333Y-54044676D02*
X163092333Y-54120866D01*
X163092333Y-54120866D02*
X163130428Y-54235152D01*
X163130428Y-54235152D02*
X163587571Y-54692295D01*
X163587571Y-54692295D02*
X163092333Y-54692295D01*
X164616143Y-59742295D02*
X165073286Y-59742295D01*
X164844714Y-59742295D02*
X164844714Y-58942295D01*
X164844714Y-58942295D02*
X164920905Y-59056580D01*
X164920905Y-59056580D02*
X164997095Y-59132771D01*
X164997095Y-59132771D02*
X165073286Y-59170866D01*
X164120904Y-58942295D02*
X164044714Y-58942295D01*
X164044714Y-58942295D02*
X163968523Y-58980390D01*
X163968523Y-58980390D02*
X163930428Y-59018485D01*
X163930428Y-59018485D02*
X163892333Y-59094676D01*
X163892333Y-59094676D02*
X163854238Y-59247057D01*
X163854238Y-59247057D02*
X163854238Y-59437533D01*
X163854238Y-59437533D02*
X163892333Y-59589914D01*
X163892333Y-59589914D02*
X163930428Y-59666104D01*
X163930428Y-59666104D02*
X163968523Y-59704200D01*
X163968523Y-59704200D02*
X164044714Y-59742295D01*
X164044714Y-59742295D02*
X164120904Y-59742295D01*
X164120904Y-59742295D02*
X164197095Y-59704200D01*
X164197095Y-59704200D02*
X164235190Y-59666104D01*
X164235190Y-59666104D02*
X164273285Y-59589914D01*
X164273285Y-59589914D02*
X164311381Y-59437533D01*
X164311381Y-59437533D02*
X164311381Y-59247057D01*
X164311381Y-59247057D02*
X164273285Y-59094676D01*
X164273285Y-59094676D02*
X164235190Y-59018485D01*
X164235190Y-59018485D02*
X164197095Y-58980390D01*
X164197095Y-58980390D02*
X164120904Y-58942295D01*
X163358999Y-58942295D02*
X163282809Y-58942295D01*
X163282809Y-58942295D02*
X163206618Y-58980390D01*
X163206618Y-58980390D02*
X163168523Y-59018485D01*
X163168523Y-59018485D02*
X163130428Y-59094676D01*
X163130428Y-59094676D02*
X163092333Y-59247057D01*
X163092333Y-59247057D02*
X163092333Y-59437533D01*
X163092333Y-59437533D02*
X163130428Y-59589914D01*
X163130428Y-59589914D02*
X163168523Y-59666104D01*
X163168523Y-59666104D02*
X163206618Y-59704200D01*
X163206618Y-59704200D02*
X163282809Y-59742295D01*
X163282809Y-59742295D02*
X163358999Y-59742295D01*
X163358999Y-59742295D02*
X163435190Y-59704200D01*
X163435190Y-59704200D02*
X163473285Y-59666104D01*
X163473285Y-59666104D02*
X163511380Y-59589914D01*
X163511380Y-59589914D02*
X163549476Y-59437533D01*
X163549476Y-59437533D02*
X163549476Y-59247057D01*
X163549476Y-59247057D02*
X163511380Y-59094676D01*
X163511380Y-59094676D02*
X163473285Y-59018485D01*
X163473285Y-59018485D02*
X163435190Y-58980390D01*
X163435190Y-58980390D02*
X163358999Y-58942295D01*
X153919999Y-48782295D02*
X153843809Y-48782295D01*
X153843809Y-48782295D02*
X153767618Y-48820390D01*
X153767618Y-48820390D02*
X153729523Y-48858485D01*
X153729523Y-48858485D02*
X153691428Y-48934676D01*
X153691428Y-48934676D02*
X153653333Y-49087057D01*
X153653333Y-49087057D02*
X153653333Y-49277533D01*
X153653333Y-49277533D02*
X153691428Y-49429914D01*
X153691428Y-49429914D02*
X153729523Y-49506104D01*
X153729523Y-49506104D02*
X153767618Y-49544200D01*
X153767618Y-49544200D02*
X153843809Y-49582295D01*
X153843809Y-49582295D02*
X153919999Y-49582295D01*
X153919999Y-49582295D02*
X153996190Y-49544200D01*
X153996190Y-49544200D02*
X154034285Y-49506104D01*
X154034285Y-49506104D02*
X154072380Y-49429914D01*
X154072380Y-49429914D02*
X154110476Y-49277533D01*
X154110476Y-49277533D02*
X154110476Y-49087057D01*
X154110476Y-49087057D02*
X154072380Y-48934676D01*
X154072380Y-48934676D02*
X154034285Y-48858485D01*
X154034285Y-48858485D02*
X153996190Y-48820390D01*
X153996190Y-48820390D02*
X153919999Y-48782295D01*
X153386666Y-48782295D02*
X152891428Y-48782295D01*
X152891428Y-48782295D02*
X153158094Y-49087057D01*
X153158094Y-49087057D02*
X153043809Y-49087057D01*
X153043809Y-49087057D02*
X152967618Y-49125152D01*
X152967618Y-49125152D02*
X152929523Y-49163247D01*
X152929523Y-49163247D02*
X152891428Y-49239438D01*
X152891428Y-49239438D02*
X152891428Y-49429914D01*
X152891428Y-49429914D02*
X152929523Y-49506104D01*
X152929523Y-49506104D02*
X152967618Y-49544200D01*
X152967618Y-49544200D02*
X153043809Y-49582295D01*
X153043809Y-49582295D02*
X153272380Y-49582295D01*
X153272380Y-49582295D02*
X153348571Y-49544200D01*
X153348571Y-49544200D02*
X153386666Y-49506104D01*
X152129523Y-49582295D02*
X152586666Y-49582295D01*
X152358094Y-49582295D02*
X152358094Y-48782295D01*
X152358094Y-48782295D02*
X152434285Y-48896580D01*
X152434285Y-48896580D02*
X152510475Y-48972771D01*
X152510475Y-48972771D02*
X152586666Y-49010866D01*
X62888332Y-57452200D02*
X62745475Y-57499819D01*
X62745475Y-57499819D02*
X62507380Y-57499819D01*
X62507380Y-57499819D02*
X62412142Y-57452200D01*
X62412142Y-57452200D02*
X62364523Y-57404580D01*
X62364523Y-57404580D02*
X62316904Y-57309342D01*
X62316904Y-57309342D02*
X62316904Y-57214104D01*
X62316904Y-57214104D02*
X62364523Y-57118866D01*
X62364523Y-57118866D02*
X62412142Y-57071247D01*
X62412142Y-57071247D02*
X62507380Y-57023628D01*
X62507380Y-57023628D02*
X62697856Y-56976009D01*
X62697856Y-56976009D02*
X62793094Y-56928390D01*
X62793094Y-56928390D02*
X62840713Y-56880771D01*
X62840713Y-56880771D02*
X62888332Y-56785533D01*
X62888332Y-56785533D02*
X62888332Y-56690295D01*
X62888332Y-56690295D02*
X62840713Y-56595057D01*
X62840713Y-56595057D02*
X62793094Y-56547438D01*
X62793094Y-56547438D02*
X62697856Y-56499819D01*
X62697856Y-56499819D02*
X62459761Y-56499819D01*
X62459761Y-56499819D02*
X62316904Y-56547438D01*
X61983570Y-56499819D02*
X61745475Y-57499819D01*
X61745475Y-57499819D02*
X61554999Y-56785533D01*
X61554999Y-56785533D02*
X61364523Y-57499819D01*
X61364523Y-57499819D02*
X61126428Y-56499819D01*
X60602618Y-56928390D02*
X60697856Y-56880771D01*
X60697856Y-56880771D02*
X60745475Y-56833152D01*
X60745475Y-56833152D02*
X60793094Y-56737914D01*
X60793094Y-56737914D02*
X60793094Y-56690295D01*
X60793094Y-56690295D02*
X60745475Y-56595057D01*
X60745475Y-56595057D02*
X60697856Y-56547438D01*
X60697856Y-56547438D02*
X60602618Y-56499819D01*
X60602618Y-56499819D02*
X60412142Y-56499819D01*
X60412142Y-56499819D02*
X60316904Y-56547438D01*
X60316904Y-56547438D02*
X60269285Y-56595057D01*
X60269285Y-56595057D02*
X60221666Y-56690295D01*
X60221666Y-56690295D02*
X60221666Y-56737914D01*
X60221666Y-56737914D02*
X60269285Y-56833152D01*
X60269285Y-56833152D02*
X60316904Y-56880771D01*
X60316904Y-56880771D02*
X60412142Y-56928390D01*
X60412142Y-56928390D02*
X60602618Y-56928390D01*
X60602618Y-56928390D02*
X60697856Y-56976009D01*
X60697856Y-56976009D02*
X60745475Y-57023628D01*
X60745475Y-57023628D02*
X60793094Y-57118866D01*
X60793094Y-57118866D02*
X60793094Y-57309342D01*
X60793094Y-57309342D02*
X60745475Y-57404580D01*
X60745475Y-57404580D02*
X60697856Y-57452200D01*
X60697856Y-57452200D02*
X60602618Y-57499819D01*
X60602618Y-57499819D02*
X60412142Y-57499819D01*
X60412142Y-57499819D02*
X60316904Y-57452200D01*
X60316904Y-57452200D02*
X60269285Y-57404580D01*
X60269285Y-57404580D02*
X60221666Y-57309342D01*
X60221666Y-57309342D02*
X60221666Y-57118866D01*
X60221666Y-57118866D02*
X60269285Y-57023628D01*
X60269285Y-57023628D02*
X60316904Y-56976009D01*
X60316904Y-56976009D02*
X60412142Y-56928390D01*
X80888332Y-54052200D02*
X80745475Y-54099819D01*
X80745475Y-54099819D02*
X80507380Y-54099819D01*
X80507380Y-54099819D02*
X80412142Y-54052200D01*
X80412142Y-54052200D02*
X80364523Y-54004580D01*
X80364523Y-54004580D02*
X80316904Y-53909342D01*
X80316904Y-53909342D02*
X80316904Y-53814104D01*
X80316904Y-53814104D02*
X80364523Y-53718866D01*
X80364523Y-53718866D02*
X80412142Y-53671247D01*
X80412142Y-53671247D02*
X80507380Y-53623628D01*
X80507380Y-53623628D02*
X80697856Y-53576009D01*
X80697856Y-53576009D02*
X80793094Y-53528390D01*
X80793094Y-53528390D02*
X80840713Y-53480771D01*
X80840713Y-53480771D02*
X80888332Y-53385533D01*
X80888332Y-53385533D02*
X80888332Y-53290295D01*
X80888332Y-53290295D02*
X80840713Y-53195057D01*
X80840713Y-53195057D02*
X80793094Y-53147438D01*
X80793094Y-53147438D02*
X80697856Y-53099819D01*
X80697856Y-53099819D02*
X80459761Y-53099819D01*
X80459761Y-53099819D02*
X80316904Y-53147438D01*
X79983570Y-53099819D02*
X79745475Y-54099819D01*
X79745475Y-54099819D02*
X79554999Y-53385533D01*
X79554999Y-53385533D02*
X79364523Y-54099819D01*
X79364523Y-54099819D02*
X79126428Y-53099819D01*
X78697856Y-54099819D02*
X78507380Y-54099819D01*
X78507380Y-54099819D02*
X78412142Y-54052200D01*
X78412142Y-54052200D02*
X78364523Y-54004580D01*
X78364523Y-54004580D02*
X78269285Y-53861723D01*
X78269285Y-53861723D02*
X78221666Y-53671247D01*
X78221666Y-53671247D02*
X78221666Y-53290295D01*
X78221666Y-53290295D02*
X78269285Y-53195057D01*
X78269285Y-53195057D02*
X78316904Y-53147438D01*
X78316904Y-53147438D02*
X78412142Y-53099819D01*
X78412142Y-53099819D02*
X78602618Y-53099819D01*
X78602618Y-53099819D02*
X78697856Y-53147438D01*
X78697856Y-53147438D02*
X78745475Y-53195057D01*
X78745475Y-53195057D02*
X78793094Y-53290295D01*
X78793094Y-53290295D02*
X78793094Y-53528390D01*
X78793094Y-53528390D02*
X78745475Y-53623628D01*
X78745475Y-53623628D02*
X78697856Y-53671247D01*
X78697856Y-53671247D02*
X78602618Y-53718866D01*
X78602618Y-53718866D02*
X78412142Y-53718866D01*
X78412142Y-53718866D02*
X78316904Y-53671247D01*
X78316904Y-53671247D02*
X78269285Y-53623628D01*
X78269285Y-53623628D02*
X78221666Y-53528390D01*
X121208398Y-108229695D02*
X121058192Y-108219020D01*
X121058192Y-108219020D02*
X120838221Y-108127905D01*
X120838221Y-108127905D02*
X120768455Y-108047465D01*
X120768455Y-108047465D02*
X120742684Y-107985248D01*
X120742684Y-107985248D02*
X120735136Y-107879036D01*
X120735136Y-107879036D02*
X120771582Y-107791047D01*
X120771582Y-107791047D02*
X120852022Y-107721282D01*
X120852022Y-107721282D02*
X120914239Y-107695511D01*
X120914239Y-107695511D02*
X121020451Y-107687962D01*
X121020451Y-107687962D02*
X121214651Y-107716860D01*
X121214651Y-107716860D02*
X121320863Y-107709312D01*
X121320863Y-107709312D02*
X121383080Y-107683541D01*
X121383080Y-107683541D02*
X121463520Y-107613775D01*
X121463520Y-107613775D02*
X121499966Y-107525787D01*
X121499966Y-107525787D02*
X121492418Y-107419575D01*
X121492418Y-107419575D02*
X121466647Y-107357358D01*
X121466647Y-107357358D02*
X121396881Y-107276918D01*
X121396881Y-107276918D02*
X121176910Y-107185803D01*
X121176910Y-107185803D02*
X121026704Y-107175128D01*
X120736967Y-107003572D02*
X120134312Y-107836337D01*
X120134312Y-107836337D02*
X120231681Y-107103531D01*
X120231681Y-107103531D02*
X119782358Y-107690553D01*
X119782358Y-107690553D02*
X119945070Y-106675558D01*
X119600665Y-106635985D02*
X119574893Y-106573768D01*
X119574893Y-106573768D02*
X119505128Y-106493328D01*
X119505128Y-106493328D02*
X119285157Y-106402213D01*
X119285157Y-106402213D02*
X119178945Y-106409761D01*
X119178945Y-106409761D02*
X119116728Y-106435532D01*
X119116728Y-106435532D02*
X119036287Y-106505298D01*
X119036287Y-106505298D02*
X118999841Y-106593286D01*
X118999841Y-106593286D02*
X118989167Y-106743492D01*
X118989167Y-106743492D02*
X119298422Y-107490099D01*
X119298422Y-107490099D02*
X118726496Y-107253200D01*
X118417241Y-106506593D02*
X118523453Y-106499045D01*
X118523453Y-106499045D02*
X118585670Y-106473273D01*
X118585670Y-106473273D02*
X118666110Y-106403508D01*
X118666110Y-106403508D02*
X118684333Y-106359514D01*
X118684333Y-106359514D02*
X118676785Y-106253302D01*
X118676785Y-106253302D02*
X118651014Y-106191085D01*
X118651014Y-106191085D02*
X118581248Y-106110644D01*
X118581248Y-106110644D02*
X118405271Y-106037752D01*
X118405271Y-106037752D02*
X118299060Y-106045301D01*
X118299060Y-106045301D02*
X118236842Y-106071072D01*
X118236842Y-106071072D02*
X118156402Y-106140837D01*
X118156402Y-106140837D02*
X118138179Y-106184832D01*
X118138179Y-106184832D02*
X118145727Y-106291043D01*
X118145727Y-106291043D02*
X118171499Y-106353260D01*
X118171499Y-106353260D02*
X118241264Y-106433701D01*
X118241264Y-106433701D02*
X118417241Y-106506593D01*
X118417241Y-106506593D02*
X118487007Y-106587033D01*
X118487007Y-106587033D02*
X118512778Y-106649250D01*
X118512778Y-106649250D02*
X118520326Y-106755462D01*
X118520326Y-106755462D02*
X118447434Y-106931439D01*
X118447434Y-106931439D02*
X118366994Y-107001204D01*
X118366994Y-107001204D02*
X118304776Y-107026976D01*
X118304776Y-107026976D02*
X118198565Y-107034524D01*
X118198565Y-107034524D02*
X118022588Y-106961632D01*
X118022588Y-106961632D02*
X117952822Y-106881192D01*
X117952822Y-106881192D02*
X117927051Y-106818974D01*
X117927051Y-106818974D02*
X117919503Y-106712763D01*
X117919503Y-106712763D02*
X117992395Y-106536786D01*
X117992395Y-106536786D02*
X118072835Y-106467020D01*
X118072835Y-106467020D02*
X118135053Y-106441249D01*
X118135053Y-106441249D02*
X118241264Y-106433701D01*
X116888332Y-37002200D02*
X116745475Y-37049819D01*
X116745475Y-37049819D02*
X116507380Y-37049819D01*
X116507380Y-37049819D02*
X116412142Y-37002200D01*
X116412142Y-37002200D02*
X116364523Y-36954580D01*
X116364523Y-36954580D02*
X116316904Y-36859342D01*
X116316904Y-36859342D02*
X116316904Y-36764104D01*
X116316904Y-36764104D02*
X116364523Y-36668866D01*
X116364523Y-36668866D02*
X116412142Y-36621247D01*
X116412142Y-36621247D02*
X116507380Y-36573628D01*
X116507380Y-36573628D02*
X116697856Y-36526009D01*
X116697856Y-36526009D02*
X116793094Y-36478390D01*
X116793094Y-36478390D02*
X116840713Y-36430771D01*
X116840713Y-36430771D02*
X116888332Y-36335533D01*
X116888332Y-36335533D02*
X116888332Y-36240295D01*
X116888332Y-36240295D02*
X116840713Y-36145057D01*
X116840713Y-36145057D02*
X116793094Y-36097438D01*
X116793094Y-36097438D02*
X116697856Y-36049819D01*
X116697856Y-36049819D02*
X116459761Y-36049819D01*
X116459761Y-36049819D02*
X116316904Y-36097438D01*
X115983570Y-36049819D02*
X115745475Y-37049819D01*
X115745475Y-37049819D02*
X115554999Y-36335533D01*
X115554999Y-36335533D02*
X115364523Y-37049819D01*
X115364523Y-37049819D02*
X115126428Y-36049819D01*
X114269285Y-36049819D02*
X114745475Y-36049819D01*
X114745475Y-36049819D02*
X114793094Y-36526009D01*
X114793094Y-36526009D02*
X114745475Y-36478390D01*
X114745475Y-36478390D02*
X114650237Y-36430771D01*
X114650237Y-36430771D02*
X114412142Y-36430771D01*
X114412142Y-36430771D02*
X114316904Y-36478390D01*
X114316904Y-36478390D02*
X114269285Y-36526009D01*
X114269285Y-36526009D02*
X114221666Y-36621247D01*
X114221666Y-36621247D02*
X114221666Y-36859342D01*
X114221666Y-36859342D02*
X114269285Y-36954580D01*
X114269285Y-36954580D02*
X114316904Y-37002200D01*
X114316904Y-37002200D02*
X114412142Y-37049819D01*
X114412142Y-37049819D02*
X114650237Y-37049819D01*
X114650237Y-37049819D02*
X114745475Y-37002200D01*
X114745475Y-37002200D02*
X114793094Y-36954580D01*
X117364523Y-54052200D02*
X117221666Y-54099819D01*
X117221666Y-54099819D02*
X116983571Y-54099819D01*
X116983571Y-54099819D02*
X116888333Y-54052200D01*
X116888333Y-54052200D02*
X116840714Y-54004580D01*
X116840714Y-54004580D02*
X116793095Y-53909342D01*
X116793095Y-53909342D02*
X116793095Y-53814104D01*
X116793095Y-53814104D02*
X116840714Y-53718866D01*
X116840714Y-53718866D02*
X116888333Y-53671247D01*
X116888333Y-53671247D02*
X116983571Y-53623628D01*
X116983571Y-53623628D02*
X117174047Y-53576009D01*
X117174047Y-53576009D02*
X117269285Y-53528390D01*
X117269285Y-53528390D02*
X117316904Y-53480771D01*
X117316904Y-53480771D02*
X117364523Y-53385533D01*
X117364523Y-53385533D02*
X117364523Y-53290295D01*
X117364523Y-53290295D02*
X117316904Y-53195057D01*
X117316904Y-53195057D02*
X117269285Y-53147438D01*
X117269285Y-53147438D02*
X117174047Y-53099819D01*
X117174047Y-53099819D02*
X116935952Y-53099819D01*
X116935952Y-53099819D02*
X116793095Y-53147438D01*
X116459761Y-53099819D02*
X116221666Y-54099819D01*
X116221666Y-54099819D02*
X116031190Y-53385533D01*
X116031190Y-53385533D02*
X115840714Y-54099819D01*
X115840714Y-54099819D02*
X115602619Y-53099819D01*
X114697857Y-54099819D02*
X115269285Y-54099819D01*
X114983571Y-54099819D02*
X114983571Y-53099819D01*
X114983571Y-53099819D02*
X115078809Y-53242676D01*
X115078809Y-53242676D02*
X115174047Y-53337914D01*
X115174047Y-53337914D02*
X115269285Y-53385533D01*
X113745476Y-54099819D02*
X114316904Y-54099819D01*
X114031190Y-54099819D02*
X114031190Y-53099819D01*
X114031190Y-53099819D02*
X114126428Y-53242676D01*
X114126428Y-53242676D02*
X114221666Y-53337914D01*
X114221666Y-53337914D02*
X114316904Y-53385533D01*
X40388332Y-57452200D02*
X40245475Y-57499819D01*
X40245475Y-57499819D02*
X40007380Y-57499819D01*
X40007380Y-57499819D02*
X39912142Y-57452200D01*
X39912142Y-57452200D02*
X39864523Y-57404580D01*
X39864523Y-57404580D02*
X39816904Y-57309342D01*
X39816904Y-57309342D02*
X39816904Y-57214104D01*
X39816904Y-57214104D02*
X39864523Y-57118866D01*
X39864523Y-57118866D02*
X39912142Y-57071247D01*
X39912142Y-57071247D02*
X40007380Y-57023628D01*
X40007380Y-57023628D02*
X40197856Y-56976009D01*
X40197856Y-56976009D02*
X40293094Y-56928390D01*
X40293094Y-56928390D02*
X40340713Y-56880771D01*
X40340713Y-56880771D02*
X40388332Y-56785533D01*
X40388332Y-56785533D02*
X40388332Y-56690295D01*
X40388332Y-56690295D02*
X40340713Y-56595057D01*
X40340713Y-56595057D02*
X40293094Y-56547438D01*
X40293094Y-56547438D02*
X40197856Y-56499819D01*
X40197856Y-56499819D02*
X39959761Y-56499819D01*
X39959761Y-56499819D02*
X39816904Y-56547438D01*
X39483570Y-56499819D02*
X39245475Y-57499819D01*
X39245475Y-57499819D02*
X39054999Y-56785533D01*
X39054999Y-56785533D02*
X38864523Y-57499819D01*
X38864523Y-57499819D02*
X38626428Y-56499819D01*
X38340713Y-56499819D02*
X37674047Y-56499819D01*
X37674047Y-56499819D02*
X38102618Y-57499819D01*
X62888332Y-40402200D02*
X62745475Y-40449819D01*
X62745475Y-40449819D02*
X62507380Y-40449819D01*
X62507380Y-40449819D02*
X62412142Y-40402200D01*
X62412142Y-40402200D02*
X62364523Y-40354580D01*
X62364523Y-40354580D02*
X62316904Y-40259342D01*
X62316904Y-40259342D02*
X62316904Y-40164104D01*
X62316904Y-40164104D02*
X62364523Y-40068866D01*
X62364523Y-40068866D02*
X62412142Y-40021247D01*
X62412142Y-40021247D02*
X62507380Y-39973628D01*
X62507380Y-39973628D02*
X62697856Y-39926009D01*
X62697856Y-39926009D02*
X62793094Y-39878390D01*
X62793094Y-39878390D02*
X62840713Y-39830771D01*
X62840713Y-39830771D02*
X62888332Y-39735533D01*
X62888332Y-39735533D02*
X62888332Y-39640295D01*
X62888332Y-39640295D02*
X62840713Y-39545057D01*
X62840713Y-39545057D02*
X62793094Y-39497438D01*
X62793094Y-39497438D02*
X62697856Y-39449819D01*
X62697856Y-39449819D02*
X62459761Y-39449819D01*
X62459761Y-39449819D02*
X62316904Y-39497438D01*
X61983570Y-39449819D02*
X61745475Y-40449819D01*
X61745475Y-40449819D02*
X61554999Y-39735533D01*
X61554999Y-39735533D02*
X61364523Y-40449819D01*
X61364523Y-40449819D02*
X61126428Y-39449819D01*
X60793094Y-39545057D02*
X60745475Y-39497438D01*
X60745475Y-39497438D02*
X60650237Y-39449819D01*
X60650237Y-39449819D02*
X60412142Y-39449819D01*
X60412142Y-39449819D02*
X60316904Y-39497438D01*
X60316904Y-39497438D02*
X60269285Y-39545057D01*
X60269285Y-39545057D02*
X60221666Y-39640295D01*
X60221666Y-39640295D02*
X60221666Y-39735533D01*
X60221666Y-39735533D02*
X60269285Y-39878390D01*
X60269285Y-39878390D02*
X60840713Y-40449819D01*
X60840713Y-40449819D02*
X60221666Y-40449819D01*
X80888332Y-37002200D02*
X80745475Y-37049819D01*
X80745475Y-37049819D02*
X80507380Y-37049819D01*
X80507380Y-37049819D02*
X80412142Y-37002200D01*
X80412142Y-37002200D02*
X80364523Y-36954580D01*
X80364523Y-36954580D02*
X80316904Y-36859342D01*
X80316904Y-36859342D02*
X80316904Y-36764104D01*
X80316904Y-36764104D02*
X80364523Y-36668866D01*
X80364523Y-36668866D02*
X80412142Y-36621247D01*
X80412142Y-36621247D02*
X80507380Y-36573628D01*
X80507380Y-36573628D02*
X80697856Y-36526009D01*
X80697856Y-36526009D02*
X80793094Y-36478390D01*
X80793094Y-36478390D02*
X80840713Y-36430771D01*
X80840713Y-36430771D02*
X80888332Y-36335533D01*
X80888332Y-36335533D02*
X80888332Y-36240295D01*
X80888332Y-36240295D02*
X80840713Y-36145057D01*
X80840713Y-36145057D02*
X80793094Y-36097438D01*
X80793094Y-36097438D02*
X80697856Y-36049819D01*
X80697856Y-36049819D02*
X80459761Y-36049819D01*
X80459761Y-36049819D02*
X80316904Y-36097438D01*
X79983570Y-36049819D02*
X79745475Y-37049819D01*
X79745475Y-37049819D02*
X79554999Y-36335533D01*
X79554999Y-36335533D02*
X79364523Y-37049819D01*
X79364523Y-37049819D02*
X79126428Y-36049819D01*
X78840713Y-36049819D02*
X78221666Y-36049819D01*
X78221666Y-36049819D02*
X78554999Y-36430771D01*
X78554999Y-36430771D02*
X78412142Y-36430771D01*
X78412142Y-36430771D02*
X78316904Y-36478390D01*
X78316904Y-36478390D02*
X78269285Y-36526009D01*
X78269285Y-36526009D02*
X78221666Y-36621247D01*
X78221666Y-36621247D02*
X78221666Y-36859342D01*
X78221666Y-36859342D02*
X78269285Y-36954580D01*
X78269285Y-36954580D02*
X78316904Y-37002200D01*
X78316904Y-37002200D02*
X78412142Y-37049819D01*
X78412142Y-37049819D02*
X78697856Y-37049819D01*
X78697856Y-37049819D02*
X78793094Y-37002200D01*
X78793094Y-37002200D02*
X78840713Y-36954580D01*
X81364523Y-71052200D02*
X81221666Y-71099819D01*
X81221666Y-71099819D02*
X80983571Y-71099819D01*
X80983571Y-71099819D02*
X80888333Y-71052200D01*
X80888333Y-71052200D02*
X80840714Y-71004580D01*
X80840714Y-71004580D02*
X80793095Y-70909342D01*
X80793095Y-70909342D02*
X80793095Y-70814104D01*
X80793095Y-70814104D02*
X80840714Y-70718866D01*
X80840714Y-70718866D02*
X80888333Y-70671247D01*
X80888333Y-70671247D02*
X80983571Y-70623628D01*
X80983571Y-70623628D02*
X81174047Y-70576009D01*
X81174047Y-70576009D02*
X81269285Y-70528390D01*
X81269285Y-70528390D02*
X81316904Y-70480771D01*
X81316904Y-70480771D02*
X81364523Y-70385533D01*
X81364523Y-70385533D02*
X81364523Y-70290295D01*
X81364523Y-70290295D02*
X81316904Y-70195057D01*
X81316904Y-70195057D02*
X81269285Y-70147438D01*
X81269285Y-70147438D02*
X81174047Y-70099819D01*
X81174047Y-70099819D02*
X80935952Y-70099819D01*
X80935952Y-70099819D02*
X80793095Y-70147438D01*
X80459761Y-70099819D02*
X80221666Y-71099819D01*
X80221666Y-71099819D02*
X80031190Y-70385533D01*
X80031190Y-70385533D02*
X79840714Y-71099819D01*
X79840714Y-71099819D02*
X79602619Y-70099819D01*
X78697857Y-71099819D02*
X79269285Y-71099819D01*
X78983571Y-71099819D02*
X78983571Y-70099819D01*
X78983571Y-70099819D02*
X79078809Y-70242676D01*
X79078809Y-70242676D02*
X79174047Y-70337914D01*
X79174047Y-70337914D02*
X79269285Y-70385533D01*
X77793095Y-70099819D02*
X78269285Y-70099819D01*
X78269285Y-70099819D02*
X78316904Y-70576009D01*
X78316904Y-70576009D02*
X78269285Y-70528390D01*
X78269285Y-70528390D02*
X78174047Y-70480771D01*
X78174047Y-70480771D02*
X77935952Y-70480771D01*
X77935952Y-70480771D02*
X77840714Y-70528390D01*
X77840714Y-70528390D02*
X77793095Y-70576009D01*
X77793095Y-70576009D02*
X77745476Y-70671247D01*
X77745476Y-70671247D02*
X77745476Y-70909342D01*
X77745476Y-70909342D02*
X77793095Y-71004580D01*
X77793095Y-71004580D02*
X77840714Y-71052200D01*
X77840714Y-71052200D02*
X77935952Y-71099819D01*
X77935952Y-71099819D02*
X78174047Y-71099819D01*
X78174047Y-71099819D02*
X78269285Y-71052200D01*
X78269285Y-71052200D02*
X78316904Y-71004580D01*
X98888332Y-33402200D02*
X98745475Y-33449819D01*
X98745475Y-33449819D02*
X98507380Y-33449819D01*
X98507380Y-33449819D02*
X98412142Y-33402200D01*
X98412142Y-33402200D02*
X98364523Y-33354580D01*
X98364523Y-33354580D02*
X98316904Y-33259342D01*
X98316904Y-33259342D02*
X98316904Y-33164104D01*
X98316904Y-33164104D02*
X98364523Y-33068866D01*
X98364523Y-33068866D02*
X98412142Y-33021247D01*
X98412142Y-33021247D02*
X98507380Y-32973628D01*
X98507380Y-32973628D02*
X98697856Y-32926009D01*
X98697856Y-32926009D02*
X98793094Y-32878390D01*
X98793094Y-32878390D02*
X98840713Y-32830771D01*
X98840713Y-32830771D02*
X98888332Y-32735533D01*
X98888332Y-32735533D02*
X98888332Y-32640295D01*
X98888332Y-32640295D02*
X98840713Y-32545057D01*
X98840713Y-32545057D02*
X98793094Y-32497438D01*
X98793094Y-32497438D02*
X98697856Y-32449819D01*
X98697856Y-32449819D02*
X98459761Y-32449819D01*
X98459761Y-32449819D02*
X98316904Y-32497438D01*
X97983570Y-32449819D02*
X97745475Y-33449819D01*
X97745475Y-33449819D02*
X97554999Y-32735533D01*
X97554999Y-32735533D02*
X97364523Y-33449819D01*
X97364523Y-33449819D02*
X97126428Y-32449819D01*
X96316904Y-32783152D02*
X96316904Y-33449819D01*
X96554999Y-32402200D02*
X96793094Y-33116485D01*
X96793094Y-33116485D02*
X96174047Y-33116485D01*
X99364523Y-84502200D02*
X99221666Y-84549819D01*
X99221666Y-84549819D02*
X98983571Y-84549819D01*
X98983571Y-84549819D02*
X98888333Y-84502200D01*
X98888333Y-84502200D02*
X98840714Y-84454580D01*
X98840714Y-84454580D02*
X98793095Y-84359342D01*
X98793095Y-84359342D02*
X98793095Y-84264104D01*
X98793095Y-84264104D02*
X98840714Y-84168866D01*
X98840714Y-84168866D02*
X98888333Y-84121247D01*
X98888333Y-84121247D02*
X98983571Y-84073628D01*
X98983571Y-84073628D02*
X99174047Y-84026009D01*
X99174047Y-84026009D02*
X99269285Y-83978390D01*
X99269285Y-83978390D02*
X99316904Y-83930771D01*
X99316904Y-83930771D02*
X99364523Y-83835533D01*
X99364523Y-83835533D02*
X99364523Y-83740295D01*
X99364523Y-83740295D02*
X99316904Y-83645057D01*
X99316904Y-83645057D02*
X99269285Y-83597438D01*
X99269285Y-83597438D02*
X99174047Y-83549819D01*
X99174047Y-83549819D02*
X98935952Y-83549819D01*
X98935952Y-83549819D02*
X98793095Y-83597438D01*
X98459761Y-83549819D02*
X98221666Y-84549819D01*
X98221666Y-84549819D02*
X98031190Y-83835533D01*
X98031190Y-83835533D02*
X97840714Y-84549819D01*
X97840714Y-84549819D02*
X97602619Y-83549819D01*
X97269285Y-83645057D02*
X97221666Y-83597438D01*
X97221666Y-83597438D02*
X97126428Y-83549819D01*
X97126428Y-83549819D02*
X96888333Y-83549819D01*
X96888333Y-83549819D02*
X96793095Y-83597438D01*
X96793095Y-83597438D02*
X96745476Y-83645057D01*
X96745476Y-83645057D02*
X96697857Y-83740295D01*
X96697857Y-83740295D02*
X96697857Y-83835533D01*
X96697857Y-83835533D02*
X96745476Y-83978390D01*
X96745476Y-83978390D02*
X97316904Y-84549819D01*
X97316904Y-84549819D02*
X96697857Y-84549819D01*
X96316904Y-83645057D02*
X96269285Y-83597438D01*
X96269285Y-83597438D02*
X96174047Y-83549819D01*
X96174047Y-83549819D02*
X95935952Y-83549819D01*
X95935952Y-83549819D02*
X95840714Y-83597438D01*
X95840714Y-83597438D02*
X95793095Y-83645057D01*
X95793095Y-83645057D02*
X95745476Y-83740295D01*
X95745476Y-83740295D02*
X95745476Y-83835533D01*
X95745476Y-83835533D02*
X95793095Y-83978390D01*
X95793095Y-83978390D02*
X96364523Y-84549819D01*
X96364523Y-84549819D02*
X95745476Y-84549819D01*
X40388332Y-40402200D02*
X40245475Y-40449819D01*
X40245475Y-40449819D02*
X40007380Y-40449819D01*
X40007380Y-40449819D02*
X39912142Y-40402200D01*
X39912142Y-40402200D02*
X39864523Y-40354580D01*
X39864523Y-40354580D02*
X39816904Y-40259342D01*
X39816904Y-40259342D02*
X39816904Y-40164104D01*
X39816904Y-40164104D02*
X39864523Y-40068866D01*
X39864523Y-40068866D02*
X39912142Y-40021247D01*
X39912142Y-40021247D02*
X40007380Y-39973628D01*
X40007380Y-39973628D02*
X40197856Y-39926009D01*
X40197856Y-39926009D02*
X40293094Y-39878390D01*
X40293094Y-39878390D02*
X40340713Y-39830771D01*
X40340713Y-39830771D02*
X40388332Y-39735533D01*
X40388332Y-39735533D02*
X40388332Y-39640295D01*
X40388332Y-39640295D02*
X40340713Y-39545057D01*
X40340713Y-39545057D02*
X40293094Y-39497438D01*
X40293094Y-39497438D02*
X40197856Y-39449819D01*
X40197856Y-39449819D02*
X39959761Y-39449819D01*
X39959761Y-39449819D02*
X39816904Y-39497438D01*
X39483570Y-39449819D02*
X39245475Y-40449819D01*
X39245475Y-40449819D02*
X39054999Y-39735533D01*
X39054999Y-39735533D02*
X38864523Y-40449819D01*
X38864523Y-40449819D02*
X38626428Y-39449819D01*
X37721666Y-40449819D02*
X38293094Y-40449819D01*
X38007380Y-40449819D02*
X38007380Y-39449819D01*
X38007380Y-39449819D02*
X38102618Y-39592676D01*
X38102618Y-39592676D02*
X38197856Y-39687914D01*
X38197856Y-39687914D02*
X38293094Y-39735533D01*
X63364523Y-74452200D02*
X63221666Y-74499819D01*
X63221666Y-74499819D02*
X62983571Y-74499819D01*
X62983571Y-74499819D02*
X62888333Y-74452200D01*
X62888333Y-74452200D02*
X62840714Y-74404580D01*
X62840714Y-74404580D02*
X62793095Y-74309342D01*
X62793095Y-74309342D02*
X62793095Y-74214104D01*
X62793095Y-74214104D02*
X62840714Y-74118866D01*
X62840714Y-74118866D02*
X62888333Y-74071247D01*
X62888333Y-74071247D02*
X62983571Y-74023628D01*
X62983571Y-74023628D02*
X63174047Y-73976009D01*
X63174047Y-73976009D02*
X63269285Y-73928390D01*
X63269285Y-73928390D02*
X63316904Y-73880771D01*
X63316904Y-73880771D02*
X63364523Y-73785533D01*
X63364523Y-73785533D02*
X63364523Y-73690295D01*
X63364523Y-73690295D02*
X63316904Y-73595057D01*
X63316904Y-73595057D02*
X63269285Y-73547438D01*
X63269285Y-73547438D02*
X63174047Y-73499819D01*
X63174047Y-73499819D02*
X62935952Y-73499819D01*
X62935952Y-73499819D02*
X62793095Y-73547438D01*
X62459761Y-73499819D02*
X62221666Y-74499819D01*
X62221666Y-74499819D02*
X62031190Y-73785533D01*
X62031190Y-73785533D02*
X61840714Y-74499819D01*
X61840714Y-74499819D02*
X61602619Y-73499819D01*
X60697857Y-74499819D02*
X61269285Y-74499819D01*
X60983571Y-74499819D02*
X60983571Y-73499819D01*
X60983571Y-73499819D02*
X61078809Y-73642676D01*
X61078809Y-73642676D02*
X61174047Y-73737914D01*
X61174047Y-73737914D02*
X61269285Y-73785533D01*
X59840714Y-73833152D02*
X59840714Y-74499819D01*
X60078809Y-73452200D02*
X60316904Y-74166485D01*
X60316904Y-74166485D02*
X59697857Y-74166485D01*
X140857450Y-119568399D02*
X140790106Y-119703086D01*
X140790106Y-119703086D02*
X140621748Y-119871445D01*
X140621748Y-119871445D02*
X140520732Y-119905116D01*
X140520732Y-119905116D02*
X140453389Y-119905116D01*
X140453389Y-119905116D02*
X140352374Y-119871445D01*
X140352374Y-119871445D02*
X140285030Y-119804101D01*
X140285030Y-119804101D02*
X140251358Y-119703086D01*
X140251358Y-119703086D02*
X140251358Y-119635742D01*
X140251358Y-119635742D02*
X140285030Y-119534727D01*
X140285030Y-119534727D02*
X140386045Y-119366368D01*
X140386045Y-119366368D02*
X140419717Y-119265353D01*
X140419717Y-119265353D02*
X140419717Y-119198010D01*
X140419717Y-119198010D02*
X140386045Y-119096994D01*
X140386045Y-119096994D02*
X140318702Y-119029651D01*
X140318702Y-119029651D02*
X140217687Y-118995979D01*
X140217687Y-118995979D02*
X140150343Y-118995979D01*
X140150343Y-118995979D02*
X140049328Y-119029651D01*
X140049328Y-119029651D02*
X139880969Y-119198010D01*
X139880969Y-119198010D02*
X139813626Y-119332697D01*
X139544252Y-119534727D02*
X140083000Y-120410193D01*
X140083000Y-120410193D02*
X139443236Y-120039803D01*
X139443236Y-120039803D02*
X139813626Y-120679567D01*
X139813626Y-120679567D02*
X138938160Y-120140819D01*
X138769801Y-120443864D02*
X138702458Y-120443864D01*
X138702458Y-120443864D02*
X138601443Y-120477536D01*
X138601443Y-120477536D02*
X138433084Y-120645895D01*
X138433084Y-120645895D02*
X138399412Y-120746910D01*
X138399412Y-120746910D02*
X138399412Y-120814254D01*
X138399412Y-120814254D02*
X138433084Y-120915269D01*
X138433084Y-120915269D02*
X138500427Y-120982612D01*
X138500427Y-120982612D02*
X138635114Y-121049956D01*
X138635114Y-121049956D02*
X139443236Y-121049956D01*
X139443236Y-121049956D02*
X139005504Y-121487689D01*
X138668786Y-121824406D02*
X138534099Y-121959093D01*
X138534099Y-121959093D02*
X138433084Y-121992765D01*
X138433084Y-121992765D02*
X138365740Y-121992765D01*
X138365740Y-121992765D02*
X138197382Y-121959093D01*
X138197382Y-121959093D02*
X138029023Y-121858078D01*
X138029023Y-121858078D02*
X137759649Y-121588704D01*
X137759649Y-121588704D02*
X137725977Y-121487689D01*
X137725977Y-121487689D02*
X137725977Y-121420345D01*
X137725977Y-121420345D02*
X137759649Y-121319330D01*
X137759649Y-121319330D02*
X137894336Y-121184643D01*
X137894336Y-121184643D02*
X137995351Y-121150971D01*
X137995351Y-121150971D02*
X138062695Y-121150971D01*
X138062695Y-121150971D02*
X138163710Y-121184643D01*
X138163710Y-121184643D02*
X138332069Y-121353002D01*
X138332069Y-121353002D02*
X138365740Y-121454017D01*
X138365740Y-121454017D02*
X138365740Y-121521360D01*
X138365740Y-121521360D02*
X138332069Y-121622376D01*
X138332069Y-121622376D02*
X138197382Y-121757063D01*
X138197382Y-121757063D02*
X138096366Y-121790734D01*
X138096366Y-121790734D02*
X138029023Y-121790734D01*
X138029023Y-121790734D02*
X137928008Y-121757063D01*
X152918396Y-131637150D02*
X152851052Y-131771837D01*
X152851052Y-131771837D02*
X152682694Y-131940196D01*
X152682694Y-131940196D02*
X152581678Y-131973867D01*
X152581678Y-131973867D02*
X152514335Y-131973867D01*
X152514335Y-131973867D02*
X152413320Y-131940196D01*
X152413320Y-131940196D02*
X152345976Y-131872852D01*
X152345976Y-131872852D02*
X152312304Y-131771837D01*
X152312304Y-131771837D02*
X152312304Y-131704493D01*
X152312304Y-131704493D02*
X152345976Y-131603478D01*
X152345976Y-131603478D02*
X152446991Y-131435119D01*
X152446991Y-131435119D02*
X152480663Y-131334104D01*
X152480663Y-131334104D02*
X152480663Y-131266761D01*
X152480663Y-131266761D02*
X152446991Y-131165745D01*
X152446991Y-131165745D02*
X152379648Y-131098402D01*
X152379648Y-131098402D02*
X152278633Y-131064730D01*
X152278633Y-131064730D02*
X152211289Y-131064730D01*
X152211289Y-131064730D02*
X152110274Y-131098402D01*
X152110274Y-131098402D02*
X151941915Y-131266761D01*
X151941915Y-131266761D02*
X151874572Y-131401448D01*
X151605198Y-131603478D02*
X152143946Y-132478944D01*
X152143946Y-132478944D02*
X151504182Y-132108554D01*
X151504182Y-132108554D02*
X151874572Y-132748318D01*
X151874572Y-132748318D02*
X150999106Y-132209570D01*
X150797076Y-132411600D02*
X150359343Y-132849333D01*
X150359343Y-132849333D02*
X150864419Y-132883005D01*
X150864419Y-132883005D02*
X150763404Y-132984020D01*
X150763404Y-132984020D02*
X150729732Y-133085035D01*
X150729732Y-133085035D02*
X150729732Y-133152379D01*
X150729732Y-133152379D02*
X150763404Y-133253394D01*
X150763404Y-133253394D02*
X150931763Y-133421753D01*
X150931763Y-133421753D02*
X151032778Y-133455424D01*
X151032778Y-133455424D02*
X151100121Y-133455424D01*
X151100121Y-133455424D02*
X151201137Y-133421753D01*
X151201137Y-133421753D02*
X151403167Y-133219722D01*
X151403167Y-133219722D02*
X151436839Y-133118707D01*
X151436839Y-133118707D02*
X151436839Y-133051363D01*
X149921610Y-133287066D02*
X149854267Y-133354409D01*
X149854267Y-133354409D02*
X149820595Y-133455424D01*
X149820595Y-133455424D02*
X149820595Y-133522768D01*
X149820595Y-133522768D02*
X149854267Y-133623783D01*
X149854267Y-133623783D02*
X149955282Y-133792142D01*
X149955282Y-133792142D02*
X150123641Y-133960501D01*
X150123641Y-133960501D02*
X150291999Y-134061516D01*
X150291999Y-134061516D02*
X150393015Y-134095188D01*
X150393015Y-134095188D02*
X150460358Y-134095188D01*
X150460358Y-134095188D02*
X150561373Y-134061516D01*
X150561373Y-134061516D02*
X150628717Y-133994172D01*
X150628717Y-133994172D02*
X150662389Y-133893157D01*
X150662389Y-133893157D02*
X150662389Y-133825814D01*
X150662389Y-133825814D02*
X150628717Y-133724798D01*
X150628717Y-133724798D02*
X150527702Y-133556440D01*
X150527702Y-133556440D02*
X150359343Y-133388081D01*
X150359343Y-133388081D02*
X150190984Y-133287066D01*
X150190984Y-133287066D02*
X150089969Y-133253394D01*
X150089969Y-133253394D02*
X150022625Y-133253394D01*
X150022625Y-133253394D02*
X149921610Y-133287066D01*
D13*
%TO.C,D10*%
X91880000Y-47090000D02*
X94120000Y-47090000D01*
X91880000Y-47690000D02*
X94120000Y-47690000D01*
X91880000Y-47810000D02*
X94120000Y-47810000D01*
X91880000Y-47930000D02*
X94120000Y-47930000D01*
X91880000Y-51330000D02*
X91880000Y-47090000D01*
X93000000Y-46440000D02*
X93000000Y-47090000D01*
X93000000Y-51980000D02*
X93000000Y-51330000D01*
X94120000Y-47090000D02*
X94120000Y-51330000D01*
X94120000Y-51330000D02*
X91880000Y-51330000D01*
D12*
%TO.C,SW13*%
X42500000Y-79650000D02*
G75*
G02*
X41000000Y-78150000I1J1500001D01*
G01*
X41000000Y-82150000D02*
G75*
G02*
X41500000Y-82650000I-1J-500001D01*
G01*
X50500000Y-82950000D02*
X49500000Y-82950000D01*
X50500000Y-81950000D02*
X50500000Y-82950000D01*
X50500000Y-68950000D02*
X50500000Y-69950000D01*
X49500000Y-68950000D02*
X50500000Y-68950000D01*
X45500000Y-83650000D02*
X45000000Y-84150000D01*
X45500000Y-80150000D02*
X45000000Y-79650000D01*
X45000000Y-84150000D02*
X42000000Y-84150000D01*
X45000000Y-79650000D02*
X42500000Y-79650000D01*
X42000000Y-84150000D02*
X41500000Y-83650000D01*
X41500000Y-82650000D02*
X41500000Y-83650000D01*
X41000000Y-78150000D02*
X41000000Y-77450000D01*
X41000000Y-77450000D02*
X36500000Y-77450000D01*
X37500000Y-82950000D02*
X36500000Y-82950000D01*
X36500000Y-82950000D02*
X36500000Y-81950000D01*
X36500000Y-82150000D02*
X41000000Y-82150000D01*
X36500000Y-81550000D02*
X36500000Y-82150000D01*
X36500000Y-77450000D02*
X36500000Y-77950000D01*
X36500000Y-69950000D02*
X36500000Y-68950000D01*
X36500000Y-68950000D02*
X37500000Y-68950000D01*
%TO.C,SW20*%
X59000000Y-86000000D02*
X60000000Y-86000000D01*
X59000000Y-87000000D02*
X59000000Y-86000000D01*
X59000000Y-94500000D02*
X59000000Y-95000000D01*
X59000000Y-98600000D02*
X59000000Y-99200000D01*
X59000000Y-99200000D02*
X63500000Y-99200000D01*
X59000000Y-100000000D02*
X59000000Y-99000000D01*
X60000000Y-100000000D02*
X59000000Y-100000000D01*
X63500000Y-94500000D02*
X59000000Y-94500000D01*
X63500000Y-95200000D02*
X63500000Y-94500000D01*
X64000000Y-99700000D02*
X64000000Y-100700000D01*
X64500000Y-101200000D02*
X64000000Y-100700000D01*
X67500000Y-96700000D02*
X65000000Y-96700000D01*
X67500000Y-101200000D02*
X64500000Y-101200000D01*
X68000000Y-97200000D02*
X67500000Y-96700000D01*
X68000000Y-100700000D02*
X67500000Y-101200000D01*
X72000000Y-86000000D02*
X73000000Y-86000000D01*
X73000000Y-86000000D02*
X73000000Y-87000000D01*
X73000000Y-99000000D02*
X73000000Y-100000000D01*
X73000000Y-100000000D02*
X72000000Y-100000000D01*
X63500000Y-99200000D02*
G75*
G02*
X64000000Y-99700000I-1J-500001D01*
G01*
X65000000Y-96700000D02*
G75*
G02*
X63500000Y-95200000I1J1500001D01*
G01*
D13*
%TO.C,D19*%
X31380000Y-88090000D02*
X33620000Y-88090000D01*
X31380000Y-88690000D02*
X33620000Y-88690000D01*
X31380000Y-88810000D02*
X33620000Y-88810000D01*
X31380000Y-88930000D02*
X33620000Y-88930000D01*
X31380000Y-92330000D02*
X31380000Y-88090000D01*
X32500000Y-87440000D02*
X32500000Y-88090000D01*
X32500000Y-92980000D02*
X32500000Y-92330000D01*
X33620000Y-88090000D02*
X33620000Y-92330000D01*
X33620000Y-92330000D02*
X31380000Y-92330000D01*
D12*
%TO.C,SW21*%
X77000000Y-82600000D02*
X78000000Y-82600000D01*
X77000000Y-83600000D02*
X77000000Y-82600000D01*
X77000000Y-91100000D02*
X77000000Y-91600000D01*
X77000000Y-95200000D02*
X77000000Y-95800000D01*
X77000000Y-95800000D02*
X81500000Y-95800000D01*
X77000000Y-96600000D02*
X77000000Y-95600000D01*
X78000000Y-96600000D02*
X77000000Y-96600000D01*
X81500000Y-91100000D02*
X77000000Y-91100000D01*
X81500000Y-91800000D02*
X81500000Y-91100000D01*
X82000000Y-96300000D02*
X82000000Y-97300000D01*
X82500000Y-97800000D02*
X82000000Y-97300000D01*
X85500000Y-93300000D02*
X83000000Y-93300000D01*
X85500000Y-97800000D02*
X82500000Y-97800000D01*
X86000000Y-93800000D02*
X85500000Y-93300000D01*
X86000000Y-97300000D02*
X85500000Y-97800000D01*
X90000000Y-82600000D02*
X91000000Y-82600000D01*
X91000000Y-82600000D02*
X91000000Y-83600000D01*
X91000000Y-95600000D02*
X91000000Y-96600000D01*
X91000000Y-96600000D02*
X90000000Y-96600000D01*
X81500000Y-95800000D02*
G75*
G02*
X82000000Y-96300000I-1J-500001D01*
G01*
X83000000Y-93300000D02*
G75*
G02*
X81500000Y-91800000I1J1500001D01*
G01*
D13*
%TO.C,D21*%
X73880000Y-84690000D02*
X76120000Y-84690000D01*
X73880000Y-85290000D02*
X76120000Y-85290000D01*
X73880000Y-85410000D02*
X76120000Y-85410000D01*
X73880000Y-85530000D02*
X76120000Y-85530000D01*
X73880000Y-88930000D02*
X73880000Y-84690000D01*
X75000000Y-84040000D02*
X75000000Y-84690000D01*
X75000000Y-89580000D02*
X75000000Y-88930000D01*
X76120000Y-84690000D02*
X76120000Y-88930000D01*
X76120000Y-88930000D02*
X73880000Y-88930000D01*
D12*
%TO.C,SW23*%
X113000000Y-82600000D02*
X114000000Y-82600000D01*
X113000000Y-83600000D02*
X113000000Y-82600000D01*
X113000000Y-91100000D02*
X113000000Y-91600000D01*
X113000000Y-95200000D02*
X113000000Y-95800000D01*
X113000000Y-95800000D02*
X117500000Y-95800000D01*
X113000000Y-96600000D02*
X113000000Y-95600000D01*
X114000000Y-96600000D02*
X113000000Y-96600000D01*
X117500000Y-91100000D02*
X113000000Y-91100000D01*
X117500000Y-91800000D02*
X117500000Y-91100000D01*
X118000000Y-96300000D02*
X118000000Y-97300000D01*
X118500000Y-97800000D02*
X118000000Y-97300000D01*
X121500000Y-93300000D02*
X119000000Y-93300000D01*
X121500000Y-97800000D02*
X118500000Y-97800000D01*
X122000000Y-93800000D02*
X121500000Y-93300000D01*
X122000000Y-97300000D02*
X121500000Y-97800000D01*
X126000000Y-82600000D02*
X127000000Y-82600000D01*
X127000000Y-82600000D02*
X127000000Y-83600000D01*
X127000000Y-95600000D02*
X127000000Y-96600000D01*
X127000000Y-96600000D02*
X126000000Y-96600000D01*
X117500000Y-95800000D02*
G75*
G02*
X118000000Y-96300000I-1J-500001D01*
G01*
X119000000Y-93300000D02*
G75*
G02*
X117500000Y-91800000I1J1500001D01*
G01*
D13*
%TO.C,D20*%
X55880000Y-88090000D02*
X58120000Y-88090000D01*
X55880000Y-88690000D02*
X58120000Y-88690000D01*
X55880000Y-88810000D02*
X58120000Y-88810000D01*
X55880000Y-88930000D02*
X58120000Y-88930000D01*
X55880000Y-92330000D02*
X55880000Y-88090000D01*
X57000000Y-87440000D02*
X57000000Y-88090000D01*
X57000000Y-92980000D02*
X57000000Y-92330000D01*
X58120000Y-88090000D02*
X58120000Y-92330000D01*
X58120000Y-92330000D02*
X55880000Y-92330000D01*
D12*
%TO.C,SW18*%
X131000000Y-68950000D02*
X132000000Y-68950000D01*
X131000000Y-69950000D02*
X131000000Y-68950000D01*
X131000000Y-77450000D02*
X131000000Y-77950000D01*
X131000000Y-81550000D02*
X131000000Y-82150000D01*
X131000000Y-82150000D02*
X135500000Y-82150000D01*
X131000000Y-82950000D02*
X131000000Y-81950000D01*
X132000000Y-82950000D02*
X131000000Y-82950000D01*
X135500000Y-77450000D02*
X131000000Y-77450000D01*
X135500000Y-78150000D02*
X135500000Y-77450000D01*
X136000000Y-82650000D02*
X136000000Y-83650000D01*
X136500000Y-84150000D02*
X136000000Y-83650000D01*
X139500000Y-79650000D02*
X137000000Y-79650000D01*
X139500000Y-84150000D02*
X136500000Y-84150000D01*
X140000000Y-80150000D02*
X139500000Y-79650000D01*
X140000000Y-83650000D02*
X139500000Y-84150000D01*
X144000000Y-68950000D02*
X145000000Y-68950000D01*
X145000000Y-68950000D02*
X145000000Y-69950000D01*
X145000000Y-81950000D02*
X145000000Y-82950000D01*
X145000000Y-82950000D02*
X144000000Y-82950000D01*
X135500000Y-82150000D02*
G75*
G02*
X136000000Y-82650000I-1J-500001D01*
G01*
X137000000Y-79650000D02*
G75*
G02*
X135500000Y-78150000I1J1500001D01*
G01*
%TO.C,SW10*%
X95000000Y-44950000D02*
X96000000Y-44950000D01*
X95000000Y-45950000D02*
X95000000Y-44950000D01*
X95000000Y-53450000D02*
X95000000Y-53950000D01*
X95000000Y-57550000D02*
X95000000Y-58150000D01*
X95000000Y-58150000D02*
X99500000Y-58150000D01*
X95000000Y-58950000D02*
X95000000Y-57950000D01*
X96000000Y-58950000D02*
X95000000Y-58950000D01*
X99500000Y-53450000D02*
X95000000Y-53450000D01*
X99500000Y-54150000D02*
X99500000Y-53450000D01*
X100000000Y-58650000D02*
X100000000Y-59650000D01*
X100500000Y-60150000D02*
X100000000Y-59650000D01*
X103500000Y-55650000D02*
X101000000Y-55650000D01*
X103500000Y-60150000D02*
X100500000Y-60150000D01*
X104000000Y-56150000D02*
X103500000Y-55650000D01*
X104000000Y-59650000D02*
X103500000Y-60150000D01*
X108000000Y-44950000D02*
X109000000Y-44950000D01*
X109000000Y-44950000D02*
X109000000Y-45950000D01*
X109000000Y-57950000D02*
X109000000Y-58950000D01*
X109000000Y-58950000D02*
X108000000Y-58950000D01*
X99500000Y-58150000D02*
G75*
G02*
X100000000Y-58650000I-1J-500001D01*
G01*
X101000000Y-55650000D02*
G75*
G02*
X99500000Y-54150000I1J1500001D01*
G01*
D13*
%TO.C,D18*%
X127880000Y-67440000D02*
X130120000Y-67440000D01*
X127880000Y-68040000D02*
X130120000Y-68040000D01*
X127880000Y-68160000D02*
X130120000Y-68160000D01*
X127880000Y-68280000D02*
X130120000Y-68280000D01*
X127880000Y-71680000D02*
X127880000Y-67440000D01*
X129000000Y-66790000D02*
X129000000Y-67440000D01*
X129000000Y-72330000D02*
X129000000Y-71680000D01*
X130120000Y-67440000D02*
X130120000Y-71680000D01*
X130120000Y-71680000D02*
X127880000Y-71680000D01*
%TO.C,D11*%
X109880000Y-46820000D02*
X112120000Y-46820000D01*
X109880000Y-47420000D02*
X112120000Y-47420000D01*
X109880000Y-47540000D02*
X112120000Y-47540000D01*
X109880000Y-47660000D02*
X112120000Y-47660000D01*
X109880000Y-51060000D02*
X109880000Y-46820000D01*
X111000000Y-46170000D02*
X111000000Y-46820000D01*
X111000000Y-51710000D02*
X111000000Y-51060000D01*
X112120000Y-46820000D02*
X112120000Y-51060000D01*
X112120000Y-51060000D02*
X109880000Y-51060000D01*
%TO.C,D14*%
X55880000Y-71090000D02*
X58120000Y-71090000D01*
X55880000Y-71690000D02*
X58120000Y-71690000D01*
X55880000Y-71810000D02*
X58120000Y-71810000D01*
X55880000Y-71930000D02*
X58120000Y-71930000D01*
X55880000Y-75330000D02*
X55880000Y-71090000D01*
X57000000Y-70440000D02*
X57000000Y-71090000D01*
X57000000Y-75980000D02*
X57000000Y-75330000D01*
X58120000Y-71090000D02*
X58120000Y-75330000D01*
X58120000Y-75330000D02*
X55880000Y-75330000D01*
D12*
%TO.C,SW27*%
X94980000Y-99600000D02*
X95980000Y-99600000D01*
X94980000Y-100600000D02*
X94980000Y-99600000D01*
X94980000Y-108100000D02*
X94980000Y-108600000D01*
X94980000Y-112200000D02*
X94980000Y-112800000D01*
X94980000Y-112800000D02*
X99480000Y-112800000D01*
X94980000Y-113600000D02*
X94980000Y-112600000D01*
X95980000Y-113600000D02*
X94980000Y-113600000D01*
X99480000Y-108100000D02*
X94980000Y-108100000D01*
X99480000Y-108800000D02*
X99480000Y-108100000D01*
X99980000Y-113300000D02*
X99980000Y-114300000D01*
X100480000Y-114800000D02*
X99980000Y-114300000D01*
X103480000Y-110300000D02*
X100980000Y-110300000D01*
X103480000Y-114800000D02*
X100480000Y-114800000D01*
X103980000Y-110800000D02*
X103480000Y-110300000D01*
X103980000Y-114300000D02*
X103480000Y-114800000D01*
X107980000Y-99600000D02*
X108980000Y-99600000D01*
X108980000Y-99600000D02*
X108980000Y-100600000D01*
X108980000Y-112600000D02*
X108980000Y-113600000D01*
X108980000Y-113600000D02*
X107980000Y-113600000D01*
X99480000Y-112800000D02*
G75*
G02*
X99980000Y-113300000I-1J-500001D01*
G01*
X100980000Y-110300000D02*
G75*
G02*
X99480000Y-108800000I1J1500001D01*
G01*
D13*
%TO.C,D1*%
X31380000Y-37090000D02*
X33620000Y-37090000D01*
X31380000Y-37690000D02*
X33620000Y-37690000D01*
X31380000Y-37810000D02*
X33620000Y-37810000D01*
X31380000Y-37930000D02*
X33620000Y-37930000D01*
X31380000Y-41330000D02*
X31380000Y-37090000D01*
X32500000Y-36440000D02*
X32500000Y-37090000D01*
X32500000Y-41980000D02*
X32500000Y-41330000D01*
X33620000Y-37090000D02*
X33620000Y-41330000D01*
X33620000Y-41330000D02*
X31380000Y-41330000D01*
D12*
%TO.C,SW6*%
X131000000Y-34900000D02*
X132000000Y-34900000D01*
X131000000Y-35900000D02*
X131000000Y-34900000D01*
X131000000Y-43400000D02*
X131000000Y-43900000D01*
X131000000Y-47500000D02*
X131000000Y-48100000D01*
X131000000Y-48100000D02*
X135500000Y-48100000D01*
X131000000Y-48900000D02*
X131000000Y-47900000D01*
X132000000Y-48900000D02*
X131000000Y-48900000D01*
X135500000Y-43400000D02*
X131000000Y-43400000D01*
X135500000Y-44100000D02*
X135500000Y-43400000D01*
X136000000Y-48600000D02*
X136000000Y-49600000D01*
X136500000Y-50100000D02*
X136000000Y-49600000D01*
X139500000Y-45600000D02*
X137000000Y-45600000D01*
X139500000Y-50100000D02*
X136500000Y-50100000D01*
X140000000Y-46100000D02*
X139500000Y-45600000D01*
X140000000Y-49600000D02*
X139500000Y-50100000D01*
X144000000Y-34900000D02*
X145000000Y-34900000D01*
X145000000Y-34900000D02*
X145000000Y-35900000D01*
X145000000Y-47900000D02*
X145000000Y-48900000D01*
X145000000Y-48900000D02*
X144000000Y-48900000D01*
X135500000Y-48100000D02*
G75*
G02*
X136000000Y-48600000I-1J-500001D01*
G01*
X137000000Y-45600000D02*
G75*
G02*
X135500000Y-44100000I1J1500001D01*
G01*
D13*
%TO.C,D22*%
X91880000Y-81090000D02*
X94120000Y-81090000D01*
X91880000Y-81690000D02*
X94120000Y-81690000D01*
X91880000Y-81810000D02*
X94120000Y-81810000D01*
X91880000Y-81930000D02*
X94120000Y-81930000D01*
X91880000Y-85330000D02*
X91880000Y-81090000D01*
X93000000Y-80440000D02*
X93000000Y-81090000D01*
X93000000Y-85980000D02*
X93000000Y-85330000D01*
X94120000Y-81090000D02*
X94120000Y-85330000D01*
X94120000Y-85330000D02*
X91880000Y-85330000D01*
D12*
%TO.C,SW19*%
X36500000Y-86000000D02*
X37500000Y-86000000D01*
X36500000Y-87000000D02*
X36500000Y-86000000D01*
X36500000Y-94500000D02*
X36500000Y-95000000D01*
X36500000Y-98600000D02*
X36500000Y-99200000D01*
X36500000Y-99200000D02*
X41000000Y-99200000D01*
X36500000Y-100000000D02*
X36500000Y-99000000D01*
X37500000Y-100000000D02*
X36500000Y-100000000D01*
X41000000Y-94500000D02*
X36500000Y-94500000D01*
X41000000Y-95200000D02*
X41000000Y-94500000D01*
X41500000Y-99700000D02*
X41500000Y-100700000D01*
X42000000Y-101200000D02*
X41500000Y-100700000D01*
X45000000Y-96700000D02*
X42500000Y-96700000D01*
X45000000Y-101200000D02*
X42000000Y-101200000D01*
X45500000Y-97200000D02*
X45000000Y-96700000D01*
X45500000Y-100700000D02*
X45000000Y-101200000D01*
X49500000Y-86000000D02*
X50500000Y-86000000D01*
X50500000Y-86000000D02*
X50500000Y-87000000D01*
X50500000Y-99000000D02*
X50500000Y-100000000D01*
X50500000Y-100000000D02*
X49500000Y-100000000D01*
X41000000Y-99200000D02*
G75*
G02*
X41500000Y-99700000I-1J-500001D01*
G01*
X42500000Y-96700000D02*
G75*
G02*
X41000000Y-95200000I1J1500001D01*
G01*
D13*
%TO.C,D4*%
X91880000Y-30090000D02*
X94120000Y-30090000D01*
X91880000Y-30690000D02*
X94120000Y-30690000D01*
X91880000Y-30810000D02*
X94120000Y-30810000D01*
X91880000Y-30930000D02*
X94120000Y-30930000D01*
X91880000Y-34330000D02*
X91880000Y-30090000D01*
X93000000Y-29440000D02*
X93000000Y-30090000D01*
X93000000Y-34980000D02*
X93000000Y-34330000D01*
X94120000Y-30090000D02*
X94120000Y-34330000D01*
X94120000Y-34330000D02*
X91880000Y-34330000D01*
%TO.C,D5*%
X109880000Y-29820000D02*
X112120000Y-29820000D01*
X109880000Y-30420000D02*
X112120000Y-30420000D01*
X109880000Y-30540000D02*
X112120000Y-30540000D01*
X109880000Y-30660000D02*
X112120000Y-30660000D01*
X109880000Y-34060000D02*
X109880000Y-29820000D01*
X111000000Y-29170000D02*
X111000000Y-29820000D01*
X111000000Y-34710000D02*
X111000000Y-34060000D01*
X112120000Y-29820000D02*
X112120000Y-34060000D01*
X112120000Y-34060000D02*
X109880000Y-34060000D01*
D12*
%TO.C,SW16*%
X95000000Y-61950000D02*
X96000000Y-61950000D01*
X95000000Y-62950000D02*
X95000000Y-61950000D01*
X95000000Y-70450000D02*
X95000000Y-70950000D01*
X95000000Y-74550000D02*
X95000000Y-75150000D01*
X95000000Y-75150000D02*
X99500000Y-75150000D01*
X95000000Y-75950000D02*
X95000000Y-74950000D01*
X96000000Y-75950000D02*
X95000000Y-75950000D01*
X99500000Y-70450000D02*
X95000000Y-70450000D01*
X99500000Y-71150000D02*
X99500000Y-70450000D01*
X100000000Y-75650000D02*
X100000000Y-76650000D01*
X100500000Y-77150000D02*
X100000000Y-76650000D01*
X103500000Y-72650000D02*
X101000000Y-72650000D01*
X103500000Y-77150000D02*
X100500000Y-77150000D01*
X104000000Y-73150000D02*
X103500000Y-72650000D01*
X104000000Y-76650000D02*
X103500000Y-77150000D01*
X108000000Y-61950000D02*
X109000000Y-61950000D01*
X109000000Y-61950000D02*
X109000000Y-62950000D01*
X109000000Y-74950000D02*
X109000000Y-75950000D01*
X109000000Y-75950000D02*
X108000000Y-75950000D01*
X99500000Y-75150000D02*
G75*
G02*
X100000000Y-75650000I-1J-500001D01*
G01*
X101000000Y-72650000D02*
G75*
G02*
X99500000Y-71150000I1J1500001D01*
G01*
D13*
%TO.C,D24*%
X127880000Y-84440000D02*
X130120000Y-84440000D01*
X127880000Y-85040000D02*
X130120000Y-85040000D01*
X127880000Y-85160000D02*
X130120000Y-85160000D01*
X127880000Y-85280000D02*
X130120000Y-85280000D01*
X127880000Y-88680000D02*
X127880000Y-84440000D01*
X129000000Y-83790000D02*
X129000000Y-84440000D01*
X129000000Y-89330000D02*
X129000000Y-88680000D01*
X130120000Y-84440000D02*
X130120000Y-88680000D01*
X130120000Y-88680000D02*
X127880000Y-88680000D01*
%TO.C,D2*%
X55880000Y-37090000D02*
X58120000Y-37090000D01*
X55880000Y-37690000D02*
X58120000Y-37690000D01*
X55880000Y-37810000D02*
X58120000Y-37810000D01*
X55880000Y-37930000D02*
X58120000Y-37930000D01*
X55880000Y-41330000D02*
X55880000Y-37090000D01*
X57000000Y-36440000D02*
X57000000Y-37090000D01*
X57000000Y-41980000D02*
X57000000Y-41330000D01*
X58120000Y-37090000D02*
X58120000Y-41330000D01*
X58120000Y-41330000D02*
X55880000Y-41330000D01*
D12*
%TO.C,SW17*%
X113000000Y-65550000D02*
X114000000Y-65550000D01*
X113000000Y-66550000D02*
X113000000Y-65550000D01*
X113000000Y-74050000D02*
X113000000Y-74550000D01*
X113000000Y-78150000D02*
X113000000Y-78750000D01*
X113000000Y-78750000D02*
X117500000Y-78750000D01*
X113000000Y-79550000D02*
X113000000Y-78550000D01*
X114000000Y-79550000D02*
X113000000Y-79550000D01*
X117500000Y-74050000D02*
X113000000Y-74050000D01*
X117500000Y-74750000D02*
X117500000Y-74050000D01*
X118000000Y-79250000D02*
X118000000Y-80250000D01*
X118500000Y-80750000D02*
X118000000Y-80250000D01*
X121500000Y-76250000D02*
X119000000Y-76250000D01*
X121500000Y-80750000D02*
X118500000Y-80750000D01*
X122000000Y-76750000D02*
X121500000Y-76250000D01*
X122000000Y-80250000D02*
X121500000Y-80750000D01*
X126000000Y-65550000D02*
X127000000Y-65550000D01*
X127000000Y-65550000D02*
X127000000Y-66550000D01*
X127000000Y-78550000D02*
X127000000Y-79550000D01*
X127000000Y-79550000D02*
X126000000Y-79550000D01*
X117500000Y-78750000D02*
G75*
G02*
X118000000Y-79250000I-1J-500001D01*
G01*
X119000000Y-76250000D02*
G75*
G02*
X117500000Y-74750000I1J1500001D01*
G01*
D13*
%TO.C,D8*%
X55880000Y-54090000D02*
X58120000Y-54090000D01*
X55880000Y-54690000D02*
X58120000Y-54690000D01*
X55880000Y-54810000D02*
X58120000Y-54810000D01*
X55880000Y-54930000D02*
X58120000Y-54930000D01*
X55880000Y-58330000D02*
X55880000Y-54090000D01*
X57000000Y-53440000D02*
X57000000Y-54090000D01*
X57000000Y-58980000D02*
X57000000Y-58330000D01*
X58120000Y-54090000D02*
X58120000Y-58330000D01*
X58120000Y-58330000D02*
X55880000Y-58330000D01*
D12*
%TO.C,SW24*%
X131000000Y-86000000D02*
X132000000Y-86000000D01*
X131000000Y-87000000D02*
X131000000Y-86000000D01*
X131000000Y-94500000D02*
X131000000Y-95000000D01*
X131000000Y-98600000D02*
X131000000Y-99200000D01*
X131000000Y-99200000D02*
X135500000Y-99200000D01*
X131000000Y-100000000D02*
X131000000Y-99000000D01*
X132000000Y-100000000D02*
X131000000Y-100000000D01*
X135500000Y-94500000D02*
X131000000Y-94500000D01*
X135500000Y-95200000D02*
X135500000Y-94500000D01*
X136000000Y-99700000D02*
X136000000Y-100700000D01*
X136500000Y-101200000D02*
X136000000Y-100700000D01*
X139500000Y-96700000D02*
X137000000Y-96700000D01*
X139500000Y-101200000D02*
X136500000Y-101200000D01*
X140000000Y-97200000D02*
X139500000Y-96700000D01*
X140000000Y-100700000D02*
X139500000Y-101200000D01*
X144000000Y-86000000D02*
X145000000Y-86000000D01*
X145000000Y-86000000D02*
X145000000Y-87000000D01*
X145000000Y-99000000D02*
X145000000Y-100000000D01*
X145000000Y-100000000D02*
X144000000Y-100000000D01*
X135500000Y-99200000D02*
G75*
G02*
X136000000Y-99700000I-1J-500001D01*
G01*
X137000000Y-96700000D02*
G75*
G02*
X135500000Y-95200000I1J1500001D01*
G01*
D13*
%TO.C,D29*%
X133683169Y-125950911D02*
X135267088Y-124366992D01*
X134015509Y-124699332D02*
X134475128Y-125158951D01*
X134107433Y-126375175D02*
X135691352Y-124791256D01*
X134192286Y-126460028D02*
X135776205Y-124876109D01*
X134277139Y-126544881D02*
X135861058Y-124960962D01*
X135267088Y-124366992D02*
X138265221Y-127365125D01*
X136681302Y-128949044D02*
X133683169Y-125950911D01*
X137932881Y-128616704D02*
X137473261Y-128157084D01*
X138265221Y-127365125D02*
X136681302Y-128949044D01*
%TO.C,D13*%
X31380000Y-71090000D02*
X33620000Y-71090000D01*
X31380000Y-71690000D02*
X33620000Y-71690000D01*
X31380000Y-71810000D02*
X33620000Y-71810000D01*
X31380000Y-71930000D02*
X33620000Y-71930000D01*
X31380000Y-75330000D02*
X31380000Y-71090000D01*
X32500000Y-70440000D02*
X32500000Y-71090000D01*
X32500000Y-75980000D02*
X32500000Y-75330000D01*
X33620000Y-71090000D02*
X33620000Y-75330000D01*
X33620000Y-75330000D02*
X31380000Y-75330000D01*
%TO.C,D12*%
X127880000Y-50430000D02*
X130120000Y-50430000D01*
X127880000Y-51030000D02*
X130120000Y-51030000D01*
X127880000Y-51150000D02*
X130120000Y-51150000D01*
X127880000Y-51270000D02*
X130120000Y-51270000D01*
X127880000Y-54670000D02*
X127880000Y-50430000D01*
X129000000Y-49780000D02*
X129000000Y-50430000D01*
X129000000Y-55320000D02*
X129000000Y-54670000D01*
X130120000Y-50430000D02*
X130120000Y-54670000D01*
X130120000Y-54670000D02*
X127880000Y-54670000D01*
D12*
%TO.C,SW12*%
X131000000Y-51950000D02*
X132000000Y-51950000D01*
X131000000Y-52950000D02*
X131000000Y-51950000D01*
X131000000Y-60450000D02*
X131000000Y-60950000D01*
X131000000Y-64550000D02*
X131000000Y-65150000D01*
X131000000Y-65150000D02*
X135500000Y-65150000D01*
X131000000Y-65950000D02*
X131000000Y-64950000D01*
X132000000Y-65950000D02*
X131000000Y-65950000D01*
X135500000Y-60450000D02*
X131000000Y-60450000D01*
X135500000Y-61150000D02*
X135500000Y-60450000D01*
X136000000Y-65650000D02*
X136000000Y-66650000D01*
X136500000Y-67150000D02*
X136000000Y-66650000D01*
X139500000Y-62650000D02*
X137000000Y-62650000D01*
X139500000Y-67150000D02*
X136500000Y-67150000D01*
X140000000Y-63150000D02*
X139500000Y-62650000D01*
X140000000Y-66650000D02*
X139500000Y-67150000D01*
X144000000Y-51950000D02*
X145000000Y-51950000D01*
X145000000Y-51950000D02*
X145000000Y-52950000D01*
X145000000Y-64950000D02*
X145000000Y-65950000D01*
X145000000Y-65950000D02*
X144000000Y-65950000D01*
X135500000Y-65150000D02*
G75*
G02*
X136000000Y-65650000I-1J-500001D01*
G01*
X137000000Y-62650000D02*
G75*
G02*
X135500000Y-61150000I1J1500001D01*
G01*
D14*
%TO.C,U1*%
X149730000Y-35250000D02*
X149730000Y-68270000D01*
X149730000Y-68270000D02*
X167510000Y-68270000D01*
X167510000Y-35250000D02*
X149730000Y-35250000D01*
X167510000Y-68270000D02*
X167510000Y-35250000D01*
D12*
%TO.C,SW8*%
X59000000Y-51950000D02*
X60000000Y-51950000D01*
X59000000Y-52950000D02*
X59000000Y-51950000D01*
X59000000Y-60450000D02*
X59000000Y-60950000D01*
X59000000Y-64550000D02*
X59000000Y-65150000D01*
X59000000Y-65150000D02*
X63500000Y-65150000D01*
X59000000Y-65950000D02*
X59000000Y-64950000D01*
X60000000Y-65950000D02*
X59000000Y-65950000D01*
X63500000Y-60450000D02*
X59000000Y-60450000D01*
X63500000Y-61150000D02*
X63500000Y-60450000D01*
X64000000Y-65650000D02*
X64000000Y-66650000D01*
X64500000Y-67150000D02*
X64000000Y-66650000D01*
X67500000Y-62650000D02*
X65000000Y-62650000D01*
X67500000Y-67150000D02*
X64500000Y-67150000D01*
X68000000Y-63150000D02*
X67500000Y-62650000D01*
X68000000Y-66650000D02*
X67500000Y-67150000D01*
X72000000Y-51950000D02*
X73000000Y-51950000D01*
X73000000Y-51950000D02*
X73000000Y-52950000D01*
X73000000Y-64950000D02*
X73000000Y-65950000D01*
X73000000Y-65950000D02*
X72000000Y-65950000D01*
X63500000Y-65150000D02*
G75*
G02*
X64000000Y-65650000I-1J-500001D01*
G01*
X65000000Y-62650000D02*
G75*
G02*
X63500000Y-61150000I1J1500001D01*
G01*
%TO.C,SW9*%
X77000000Y-48550000D02*
X78000000Y-48550000D01*
X77000000Y-49550000D02*
X77000000Y-48550000D01*
X77000000Y-57050000D02*
X77000000Y-57550000D01*
X77000000Y-61150000D02*
X77000000Y-61750000D01*
X77000000Y-61750000D02*
X81500000Y-61750000D01*
X77000000Y-62550000D02*
X77000000Y-61550000D01*
X78000000Y-62550000D02*
X77000000Y-62550000D01*
X81500000Y-57050000D02*
X77000000Y-57050000D01*
X81500000Y-57750000D02*
X81500000Y-57050000D01*
X82000000Y-62250000D02*
X82000000Y-63250000D01*
X82500000Y-63750000D02*
X82000000Y-63250000D01*
X85500000Y-59250000D02*
X83000000Y-59250000D01*
X85500000Y-63750000D02*
X82500000Y-63750000D01*
X86000000Y-59750000D02*
X85500000Y-59250000D01*
X86000000Y-63250000D02*
X85500000Y-63750000D01*
X90000000Y-48550000D02*
X91000000Y-48550000D01*
X91000000Y-48550000D02*
X91000000Y-49550000D01*
X91000000Y-61550000D02*
X91000000Y-62550000D01*
X91000000Y-62550000D02*
X90000000Y-62550000D01*
X81500000Y-61750000D02*
G75*
G02*
X82000000Y-62250000I-1J-500001D01*
G01*
X83000000Y-59250000D02*
G75*
G02*
X81500000Y-57750000I1J1500001D01*
G01*
D13*
%TO.C,D9*%
X73880000Y-50690000D02*
X76120000Y-50690000D01*
X73880000Y-51290000D02*
X76120000Y-51290000D01*
X73880000Y-51410000D02*
X76120000Y-51410000D01*
X73880000Y-51530000D02*
X76120000Y-51530000D01*
X73880000Y-54930000D02*
X73880000Y-50690000D01*
X75000000Y-50040000D02*
X75000000Y-50690000D01*
X75000000Y-55580000D02*
X75000000Y-54930000D01*
X76120000Y-50690000D02*
X76120000Y-54930000D01*
X76120000Y-54930000D02*
X73880000Y-54930000D01*
D12*
%TO.C,SW28*%
X113924137Y-114410408D02*
X114306821Y-113486528D01*
X114230284Y-113671304D02*
X118387742Y-115393380D01*
X114459894Y-113116976D02*
X114230284Y-113671304D01*
X114848017Y-114793091D02*
X113924137Y-114410408D01*
X116028896Y-109329070D02*
X115837554Y-109791010D01*
X118546255Y-117623822D02*
X118275657Y-116970541D01*
X118658340Y-116046661D02*
X118275657Y-116970541D01*
X118899022Y-102399974D02*
X119281705Y-101476094D01*
X119281705Y-101476094D02*
X120205585Y-101858778D01*
X119918476Y-111697860D02*
X120186354Y-111051146D01*
X120186354Y-111051146D02*
X116028896Y-109329070D01*
X121317893Y-118771872D02*
X118546255Y-117623822D01*
X121971175Y-118501274D02*
X121317893Y-118771872D01*
X123039969Y-114614413D02*
X120730270Y-113657706D01*
X123310567Y-115267696D02*
X123039969Y-114614413D01*
X126858451Y-119767976D02*
X125934571Y-119385292D01*
X127241134Y-118844096D02*
X126858451Y-119767976D01*
X131292139Y-106450979D02*
X132216019Y-106833662D01*
X132216019Y-106833662D02*
X131833335Y-107757542D01*
X118387742Y-115393380D02*
G75*
G02*
X118658340Y-116046661I-191343J-461940D01*
G01*
X120730270Y-113657706D02*
G75*
G02*
X119918476Y-111697860I574026J1385820D01*
G01*
D13*
%TO.C,D15*%
X73880000Y-67690000D02*
X76120000Y-67690000D01*
X73880000Y-68290000D02*
X76120000Y-68290000D01*
X73880000Y-68410000D02*
X76120000Y-68410000D01*
X73880000Y-68530000D02*
X76120000Y-68530000D01*
X73880000Y-71930000D02*
X73880000Y-67690000D01*
X75000000Y-67040000D02*
X75000000Y-67690000D01*
X75000000Y-72580000D02*
X75000000Y-71930000D01*
X76120000Y-67690000D02*
X76120000Y-71930000D01*
X76120000Y-71930000D02*
X73880000Y-71930000D01*
D12*
%TO.C,SW5*%
X113000000Y-31500000D02*
X114000000Y-31500000D01*
X113000000Y-32500000D02*
X113000000Y-31500000D01*
X113000000Y-40000000D02*
X113000000Y-40500000D01*
X113000000Y-44100000D02*
X113000000Y-44700000D01*
X113000000Y-44700000D02*
X117500000Y-44700000D01*
X113000000Y-45500000D02*
X113000000Y-44500000D01*
X114000000Y-45500000D02*
X113000000Y-45500000D01*
X117500000Y-40000000D02*
X113000000Y-40000000D01*
X117500000Y-40700000D02*
X117500000Y-40000000D01*
X118000000Y-45200000D02*
X118000000Y-46200000D01*
X118500000Y-46700000D02*
X118000000Y-46200000D01*
X121500000Y-42200000D02*
X119000000Y-42200000D01*
X121500000Y-46700000D02*
X118500000Y-46700000D01*
X122000000Y-42700000D02*
X121500000Y-42200000D01*
X122000000Y-46200000D02*
X121500000Y-46700000D01*
X126000000Y-31500000D02*
X127000000Y-31500000D01*
X127000000Y-31500000D02*
X127000000Y-32500000D01*
X127000000Y-44500000D02*
X127000000Y-45500000D01*
X127000000Y-45500000D02*
X126000000Y-45500000D01*
X117500000Y-44700000D02*
G75*
G02*
X118000000Y-45200000I-1J-500001D01*
G01*
X119000000Y-42200000D02*
G75*
G02*
X117500000Y-40700000I1J1500001D01*
G01*
%TO.C,SW11*%
X113000000Y-48550000D02*
X114000000Y-48550000D01*
X113000000Y-49550000D02*
X113000000Y-48550000D01*
X113000000Y-57050000D02*
X113000000Y-57550000D01*
X113000000Y-61150000D02*
X113000000Y-61750000D01*
X113000000Y-61750000D02*
X117500000Y-61750000D01*
X113000000Y-62550000D02*
X113000000Y-61550000D01*
X114000000Y-62550000D02*
X113000000Y-62550000D01*
X117500000Y-57050000D02*
X113000000Y-57050000D01*
X117500000Y-57750000D02*
X117500000Y-57050000D01*
X118000000Y-62250000D02*
X118000000Y-63250000D01*
X118500000Y-63750000D02*
X118000000Y-63250000D01*
X121500000Y-59250000D02*
X119000000Y-59250000D01*
X121500000Y-63750000D02*
X118500000Y-63750000D01*
X122000000Y-59750000D02*
X121500000Y-59250000D01*
X122000000Y-63250000D02*
X121500000Y-63750000D01*
X126000000Y-48550000D02*
X127000000Y-48550000D01*
X127000000Y-48550000D02*
X127000000Y-49550000D01*
X127000000Y-61550000D02*
X127000000Y-62550000D01*
X127000000Y-62550000D02*
X126000000Y-62550000D01*
X117500000Y-61750000D02*
G75*
G02*
X118000000Y-62250000I-1J-500001D01*
G01*
X119000000Y-59250000D02*
G75*
G02*
X117500000Y-57750000I1J1500001D01*
G01*
%TO.C,SW7*%
X36500000Y-51950000D02*
X37500000Y-51950000D01*
X36500000Y-52950000D02*
X36500000Y-51950000D01*
X36500000Y-60450000D02*
X36500000Y-60950000D01*
X36500000Y-64550000D02*
X36500000Y-65150000D01*
X36500000Y-65150000D02*
X41000000Y-65150000D01*
X36500000Y-65950000D02*
X36500000Y-64950000D01*
X37500000Y-65950000D02*
X36500000Y-65950000D01*
X41000000Y-60450000D02*
X36500000Y-60450000D01*
X41000000Y-61150000D02*
X41000000Y-60450000D01*
X41500000Y-65650000D02*
X41500000Y-66650000D01*
X42000000Y-67150000D02*
X41500000Y-66650000D01*
X45000000Y-62650000D02*
X42500000Y-62650000D01*
X45000000Y-67150000D02*
X42000000Y-67150000D01*
X45500000Y-63150000D02*
X45000000Y-62650000D01*
X45500000Y-66650000D02*
X45000000Y-67150000D01*
X49500000Y-51950000D02*
X50500000Y-51950000D01*
X50500000Y-51950000D02*
X50500000Y-52950000D01*
X50500000Y-64950000D02*
X50500000Y-65950000D01*
X50500000Y-65950000D02*
X49500000Y-65950000D01*
X41000000Y-65150000D02*
G75*
G02*
X41500000Y-65650000I-1J-500001D01*
G01*
X42500000Y-62650000D02*
G75*
G02*
X41000000Y-61150000I1J1500001D01*
G01*
%TO.C,SW2*%
X59000000Y-34900000D02*
X60000000Y-34900000D01*
X59000000Y-35900000D02*
X59000000Y-34900000D01*
X59000000Y-43400000D02*
X59000000Y-43900000D01*
X59000000Y-47500000D02*
X59000000Y-48100000D01*
X59000000Y-48100000D02*
X63500000Y-48100000D01*
X59000000Y-48900000D02*
X59000000Y-47900000D01*
X60000000Y-48900000D02*
X59000000Y-48900000D01*
X63500000Y-43400000D02*
X59000000Y-43400000D01*
X63500000Y-44100000D02*
X63500000Y-43400000D01*
X64000000Y-48600000D02*
X64000000Y-49600000D01*
X64500000Y-50100000D02*
X64000000Y-49600000D01*
X67500000Y-45600000D02*
X65000000Y-45600000D01*
X67500000Y-50100000D02*
X64500000Y-50100000D01*
X68000000Y-46100000D02*
X67500000Y-45600000D01*
X68000000Y-49600000D02*
X67500000Y-50100000D01*
X72000000Y-34900000D02*
X73000000Y-34900000D01*
X73000000Y-34900000D02*
X73000000Y-35900000D01*
X73000000Y-47900000D02*
X73000000Y-48900000D01*
X73000000Y-48900000D02*
X72000000Y-48900000D01*
X63500000Y-48100000D02*
G75*
G02*
X64000000Y-48600000I-1J-500001D01*
G01*
X65000000Y-45600000D02*
G75*
G02*
X63500000Y-44100000I1J1500001D01*
G01*
%TO.C,SW3*%
X77000000Y-31500000D02*
X78000000Y-31500000D01*
X77000000Y-32500000D02*
X77000000Y-31500000D01*
X77000000Y-40000000D02*
X77000000Y-40500000D01*
X77000000Y-44100000D02*
X77000000Y-44700000D01*
X77000000Y-44700000D02*
X81500000Y-44700000D01*
X77000000Y-45500000D02*
X77000000Y-44500000D01*
X78000000Y-45500000D02*
X77000000Y-45500000D01*
X81500000Y-40000000D02*
X77000000Y-40000000D01*
X81500000Y-40700000D02*
X81500000Y-40000000D01*
X82000000Y-45200000D02*
X82000000Y-46200000D01*
X82500000Y-46700000D02*
X82000000Y-46200000D01*
X85500000Y-42200000D02*
X83000000Y-42200000D01*
X85500000Y-46700000D02*
X82500000Y-46700000D01*
X86000000Y-42700000D02*
X85500000Y-42200000D01*
X86000000Y-46200000D02*
X85500000Y-46700000D01*
X90000000Y-31500000D02*
X91000000Y-31500000D01*
X91000000Y-31500000D02*
X91000000Y-32500000D01*
X91000000Y-44500000D02*
X91000000Y-45500000D01*
X91000000Y-45500000D02*
X90000000Y-45500000D01*
X81500000Y-44700000D02*
G75*
G02*
X82000000Y-45200000I-1J-500001D01*
G01*
X83000000Y-42200000D02*
G75*
G02*
X81500000Y-40700000I1J1500001D01*
G01*
%TO.C,SW15*%
X77000000Y-65550000D02*
X78000000Y-65550000D01*
X77000000Y-66550000D02*
X77000000Y-65550000D01*
X77000000Y-74050000D02*
X77000000Y-74550000D01*
X77000000Y-78150000D02*
X77000000Y-78750000D01*
X77000000Y-78750000D02*
X81500000Y-78750000D01*
X77000000Y-79550000D02*
X77000000Y-78550000D01*
X78000000Y-79550000D02*
X77000000Y-79550000D01*
X81500000Y-74050000D02*
X77000000Y-74050000D01*
X81500000Y-74750000D02*
X81500000Y-74050000D01*
X82000000Y-79250000D02*
X82000000Y-80250000D01*
X82500000Y-80750000D02*
X82000000Y-80250000D01*
X85500000Y-76250000D02*
X83000000Y-76250000D01*
X85500000Y-80750000D02*
X82500000Y-80750000D01*
X86000000Y-76750000D02*
X85500000Y-76250000D01*
X86000000Y-80250000D02*
X85500000Y-80750000D01*
X90000000Y-65550000D02*
X91000000Y-65550000D01*
X91000000Y-65550000D02*
X91000000Y-66550000D01*
X91000000Y-78550000D02*
X91000000Y-79550000D01*
X91000000Y-79550000D02*
X90000000Y-79550000D01*
X81500000Y-78750000D02*
G75*
G02*
X82000000Y-79250000I-1J-500001D01*
G01*
X83000000Y-76250000D02*
G75*
G02*
X81500000Y-74750000I1J1500001D01*
G01*
%TO.C,SW4*%
X95000000Y-27900000D02*
X96000000Y-27900000D01*
X95000000Y-28900000D02*
X95000000Y-27900000D01*
X95000000Y-36400000D02*
X95000000Y-36900000D01*
X95000000Y-40500000D02*
X95000000Y-41100000D01*
X95000000Y-41100000D02*
X99500000Y-41100000D01*
X95000000Y-41900000D02*
X95000000Y-40900000D01*
X96000000Y-41900000D02*
X95000000Y-41900000D01*
X99500000Y-36400000D02*
X95000000Y-36400000D01*
X99500000Y-37100000D02*
X99500000Y-36400000D01*
X100000000Y-41600000D02*
X100000000Y-42600000D01*
X100500000Y-43100000D02*
X100000000Y-42600000D01*
X103500000Y-38600000D02*
X101000000Y-38600000D01*
X103500000Y-43100000D02*
X100500000Y-43100000D01*
X104000000Y-39100000D02*
X103500000Y-38600000D01*
X104000000Y-42600000D02*
X103500000Y-43100000D01*
X108000000Y-27900000D02*
X109000000Y-27900000D01*
X109000000Y-27900000D02*
X109000000Y-28900000D01*
X109000000Y-40900000D02*
X109000000Y-41900000D01*
X109000000Y-41900000D02*
X108000000Y-41900000D01*
X99500000Y-41100000D02*
G75*
G02*
X100000000Y-41600000I-1J-500001D01*
G01*
X101000000Y-38600000D02*
G75*
G02*
X99500000Y-37100000I1J1500001D01*
G01*
D13*
%TO.C,D16*%
X91880000Y-64090000D02*
X94120000Y-64090000D01*
X91880000Y-64690000D02*
X94120000Y-64690000D01*
X91880000Y-64810000D02*
X94120000Y-64810000D01*
X91880000Y-64930000D02*
X94120000Y-64930000D01*
X91880000Y-68330000D02*
X91880000Y-64090000D01*
X93000000Y-63440000D02*
X93000000Y-64090000D01*
X93000000Y-68980000D02*
X93000000Y-68330000D01*
X94120000Y-64090000D02*
X94120000Y-68330000D01*
X94120000Y-68330000D02*
X91880000Y-68330000D01*
D12*
%TO.C,SW22*%
X95000000Y-79000000D02*
X96000000Y-79000000D01*
X95000000Y-80000000D02*
X95000000Y-79000000D01*
X95000000Y-87500000D02*
X95000000Y-88000000D01*
X95000000Y-91600000D02*
X95000000Y-92200000D01*
X95000000Y-92200000D02*
X99500000Y-92200000D01*
X95000000Y-93000000D02*
X95000000Y-92000000D01*
X96000000Y-93000000D02*
X95000000Y-93000000D01*
X99500000Y-87500000D02*
X95000000Y-87500000D01*
X99500000Y-88200000D02*
X99500000Y-87500000D01*
X100000000Y-92700000D02*
X100000000Y-93700000D01*
X100500000Y-94200000D02*
X100000000Y-93700000D01*
X103500000Y-89700000D02*
X101000000Y-89700000D01*
X103500000Y-94200000D02*
X100500000Y-94200000D01*
X104000000Y-90200000D02*
X103500000Y-89700000D01*
X104000000Y-93700000D02*
X103500000Y-94200000D01*
X108000000Y-79000000D02*
X109000000Y-79000000D01*
X109000000Y-79000000D02*
X109000000Y-80000000D01*
X109000000Y-92000000D02*
X109000000Y-93000000D01*
X109000000Y-93000000D02*
X108000000Y-93000000D01*
X99500000Y-92200000D02*
G75*
G02*
X100000000Y-92700000I-1J-500001D01*
G01*
X101000000Y-89700000D02*
G75*
G02*
X99500000Y-88200000I1J1500001D01*
G01*
%TO.C,SW1*%
X36500000Y-34900000D02*
X37500000Y-34900000D01*
X36500000Y-35900000D02*
X36500000Y-34900000D01*
X36500000Y-43400000D02*
X36500000Y-43900000D01*
X36500000Y-47500000D02*
X36500000Y-48100000D01*
X36500000Y-48100000D02*
X41000000Y-48100000D01*
X36500000Y-48900000D02*
X36500000Y-47900000D01*
X37500000Y-48900000D02*
X36500000Y-48900000D01*
X41000000Y-43400000D02*
X36500000Y-43400000D01*
X41000000Y-44100000D02*
X41000000Y-43400000D01*
X41500000Y-48600000D02*
X41500000Y-49600000D01*
X42000000Y-50100000D02*
X41500000Y-49600000D01*
X45000000Y-45600000D02*
X42500000Y-45600000D01*
X45000000Y-50100000D02*
X42000000Y-50100000D01*
X45500000Y-46100000D02*
X45000000Y-45600000D01*
X45500000Y-49600000D02*
X45000000Y-50100000D01*
X49500000Y-34900000D02*
X50500000Y-34900000D01*
X50500000Y-34900000D02*
X50500000Y-35900000D01*
X50500000Y-47900000D02*
X50500000Y-48900000D01*
X50500000Y-48900000D02*
X49500000Y-48900000D01*
X41000000Y-48100000D02*
G75*
G02*
X41500000Y-48600000I-1J-500001D01*
G01*
X42500000Y-45600000D02*
G75*
G02*
X41000000Y-44100000I1J1500001D01*
G01*
D13*
%TO.C,D28*%
X113695942Y-106050000D02*
X115318520Y-102132751D01*
X114481943Y-107079127D02*
X114730687Y-106478606D01*
X114997066Y-102908810D02*
X117066556Y-103766021D01*
X115042988Y-102797944D02*
X117112478Y-103655155D01*
X115088910Y-102687079D02*
X117158400Y-103544290D01*
X115318520Y-102132751D02*
X117388010Y-102989962D01*
X115765432Y-106907211D02*
X113695942Y-106050000D01*
X116602009Y-101960835D02*
X116353265Y-102561356D01*
X117388010Y-102989962D02*
X115765432Y-106907211D01*
D12*
%TO.C,SW14*%
X59000000Y-68950000D02*
X60000000Y-68950000D01*
X59000000Y-69950000D02*
X59000000Y-68950000D01*
X59000000Y-77450000D02*
X59000000Y-77950000D01*
X59000000Y-81550000D02*
X59000000Y-82150000D01*
X59000000Y-82150000D02*
X63500000Y-82150000D01*
X59000000Y-82950000D02*
X59000000Y-81950000D01*
X60000000Y-82950000D02*
X59000000Y-82950000D01*
X63500000Y-77450000D02*
X59000000Y-77450000D01*
X63500000Y-78150000D02*
X63500000Y-77450000D01*
X64000000Y-82650000D02*
X64000000Y-83650000D01*
X64500000Y-84150000D02*
X64000000Y-83650000D01*
X67500000Y-79650000D02*
X65000000Y-79650000D01*
X67500000Y-84150000D02*
X64500000Y-84150000D01*
X68000000Y-80150000D02*
X67500000Y-79650000D01*
X68000000Y-83650000D02*
X67500000Y-84150000D01*
X72000000Y-68950000D02*
X73000000Y-68950000D01*
X73000000Y-68950000D02*
X73000000Y-69950000D01*
X73000000Y-81950000D02*
X73000000Y-82950000D01*
X73000000Y-82950000D02*
X72000000Y-82950000D01*
X63500000Y-82150000D02*
G75*
G02*
X64000000Y-82650000I-1J-500001D01*
G01*
X65000000Y-79650000D02*
G75*
G02*
X63500000Y-78150000I1J1500001D01*
G01*
%TO.C,SW29*%
X133880623Y-118763941D02*
X134587730Y-118056834D01*
X134587730Y-119471048D02*
X133880623Y-118763941D01*
X139891031Y-124774349D02*
X140244584Y-125127902D01*
X142790169Y-127673486D02*
X143214433Y-128097751D01*
X143073011Y-109571553D02*
X143780118Y-108864446D01*
X143073011Y-121592368D02*
X139891031Y-124774349D01*
X143214433Y-128097751D02*
X146396413Y-124915770D01*
X143567986Y-122087343D02*
X143073011Y-121592368D01*
X143780118Y-108864446D02*
X144487225Y-109571553D01*
X143780118Y-128663436D02*
X143073011Y-127956329D01*
X144487225Y-127956329D02*
X143780118Y-128663436D01*
X147103520Y-124915770D02*
X147810627Y-125622877D01*
X147457073Y-120319576D02*
X145689306Y-122087343D01*
X148164180Y-120319576D02*
X147457073Y-120319576D01*
X148517733Y-125622877D02*
X147810627Y-125622877D01*
X150639054Y-122794450D02*
X150639054Y-123501556D01*
X150639054Y-123501556D02*
X148517733Y-125622877D01*
X152972506Y-118056834D02*
X153679613Y-118763941D01*
X153679613Y-118763941D02*
X152972506Y-119471048D01*
X145689306Y-122087343D02*
G75*
G02*
X143567986Y-122087343I-1060660J1060662D01*
G01*
X146396413Y-124915770D02*
G75*
G02*
X147103520Y-124915770I353553J-353555D01*
G01*
%TO.C,SW30*%
X145941569Y-130832692D02*
X146648676Y-130125585D01*
X146648676Y-131539799D02*
X145941569Y-130832692D01*
X151951977Y-136843100D02*
X152305530Y-137196653D01*
X154851115Y-139742237D02*
X155275379Y-140166502D01*
X155133957Y-121640304D02*
X155841064Y-120933197D01*
X155133957Y-133661119D02*
X151951977Y-136843100D01*
X155275379Y-140166502D02*
X158457359Y-136984521D01*
X155628932Y-134156094D02*
X155133957Y-133661119D01*
X155841064Y-120933197D02*
X156548171Y-121640304D01*
X155841064Y-140732187D02*
X155133957Y-140025080D01*
X156548171Y-140025080D02*
X155841064Y-140732187D01*
X159164466Y-136984521D02*
X159871573Y-137691628D01*
X159518019Y-132388327D02*
X157750252Y-134156094D01*
X160225126Y-132388327D02*
X159518019Y-132388327D01*
X160578679Y-137691628D02*
X159871573Y-137691628D01*
X162700000Y-134863201D02*
X162700000Y-135570307D01*
X162700000Y-135570307D02*
X160578679Y-137691628D01*
X165033452Y-130125585D02*
X165740559Y-130832692D01*
X165740559Y-130832692D02*
X165033452Y-131539799D01*
X157750252Y-134156094D02*
G75*
G02*
X155628932Y-134156094I-1060660J1060662D01*
G01*
X158457359Y-136984521D02*
G75*
G02*
X159164466Y-136984521I353553J-353555D01*
G01*
D13*
%TO.C,D23*%
X109880000Y-80820000D02*
X112120000Y-80820000D01*
X109880000Y-81420000D02*
X112120000Y-81420000D01*
X109880000Y-81540000D02*
X112120000Y-81540000D01*
X109880000Y-81660000D02*
X112120000Y-81660000D01*
X109880000Y-85060000D02*
X109880000Y-80820000D01*
X111000000Y-80170000D02*
X111000000Y-80820000D01*
X111000000Y-85710000D02*
X111000000Y-85060000D01*
X112120000Y-80820000D02*
X112120000Y-85060000D01*
X112120000Y-85060000D02*
X109880000Y-85060000D01*
%TO.C,D30*%
X145739093Y-138006835D02*
X147323012Y-136422916D01*
X146071433Y-136755256D02*
X146531052Y-137214875D01*
X146163357Y-138431099D02*
X147747276Y-136847180D01*
X146248210Y-138515952D02*
X147832129Y-136932033D01*
X146333063Y-138600805D02*
X147916982Y-137016886D01*
X147323012Y-136422916D02*
X150321145Y-139421049D01*
X148737226Y-141004968D02*
X145739093Y-138006835D01*
X149988805Y-140672628D02*
X149529185Y-140213008D01*
X150321145Y-139421049D02*
X148737226Y-141004968D01*
%TO.C,D27*%
X91880000Y-101690000D02*
X94120000Y-101690000D01*
X91880000Y-102290000D02*
X94120000Y-102290000D01*
X91880000Y-102410000D02*
X94120000Y-102410000D01*
X91880000Y-102530000D02*
X94120000Y-102530000D01*
X91880000Y-105930000D02*
X91880000Y-101690000D01*
X93000000Y-101040000D02*
X93000000Y-101690000D01*
X93000000Y-106580000D02*
X93000000Y-105930000D01*
X94120000Y-101690000D02*
X94120000Y-105930000D01*
X94120000Y-105930000D02*
X91880000Y-105930000D01*
%TO.C,D7*%
X31380000Y-54090000D02*
X33620000Y-54090000D01*
X31380000Y-54690000D02*
X33620000Y-54690000D01*
X31380000Y-54810000D02*
X33620000Y-54810000D01*
X31380000Y-54930000D02*
X33620000Y-54930000D01*
X31380000Y-58330000D02*
X31380000Y-54090000D01*
X32500000Y-53440000D02*
X32500000Y-54090000D01*
X32500000Y-58980000D02*
X32500000Y-58330000D01*
X33620000Y-54090000D02*
X33620000Y-58330000D01*
X33620000Y-58330000D02*
X31380000Y-58330000D01*
%TO.C,D6*%
X127880000Y-33440000D02*
X130120000Y-33440000D01*
X127880000Y-34040000D02*
X130120000Y-34040000D01*
X127880000Y-34160000D02*
X130120000Y-34160000D01*
X127880000Y-34280000D02*
X130120000Y-34280000D01*
X127880000Y-37680000D02*
X127880000Y-33440000D01*
X129000000Y-32790000D02*
X129000000Y-33440000D01*
X129000000Y-38330000D02*
X129000000Y-37680000D01*
X130120000Y-33440000D02*
X130120000Y-37680000D01*
X130120000Y-37680000D02*
X127880000Y-37680000D01*
%TO.C,D3*%
X73880000Y-33690000D02*
X76120000Y-33690000D01*
X73880000Y-34290000D02*
X76120000Y-34290000D01*
X73880000Y-34410000D02*
X76120000Y-34410000D01*
X73880000Y-34530000D02*
X76120000Y-34530000D01*
X73880000Y-37930000D02*
X73880000Y-33690000D01*
X75000000Y-33040000D02*
X75000000Y-33690000D01*
X75000000Y-38580000D02*
X75000000Y-37930000D01*
X76120000Y-33690000D02*
X76120000Y-37930000D01*
X76120000Y-37930000D02*
X73880000Y-37930000D01*
%TO.C,D17*%
X109880000Y-63820000D02*
X112120000Y-63820000D01*
X109880000Y-64420000D02*
X112120000Y-64420000D01*
X109880000Y-64540000D02*
X112120000Y-64540000D01*
X109880000Y-64660000D02*
X112120000Y-64660000D01*
X109880000Y-68060000D02*
X109880000Y-63820000D01*
X111000000Y-63170000D02*
X111000000Y-63820000D01*
X111000000Y-68710000D02*
X111000000Y-68060000D01*
X112120000Y-63820000D02*
X112120000Y-68060000D01*
X112120000Y-68060000D02*
X109880000Y-68060000D01*
%TO.C,REF\u002A\u002A5*%
X152300000Y-48140000D02*
X152300000Y-50140000D01*
X152300000Y-50140000D02*
X155100000Y-50140000D01*
X155100000Y-48140000D02*
X152300000Y-48140000D01*
X155100000Y-50140000D02*
X155100000Y-48140000D01*
%TO.C,REF\u002A\u002A2*%
X152300000Y-40520000D02*
X152300000Y-42520000D01*
X152300000Y-42520000D02*
X155100000Y-42520000D01*
X155100000Y-40520000D02*
X152300000Y-40520000D01*
X155100000Y-42520000D02*
X155100000Y-40520000D01*
%TO.C,REF\u002A\u002A7*%
X152300000Y-53220000D02*
X152300000Y-55220000D01*
X152300000Y-55220000D02*
X155100000Y-55220000D01*
X155100000Y-53220000D02*
X152300000Y-53220000D01*
X155100000Y-55220000D02*
X155100000Y-53220000D01*
%TO.C,REF\u002A\u002A10*%
X162100000Y-43100000D02*
X162100000Y-45100000D01*
X162100000Y-45100000D02*
X164900000Y-45100000D01*
X164900000Y-43100000D02*
X162100000Y-43100000D01*
X164900000Y-45100000D02*
X164900000Y-43100000D01*
%TO.C,REF\u002A\u002A7*%
X162100000Y-50720000D02*
X162100000Y-52720000D01*
X162100000Y-52720000D02*
X164900000Y-52720000D01*
X164900000Y-50720000D02*
X162100000Y-50720000D01*
X164900000Y-52720000D02*
X164900000Y-50720000D01*
%TO.C,REF\u002A\u002A*%
X152300000Y-65920000D02*
X152300000Y-67920000D01*
X152300000Y-67920000D02*
X155100000Y-67920000D01*
X155100000Y-65920000D02*
X152300000Y-65920000D01*
X155100000Y-67920000D02*
X155100000Y-65920000D01*
%TO.C,REF\u002A\u002A1*%
X162100000Y-65960000D02*
X162100000Y-67960000D01*
X162100000Y-67960000D02*
X164900000Y-67960000D01*
X164900000Y-65960000D02*
X162100000Y-65960000D01*
X164900000Y-67960000D02*
X164900000Y-65960000D01*
%TO.C,REF\u002A\u002A5*%
X162100000Y-55800000D02*
X162100000Y-57800000D01*
X162100000Y-57800000D02*
X164900000Y-57800000D01*
X164900000Y-55800000D02*
X162100000Y-55800000D01*
X164900000Y-57800000D02*
X164900000Y-55800000D01*
%TO.C,REF\u002A\u002A8*%
X162100000Y-48180000D02*
X162100000Y-50180000D01*
X162100000Y-50180000D02*
X164900000Y-50180000D01*
X164900000Y-48180000D02*
X162100000Y-48180000D01*
X164900000Y-50180000D02*
X164900000Y-48180000D01*
D14*
%TO.C,SW25*%
X159231901Y-80816476D02*
X159540300Y-81663796D01*
X160787808Y-79239245D02*
X160503777Y-79342623D01*
X163606642Y-78213273D02*
X161914387Y-78829203D01*
X165528330Y-78524763D02*
X165836729Y-79372083D01*
X165670537Y-80229960D02*
X160219041Y-82214142D01*
D13*
%TO.C,REF\u002A\u002A11*%
X162100000Y-40560000D02*
X162100000Y-42560000D01*
X162100000Y-42560000D02*
X164900000Y-42560000D01*
X164900000Y-40560000D02*
X162100000Y-40560000D01*
X164900000Y-42560000D02*
X164900000Y-40560000D01*
%TO.C,REF\u002A\u002A*%
X162100000Y-38020000D02*
X162100000Y-40020000D01*
X162100000Y-40020000D02*
X164900000Y-40020000D01*
X164900000Y-38020000D02*
X162100000Y-38020000D01*
X164900000Y-40020000D02*
X164900000Y-38020000D01*
%TO.C,REF\u002A\u002A11*%
X152300000Y-63380000D02*
X152300000Y-65380000D01*
X152300000Y-65380000D02*
X155100000Y-65380000D01*
X155100000Y-63380000D02*
X152300000Y-63380000D01*
X155100000Y-65380000D02*
X155100000Y-63380000D01*
%TO.C,REF\u002A\u002A3*%
X162100000Y-60880000D02*
X162100000Y-62880000D01*
X162100000Y-62880000D02*
X164900000Y-62880000D01*
X164900000Y-60880000D02*
X162100000Y-60880000D01*
X164900000Y-62880000D02*
X164900000Y-60880000D01*
%TO.C,REF\u002A\u002A4*%
X152300000Y-45600000D02*
X152300000Y-47600000D01*
X152300000Y-47600000D02*
X155100000Y-47600000D01*
X155100000Y-45600000D02*
X152300000Y-45600000D01*
X155100000Y-47600000D02*
X155100000Y-45600000D01*
%TO.C,REF\u002A\u002A6*%
X152300000Y-50680000D02*
X152300000Y-52680000D01*
X152300000Y-52680000D02*
X155100000Y-52680000D01*
X155100000Y-50680000D02*
X152300000Y-50680000D01*
X155100000Y-52680000D02*
X155100000Y-50680000D01*
%TO.C,SW51*%
X150103698Y-83579533D02*
X150291809Y-84096364D01*
X151793676Y-85225810D02*
X150924460Y-85542179D01*
X154075540Y-80457821D02*
X149658985Y-82065315D01*
X154708191Y-81903636D02*
X154896302Y-82420467D01*
X155341015Y-83934685D02*
X154471799Y-84251052D01*
%TO.C,REF\u002A\u002A10*%
X152300000Y-60840000D02*
X152300000Y-62840000D01*
X152300000Y-62840000D02*
X155100000Y-62840000D01*
X155100000Y-60840000D02*
X152300000Y-60840000D01*
X155100000Y-62840000D02*
X155100000Y-60840000D01*
%TO.C,REF\u002A\u002A9*%
X152300000Y-58300000D02*
X152300000Y-60300000D01*
X152300000Y-60300000D02*
X155100000Y-60300000D01*
X155100000Y-58300000D02*
X152300000Y-58300000D01*
X155100000Y-60300000D02*
X155100000Y-58300000D01*
%TO.C,REF\u002A\u002A6*%
X162100000Y-53260000D02*
X162100000Y-55260000D01*
X162100000Y-55260000D02*
X164900000Y-55260000D01*
X164900000Y-53260000D02*
X162100000Y-53260000D01*
X164900000Y-55260000D02*
X164900000Y-53260000D01*
%TO.C,REF\u002A\u002A8*%
X152300000Y-55760000D02*
X152300000Y-57760000D01*
X152300000Y-57760000D02*
X155100000Y-57760000D01*
X155100000Y-55760000D02*
X152300000Y-55760000D01*
X155100000Y-57760000D02*
X155100000Y-55760000D01*
%TO.C,REF\u002A\u002A9*%
X162100000Y-45640000D02*
X162100000Y-47640000D01*
X162100000Y-47640000D02*
X164900000Y-47640000D01*
X164900000Y-45640000D02*
X162100000Y-45640000D01*
X164900000Y-47640000D02*
X164900000Y-45640000D01*
%TO.C,REF\u002A\u002A3*%
X152300000Y-43060000D02*
X152300000Y-45060000D01*
X152300000Y-45060000D02*
X155100000Y-45060000D01*
X155100000Y-43060000D02*
X152300000Y-43060000D01*
X155100000Y-45060000D02*
X155100000Y-43060000D01*
%TO.C,REF\u002A\u002A4*%
X162100000Y-58340000D02*
X162100000Y-60340000D01*
X162100000Y-60340000D02*
X164900000Y-60340000D01*
X164900000Y-58340000D02*
X162100000Y-58340000D01*
X164900000Y-60340000D02*
X164900000Y-58340000D01*
%TO.C,REF\u002A\u002A2*%
X162100000Y-63420000D02*
X162100000Y-65420000D01*
X162100000Y-65420000D02*
X164900000Y-65420000D01*
X164900000Y-63420000D02*
X162100000Y-63420000D01*
X164900000Y-65420000D02*
X164900000Y-63420000D01*
%TO.C,REF\u002A\u002A1*%
X152300000Y-37980000D02*
X152300000Y-39980000D01*
X152300000Y-39980000D02*
X155100000Y-39980000D01*
X155100000Y-37980000D02*
X152300000Y-37980000D01*
X155100000Y-39980000D02*
X155100000Y-37980000D01*
%TD*%
D15*
%TO.C,U1*%
X151000000Y-39060000D03*
X151000000Y-41600000D03*
X151000000Y-44140000D03*
X151000000Y-46680000D03*
X151000000Y-49220000D03*
X151000000Y-51760000D03*
X151000000Y-54300000D03*
X151000000Y-56840000D03*
X151000000Y-59380000D03*
X151000000Y-61920000D03*
X151000000Y-64460000D03*
X151000000Y-67000000D03*
X166240000Y-67000000D03*
X166240000Y-64460000D03*
X166240000Y-61920000D03*
X166240000Y-59380000D03*
X166240000Y-56840000D03*
X166240000Y-54300000D03*
X166240000Y-51760000D03*
X166240000Y-49220000D03*
X166240000Y-46680000D03*
X166240000Y-44140000D03*
X166240000Y-41600000D03*
X166240000Y-39060000D03*
%TD*%
M02*
